<svg width="537" height="728" viewBox="0 0 537 728" fill="none" xmlns="http://www.w3.org/2000/svg">
<path d="M257.127 707.623L217.717 712.797C164.384 719.798 110.944 700.679 74.1548 661.435C39.2419 624.193 23.2814 573.027 30.8284 522.54L33.7559 502.955L53.3948 405.884C56.4532 390.767 57.7527 375.347 57.2674 359.932L55.3595 299.325C53.7784 249.099 71.1617 200.119 104.051 162.128L159.934 97.5764C206.023 44.3388 279.991 24.7193 346.406 48.1158C404.126 68.4493 446.62 118.024 457.887 178.175L505.266 431.099C521.344 516.928 479.88 603.265 402.84 644.374L325.251 685.775C304.041 697.093 280.964 704.494 257.127 707.623Z" fill="#FF1493" stroke="#FF1493"/>
<path d="M167.121 317.799L170.67 317.764L185.045 339.736L184.826 317.625L188.297 317.59L188.572 345.435L185.14 345.469L170.65 323.615L170.867 345.61L167.396 345.644L167.121 317.799ZM203.326 345.913C201.792 345.929 200.425 345.695 199.224 345.213C198.023 344.731 197.002 344.039 196.161 343.137C195.32 342.235 194.672 341.124 194.217 339.802C193.762 338.48 193.527 337.001 193.511 335.363C193.494 333.725 193.714 332.241 194.169 330.91C194.624 329.579 195.275 328.442 196.124 327.498C196.973 326.553 197.993 325.828 199.184 325.322C200.401 324.79 201.75 324.517 203.232 324.502C204.74 324.487 206.094 324.721 207.295 325.203C208.496 325.685 209.517 326.39 210.358 327.318C211.225 328.22 211.886 329.318 212.341 330.614C212.795 331.909 213.031 333.376 213.047 335.014C213.063 336.678 212.844 338.175 212.389 339.506C211.96 340.836 211.322 341.973 210.473 342.918C209.65 343.862 208.63 344.6 207.414 345.132C206.196 345.638 204.834 345.899 203.326 345.913ZM203.337 343.105C204.429 343.094 205.363 342.89 206.139 342.493C206.916 342.095 207.547 341.543 208.034 340.836C208.547 340.129 208.916 339.293 209.141 338.329C209.365 337.338 209.471 336.258 209.46 335.088C209.448 333.944 209.321 332.893 209.077 331.933C208.834 330.973 208.449 330.158 207.922 329.487C207.421 328.79 206.779 328.251 205.995 327.868C205.211 327.486 204.274 327.3 203.182 327.311C202.09 327.322 201.156 327.526 200.379 327.924C199.629 328.321 198.998 328.873 198.485 329.58C197.997 330.261 197.642 331.084 197.417 332.048C197.193 333.012 197.086 334.079 197.098 335.249C197.109 336.419 197.237 337.484 197.48 338.444C197.724 339.403 198.096 340.232 198.597 340.929C199.098 341.626 199.74 342.166 200.524 342.548C201.308 342.93 202.245 343.116 203.337 343.105ZM218.692 327.665L215.572 327.696L215.545 325.005L218.665 324.974L218.611 319.475L222.004 319.442L222.058 324.941L227.401 324.888L227.427 327.579L222.084 327.631L222.201 339.448C222.211 340.436 222.44 341.227 222.887 341.82C223.335 342.414 224.014 342.706 224.924 342.697C225.496 342.692 225.99 342.648 226.405 342.566C226.846 342.483 227.248 342.375 227.611 342.242L228.222 344.849C227.703 345.036 227.133 345.185 226.51 345.295C225.913 345.431 225.199 345.503 224.367 345.511C223.223 345.522 222.298 345.362 221.593 345.031C220.888 344.7 220.324 344.225 219.902 343.605C219.48 342.985 219.187 342.247 219.022 341.39C218.884 340.534 218.809 339.598 218.799 338.584L218.692 327.665ZM252.427 342.036C251.708 342.927 250.793 343.703 249.681 344.364C248.569 344.999 247.181 345.325 245.517 345.341C244.503 345.351 243.566 345.23 242.706 344.979C241.871 344.753 241.14 344.396 240.511 343.909C239.908 343.394 239.434 342.762 239.088 342.011C238.743 341.261 238.565 340.379 238.555 339.365C238.542 337.987 238.816 336.866 239.38 336.002C239.97 335.138 240.743 334.455 241.7 333.951C242.683 333.448 243.784 333.086 245.004 332.866C246.224 332.646 247.484 332.503 248.783 332.438L252.253 332.287L252.245 331.507C252.228 329.791 251.852 328.56 251.117 327.813C250.381 327.066 249.195 326.701 247.557 326.717C245.945 326.733 244.765 327.018 244.016 327.571C243.267 328.099 242.78 328.831 242.556 329.77L239.471 329.449C239.817 327.6 240.675 326.252 242.045 325.406C243.414 324.535 245.282 324.087 247.648 324.064C249.104 324.05 250.327 324.22 251.319 324.574C252.336 324.902 253.16 325.388 253.79 326.032C254.421 326.675 254.871 327.477 255.14 328.436C255.436 329.396 255.589 330.473 255.601 331.669L255.73 344.772L252.454 344.805L252.427 342.036ZM252.277 334.705L249.041 334.854C247.664 334.92 246.521 335.061 245.613 335.278C244.705 335.495 243.98 335.788 243.438 336.157C242.921 336.5 242.548 336.933 242.319 337.455C242.117 337.977 242.019 338.576 242.025 339.252C242.035 340.266 242.342 341.082 242.946 341.7C243.576 342.292 244.593 342.581 245.997 342.567C247.999 342.548 249.554 342.038 250.662 341.039C251.77 340.04 252.316 338.683 252.299 336.967L252.277 334.705ZM260.685 316.876L264.078 316.843L264.352 344.687L260.959 344.721L260.685 316.876ZM269.444 316.79L272.837 316.756L273.112 344.601L269.719 344.634L269.444 316.79ZM301.718 341.433C300.897 342.559 299.944 343.439 298.858 344.074C297.772 344.683 296.488 344.994 295.006 345.009C293.524 345.024 292.234 344.763 291.137 344.228C290.066 343.693 289.175 342.96 288.463 342.031C287.752 341.076 287.221 339.951 286.87 338.654C286.519 337.357 286.336 335.968 286.322 334.486C286.305 332.822 286.499 331.325 286.902 329.995C287.304 328.639 287.878 327.489 288.623 326.546C289.393 325.602 290.322 324.878 291.409 324.373C292.522 323.868 293.781 323.609 295.185 323.595C296.251 323.585 297.332 323.795 298.428 324.226C299.524 324.631 300.546 325.427 301.494 326.614L301.394 316.475L304.787 316.441L305.061 344.286L301.747 344.318L301.718 341.433ZM301.68 333.633C301.664 332.021 301.47 330.775 301.097 329.894C300.75 328.988 300.171 328.226 299.359 327.61C298.782 327.148 298.194 326.829 297.594 326.653C297.02 326.476 296.382 326.392 295.68 326.398C294.849 326.407 294.07 326.557 293.345 326.851C292.646 327.143 292.026 327.618 291.487 328.273C290.973 328.902 290.565 329.725 290.263 330.742C289.987 331.733 289.856 332.943 289.87 334.373C289.884 335.855 290.053 337.101 290.375 338.112C290.723 339.123 291.16 339.925 291.686 340.518C292.237 341.11 292.84 341.533 293.492 341.787C294.171 342.04 294.861 342.163 295.563 342.156C296.317 342.149 296.992 342.051 297.588 341.863C298.184 341.676 298.779 341.358 299.373 340.91C300.147 340.278 300.724 339.492 301.105 338.553C301.511 337.612 301.708 336.427 301.694 334.998L301.68 333.633ZM327.691 338.407C327.372 340.361 326.516 341.903 325.123 343.035C323.757 344.166 321.773 344.745 319.173 344.771C316.105 344.801 313.743 343.901 312.087 342.071C310.431 340.216 309.586 337.624 309.553 334.296C309.536 332.554 309.755 331.005 310.21 329.648C310.664 328.292 311.303 327.154 312.126 326.236C312.975 325.318 313.982 324.619 315.148 324.139C316.313 323.634 317.584 323.374 318.962 323.361C320.522 323.345 321.863 323.579 322.986 324.062C324.109 324.545 325.026 325.225 325.736 326.102C326.473 326.953 327.016 327.974 327.366 329.167C327.742 330.359 327.936 331.671 327.951 333.1L327.968 334.816L312.992 334.964C313.002 335.978 313.142 336.926 313.41 337.807C313.705 338.662 314.102 339.412 314.603 340.057C315.129 340.676 315.771 341.164 316.528 341.521C317.286 341.877 318.158 342.05 319.146 342.041C320.836 342.024 322.068 341.7 322.842 341.068C323.615 340.411 324.14 339.534 324.415 338.44L327.691 338.407ZM324.55 332.315C324.54 331.353 324.428 330.483 324.212 329.705C323.996 328.927 323.665 328.268 323.217 327.726C322.77 327.158 322.193 326.722 321.488 326.417C320.783 326.112 319.937 325.964 318.949 325.974C317.155 325.992 315.756 326.551 314.753 327.653C313.776 328.755 313.207 330.347 313.045 332.428L324.55 332.315ZM334.681 338.104C334.929 339.506 335.524 340.488 336.466 341.051C337.433 341.587 338.736 341.848 340.373 341.831C342.089 341.814 343.296 341.517 343.992 340.938C344.714 340.332 345.07 339.549 345.061 338.587C345.057 338.197 345.001 337.834 344.894 337.497C344.812 337.133 344.64 336.823 344.378 336.566C344.115 336.282 343.749 336.039 343.278 335.835C342.808 335.632 342.196 335.469 341.441 335.347L338.863 334.982C337.717 334.811 336.714 334.587 335.853 334.31C334.992 334.032 334.261 333.675 333.658 333.239C333.056 332.777 332.595 332.223 332.277 331.576C331.984 330.903 331.833 330.098 331.824 329.162C331.815 328.226 332.002 327.392 332.384 326.66C332.793 325.928 333.346 325.312 334.043 324.811C334.766 324.284 335.607 323.885 336.567 323.616C337.552 323.32 338.616 323.167 339.76 323.155C341.216 323.141 342.427 323.272 343.391 323.549C344.382 323.825 345.192 324.207 345.821 324.695C346.45 325.183 346.936 325.763 347.281 326.435C347.626 327.108 347.893 327.82 348.082 328.573L345.006 329.11C344.819 328.566 344.606 328.087 344.368 327.673C344.13 327.26 343.815 326.925 343.422 326.669C343.029 326.386 342.546 326.183 341.973 326.059C341.425 325.908 340.736 325.837 339.904 325.845C338.968 325.854 338.189 325.953 337.567 326.141C336.944 326.303 336.439 326.529 336.052 326.819C335.691 327.109 335.434 327.436 335.282 327.802C335.129 328.141 335.055 328.506 335.059 328.896C335.063 329.312 335.118 329.689 335.226 330.026C335.333 330.337 335.531 330.621 335.819 330.878C336.108 331.109 336.5 331.313 336.995 331.49C337.491 331.667 338.13 331.817 338.911 331.939L341.84 332.378C344.21 332.745 345.907 333.404 346.93 334.356C347.98 335.308 348.513 336.707 348.532 338.553C348.54 339.411 348.379 340.205 348.048 340.937C347.717 341.642 347.216 342.271 346.546 342.824C345.875 343.35 345.034 343.761 344.023 344.057C343.012 344.379 341.83 344.547 340.478 344.56C339.256 344.572 338.111 344.467 337.043 344.243C336.001 344.02 335.074 343.665 334.263 343.179C333.452 342.667 332.796 341.997 332.294 341.17C331.791 340.343 331.495 339.332 331.406 338.137L334.681 338.104ZM352.81 323.651L356.203 323.617L356.401 343.779L353.009 343.813L352.81 323.651ZM352.617 315.969L356.244 315.934L356.283 319.872L352.656 319.908L352.617 315.969ZM365.14 345.565C365.438 346.784 365.993 347.65 366.804 348.162C367.641 348.674 368.931 348.921 370.672 348.904C372.804 348.883 374.267 348.27 375.062 347.066C375.882 345.888 376.281 344.168 376.259 341.906L376.238 339.761C375.468 340.861 374.528 341.715 373.416 342.324C372.33 342.933 371.046 343.245 369.564 343.259C368.108 343.274 366.831 343.026 365.734 342.517C364.663 341.982 363.772 341.263 363.061 340.359C362.35 339.43 361.806 338.357 361.43 337.138C361.08 335.92 360.898 334.609 360.884 333.205C360.869 331.671 361.063 330.278 361.467 329.026C361.87 327.748 362.458 326.663 363.229 325.771C364 324.853 364.929 324.142 366.016 323.638C367.129 323.133 368.375 322.873 369.753 322.86C370.87 322.849 371.978 323.072 373.074 323.529C374.197 323.96 375.219 324.782 376.141 325.995L376.115 323.421L379.469 323.388L379.636 340.274C379.653 342.016 379.538 343.577 379.292 344.958C379.072 346.364 378.629 347.551 377.962 348.52C377.322 349.514 376.419 350.277 375.254 350.809C374.09 351.34 372.584 351.615 370.738 351.633C368.087 351.659 366.002 351.199 364.484 350.252C362.967 349.331 362.068 347.78 361.786 345.598L365.14 345.565ZM376.246 332.741C376.233 331.415 376.066 330.312 375.746 329.431C375.425 328.524 374.988 327.787 374.437 327.221C373.885 326.654 373.244 326.257 372.514 326.031C371.809 325.777 371.067 325.655 370.287 325.662C369.455 325.671 368.677 325.821 367.952 326.115C367.252 326.381 366.632 326.817 366.092 327.42C365.578 328.023 365.17 328.794 364.867 329.733C364.59 330.672 364.459 331.804 364.472 333.13C364.485 334.482 364.652 335.625 364.973 336.557C365.321 337.49 365.757 338.24 366.283 338.807C366.808 339.373 367.41 339.784 368.089 340.037C368.793 340.29 369.497 340.413 370.199 340.406C371.083 340.397 371.887 340.246 372.612 339.953C373.363 339.66 374.009 339.224 374.549 338.647C375.09 338.07 375.512 337.351 375.815 336.489C376.119 335.602 376.264 334.574 376.253 333.404L376.246 332.741ZM384.684 323.336L388.038 323.303L388.069 326.384C389.043 325.048 390.126 324.089 391.316 323.505C392.507 322.921 393.765 322.623 395.091 322.61C397.379 322.587 399.075 323.194 400.179 324.432C401.309 325.668 401.886 327.496 401.91 329.914L402.042 343.329L398.65 343.363L398.524 330.61C398.505 328.738 398.154 327.429 397.471 326.681C396.787 325.908 395.743 325.528 394.34 325.542C393.586 325.55 392.833 325.687 392.081 325.955C391.356 326.222 390.697 326.644 390.105 327.222C389.461 327.8 388.973 328.416 388.641 329.07C388.309 329.697 388.148 330.518 388.158 331.531L388.276 343.465L384.883 343.498L384.684 323.336ZM144.981 375.703L148.335 375.67L148.365 378.751C149.34 377.415 150.423 376.456 151.613 375.872C152.803 375.288 154.062 374.99 155.388 374.977C157.675 374.954 159.371 375.561 160.476 376.799C161.606 378.036 162.183 379.863 162.207 382.281L162.339 395.696L158.946 395.73L158.821 382.977C158.802 381.105 158.451 379.796 157.768 379.048C157.084 378.275 156.04 377.895 154.636 377.909C153.882 377.917 153.13 378.054 152.378 378.322C151.653 378.589 150.994 379.011 150.402 379.589C149.757 380.168 149.27 380.783 148.938 381.437C148.606 382.064 148.445 382.885 148.455 383.899L148.573 395.832L145.18 395.865L144.981 375.703ZM184.798 389.819C184.479 391.773 183.623 393.315 182.23 394.447C180.863 395.578 178.88 396.157 176.28 396.183C173.212 396.213 170.85 395.313 169.194 393.483C167.538 391.628 166.693 389.036 166.66 385.708C166.643 383.966 166.862 382.417 167.316 381.06C167.771 379.704 168.41 378.566 169.233 377.648C170.082 376.73 171.089 376.031 172.254 375.551C173.419 375.046 174.691 374.786 176.069 374.773C177.629 374.757 178.97 374.991 180.093 375.474C181.216 375.957 182.132 376.637 182.843 377.514C183.58 378.365 184.123 379.386 184.472 380.579C184.848 381.771 185.043 383.083 185.057 384.513L185.074 386.228L170.099 386.376C170.109 387.39 170.248 388.338 170.517 389.219C170.811 390.074 171.209 390.824 171.709 391.47C172.235 392.088 172.877 392.576 173.635 392.933C174.392 393.289 175.265 393.463 176.253 393.453C177.943 393.436 179.175 393.112 179.949 392.48C180.722 391.823 181.247 390.946 181.522 389.852L184.798 389.819ZM181.656 383.727C181.647 382.765 181.534 381.895 181.319 381.117C181.103 380.339 180.771 379.68 180.324 379.138C179.876 378.57 179.3 378.134 178.595 377.829C177.89 377.524 177.043 377.376 176.055 377.386C174.262 377.404 172.863 377.963 171.86 379.065C170.883 380.167 170.313 381.759 170.152 383.841L181.656 383.727ZM207.039 389.6C206.72 391.553 205.864 393.096 204.471 394.227C203.104 395.359 201.121 395.938 198.521 395.963C195.453 395.994 193.091 395.094 191.435 393.264C189.779 391.408 188.934 388.816 188.901 385.489C188.884 383.747 189.103 382.197 189.557 380.841C190.012 379.484 190.651 378.347 191.474 377.429C192.323 376.51 193.33 375.811 194.495 375.332C195.66 374.826 196.932 374.567 198.31 374.553C199.87 374.538 201.211 374.772 202.334 375.255C203.457 375.738 204.374 376.418 205.084 377.295C205.821 378.145 206.364 379.167 206.714 380.36C207.089 381.552 207.284 382.863 207.298 384.293L207.315 386.009L192.34 386.157C192.35 387.171 192.489 388.118 192.758 389C193.053 389.855 193.45 390.605 193.95 391.25C194.476 391.869 195.118 392.357 195.876 392.713C196.633 393.07 197.506 393.243 198.494 393.233C200.184 393.217 201.416 392.893 202.19 392.261C202.963 391.603 203.488 390.727 203.763 389.632L207.039 389.6ZM203.897 383.508C203.888 382.546 203.775 381.676 203.56 380.898C203.344 380.12 203.012 379.46 202.565 378.919C202.117 378.351 201.541 377.915 200.836 377.61C200.131 377.304 199.285 377.157 198.297 377.167C196.503 377.184 195.104 377.744 194.101 378.846C193.124 379.948 192.554 381.539 192.393 383.621L203.897 383.508ZM226.538 392.177C225.717 393.303 224.764 394.183 223.678 394.818C222.592 395.427 221.308 395.738 219.826 395.753C218.344 395.768 217.055 395.507 215.957 394.972C214.886 394.437 213.995 393.705 213.283 392.775C212.572 391.82 212.041 390.695 211.69 389.398C211.339 388.101 211.157 386.712 211.142 385.23C211.126 383.566 211.319 382.069 211.722 380.739C212.124 379.383 212.698 378.234 213.443 377.29C214.213 376.347 215.142 375.622 216.229 375.118C217.343 374.613 218.601 374.353 220.005 374.339C221.071 374.329 222.152 374.539 223.248 374.97C224.344 375.376 225.366 376.171 226.314 377.358L226.214 367.219L229.607 367.185L229.882 395.03L226.567 395.063L226.538 392.177ZM226.5 384.377C226.484 382.765 226.29 381.519 225.917 380.638C225.57 379.732 224.991 378.97 224.179 378.354C223.602 377.892 223.014 377.573 222.414 377.397C221.84 377.22 221.203 377.136 220.501 377.143C219.669 377.151 218.89 377.301 218.165 377.595C217.466 377.887 216.846 378.362 216.307 379.017C215.793 379.646 215.385 380.469 215.083 381.486C214.807 382.477 214.676 383.687 214.69 385.117C214.705 386.599 214.873 387.846 215.195 388.856C215.543 389.867 215.98 390.669 216.506 391.262C217.058 391.854 217.66 392.277 218.312 392.531C218.991 392.784 219.681 392.907 220.383 392.9C221.137 392.893 221.812 392.795 222.408 392.607C223.004 392.42 223.599 392.102 224.193 391.654C224.967 391.022 225.544 390.236 225.925 389.297C226.332 388.357 226.528 387.172 226.514 385.742L226.5 384.377ZM243.543 367.048L246.936 367.014L247.04 377.505C247.861 376.405 248.814 375.55 249.9 374.941C250.986 374.333 252.27 374.021 253.752 374.006C255.182 373.992 256.433 374.24 257.504 374.749C258.601 375.259 259.505 375.978 260.216 376.907C260.953 377.836 261.497 378.948 261.848 380.245C262.225 381.515 262.421 382.93 262.436 384.49C262.453 386.154 262.259 387.664 261.857 389.02C261.454 390.35 260.867 391.487 260.096 392.431C259.326 393.374 258.384 394.112 257.271 394.643C256.184 395.147 254.951 395.407 253.574 395.42C252.404 395.432 251.257 395.209 250.135 394.752C249.038 394.269 248.042 393.447 247.146 392.285L247.172 394.859L243.818 394.892L243.543 367.048ZM247.078 385.344C247.091 386.644 247.245 387.76 247.54 388.693C247.861 389.6 248.284 390.35 248.81 390.943C249.336 391.536 249.964 391.972 250.695 392.25C251.426 392.503 252.22 392.625 253.078 392.617C253.91 392.609 254.675 392.458 255.375 392.165C256.1 391.872 256.719 391.411 257.233 390.782C257.747 390.127 258.141 389.291 258.417 388.274C258.719 387.257 258.863 386.021 258.849 384.565C258.834 383.083 258.653 381.849 258.305 380.865C257.983 379.854 257.559 379.052 257.033 378.459C256.508 377.866 255.905 377.443 255.227 377.19C254.574 376.936 253.897 376.813 253.195 376.82C252.311 376.829 251.494 376.993 250.743 377.312C249.992 377.606 249.333 378.054 248.767 378.658C248.227 379.235 247.805 379.98 247.502 380.893C247.199 381.78 247.053 382.809 247.064 383.979L247.078 385.344ZM284.464 388.836C284.145 390.789 283.289 392.332 281.896 393.464C280.529 394.595 278.546 395.174 275.946 395.199C272.878 395.23 270.516 394.33 268.86 392.5C267.204 390.644 266.359 388.053 266.326 384.725C266.309 382.983 266.528 381.434 266.982 380.077C267.437 378.721 268.076 377.583 268.899 376.665C269.748 375.747 270.755 375.048 271.92 374.568C273.085 374.063 274.357 373.803 275.735 373.79C277.295 373.774 278.636 374.008 279.759 374.491C280.882 374.974 281.798 375.654 282.509 376.531C283.246 377.382 283.789 378.403 284.138 379.596C284.514 380.788 284.709 382.099 284.723 383.529L284.74 385.245L269.765 385.393C269.775 386.407 269.914 387.355 270.183 388.236C270.477 389.091 270.875 389.841 271.375 390.486C271.901 391.105 272.543 391.593 273.301 391.949C274.058 392.306 274.931 392.479 275.919 392.47C277.609 392.453 278.841 392.129 279.615 391.497C280.388 390.839 280.913 389.963 281.188 388.868L284.464 388.836ZM281.322 382.744C281.313 381.782 281.2 380.912 280.985 380.134C280.769 379.356 280.437 378.696 279.99 378.155C279.542 377.587 278.966 377.151 278.261 376.846C277.556 376.541 276.709 376.393 275.722 376.403C273.928 376.42 272.529 376.98 271.526 378.082C270.549 379.184 269.979 380.776 269.818 382.857L281.322 382.744ZM300.137 388.448C300.385 389.849 300.98 390.831 301.921 391.394C302.889 391.931 304.191 392.191 305.829 392.175C307.545 392.158 308.751 391.86 309.448 391.281C310.17 390.676 310.526 389.892 310.517 388.93C310.513 388.54 310.457 388.177 310.35 387.84C310.268 387.477 310.096 387.166 309.834 386.909C309.571 386.625 309.204 386.382 308.734 386.179C308.264 385.975 307.652 385.812 306.896 385.69L304.319 385.325C303.173 385.154 302.17 384.93 301.309 384.653C300.448 384.375 299.717 384.018 299.114 383.582C298.512 383.12 298.051 382.566 297.733 381.919C297.44 381.246 297.289 380.441 297.28 379.505C297.271 378.569 297.458 377.735 297.84 377.004C298.249 376.272 298.802 375.655 299.499 375.154C300.222 374.627 301.063 374.229 302.022 373.959C303.008 373.663 304.072 373.51 305.216 373.499C306.672 373.484 307.882 373.615 308.847 373.892C309.838 374.168 310.648 374.55 311.277 375.038C311.905 375.526 312.392 376.106 312.737 376.779C313.081 377.451 313.349 378.164 313.538 378.916L310.462 379.453C310.275 378.909 310.062 378.43 309.824 378.016C309.586 377.603 309.27 377.268 308.878 377.012C308.485 376.73 308.002 376.526 307.429 376.402C306.881 376.251 306.192 376.18 305.36 376.188C304.424 376.198 303.645 376.296 303.022 376.484C302.4 376.647 301.895 376.873 301.508 377.162C301.147 377.452 300.89 377.78 300.738 378.145C300.585 378.485 300.511 378.849 300.515 379.239C300.519 379.655 300.574 380.032 300.682 380.369C300.789 380.68 300.987 380.964 301.275 381.221C301.563 381.452 301.955 381.656 302.451 381.833C302.947 382.01 303.585 382.16 304.367 382.282L307.296 382.722C309.666 383.088 311.363 383.748 312.386 384.7C313.435 385.651 313.969 387.05 313.987 388.896C313.996 389.754 313.835 390.549 313.504 391.28C313.173 391.985 312.672 392.614 312.001 393.167C311.331 393.693 310.49 394.105 309.478 394.401C308.468 394.723 307.286 394.89 305.934 394.904C304.712 394.916 303.567 394.81 302.499 394.587C301.457 394.363 300.53 394.008 299.719 393.522C298.908 393.01 298.252 392.34 297.749 391.513C297.247 390.686 296.951 389.675 296.861 388.48L300.137 388.448ZM335.192 388.336C334.873 390.289 334.017 391.831 332.624 392.963C331.257 394.095 329.274 394.673 326.674 394.699C323.606 394.729 321.244 393.83 319.588 392C317.932 390.144 317.087 387.552 317.054 384.224C317.037 382.483 317.256 380.933 317.71 379.577C318.165 378.22 318.804 377.083 319.627 376.165C320.476 375.246 321.483 374.547 322.648 374.068C323.813 373.562 325.085 373.303 326.463 373.289C328.023 373.274 329.364 373.507 330.487 373.99C331.61 374.473 332.526 375.153 333.237 376.03C333.974 376.881 334.517 377.903 334.866 379.095C335.242 380.288 335.437 381.599 335.451 383.029L335.468 384.745L320.493 384.893C320.503 385.906 320.642 386.854 320.911 387.736C321.205 388.591 321.603 389.341 322.103 389.986C322.629 390.605 323.271 391.092 324.029 391.449C324.786 391.806 325.659 391.979 326.647 391.969C328.337 391.953 329.569 391.628 330.343 390.997C331.116 390.339 331.641 389.463 331.916 388.368L335.192 388.336ZM332.05 382.243C332.041 381.281 331.928 380.412 331.713 379.634C331.497 378.856 331.165 378.196 330.718 377.654C330.27 377.087 329.694 376.65 328.989 376.345C328.284 376.04 327.437 375.893 326.45 375.902C324.656 375.92 323.257 376.48 322.254 377.582C321.277 378.684 320.707 380.275 320.546 382.357L332.05 382.243ZM339.857 373.781L343.211 373.748L343.242 376.868C343.985 375.742 344.86 374.876 345.869 374.268C346.877 373.66 347.953 373.35 349.097 373.339C349.799 373.332 350.397 373.378 350.892 373.477L350.494 376.64C350.234 376.591 349.973 376.554 349.713 376.531C349.453 376.481 349.166 376.458 348.854 376.461C348.23 376.468 347.595 376.591 346.947 376.831C346.299 377.046 345.692 377.416 345.125 377.941C344.558 378.441 344.108 379.017 343.777 379.671C343.471 380.324 343.323 381.079 343.331 381.937L343.449 393.91L340.056 393.943L339.857 373.781ZM352.789 373.653L356.728 373.615L362.895 389.935L368.856 373.495L372.6 373.458L364.688 393.7L361.061 393.736L352.789 373.653ZM375.544 373.429L378.937 373.395L379.136 393.557L375.743 393.591L375.544 373.429ZM375.351 365.747L378.978 365.712L379.017 369.651L375.39 369.686L375.351 365.747ZM384.225 373.343L387.579 373.31L387.61 376.391C388.585 375.055 389.667 374.096 390.857 373.512C392.048 372.928 393.306 372.63 394.632 372.617C396.92 372.594 398.616 373.201 399.72 374.439C400.85 375.675 401.427 377.503 401.451 379.921L401.583 393.336L398.191 393.37L398.065 380.617C398.046 378.745 397.695 377.436 397.012 376.688C396.328 375.915 395.285 375.535 393.881 375.549C393.127 375.557 392.374 375.694 391.623 375.961C390.897 376.229 390.238 376.651 389.646 377.229C389.002 377.807 388.514 378.423 388.182 379.077C387.85 379.704 387.689 380.524 387.699 381.538L387.817 393.472L384.424 393.505L384.225 373.343ZM410.116 395.124C410.414 396.343 410.968 397.209 411.779 397.721C412.616 398.232 413.906 398.48 415.648 398.463C417.78 398.442 419.243 397.829 420.037 396.625C420.857 395.447 421.256 393.727 421.234 391.465L421.213 389.32C420.444 390.42 419.503 391.274 418.391 391.883C417.305 392.492 416.021 392.804 414.539 392.818C413.083 392.833 411.807 392.585 410.71 392.076C409.638 391.541 408.747 390.821 408.036 389.918C407.325 388.989 406.781 387.916 406.405 386.697C406.055 385.479 405.873 384.167 405.86 382.763C405.844 381.229 406.039 379.836 406.442 378.584C406.846 377.306 407.433 376.222 408.204 375.33C408.975 374.412 409.904 373.701 410.991 373.196C412.105 372.691 413.35 372.432 414.728 372.418C415.846 372.407 416.953 372.63 418.05 373.088C419.172 373.519 420.194 374.341 421.116 375.554L421.091 372.98L424.445 372.947L424.611 389.833C424.628 391.575 424.514 393.136 424.267 394.516C424.047 395.923 423.604 397.11 422.937 398.079C422.297 399.073 421.395 399.836 420.23 400.367C419.065 400.899 417.56 401.174 415.714 401.192C413.062 401.218 410.977 400.758 409.46 399.811C407.943 398.89 407.043 397.338 406.762 395.157L410.116 395.124ZM421.222 382.3C421.209 380.974 421.042 379.87 420.721 378.99C420.4 378.083 419.964 377.346 419.412 376.779C418.861 376.213 418.22 375.816 417.489 375.589C416.785 375.336 416.043 375.214 415.263 375.221C414.431 375.229 413.652 375.38 412.927 375.673C412.228 375.94 411.608 376.375 411.068 376.979C410.554 377.582 410.145 378.353 409.843 379.292C409.566 380.231 409.434 381.363 409.447 382.689C409.46 384.041 409.628 385.183 409.949 386.116C410.296 387.049 410.732 387.799 411.258 388.365C411.784 388.932 412.386 389.342 413.064 389.596C413.769 389.849 414.472 389.972 415.174 389.965C416.058 389.956 416.863 389.805 417.588 389.512C418.339 389.219 418.985 388.783 419.525 388.206C420.065 387.628 420.487 386.909 420.791 386.048C421.094 385.161 421.24 384.133 421.228 382.963L421.222 382.3ZM149.654 443.055C148.934 443.946 148.019 444.722 146.907 445.383C145.796 446.018 144.408 446.343 142.744 446.36C141.73 446.37 140.793 446.249 139.932 445.998C139.098 445.772 138.366 445.415 137.737 444.927C137.134 444.413 136.66 443.781 136.315 443.03C135.969 442.28 135.791 441.397 135.781 440.383C135.768 439.005 136.043 437.885 136.606 437.021C137.196 436.157 137.969 435.473 138.926 434.97C139.909 434.466 141.011 434.104 142.231 433.884C143.451 433.664 144.71 433.522 146.01 433.457L149.479 433.306L149.472 432.526C149.455 430.81 149.079 429.579 148.343 428.832C147.608 428.085 146.421 427.72 144.783 427.736C143.171 427.752 141.991 428.036 141.242 428.59C140.494 429.117 140.007 429.85 139.782 430.788L136.698 430.468C137.043 428.618 137.901 427.271 139.271 426.425C140.64 425.554 142.508 425.106 144.874 425.083C146.33 425.068 147.554 425.238 148.545 425.593C149.562 425.921 150.386 426.407 151.017 427.05C151.647 427.694 152.097 428.496 152.366 429.455C152.662 430.414 152.816 431.492 152.827 432.688L152.957 445.791L149.681 445.823L149.654 443.055ZM149.503 435.724L146.267 435.873C144.89 435.938 143.747 436.08 142.84 436.296C141.932 436.513 141.206 436.807 140.664 437.176C140.147 437.519 139.775 437.952 139.546 438.474C139.343 438.996 139.245 439.595 139.252 440.271C139.262 441.285 139.569 442.101 140.173 442.719C140.803 443.311 141.819 443.6 143.223 443.586C145.225 443.566 146.78 443.057 147.889 442.058C148.997 441.059 149.542 439.702 149.525 437.986L149.503 435.724ZM166.475 425.494L169.868 425.46L169.993 438.174C170.012 440.046 170.324 441.369 170.929 442.143C171.561 442.916 172.566 443.297 173.944 443.283C175.452 443.268 176.811 442.709 178.023 441.605C178.667 441.026 179.155 440.423 179.487 439.796C179.818 439.143 179.979 438.309 179.969 437.295L179.851 425.362L183.244 425.328L183.443 445.49L180.089 445.523L180.059 442.404C179.083 443.713 178.027 444.673 176.889 445.282C175.751 445.891 174.519 446.202 173.193 446.216C170.905 446.238 169.235 445.644 168.183 444.432C167.157 443.194 166.631 441.34 166.607 438.87L166.475 425.494ZM190.777 439.529C191.025 440.93 191.62 441.913 192.561 442.475C193.528 443.012 194.831 443.272 196.469 443.256C198.185 443.239 199.391 442.941 200.087 442.362C200.809 441.757 201.166 440.973 201.156 440.011C201.152 439.621 201.097 439.258 200.989 438.921C200.908 438.558 200.736 438.247 200.473 437.99C200.21 437.707 199.844 437.463 199.374 437.26C198.904 437.056 198.291 436.894 197.536 436.771L194.958 436.406C193.813 436.236 192.809 436.012 191.949 435.734C191.088 435.456 190.356 435.1 189.754 434.664C189.151 434.202 188.691 433.647 188.372 433C188.08 432.327 187.929 431.522 187.92 430.587C187.91 429.651 188.097 428.817 188.48 428.085C188.889 427.353 189.442 426.736 190.139 426.235C190.862 425.708 191.703 425.31 192.662 425.04C193.647 424.745 194.712 424.591 195.856 424.58C197.312 424.566 198.522 424.697 199.487 424.973C200.478 425.249 201.287 425.631 201.916 426.119C202.545 426.607 203.032 427.187 203.377 427.86C203.721 428.533 203.988 429.245 204.178 429.997L201.102 430.534C200.914 429.99 200.702 429.511 200.464 429.098C200.225 428.684 199.91 428.349 199.518 428.093C199.125 427.811 198.642 427.608 198.069 427.483C197.521 427.333 196.831 427.261 195.999 427.27C195.063 427.279 194.284 427.378 193.662 427.566C193.04 427.728 192.535 427.954 192.148 428.244C191.787 428.533 191.53 428.861 191.377 429.226C191.225 429.566 191.15 429.931 191.154 430.321C191.158 430.737 191.214 431.113 191.321 431.45C191.428 431.761 191.626 432.045 191.915 432.302C192.203 432.533 192.595 432.737 193.091 432.915C193.587 433.092 194.225 433.241 195.006 433.364L197.936 433.803C200.306 434.17 202.002 434.829 203.026 435.781C204.075 436.732 204.609 438.131 204.627 439.977C204.636 440.835 204.474 441.63 204.144 442.361C203.813 443.066 203.312 443.695 202.641 444.248C201.97 444.775 201.129 445.186 200.118 445.482C199.107 445.804 197.926 445.972 196.574 445.985C195.352 445.997 194.207 445.891 193.139 445.668C192.096 445.444 191.17 445.089 190.359 444.603C189.548 444.091 188.891 443.422 188.389 442.594C187.887 441.767 187.591 440.756 187.501 439.561L190.777 439.529ZM225.831 439.417C225.513 441.37 224.657 442.913 223.264 444.045C221.897 445.176 219.914 445.755 217.314 445.78C214.246 445.811 211.884 444.911 210.228 443.081C208.571 441.225 207.727 438.634 207.694 435.306C207.677 433.564 207.895 432.015 208.35 430.658C208.805 429.301 209.443 428.164 210.266 427.246C211.115 426.327 212.123 425.629 213.288 425.149C214.453 424.643 215.725 424.384 217.102 424.37C218.662 424.355 220.004 424.589 221.127 425.072C222.249 425.555 223.166 426.235 223.877 427.112C224.613 427.962 225.156 428.984 225.506 430.177C225.882 431.369 226.077 432.68 226.091 434.11L226.108 435.826L211.133 435.974C211.143 436.988 211.282 437.935 211.551 438.817C211.845 439.672 212.243 440.422 212.743 441.067C213.269 441.686 213.911 442.174 214.668 442.53C215.426 442.887 216.299 443.06 217.287 443.05C218.977 443.034 220.208 442.71 220.982 442.078C221.756 441.42 222.28 440.544 222.555 439.449L225.831 439.417ZM222.69 433.325C222.681 432.363 222.568 431.493 222.352 430.715C222.137 429.937 221.805 429.277 221.358 428.736C220.91 428.168 220.334 427.732 219.629 427.427C218.924 427.122 218.077 426.974 217.089 426.984C215.295 427.001 213.897 427.561 212.894 428.663C211.916 429.765 211.347 431.356 211.186 433.438L222.69 433.325ZM231.733 427.541L228.574 427.572L228.547 424.881L231.706 424.85L231.689 423.095C231.678 422.003 231.825 421.066 232.129 420.283C232.459 419.5 232.895 418.858 233.436 418.359C234.003 417.833 234.649 417.45 235.375 417.209C236.126 416.941 236.918 416.804 237.75 416.795C238.348 416.789 238.92 416.823 239.467 416.895C240.013 416.942 240.587 417.053 241.186 417.229L240.667 419.887C240.249 419.761 239.846 419.687 239.455 419.665C239.091 419.616 238.727 419.594 238.363 419.597C237.453 419.606 236.675 419.861 236.03 420.361C235.385 420.836 235.068 421.71 235.081 422.984L235.099 424.817L240.208 424.766L240.234 427.457L235.125 427.508L235.298 444.979L231.905 445.012L231.733 427.541ZM243.405 424.735L246.798 424.701L246.923 437.415C246.942 439.287 247.254 440.61 247.859 441.384C248.491 442.158 249.496 442.538 250.874 442.524C252.382 442.509 253.741 441.95 254.952 440.846C255.597 440.267 256.085 439.665 256.417 439.037C256.748 438.384 256.909 437.55 256.899 436.536L256.781 424.603L260.174 424.569L260.373 444.731L257.019 444.765L256.988 441.645C256.013 442.954 254.957 443.914 253.819 444.523C252.681 445.132 251.449 445.444 250.123 445.457C247.835 445.479 246.165 444.885 245.113 443.673C244.087 442.435 243.561 440.581 243.537 438.111L243.405 424.735ZM265.384 416.835L268.777 416.801L269.052 444.646L265.659 444.679L265.384 416.835ZM282.825 424.346L286.178 424.313L286.207 427.199C287.028 426.047 287.981 425.166 289.067 424.557C290.179 423.948 291.476 423.637 292.958 423.622C294.388 423.608 295.638 423.856 296.71 424.365C297.807 424.874 298.711 425.593 299.422 426.522C300.159 427.451 300.703 428.564 301.054 429.86C301.43 431.131 301.626 432.546 301.642 434.106C301.658 435.77 301.465 437.28 301.063 438.636C300.66 439.966 300.073 441.103 299.302 442.046C298.531 442.99 297.59 443.727 296.477 444.258C295.39 444.763 294.157 445.022 292.779 445.036C291.635 445.047 290.502 444.837 289.38 444.406C288.283 443.949 287.287 443.14 286.392 441.979L286.491 452.04L283.098 452.074L282.825 424.346ZM286.284 434.959C286.296 436.259 286.45 437.376 286.746 438.309C287.067 439.216 287.49 439.966 288.016 440.559C288.542 441.151 289.17 441.587 289.901 441.866C290.631 442.119 291.426 442.241 292.284 442.233C293.116 442.224 293.881 442.074 294.58 441.781C295.305 441.488 295.925 441.027 296.439 440.398C296.952 439.742 297.347 438.906 297.623 437.89C297.925 436.873 298.069 435.636 298.054 434.18C298.04 432.698 297.859 431.465 297.511 430.48C297.189 429.47 296.765 428.668 296.239 428.075C295.713 427.482 295.111 427.059 294.432 426.806C293.78 426.552 293.103 426.429 292.401 426.436C291.517 426.444 290.699 426.608 289.948 426.928C289.197 427.221 288.539 427.67 287.973 428.273C287.432 428.851 287.011 429.596 286.708 430.509C286.404 431.396 286.259 432.425 286.27 433.594L286.284 434.959ZM305.977 424.118L309.37 424.084L309.495 436.798C309.514 438.669 309.826 439.992 310.431 440.767C311.063 441.54 312.068 441.92 313.446 441.907C314.954 441.892 316.313 441.333 317.525 440.229C318.169 439.65 318.657 439.047 318.989 438.42C319.32 437.767 319.481 436.933 319.471 435.919L319.353 423.986L322.746 423.952L322.945 444.114L319.591 444.147L319.56 441.027C318.585 442.337 317.529 443.297 316.391 443.906C315.253 444.515 314.021 444.826 312.695 444.839C310.407 444.862 308.737 444.267 307.685 443.056C306.659 441.818 306.133 439.964 306.109 437.494L305.977 424.118ZM327.954 423.901L331.308 423.868L331.339 426.988C332.082 425.862 332.957 424.996 333.965 424.388C334.973 423.78 336.049 423.47 337.193 423.459C337.895 423.452 338.494 423.498 338.989 423.597L338.591 426.76C338.331 426.711 338.07 426.674 337.81 426.651C337.549 426.601 337.263 426.578 336.951 426.581C336.327 426.587 335.691 426.711 335.044 426.951C334.396 427.165 333.788 427.535 333.222 428.061C332.654 428.561 332.205 429.137 331.874 429.79C331.568 430.444 331.419 431.199 331.428 432.057L331.546 444.029L328.153 444.063L327.954 423.901ZM342.236 423.76L345.59 423.727L345.618 426.613C346.439 425.461 347.392 424.58 348.478 423.971C349.59 423.362 350.887 423.051 352.369 423.036C353.799 423.022 355.05 423.27 356.121 423.779C357.218 424.288 358.122 425.007 358.833 425.936C359.57 426.865 360.114 427.978 360.465 429.274C360.842 430.545 361.038 431.96 361.053 433.52C361.069 435.184 360.876 436.694 360.474 438.05C360.071 439.38 359.484 440.517 358.713 441.46C357.942 442.404 357.001 443.141 355.888 443.672C354.801 444.177 353.568 444.436 352.19 444.45C351.046 444.461 349.913 444.251 348.791 443.82C347.694 443.363 346.698 442.554 345.803 441.393L345.902 451.454L342.509 451.488L342.236 423.76ZM345.695 434.373C345.708 435.673 345.862 436.79 346.157 437.723C346.478 438.63 346.901 439.38 347.427 439.973C347.953 440.565 348.581 441.001 349.312 441.28C350.043 441.533 350.837 441.655 351.695 441.647C352.527 441.638 353.292 441.488 353.991 441.195C354.717 440.902 355.336 440.441 355.85 439.811C356.363 439.156 356.758 438.32 357.034 437.304C357.336 436.287 357.48 435.05 357.466 433.594C357.451 432.112 357.27 430.879 356.922 429.894C356.6 428.884 356.176 428.082 355.65 427.489C355.124 426.896 354.522 426.473 353.844 426.22C353.191 425.966 352.514 425.843 351.812 425.85C350.928 425.858 350.111 426.022 349.36 426.342C348.608 426.635 347.95 427.084 347.384 427.687C346.843 428.265 346.422 429.01 346.119 429.923C345.816 430.81 345.67 431.838 345.681 433.008L345.695 434.373ZM374.758 444.227C373.224 444.242 371.857 444.009 370.656 443.527C369.455 443.044 368.434 442.352 367.593 441.451C366.752 440.549 366.104 439.437 365.649 438.116C365.194 436.794 364.958 435.314 364.942 433.676C364.926 432.039 365.145 430.554 365.6 429.224C366.055 427.893 366.707 426.756 367.556 425.811C368.405 424.867 369.424 424.142 370.615 423.636C371.832 423.104 373.182 422.831 374.664 422.816C376.172 422.801 377.526 423.035 378.727 423.517C379.928 423.999 380.949 424.704 381.79 425.632C382.657 426.533 383.318 427.632 383.772 428.927C384.227 430.223 384.463 431.69 384.479 433.328C384.495 434.992 384.276 436.489 383.821 437.819C383.392 439.15 382.753 440.287 381.905 441.232C381.082 442.176 380.062 442.914 378.845 443.446C377.628 443.952 376.266 444.212 374.758 444.227ZM374.769 441.419C375.861 441.408 376.795 441.204 377.571 440.806C378.347 440.409 378.979 439.856 379.466 439.149C379.979 438.442 380.348 437.607 380.572 436.642C380.797 435.652 380.903 434.572 380.891 433.402C380.88 432.258 380.753 431.206 380.509 430.247C380.266 429.287 379.881 428.472 379.354 427.801C378.853 427.104 378.211 426.564 377.427 426.182C376.643 425.8 375.705 425.614 374.613 425.625C373.521 425.635 372.587 425.84 371.811 426.237C371.061 426.635 370.43 427.187 369.916 427.894C369.429 428.575 369.073 429.397 368.849 430.362C368.624 431.326 368.518 432.393 368.529 433.563C368.541 434.733 368.668 435.798 368.912 436.757C369.155 437.717 369.528 438.545 370.028 439.243C370.529 439.94 371.172 440.479 371.955 440.862C372.739 441.244 373.677 441.43 374.769 441.419ZM391.252 437.551C391.499 438.953 392.094 439.935 393.036 440.498C394.003 441.034 395.306 441.294 396.944 441.278C398.66 441.261 399.866 440.963 400.562 440.384C401.284 439.779 401.64 438.996 401.631 438.034C401.627 437.644 401.571 437.28 401.464 436.943C401.383 436.58 401.21 436.27 400.948 436.012C400.685 435.729 400.319 435.486 399.849 435.282C399.379 435.079 398.766 434.916 398.011 434.793L395.433 434.429C394.287 434.258 393.284 434.034 392.423 433.756C391.562 433.479 390.831 433.122 390.229 432.686C389.626 432.224 389.165 431.669 388.847 431.023C388.554 430.349 388.403 429.545 388.394 428.609C388.385 427.673 388.572 426.839 388.955 426.107C389.363 425.375 389.916 424.759 390.613 424.258C391.336 423.731 392.177 423.332 393.137 423.063C394.122 422.767 395.186 422.614 396.33 422.602C397.786 422.588 398.997 422.719 399.961 422.995C400.952 423.272 401.762 423.654 402.391 424.142C403.02 424.629 403.506 425.21 403.851 425.882C404.196 426.555 404.463 427.267 404.652 428.019L401.576 428.557C401.389 428.013 401.176 427.534 400.938 427.12C400.7 426.706 400.385 426.371 399.992 426.115C399.599 425.833 399.116 425.63 398.543 425.506C397.996 425.355 397.306 425.284 396.474 425.292C395.538 425.301 394.759 425.4 394.137 425.588C393.514 425.75 393.01 425.976 392.622 426.266C392.261 426.556 392.004 426.883 391.852 427.249C391.699 427.588 391.625 427.953 391.629 428.343C391.633 428.759 391.689 429.135 391.796 429.472C391.903 429.783 392.101 430.067 392.389 430.325C392.678 430.556 393.07 430.76 393.565 430.937C394.061 431.114 394.7 431.264 395.481 431.386L398.41 431.825C400.78 432.192 402.477 432.851 403.5 433.803C404.55 434.755 405.083 436.154 405.102 438C405.11 438.857 404.949 439.652 404.618 440.383C404.287 441.089 403.786 441.718 403.116 442.27C402.445 442.797 401.604 443.208 400.593 443.504C399.582 443.826 398.401 443.994 397.049 444.007C395.827 444.019 394.682 443.914 393.613 443.69C392.571 443.466 391.644 443.112 390.834 442.625C390.023 442.113 389.366 441.444 388.864 440.617C388.362 439.79 388.066 438.779 387.976 437.583L391.252 437.551ZM426.306 437.439C425.987 439.393 425.131 440.935 423.738 442.067C422.372 443.198 420.388 443.777 417.788 443.803C414.72 443.833 412.358 442.933 410.702 441.103C409.046 439.248 408.201 436.656 408.168 433.328C408.151 431.586 408.37 430.037 408.825 428.68C409.279 427.324 409.918 426.186 410.741 425.268C411.59 424.35 412.597 423.651 413.763 423.171C414.928 422.666 416.199 422.406 417.577 422.393C419.137 422.377 420.478 422.611 421.601 423.094C422.724 423.577 423.641 424.257 424.351 425.134C425.088 425.985 425.631 427.006 425.981 428.199C426.357 429.391 426.551 430.703 426.566 432.133L426.582 433.848L411.607 433.996C411.617 435.01 411.757 435.958 412.025 436.839C412.32 437.694 412.717 438.444 413.218 439.09C413.744 439.708 414.386 440.196 415.143 440.553C415.901 440.909 416.773 441.083 417.761 441.073C419.451 441.056 420.683 440.732 421.457 440.1C422.23 439.443 422.755 438.566 423.03 437.472L426.306 437.439ZM423.165 431.347C423.155 430.385 423.043 429.515 422.827 428.737C422.611 427.959 422.28 427.3 421.832 426.758C421.385 426.19 420.808 425.754 420.103 425.449C419.398 425.144 418.552 424.996 417.564 425.006C415.77 425.024 414.371 425.583 413.368 426.685C412.391 427.787 411.822 429.379 411.66 431.461L423.165 431.347ZM430.447 438.413L434.034 438.377L432.09 446.821L429.36 446.848L430.447 438.413ZM159.182 490.077C158.864 492.03 158.008 493.573 156.615 494.704C155.248 495.836 153.264 496.415 150.665 496.44C147.597 496.47 145.235 495.571 143.579 493.741C141.922 491.885 141.078 489.293 141.045 485.966C141.028 484.224 141.246 482.674 141.701 481.318C142.156 479.961 142.794 478.824 143.617 477.906C144.466 476.987 145.474 476.288 146.639 475.809C147.804 475.303 149.075 475.044 150.453 475.03C152.013 475.015 153.355 475.249 154.478 475.732C155.6 476.215 156.517 476.895 157.228 477.772C157.964 478.622 158.507 479.644 158.857 480.837C159.233 482.029 159.428 483.34 159.442 484.77L159.459 486.486L144.484 486.634C144.494 487.648 144.633 488.595 144.902 489.477C145.196 490.332 145.594 491.082 146.094 491.727C146.62 492.346 147.262 492.834 148.019 493.19C148.777 493.547 149.65 493.72 150.638 493.71C152.328 493.694 153.559 493.37 154.333 492.738C155.107 492.08 155.631 491.204 155.906 490.109L159.182 490.077ZM156.041 483.985C156.032 483.023 155.919 482.153 155.703 481.375C155.488 480.597 155.156 479.937 154.709 479.395C154.261 478.828 153.685 478.392 152.98 478.086C152.275 477.781 151.428 477.634 150.44 477.644C148.646 477.661 147.248 478.221 146.245 479.323C145.267 480.425 144.698 482.016 144.537 484.098L156.041 483.985ZM160.937 475.551L164.876 475.512L171.043 491.832L177.004 475.392L180.748 475.355L172.835 495.597L169.208 495.633L160.937 475.551ZM200.427 489.67C200.109 491.623 199.253 493.166 197.86 494.298C196.493 495.429 194.51 496.008 191.91 496.033C188.842 496.064 186.48 495.164 184.824 493.334C183.167 491.478 182.323 488.887 182.29 485.559C182.273 483.817 182.491 482.268 182.946 480.911C183.401 479.554 184.04 478.417 184.863 477.499C185.711 476.581 186.719 475.882 187.884 475.402C189.049 474.897 190.321 474.637 191.698 474.623C193.258 474.608 194.6 474.842 195.723 475.325C196.845 475.808 197.762 476.488 198.473 477.365C199.209 478.215 199.752 479.237 200.102 480.43C200.478 481.622 200.673 482.933 200.687 484.363L200.704 486.079L185.729 486.227C185.739 487.241 185.878 488.188 186.147 489.07C186.441 489.925 186.839 490.675 187.339 491.32C187.865 491.939 188.507 492.427 189.264 492.783C190.022 493.14 190.895 493.313 191.883 493.303C193.573 493.287 194.805 492.963 195.578 492.331C196.352 491.673 196.876 490.797 197.151 489.702L200.427 489.67ZM197.286 483.578C197.277 482.616 197.164 481.746 196.948 480.968C196.733 480.19 196.401 479.53 195.954 478.989C195.506 478.421 194.93 477.985 194.225 477.68C193.52 477.375 192.673 477.227 191.685 477.237C189.891 477.254 188.493 477.814 187.49 478.916C186.512 480.018 185.943 481.609 185.782 483.691L197.286 483.578ZM205.093 475.115L208.447 475.082L208.477 478.163C209.452 476.827 210.535 475.868 211.725 475.284C212.915 474.7 214.174 474.402 215.5 474.389C217.787 474.366 219.483 474.973 220.588 476.21C221.718 477.447 222.295 479.275 222.319 481.693L222.451 495.108L219.058 495.141L218.933 482.389C218.914 480.517 218.563 479.208 217.88 478.46C217.196 477.687 216.152 477.307 214.748 477.321C213.994 477.329 213.242 477.466 212.49 477.733C211.765 478.001 211.106 478.423 210.514 479.001C209.869 479.579 209.381 480.195 209.05 480.849C208.718 481.476 208.557 482.296 208.567 483.31L208.685 495.244L205.292 495.277L205.093 475.115ZM250.851 491.942C250.03 493.068 249.077 493.948 247.991 494.583C246.905 495.192 245.621 495.503 244.139 495.518C242.657 495.533 241.368 495.272 240.27 494.737C239.199 494.202 238.308 493.47 237.596 492.54C236.885 491.585 236.354 490.46 236.003 489.163C235.652 487.866 235.469 486.477 235.455 484.995C235.438 483.331 235.632 481.834 236.035 480.504C236.437 479.148 237.011 477.999 237.756 477.055C238.526 476.112 239.455 475.387 240.542 474.883C241.655 474.378 242.914 474.118 244.318 474.104C245.384 474.094 246.465 474.304 247.561 474.735C248.657 475.141 249.679 475.937 250.627 477.123L250.527 466.984L253.92 466.95L254.194 494.795L250.88 494.828L250.851 491.942ZM250.813 484.142C250.797 482.53 250.603 481.284 250.23 480.403C249.883 479.497 249.304 478.735 248.492 478.119C247.915 477.657 247.327 477.338 246.727 477.162C246.153 476.985 245.516 476.901 244.814 476.908C243.982 476.916 243.203 477.066 242.478 477.36C241.779 477.653 241.159 478.127 240.62 478.782C240.106 479.411 239.698 480.234 239.396 481.251C239.12 482.242 238.989 483.452 239.003 484.882C239.018 486.364 239.186 487.611 239.508 488.621C239.856 489.632 240.293 490.434 240.819 491.027C241.371 491.619 241.973 492.042 242.625 492.296C243.304 492.549 243.994 492.672 244.696 492.665C245.45 492.658 246.125 492.56 246.721 492.372C247.317 492.185 247.912 491.867 248.506 491.419C249.28 490.787 249.857 490.001 250.238 489.062C250.644 488.122 250.841 486.937 250.827 485.507L250.813 484.142ZM276.824 488.916C276.505 490.87 275.649 492.412 274.257 493.544C272.89 494.675 270.906 495.254 268.306 495.28C265.238 495.31 262.877 494.41 261.22 492.58C259.564 490.725 258.719 488.133 258.687 484.805C258.669 483.063 258.888 481.514 259.343 480.157C259.797 478.801 260.436 477.663 261.259 476.745C262.108 475.827 263.115 475.128 264.281 474.648C265.446 474.143 266.717 473.883 268.095 473.87C269.655 473.854 270.996 474.088 272.119 474.571C273.242 475.054 274.159 475.734 274.87 476.611C275.606 477.462 276.149 478.484 276.499 479.676C276.875 480.868 277.07 482.18 277.084 483.61L277.101 485.325L262.125 485.473C262.135 486.487 262.275 487.435 262.543 488.316C262.838 489.171 263.235 489.921 263.736 490.567C264.262 491.185 264.904 491.673 265.661 492.03C266.419 492.386 267.291 492.56 268.279 492.55C269.969 492.533 271.201 492.209 271.975 491.577C272.749 490.92 273.273 490.043 273.548 488.949L276.824 488.916ZM273.683 482.824C273.673 481.862 273.561 480.992 273.345 480.214C273.129 479.436 272.798 478.777 272.35 478.235C271.903 477.667 271.326 477.231 270.621 476.926C269.916 476.621 269.07 476.473 268.082 476.483C266.288 476.501 264.889 477.061 263.886 478.162C262.909 479.264 262.34 480.856 262.178 482.938L273.683 482.824ZM283.815 488.613C284.062 490.015 284.657 490.997 285.599 491.56C286.566 492.096 287.869 492.357 289.507 492.34C291.222 492.324 292.429 492.026 293.125 491.447C293.847 490.842 294.203 490.058 294.194 489.096C294.19 488.706 294.134 488.343 294.027 488.006C293.945 487.642 293.773 487.332 293.511 487.075C293.248 486.791 292.882 486.548 292.412 486.344C291.942 486.141 291.329 485.978 290.574 485.856L287.996 485.491C286.85 485.32 285.847 485.096 284.986 484.819C284.125 484.541 283.394 484.184 282.791 483.748C282.189 483.286 281.728 482.732 281.41 482.085C281.117 481.412 280.966 480.607 280.957 479.671C280.948 478.735 281.135 477.901 281.518 477.169C281.926 476.437 282.479 475.821 283.176 475.32C283.899 474.793 284.74 474.395 285.7 474.125C286.685 473.829 287.749 473.676 288.893 473.665C290.349 473.65 291.56 473.781 292.524 474.058C293.515 474.334 294.325 474.716 294.954 475.204C295.583 475.692 296.069 476.272 296.414 476.945C296.759 477.617 297.026 478.33 297.215 479.082L294.139 479.619C293.952 479.075 293.739 478.596 293.501 478.182C293.263 477.769 292.948 477.434 292.555 477.178C292.162 476.895 291.679 476.692 291.106 476.568C290.559 476.417 289.869 476.346 289.037 476.354C288.101 476.364 287.322 476.462 286.7 476.65C286.077 476.813 285.572 477.038 285.185 477.328C284.824 477.618 284.567 477.945 284.415 478.311C284.262 478.65 284.188 479.015 284.192 479.405C284.196 479.821 284.252 480.198 284.359 480.535C284.466 480.846 284.664 481.13 284.952 481.387C285.241 481.618 285.633 481.822 286.128 481.999C286.624 482.176 287.263 482.326 288.044 482.448L290.973 482.888C293.343 483.254 295.04 483.913 296.063 484.865C297.113 485.817 297.646 487.216 297.665 489.062C297.673 489.92 297.512 490.714 297.181 491.446C296.85 492.151 296.349 492.78 295.679 493.333C295.008 493.859 294.167 494.271 293.156 494.567C292.145 494.889 290.963 495.056 289.611 495.07C288.39 495.082 287.244 494.976 286.176 494.752C285.134 494.529 284.207 494.174 283.397 493.688C282.585 493.176 281.929 492.506 281.427 491.679C280.924 490.852 280.628 489.841 280.539 488.646L283.815 488.613ZM301.943 474.16L305.336 474.126L305.535 494.288L302.142 494.322L301.943 474.16ZM301.75 466.478L305.377 466.443L305.416 470.381L301.789 470.417L301.75 466.478ZM314.273 496.074C314.571 497.293 315.126 498.159 315.937 498.671C316.774 499.183 318.064 499.43 319.806 499.413C321.937 499.392 323.4 498.779 324.195 497.576C325.015 496.397 325.414 494.677 325.392 492.415L325.371 490.271C324.601 491.37 323.661 492.225 322.549 492.834C321.463 493.442 320.179 493.754 318.697 493.769C317.241 493.783 315.964 493.536 314.867 493.026C313.796 492.491 312.905 491.772 312.194 490.869C311.483 489.94 310.939 488.866 310.563 487.647C310.213 486.429 310.031 485.118 310.017 483.714C310.002 482.18 310.196 480.787 310.6 479.535C311.003 478.257 311.591 477.172 312.362 476.28C313.133 475.363 314.062 474.651 315.149 474.147C316.262 473.642 317.508 473.382 318.886 473.369C320.004 473.358 321.111 473.581 322.207 474.038C323.33 474.469 324.352 475.291 325.274 476.504L325.248 473.93L328.602 473.897L328.769 490.783C328.786 492.525 328.671 494.086 328.425 495.467C328.205 496.873 327.762 498.06 327.095 499.029C326.455 500.023 325.552 500.786 324.388 501.318C323.223 501.849 321.717 502.124 319.871 502.142C317.22 502.169 315.135 501.708 313.618 500.761C312.1 499.84 311.201 498.289 310.92 496.107L314.273 496.074ZM325.379 483.25C325.366 481.924 325.199 480.821 324.879 479.94C324.558 479.033 324.121 478.296 323.57 477.73C323.018 477.163 322.377 476.766 321.647 476.54C320.942 476.287 320.2 476.164 319.42 476.172C318.588 476.18 317.81 476.33 317.085 476.624C316.385 476.891 315.765 477.326 315.225 477.929C314.711 478.532 314.303 479.303 314 480.242C313.723 481.181 313.592 482.313 313.605 483.639C313.618 484.991 313.785 486.134 314.106 487.067C314.454 487.999 314.89 488.749 315.416 489.316C315.941 489.883 316.543 490.293 317.222 490.546C317.926 490.799 318.63 490.922 319.332 490.915C320.216 490.906 321.02 490.755 321.745 490.462C322.496 490.169 323.142 489.734 323.683 489.156C324.223 488.579 324.645 487.86 324.948 486.999C325.252 486.112 325.397 485.083 325.386 483.913L325.379 483.25ZM333.817 473.845L337.171 473.812L337.202 476.893C338.176 475.558 339.259 474.598 340.449 474.014C341.64 473.43 342.898 473.132 344.224 473.119C346.512 473.096 348.208 473.703 349.312 474.941C350.442 476.178 351.019 478.005 351.043 480.423L351.175 493.838L347.783 493.872L347.657 481.119C347.638 479.247 347.287 477.938 346.604 477.19C345.92 476.417 344.877 476.037 343.473 476.051C342.719 476.059 341.966 476.196 341.215 476.464C340.489 476.731 339.83 477.153 339.238 477.731C338.594 478.31 338.106 478.925 337.774 479.579C337.442 480.206 337.281 481.027 337.291 482.041L337.409 493.974L334.016 494.007L333.817 473.845ZM365.938 476.22L362.818 476.25L362.792 473.56L365.912 473.529L365.857 468.03L369.25 467.997L369.304 473.495L374.647 473.443L374.674 476.134L369.331 476.186L369.448 488.003C369.457 488.991 369.686 489.781 370.134 490.375C370.582 490.969 371.261 491.261 372.171 491.252C372.743 491.246 373.236 491.202 373.651 491.12C374.093 491.038 374.495 490.93 374.857 490.796L375.468 493.404C374.95 493.591 374.379 493.739 373.756 493.849C373.16 493.985 372.445 494.057 371.613 494.066C370.469 494.077 369.545 493.917 368.84 493.586C368.134 493.255 367.571 492.779 367.148 492.16C366.726 491.54 366.433 490.802 366.269 489.945C366.13 489.088 366.056 488.153 366.046 487.139L365.938 476.22ZM378.186 465.724L381.579 465.691L381.684 476.376C382.659 475.093 383.729 474.159 384.893 473.576C386.084 472.992 387.342 472.693 388.668 472.68C390.956 472.658 392.652 473.265 393.756 474.502C394.886 475.739 395.463 477.567 395.487 479.984L395.62 493.4L392.188 493.434L392.062 480.681C392.043 478.809 391.693 477.5 391.009 476.752C390.351 475.979 389.321 475.599 387.917 475.613C387.163 475.62 386.41 475.758 385.659 476.025C384.933 476.292 384.274 476.715 383.682 477.293C383.038 477.871 382.55 478.487 382.218 479.14C381.886 479.768 381.725 480.588 381.735 481.602L381.853 493.536L378.46 493.569L378.186 465.724ZM413.232 490.457C412.512 491.348 411.597 492.124 410.485 492.785C409.374 493.42 407.986 493.746 406.322 493.762C405.308 493.772 404.371 493.651 403.51 493.4C402.676 493.174 401.944 492.817 401.315 492.33C400.712 491.815 400.238 491.183 399.893 490.432C399.547 489.682 399.37 488.8 399.36 487.786C399.346 486.408 399.621 485.287 400.184 484.423C400.774 483.559 401.547 482.876 402.504 482.372C403.487 481.869 404.589 481.507 405.809 481.287C407.029 481.067 408.288 480.924 409.588 480.859L413.057 480.708L413.05 479.928C413.033 478.212 412.657 476.981 411.921 476.234C411.186 475.487 409.999 475.122 408.361 475.138C406.749 475.154 405.569 475.439 404.82 475.992C404.072 476.52 403.585 477.252 403.36 478.191L400.276 477.87C400.622 476.021 401.479 474.673 402.849 473.827C404.218 472.956 406.086 472.508 408.452 472.485C409.908 472.471 411.132 472.641 412.123 472.995C413.141 473.323 413.964 473.809 414.595 474.453C415.225 475.096 415.675 475.898 415.945 476.857C416.24 477.817 416.394 478.894 416.405 480.09L416.535 493.193L413.259 493.226L413.232 490.457ZM413.081 483.126L409.846 483.275C408.468 483.341 407.325 483.482 406.418 483.699C405.51 483.916 404.785 484.209 404.242 484.578C403.725 484.921 403.353 485.354 403.124 485.876C402.921 486.398 402.823 486.997 402.83 487.673C402.84 488.687 403.147 489.503 403.751 490.121C404.381 490.713 405.398 491.002 406.801 490.988C408.803 490.969 410.358 490.459 411.467 489.46C412.575 488.461 413.12 487.104 413.104 485.388L413.081 483.126ZM422.683 475.66L419.564 475.691L419.537 473L422.657 472.969L422.603 467.47L425.995 467.437L426.05 472.936L431.392 472.883L431.419 475.574L426.076 475.626L426.193 487.443C426.203 488.431 426.431 489.222 426.879 489.815C427.327 490.409 428.006 490.701 428.916 490.692C429.488 490.687 429.982 490.643 430.397 490.561C430.838 490.478 431.24 490.37 431.603 490.237L432.213 492.844C431.695 493.031 431.125 493.18 430.502 493.29C429.905 493.426 429.191 493.498 428.359 493.506C427.215 493.517 426.29 493.357 425.585 493.026C424.88 492.695 424.316 492.22 423.894 491.6C423.472 490.98 423.178 490.242 423.014 489.385C422.875 488.529 422.801 487.593 422.791 486.579L422.683 475.66ZM173.822 525.426L177.214 525.393L177.34 538.106C177.358 539.978 177.67 541.301 178.276 542.075C178.908 542.849 179.912 543.229 181.29 543.215C182.798 543.201 184.158 542.641 185.369 541.537C186.013 540.959 186.501 540.356 186.833 539.729C187.165 539.075 187.326 538.242 187.316 537.228L187.198 525.294L190.591 525.261L190.79 545.423L187.436 545.456L187.405 542.336C186.43 543.646 185.373 544.605 184.235 545.214C183.097 545.824 181.865 546.135 180.539 546.148C178.251 546.171 176.581 545.576 175.529 544.364C174.503 543.126 173.978 541.272 173.953 538.803L173.822 525.426ZM196.995 527.889L193.875 527.919L193.849 525.229L196.969 525.198L196.914 519.699L200.307 519.666L200.362 525.164L205.704 525.112L205.731 527.803L200.388 527.855L200.505 539.672C200.514 540.66 200.743 541.45 201.191 542.044C201.639 542.638 202.318 542.93 203.228 542.921C203.8 542.915 204.293 542.871 204.709 542.789C205.15 542.707 205.552 542.599 205.914 542.465L206.525 545.073C206.007 545.26 205.436 545.408 204.814 545.518C204.217 545.654 203.503 545.726 202.671 545.735C201.527 545.746 200.602 545.586 199.897 545.255C199.191 544.924 198.628 544.448 198.206 543.829C197.783 543.209 197.49 542.471 197.326 541.614C197.187 540.757 197.113 539.822 197.103 538.808L196.995 527.889ZM209.397 525.075L212.789 525.042L212.988 545.204L209.596 545.237L209.397 525.075ZM209.204 517.394L212.831 517.358L212.87 521.297L209.243 521.333L209.204 517.394ZM218.08 517.306L221.473 517.273L221.748 545.117L218.355 545.151L218.08 517.306ZM226.915 524.902L230.308 524.869L230.507 545.031L227.114 545.064L226.915 524.902ZM226.723 517.221L230.349 517.185L230.388 521.124L226.761 521.16L226.723 517.221ZM234.25 542.459L245.841 527.446L234.337 527.559L234.31 524.829L250.026 524.674L250.051 527.209L238.459 542.222L250.783 542.101L250.381 544.835L234.275 544.994L234.25 542.459ZM270.805 538.978C270.486 540.931 269.63 542.474 268.237 543.606C266.87 544.737 264.887 545.316 262.287 545.342C259.219 545.372 256.857 544.472 255.201 542.642C253.545 540.787 252.7 538.195 252.667 534.867C252.65 533.125 252.869 531.576 253.324 530.219C253.778 528.863 254.417 527.725 255.24 526.807C256.089 525.889 257.096 525.19 258.261 524.71C259.427 524.205 260.698 523.945 262.076 523.932C263.636 523.916 264.977 524.15 266.1 524.633C267.223 525.116 268.14 525.796 268.85 526.673C269.587 527.524 270.13 528.545 270.48 529.738C270.855 530.93 271.05 532.241 271.064 533.671L271.081 535.387L256.106 535.535C256.116 536.549 256.256 537.497 256.524 538.378C256.819 539.233 257.216 539.983 257.716 540.628C258.243 541.247 258.884 541.735 259.642 542.091C260.4 542.448 261.272 542.621 262.26 542.612C263.95 542.595 265.182 542.271 265.956 541.639C266.729 540.981 267.254 540.105 267.529 539.01L270.805 538.978ZM267.664 532.886C267.654 531.924 267.542 531.054 267.326 530.276C267.11 529.498 266.779 528.838 266.331 528.297C265.884 527.729 265.307 527.293 264.602 526.988C263.897 526.683 263.051 526.535 262.063 526.545C260.269 526.563 258.87 527.122 257.867 528.224C256.89 529.326 256.321 530.918 256.159 532.999L267.664 532.886ZM277.795 538.675C278.043 540.077 278.638 541.059 279.58 541.622C280.547 542.158 281.849 542.418 283.487 542.402C285.203 542.385 286.409 542.087 287.106 541.509C287.828 540.903 288.184 540.12 288.175 539.158C288.171 538.768 288.115 538.404 288.008 538.067C287.926 537.704 287.754 537.394 287.492 537.136C287.229 536.853 286.862 536.61 286.392 536.406C285.922 536.203 285.31 536.04 284.554 535.917L281.977 535.553C280.831 535.382 279.828 535.158 278.967 534.88C278.106 534.603 277.375 534.246 276.772 533.81C276.17 533.348 275.709 532.793 275.391 532.147C275.098 531.473 274.947 530.669 274.938 529.733C274.929 528.797 275.116 527.963 275.498 527.231C275.907 526.499 276.46 525.883 277.157 525.382C277.88 524.855 278.721 524.456 279.681 524.187C280.666 523.891 281.73 523.738 282.874 523.726C284.33 523.712 285.54 523.843 286.505 524.12C287.496 524.396 288.306 524.778 288.935 525.266C289.563 525.753 290.05 526.334 290.395 527.006C290.74 527.679 291.007 528.391 291.196 529.144L288.12 529.681C287.933 529.137 287.72 528.658 287.482 528.244C287.244 527.83 286.929 527.496 286.536 527.239C286.143 526.957 285.66 526.754 285.087 526.63C284.539 526.479 283.85 526.408 283.018 526.416C282.082 526.425 281.303 526.524 280.681 526.712C280.058 526.874 279.553 527.1 279.166 527.39C278.805 527.68 278.548 528.007 278.396 528.373C278.243 528.712 278.169 529.077 278.173 529.467C278.177 529.883 278.232 530.259 278.34 530.596C278.447 530.907 278.645 531.191 278.933 531.449C279.221 531.68 279.613 531.884 280.109 532.061C280.605 532.238 281.244 532.388 282.025 532.51L284.954 532.949C287.324 533.316 289.021 533.975 290.044 534.927C291.093 535.879 291.627 537.278 291.645 539.124C291.654 539.982 291.493 540.776 291.162 541.507C290.831 542.213 290.33 542.842 289.659 543.394C288.989 543.921 288.148 544.332 287.137 544.628C286.126 544.95 284.944 545.118 283.592 545.131C282.37 545.143 281.225 545.038 280.157 544.814C279.115 544.59 278.188 544.236 277.377 543.75C276.566 543.238 275.91 542.568 275.407 541.741C274.905 540.914 274.609 539.903 274.52 538.708L277.795 538.675ZM317.258 541.406C316.539 542.297 315.623 543.073 314.512 543.734C313.4 544.369 312.012 544.695 310.348 544.711C309.334 544.721 308.397 544.601 307.536 544.349C306.702 544.123 305.971 543.767 305.342 543.279C304.739 542.765 304.264 542.132 303.919 541.382C303.573 540.631 303.396 539.749 303.386 538.735C303.372 537.357 303.647 536.236 304.211 535.372C304.8 534.509 305.573 533.825 306.531 533.321C307.514 532.818 308.615 532.456 309.835 532.236C311.055 532.016 312.315 531.873 313.614 531.809L317.084 531.657L317.076 530.877C317.059 529.161 316.683 527.93 315.947 527.183C315.212 526.437 314.025 526.071 312.387 526.087C310.776 526.103 309.595 526.388 308.847 526.941C308.098 527.469 307.611 528.202 307.386 529.14L304.302 528.819C304.648 526.97 305.506 525.622 306.875 524.777C308.245 523.905 310.112 523.458 312.478 523.434C313.934 523.42 315.158 523.59 316.149 523.944C317.167 524.272 317.991 524.758 318.621 525.402C319.251 526.046 319.701 526.847 319.971 527.807C320.266 528.766 320.42 529.843 320.432 531.039L320.561 544.143L317.285 544.175L317.258 541.406ZM317.107 534.075L313.872 534.224C312.494 534.29 311.352 534.431 310.444 534.648C309.536 534.865 308.811 535.158 308.268 535.527C307.752 535.871 307.379 536.303 307.15 536.826C306.947 537.348 306.849 537.947 306.856 538.623C306.866 539.636 307.173 540.453 307.777 541.071C308.407 541.662 309.424 541.951 310.828 541.938C312.83 541.918 314.385 541.408 315.493 540.409C316.601 539.41 317.147 538.053 317.13 536.337L317.107 534.075ZM337.846 545.844C338.144 547.063 338.698 547.929 339.509 548.441C340.346 548.953 341.636 549.2 343.378 549.183C345.51 549.162 346.973 548.549 347.767 547.345C348.587 546.167 348.986 544.447 348.964 542.185L348.943 540.04C348.174 541.14 347.233 541.994 346.121 542.603C345.035 543.212 343.751 543.524 342.269 543.538C340.813 543.553 339.537 543.305 338.439 542.796C337.368 542.261 336.477 541.541 335.766 540.638C335.055 539.709 334.511 538.636 334.135 537.417C333.785 536.199 333.603 534.888 333.589 533.484C333.574 531.95 333.769 530.557 334.172 529.305C334.576 528.027 335.163 526.942 335.934 526.05C336.705 525.132 337.634 524.421 338.721 523.916C339.834 523.411 341.08 523.152 342.458 523.139C343.576 523.128 344.683 523.351 345.78 523.808C346.902 524.239 347.924 525.061 348.846 526.274L348.821 523.7L352.174 523.667L352.341 540.553C352.358 542.295 352.244 543.856 351.997 545.237C351.777 546.643 351.334 547.83 350.667 548.799C350.027 549.793 349.125 550.556 347.96 551.088C346.795 551.619 345.29 551.894 343.444 551.912C340.792 551.938 338.707 551.478 337.19 550.531C335.673 549.61 334.773 548.059 334.492 545.877L337.846 545.844ZM348.952 533.02C348.938 531.694 348.772 530.591 348.451 529.71C348.13 528.803 347.694 528.066 347.142 527.5C346.59 526.933 345.949 526.536 345.219 526.31C344.515 526.056 343.772 525.934 342.992 525.941C342.16 525.95 341.382 526.1 340.657 526.394C339.957 526.66 339.338 527.096 338.798 527.699C338.283 528.302 337.875 529.073 337.572 530.012C337.296 530.951 337.164 532.083 337.177 533.409C337.19 534.761 337.357 535.904 337.679 536.836C338.026 537.769 338.462 538.519 338.988 539.086C339.514 539.652 340.116 540.063 340.794 540.316C341.499 540.569 342.202 540.692 342.904 540.685C343.788 540.676 344.592 540.525 345.318 540.232C346.069 539.939 346.714 539.503 347.255 538.926C347.795 538.349 348.217 537.629 348.521 536.768C348.824 535.881 348.97 534.853 348.958 533.683L348.952 533.02ZM357.39 523.615L360.743 523.582L360.774 526.702C361.517 525.577 362.393 524.71 363.401 524.102C364.409 523.494 365.485 523.184 366.629 523.173C367.331 523.166 367.929 523.212 368.424 523.311L368.026 526.475C367.766 526.425 367.505 526.389 367.245 526.365C366.985 526.316 366.698 526.293 366.386 526.296C365.762 526.302 365.127 526.425 364.479 526.666C363.831 526.88 363.224 527.25 362.657 527.776C362.09 528.275 361.64 528.852 361.309 529.505C361.003 530.158 360.855 530.914 360.863 531.771L360.981 543.744L357.588 543.777L357.39 523.615ZM371.749 523.474L375.142 523.44L375.341 543.602L371.948 543.636L371.749 523.474ZM371.556 515.792L375.183 515.756L375.222 519.695L371.595 519.731L371.556 515.792ZM395.264 540.52C394.443 541.646 393.49 542.526 392.404 543.161C391.318 543.77 390.034 544.081 388.552 544.096C387.07 544.111 385.781 543.85 384.683 543.315C383.612 542.78 382.721 542.047 382.009 541.118C381.298 540.163 380.767 539.037 380.416 537.741C380.065 536.444 379.882 535.055 379.868 533.573C379.851 531.909 380.045 530.412 380.448 529.082C380.85 527.726 381.424 526.576 382.169 525.633C382.939 524.689 383.868 523.965 384.955 523.46C386.068 522.955 387.327 522.696 388.731 522.682C389.797 522.672 390.878 522.882 391.974 523.313C393.07 523.718 394.092 524.514 395.04 525.701L394.94 515.562L398.333 515.528L398.607 543.373L395.293 543.405L395.264 540.52ZM395.226 532.72C395.21 531.108 395.016 529.861 394.643 528.981C394.296 528.074 393.717 527.313 392.905 526.697C392.328 526.235 391.74 525.916 391.14 525.74C390.566 525.563 389.928 525.478 389.227 525.485C388.395 525.494 387.616 525.644 386.891 525.937C386.192 526.23 385.572 526.704 385.033 527.36C384.519 527.989 384.111 528.812 383.809 529.829C383.533 530.82 383.402 532.03 383.416 533.46C383.431 534.942 383.599 536.188 383.921 537.199C384.269 538.21 384.706 539.012 385.232 539.604C385.783 540.197 386.386 540.62 387.038 540.874C387.717 541.127 388.407 541.25 389.109 541.243C389.863 541.236 390.538 541.138 391.134 540.95C391.73 540.762 392.325 540.445 392.919 539.997C393.693 539.365 394.27 538.579 394.651 537.639C395.057 536.699 395.254 535.514 395.24 534.084L395.226 532.72ZM205.853 589.387C206.1 590.789 206.695 591.771 207.637 592.334C208.604 592.87 209.907 593.131 211.545 593.114C213.261 593.097 214.467 592.8 215.163 592.221C215.885 591.615 216.241 590.832 216.232 589.87C216.228 589.48 216.172 589.117 216.065 588.78C215.984 588.416 215.812 588.106 215.549 587.849C215.286 587.565 214.92 587.322 214.45 587.118C213.98 586.915 213.367 586.752 212.612 586.63L210.034 586.265C208.888 586.094 207.885 585.87 207.024 585.593C206.164 585.315 205.432 584.958 204.83 584.522C204.227 584.06 203.767 583.506 203.448 582.859C203.155 582.186 203.005 581.381 202.995 580.445C202.986 579.509 203.173 578.675 203.556 577.943C203.964 577.211 204.517 576.595 205.214 576.094C205.937 575.567 206.778 575.169 207.738 574.899C208.723 574.603 209.788 574.45 210.931 574.439C212.387 574.424 213.598 574.555 214.563 574.832C215.553 575.108 216.363 575.49 216.992 575.978C217.621 576.466 218.108 577.046 218.452 577.718C218.797 578.391 219.064 579.104 219.253 579.856L216.177 580.393C215.99 579.849 215.777 579.37 215.539 578.956C215.301 578.543 214.986 578.208 214.593 577.952C214.2 577.669 213.717 577.466 213.144 577.342C212.597 577.191 211.907 577.12 211.075 577.128C210.139 577.137 209.36 577.236 208.738 577.424C208.115 577.586 207.611 577.812 207.223 578.102C206.862 578.392 206.605 578.719 206.453 579.085C206.3 579.424 206.226 579.789 206.23 580.179C206.234 580.595 206.29 580.972 206.397 581.309C206.504 581.62 206.702 581.904 206.99 582.161C207.279 582.392 207.671 582.596 208.167 582.773C208.662 582.95 209.301 583.1 210.082 583.222L213.012 583.661C215.381 584.028 217.078 584.687 218.101 585.639C219.151 586.591 219.685 587.99 219.703 589.836C219.711 590.694 219.55 591.488 219.219 592.22C218.888 592.925 218.387 593.554 217.717 594.107C217.046 594.633 216.205 595.044 215.194 595.34C214.183 595.662 213.002 595.83 211.65 595.843C210.428 595.856 209.283 595.75 208.214 595.526C207.172 595.303 206.246 594.948 205.435 594.462C204.624 593.95 203.967 593.28 203.465 592.453C202.963 591.626 202.667 590.615 202.577 589.42L205.853 589.387ZM225.099 577.614L221.98 577.645L221.953 574.954L225.073 574.923L225.019 569.424L228.411 569.391L228.466 574.89L233.808 574.837L233.835 577.528L228.492 577.58L228.609 589.397C228.619 590.385 228.847 591.176 229.295 591.769C229.743 592.363 230.422 592.655 231.332 592.646C231.904 592.641 232.398 592.597 232.813 592.515C233.254 592.432 233.656 592.324 234.019 592.191L234.629 594.798C234.111 594.985 233.541 595.133 232.918 595.244C232.321 595.38 231.607 595.452 230.775 595.46C229.631 595.471 228.706 595.311 228.001 594.98C227.296 594.649 226.732 594.174 226.31 593.554C225.888 592.934 225.594 592.196 225.43 591.339C225.291 590.483 225.217 589.547 225.207 588.533L225.099 577.614ZM237.423 574.801L240.777 574.768L240.807 577.888C241.55 576.763 242.426 575.896 243.434 575.288C244.442 574.68 245.518 574.37 246.662 574.359C247.364 574.352 247.962 574.398 248.457 574.497L248.06 577.66C247.799 577.611 247.539 577.575 247.278 577.551C247.018 577.502 246.732 577.479 246.42 577.482C245.796 577.488 245.16 577.611 244.512 577.851C243.864 578.066 243.257 578.436 242.69 578.961C242.123 579.461 241.674 580.038 241.342 580.691C241.037 581.344 240.888 582.099 240.896 582.957L241.015 594.93L237.622 594.963L237.423 574.801ZM251.587 574.661L254.98 574.628L255.106 587.341C255.124 589.213 255.436 590.536 256.042 591.31C256.673 592.084 257.678 592.464 259.056 592.451C260.564 592.436 261.924 591.876 263.135 590.772C263.779 590.194 264.267 589.591 264.599 588.964C264.931 588.311 265.091 587.477 265.081 586.463L264.964 574.53L268.357 574.496L268.555 594.658L265.202 594.691L265.171 591.571C264.196 592.881 263.139 593.84 262.001 594.45C260.863 595.059 259.631 595.37 258.305 595.383C256.017 595.406 254.347 594.811 253.295 593.6C252.269 592.362 251.744 590.508 251.719 588.038L251.587 574.661ZM291.167 587.61C290.852 589.927 289.986 591.756 288.569 593.096C287.152 594.436 285.144 595.118 282.544 595.144C281.01 595.159 279.643 594.926 278.442 594.444C277.267 593.961 276.272 593.269 275.457 592.367C274.668 591.439 274.059 590.327 273.63 589.031C273.227 587.709 273.018 586.229 273.002 584.591C272.986 582.979 273.192 581.508 273.621 580.177C274.05 578.847 274.676 577.71 275.499 576.766C276.321 575.822 277.328 575.084 278.519 574.552C279.71 574.02 281.059 573.747 282.567 573.732C284.985 573.708 286.863 574.287 288.2 575.47C289.538 576.627 290.399 578.244 290.783 580.32L287.397 580.978C287.26 580.329 287.072 579.733 286.833 579.189C286.62 578.645 286.316 578.18 285.922 577.794C285.528 577.382 285.044 577.075 284.47 576.872C283.922 576.644 283.258 576.533 282.478 576.541C281.412 576.551 280.504 576.768 279.754 577.192C279.004 577.589 278.385 578.154 277.899 578.887C277.438 579.594 277.095 580.429 276.87 581.393C276.672 582.357 276.578 583.385 276.589 584.477C276.599 585.569 276.714 586.595 276.931 587.555C277.149 588.515 277.495 589.357 277.97 590.08C278.445 590.777 279.061 591.33 279.819 591.739C280.578 592.147 281.503 592.346 282.595 592.335C284.232 592.319 285.437 591.891 286.209 591.052C287.007 590.212 287.516 589.076 287.735 587.644L291.167 587.61ZM296.545 576.909L293.425 576.94L293.399 574.249L296.519 574.218L296.464 568.72L299.857 568.686L299.911 574.185L305.254 574.132L305.281 576.823L299.938 576.876L300.055 588.692C300.064 589.68 300.293 590.471 300.741 591.064C301.189 591.658 301.868 591.95 302.778 591.941C303.35 591.936 303.843 591.892 304.259 591.81C304.7 591.727 305.102 591.619 305.464 591.486L306.075 594.093C305.557 594.28 304.986 594.429 304.363 594.539C303.767 594.675 303.052 594.747 302.22 594.755C301.077 594.766 300.152 594.606 299.447 594.275C298.741 593.944 298.178 593.469 297.755 592.849C297.333 592.229 297.04 591.491 296.876 590.635C296.737 589.778 296.663 588.843 296.653 587.829L296.545 576.909ZM308.752 574.098L312.144 574.064L312.27 586.777C312.288 588.649 312.6 589.972 313.206 590.746C313.838 591.52 314.842 591.9 316.22 591.887C317.728 591.872 319.088 591.312 320.299 590.208C320.943 589.63 321.431 589.027 321.763 588.4C322.095 587.747 322.256 586.913 322.246 585.899L322.128 573.966L325.521 573.932L325.72 594.094L322.366 594.127L322.335 591.007C321.36 592.317 320.303 593.277 319.165 593.886C318.027 594.495 316.795 594.806 315.469 594.819C313.181 594.842 311.511 594.247 310.459 593.036C309.433 591.798 308.908 589.944 308.883 587.474L308.752 574.098ZM330.729 573.881L334.083 573.848L334.113 576.968C334.856 575.842 335.732 574.975 336.74 574.367C337.748 573.76 338.824 573.45 339.968 573.439C340.67 573.432 341.268 573.478 341.763 573.577L341.366 576.74C341.105 576.691 340.845 576.654 340.584 576.631C340.324 576.581 340.038 576.558 339.726 576.561C339.102 576.567 338.466 576.691 337.818 576.931C337.17 577.145 336.563 577.515 335.996 578.041C335.429 578.541 334.98 579.117 334.648 579.77C334.343 580.423 334.194 581.179 334.202 582.037L334.321 594.009L330.928 594.043L330.729 573.881ZM361.405 588.087C361.086 590.04 360.23 591.583 358.838 592.714C357.471 593.846 355.487 594.425 352.887 594.45C349.819 594.48 347.457 593.581 345.801 591.751C344.145 589.895 343.3 587.303 343.268 583.976C343.25 582.234 343.469 580.684 343.924 579.328C344.378 577.971 345.017 576.834 345.84 575.916C346.689 574.997 347.696 574.298 348.862 573.819C350.027 573.313 351.298 573.054 352.676 573.04C354.236 573.025 355.577 573.259 356.7 573.742C357.823 574.225 358.74 574.905 359.451 575.782C360.187 576.632 360.73 577.654 361.08 578.847C361.456 580.039 361.651 581.35 361.665 582.78L361.682 584.496L346.706 584.644C346.716 585.658 346.856 586.605 347.124 587.487C347.419 588.342 347.816 589.092 348.317 589.737C348.843 590.356 349.485 590.844 350.242 591.2C351 591.557 351.872 591.73 352.86 591.72C354.55 591.704 355.782 591.379 356.556 590.748C357.33 590.09 357.854 589.214 358.129 588.119L361.405 588.087ZM358.264 581.995C358.254 581.033 358.142 580.163 357.926 579.385C357.71 578.607 357.379 577.947 356.931 577.405C356.484 576.838 355.907 576.402 355.202 576.096C354.497 575.791 353.651 575.644 352.663 575.653C350.869 575.671 349.47 576.231 348.467 577.333C347.49 578.435 346.921 580.026 346.759 582.108L358.264 581.995ZM366.151 565.848L369.622 565.814L369.701 585.665L366.464 585.697L366.151 565.848ZM366.225 589.17L370.008 589.133L370.053 593.657L366.27 593.694L366.225 589.17Z" fill="white"/>
</svg>
