<svg width="998" height="124" viewBox="0 0 998 124" fill="none" xmlns="http://www.w3.org/2000/svg">
<path d="M998 0H0V124H998V0Z" fill="#FF1493"/>
<path d="M132.493 31.99H135.221L135.004 39.802H132.679L132.493 31.99ZM157.044 46.715C156.92 47.831 156.641 48.8747 156.207 49.846C155.773 50.7967 155.184 51.6233 154.44 52.326C153.696 53.0287 152.787 53.5763 151.712 53.969C150.658 54.3617 149.429 54.558 148.023 54.558C146.494 54.558 145.12 54.2997 143.9 53.783C142.681 53.2663 141.648 52.512 140.8 51.52C139.953 50.528 139.292 49.319 138.816 47.893C138.362 46.4463 138.134 44.8033 138.134 42.964C138.134 41.104 138.382 39.4507 138.878 38.004C139.374 36.5573 140.067 35.338 140.955 34.346C141.844 33.354 142.888 32.5997 144.086 32.083C145.306 31.5663 146.618 31.308 148.023 31.308C149.387 31.308 150.565 31.4837 151.557 31.835C152.549 32.1863 153.386 32.6823 154.068 33.323C154.771 33.9637 155.329 34.7283 155.742 35.617C156.176 36.5057 156.507 37.4873 156.734 38.562L153.944 39.027C153.758 38.221 153.51 37.4977 153.2 36.857C152.911 36.1957 152.529 35.6377 152.053 35.183C151.599 34.7283 151.041 34.3873 150.379 34.16C149.739 33.912 148.953 33.788 148.023 33.788C146.928 33.788 145.946 34.0153 145.078 34.47C144.231 34.904 143.508 35.524 142.908 36.33C142.33 37.1153 141.885 38.0763 141.575 39.213C141.265 40.329 141.11 41.569 141.11 42.933C141.11 44.297 141.265 45.5473 141.575 46.684C141.885 47.8 142.33 48.761 142.908 49.567C143.508 50.373 144.231 50.993 145.078 51.427C145.946 51.861 146.938 52.078 148.054 52.078C149.067 52.078 149.925 51.954 150.627 51.706C151.351 51.4373 151.94 51.0653 152.394 50.59C152.87 50.1147 153.242 49.5463 153.51 48.885C153.779 48.2237 153.975 47.5003 154.099 46.715H157.044ZM174.403 49.505C174.135 51.055 173.442 52.2743 172.326 53.163C171.231 54.0517 169.65 54.496 167.583 54.496C165.145 54.496 163.274 53.7623 161.972 52.295C160.67 50.807 160.019 48.7403 160.019 46.095C160.019 44.7103 160.205 43.4807 160.577 42.406C160.949 41.3313 161.466 40.4323 162.127 39.709C162.809 38.9857 163.615 38.438 164.545 38.066C165.475 37.6733 166.488 37.477 167.583 37.477C168.823 37.477 169.888 37.6733 170.776 38.066C171.665 38.4587 172.388 39.0063 172.946 39.709C173.525 40.391 173.949 41.2073 174.217 42.158C174.507 43.1087 174.651 44.1523 174.651 45.289V46.653H162.747C162.747 47.459 162.851 48.2133 163.057 48.916C163.285 49.598 163.595 50.1973 163.987 50.714C164.401 51.21 164.907 51.6027 165.506 51.892C166.106 52.1813 166.798 52.326 167.583 52.326C168.927 52.326 169.908 52.078 170.528 51.582C171.148 51.0653 171.572 50.373 171.799 49.505H174.403ZM171.954 44.638C171.954 43.8733 171.872 43.181 171.706 42.561C171.541 41.941 171.283 41.414 170.931 40.98C170.58 40.5253 170.125 40.174 169.567 39.926C169.009 39.678 168.338 39.554 167.552 39.554C166.126 39.554 165.01 39.988 164.204 40.856C163.419 41.724 162.954 42.9847 162.809 44.638H171.954ZM178.226 37.973H180.892V40.453C181.491 39.5643 182.194 38.8823 183 38.407C183.806 37.9317 184.664 37.694 185.573 37.694C186.131 37.694 186.606 37.7353 186.999 37.818L186.658 40.329C186.451 40.2877 186.245 40.2567 186.038 40.236C185.831 40.1947 185.604 40.174 185.356 40.174C184.86 40.174 184.354 40.267 183.837 40.453C183.32 40.6183 182.835 40.9077 182.38 41.321C181.925 41.7137 181.564 42.1683 181.295 42.685C181.047 43.2017 180.923 43.801 180.923 44.483V54H178.226V37.973ZM191.296 40.112H188.816V37.973H191.296V33.602H193.993V37.973H198.24V40.112H193.993V49.505C193.993 50.2903 194.168 50.9207 194.52 51.396C194.871 51.8713 195.408 52.109 196.132 52.109C196.586 52.109 196.979 52.078 197.31 52.016C197.661 51.954 197.981 51.8713 198.271 51.768L198.736 53.845C198.322 53.9897 197.868 54.1033 197.372 54.186C196.896 54.2893 196.328 54.341 195.667 54.341C194.757 54.341 194.024 54.2067 193.466 53.938C192.908 53.6693 192.463 53.287 192.133 52.791C191.802 52.295 191.575 51.706 191.451 51.024C191.347 50.342 191.296 49.598 191.296 48.792V40.112ZM211.095 51.799C210.516 52.5017 209.782 53.1113 208.894 53.628C208.005 54.124 206.899 54.372 205.577 54.372C204.771 54.372 204.027 54.2687 203.345 54.062C202.683 53.876 202.105 53.5867 201.609 53.194C201.133 52.7807 200.761 52.2743 200.493 51.675C200.224 51.0757 200.09 50.373 200.09 49.567C200.09 48.4717 200.317 47.583 200.772 46.901C201.247 46.219 201.867 45.6817 202.632 45.289C203.417 44.8963 204.295 44.6173 205.267 44.452C206.238 44.2867 207.24 44.1833 208.274 44.142L211.033 44.049V43.429C211.033 42.065 210.743 41.0833 210.165 40.484C209.586 39.8847 208.646 39.585 207.344 39.585C206.062 39.585 205.122 39.802 204.523 40.236C203.923 40.6493 203.531 41.228 203.345 41.972L200.896 41.693C201.185 40.2257 201.877 39.1613 202.973 38.5C204.068 37.818 205.556 37.477 207.437 37.477C208.594 37.477 209.565 37.6217 210.351 37.911C211.157 38.1797 211.808 38.5723 212.304 39.089C212.8 39.6057 213.151 40.2463 213.358 41.011C213.585 41.7757 213.699 42.6333 213.699 43.584V54H211.095V51.799ZM211.033 45.971L208.46 46.064C207.364 46.1053 206.455 46.2087 205.732 46.374C205.008 46.5393 204.43 46.7667 203.996 47.056C203.582 47.3247 203.283 47.6657 203.097 48.079C202.931 48.4923 202.849 48.9677 202.849 49.505C202.849 50.311 203.086 50.962 203.562 51.458C204.058 51.9333 204.864 52.171 205.98 52.171C207.571 52.171 208.811 51.7783 209.7 50.993C210.588 50.2077 211.033 49.133 211.033 47.769V45.971ZM217.855 37.973H220.552V54H217.855V37.973ZM217.762 31.866H220.645V34.997H217.762V31.866ZM224.756 37.973H227.422V40.422C228.208 39.368 229.076 38.6137 230.026 38.159C230.977 37.7043 231.979 37.477 233.033 37.477C234.852 37.477 236.195 37.973 237.063 38.965C237.952 39.957 238.396 41.414 238.396 43.336V54H235.699V43.863C235.699 42.375 235.431 41.3313 234.893 40.732C234.356 40.112 233.529 39.802 232.413 39.802C231.814 39.802 231.215 39.9053 230.615 40.112C230.037 40.3187 229.51 40.6493 229.034 41.104C228.518 41.5587 228.125 42.0443 227.856 42.561C227.588 43.057 227.453 43.708 227.453 44.514V54H224.756V37.973ZM249.338 37.973H252.004V40.422C252.728 39.43 253.523 38.6963 254.391 38.221C255.259 37.725 256.148 37.477 257.057 37.477C258.256 37.477 259.217 37.7353 259.94 38.252C260.684 38.7687 261.232 39.5127 261.583 40.484C262.307 39.492 263.133 38.748 264.063 38.252C264.993 37.7353 265.985 37.477 267.039 37.477C268.61 37.477 269.819 37.911 270.666 38.779C271.534 39.6263 271.968 41.0007 271.968 42.902V54H269.271V43.522C269.271 42.7987 269.209 42.1993 269.085 41.724C268.961 41.228 268.775 40.8457 268.527 40.577C268.3 40.2877 268.011 40.0913 267.659 39.988C267.308 39.864 266.905 39.802 266.45 39.802C265.975 39.802 265.479 39.8847 264.962 40.05C264.446 40.2153 263.939 40.5047 263.443 40.918C263.03 41.2693 262.689 41.693 262.42 42.189C262.152 42.685 262.017 43.2533 262.017 43.894V54H259.32V43.553C259.32 42.1477 259.072 41.1763 258.576 40.639C258.101 40.081 257.409 39.802 256.499 39.802C255.445 39.802 254.453 40.236 253.523 41.104C253.172 41.4347 252.831 41.8583 252.5 42.375C252.19 42.8917 252.035 43.584 252.035 44.452V54H249.338V37.973ZM289.896 49.505C289.628 51.055 288.935 52.2743 287.819 53.163C286.724 54.0517 285.143 54.496 283.076 54.496C280.638 54.496 278.767 53.7623 277.465 52.295C276.163 50.807 275.512 48.7403 275.512 46.095C275.512 44.7103 275.698 43.4807 276.07 42.406C276.442 41.3313 276.959 40.4323 277.62 39.709C278.302 38.9857 279.108 38.438 280.038 38.066C280.968 37.6733 281.981 37.477 283.076 37.477C284.316 37.477 285.381 37.6733 286.269 38.066C287.158 38.4587 287.881 39.0063 288.439 39.709C289.018 40.391 289.442 41.2073 289.71 42.158C290 43.1087 290.144 44.1523 290.144 45.289V46.653H278.24C278.24 47.459 278.344 48.2133 278.55 48.916C278.778 49.598 279.088 50.1973 279.48 50.714C279.894 51.21 280.4 51.6027 280.999 51.892C281.599 52.1813 282.291 52.326 283.076 52.326C284.42 52.326 285.401 52.078 286.021 51.582C286.641 51.0653 287.065 50.373 287.292 49.505H289.896ZM287.447 44.638C287.447 43.8733 287.365 43.181 287.199 42.561C287.034 41.941 286.776 41.414 286.424 40.98C286.073 40.5253 285.618 40.174 285.06 39.926C284.502 39.678 283.831 39.554 283.045 39.554C281.619 39.554 280.503 39.988 279.697 40.856C278.912 41.724 278.447 42.9847 278.302 44.638H287.447ZM293.719 37.973H296.385V40.422C297.17 39.368 298.038 38.6137 298.989 38.159C299.94 37.7043 300.942 37.477 301.996 37.477C303.815 37.477 305.158 37.973 306.026 38.965C306.915 39.957 307.359 41.414 307.359 43.336V54H304.662V43.863C304.662 42.375 304.393 41.3313 303.856 40.732C303.319 40.112 302.492 39.802 301.376 39.802C300.777 39.802 300.177 39.9053 299.578 40.112C298.999 40.3187 298.472 40.6493 297.997 41.104C297.48 41.5587 297.088 42.0443 296.819 42.561C296.55 43.057 296.416 43.708 296.416 44.514V54H293.719V37.973ZM312.329 40.112H309.849V37.973H312.329V33.602H315.026V37.973H319.273V40.112H315.026V49.505C315.026 50.2903 315.201 50.9207 315.553 51.396C315.904 51.8713 316.441 52.109 317.165 52.109C317.619 52.109 318.012 52.078 318.343 52.016C318.694 51.954 319.014 51.8713 319.304 51.768L319.769 53.845C319.355 53.9897 318.901 54.1033 318.405 54.186C317.929 54.2893 317.361 54.341 316.7 54.341C315.79 54.341 315.057 54.2067 314.499 53.938C313.941 53.6693 313.496 53.287 313.166 52.791C312.835 52.295 312.608 51.706 312.484 51.024C312.38 50.342 312.329 49.598 312.329 48.792V40.112ZM332.128 51.799C331.549 52.5017 330.816 53.1113 329.927 53.628C329.038 54.124 327.933 54.372 326.61 54.372C325.804 54.372 325.06 54.2687 324.378 54.062C323.717 53.876 323.138 53.5867 322.642 53.194C322.167 52.7807 321.795 52.2743 321.526 51.675C321.257 51.0757 321.123 50.373 321.123 49.567C321.123 48.4717 321.35 47.583 321.805 46.901C322.28 46.219 322.9 45.6817 323.665 45.289C324.45 44.8963 325.329 44.6173 326.3 44.452C327.271 44.2867 328.274 44.1833 329.307 44.142L332.066 44.049V43.429C332.066 42.065 331.777 41.0833 331.198 40.484C330.619 39.8847 329.679 39.585 328.377 39.585C327.096 39.585 326.155 39.802 325.556 40.236C324.957 40.6493 324.564 41.228 324.378 41.972L321.929 41.693C322.218 40.2257 322.911 39.1613 324.006 38.5C325.101 37.818 326.589 37.477 328.47 37.477C329.627 37.477 330.599 37.6217 331.384 37.911C332.19 38.1797 332.841 38.5723 333.337 39.089C333.833 39.6057 334.184 40.2463 334.391 41.011C334.618 41.7757 334.732 42.6333 334.732 43.584V54H332.128V51.799ZM332.066 45.971L329.493 46.064C328.398 46.1053 327.488 46.2087 326.765 46.374C326.042 46.5393 325.463 46.7667 325.029 47.056C324.616 47.3247 324.316 47.6657 324.13 48.079C323.965 48.4923 323.882 48.9677 323.882 49.505C323.882 50.311 324.12 50.962 324.595 51.458C325.091 51.9333 325.897 52.171 327.013 52.171C328.604 52.171 329.844 51.7783 330.733 50.993C331.622 50.2077 332.066 49.133 332.066 47.769V45.971ZM338.889 31.866H341.586V54H338.889V31.866ZM362.674 51.799C362.095 52.5017 361.361 53.1113 360.473 53.628C359.584 54.124 358.478 54.372 357.156 54.372C356.35 54.372 355.606 54.2687 354.924 54.062C354.262 53.876 353.684 53.5867 353.188 53.194C352.712 52.7807 352.34 52.2743 352.072 51.675C351.803 51.0757 351.669 50.373 351.669 49.567C351.669 48.4717 351.896 47.583 352.351 46.901C352.826 46.219 353.446 45.6817 354.211 45.289C354.996 44.8963 355.874 44.6173 356.846 44.452C357.817 44.2867 358.819 44.1833 359.853 44.142L362.612 44.049V43.429C362.612 42.065 362.322 41.0833 361.744 40.484C361.165 39.8847 360.225 39.585 358.923 39.585C357.641 39.585 356.701 39.802 356.102 40.236C355.502 40.6493 355.11 41.228 354.924 41.972L352.475 41.693C352.764 40.2257 353.456 39.1613 354.552 38.5C355.647 37.818 357.135 37.477 359.016 37.477C360.173 37.477 361.144 37.6217 361.93 37.911C362.736 38.1797 363.387 38.5723 363.883 39.089C364.379 39.6057 364.73 40.2463 364.937 41.011C365.164 41.7757 365.278 42.6333 365.278 43.584V54H362.674V51.799ZM362.612 45.971L360.039 46.064C358.943 46.1053 358.034 46.2087 357.311 46.374C356.587 46.5393 356.009 46.7667 355.575 47.056C355.161 47.3247 354.862 47.6657 354.676 48.079C354.51 48.4923 354.428 48.9677 354.428 49.505C354.428 50.311 354.665 50.962 355.141 51.458C355.637 51.9333 356.443 52.171 357.559 52.171C359.15 52.171 360.39 51.7783 361.279 50.993C362.167 50.2077 362.612 49.133 362.612 47.769V45.971ZM370.302 40.112H367.822V37.973H370.302V33.602H372.999V37.973H377.246V40.112H372.999V49.505C372.999 50.2903 373.175 50.9207 373.526 51.396C373.878 51.8713 374.415 52.109 375.138 52.109C375.593 52.109 375.986 52.078 376.316 52.016C376.668 51.954 376.988 51.8713 377.277 51.768L377.742 53.845C377.329 53.9897 376.874 54.1033 376.378 54.186C375.903 54.2893 375.335 54.341 374.673 54.341C373.764 54.341 373.03 54.2067 372.472 53.938C371.914 53.6693 371.47 53.287 371.139 52.791C370.809 52.295 370.581 51.706 370.457 51.024C370.354 50.342 370.302 49.598 370.302 48.792V40.112ZM381.049 40.112H378.569V37.973H381.049V33.602H383.746V37.973H387.993V40.112H383.746V49.505C383.746 50.2903 383.922 50.9207 384.273 51.396C384.625 51.8713 385.162 52.109 385.885 52.109C386.34 52.109 386.733 52.078 387.063 52.016C387.415 51.954 387.735 51.8713 388.024 51.768L388.489 53.845C388.076 53.9897 387.621 54.1033 387.125 54.186C386.65 54.2893 386.082 54.341 385.42 54.341C384.511 54.341 383.777 54.2067 383.219 53.938C382.661 53.6693 382.217 53.287 381.886 52.791C381.556 52.295 381.328 51.706 381.204 51.024C381.101 50.342 381.049 49.598 381.049 48.792V40.112ZM390.929 37.973H393.626V54H390.929V37.973ZM390.836 31.866H393.719V34.997H390.836V31.866ZM398.759 40.112H396.279V37.973H398.759V33.602H401.456V37.973H405.703V40.112H401.456V49.505C401.456 50.2903 401.632 50.9207 401.983 51.396C402.335 51.8713 402.872 52.109 403.595 52.109C404.05 52.109 404.443 52.078 404.773 52.016C405.125 51.954 405.445 51.8713 405.734 51.768L406.199 53.845C405.786 53.9897 405.331 54.1033 404.835 54.186C404.36 54.2893 403.792 54.341 403.13 54.341C402.221 54.341 401.487 54.2067 400.929 53.938C400.371 53.6693 399.927 53.287 399.596 52.791C399.266 52.295 399.038 51.706 398.914 51.024C398.811 50.342 398.759 49.598 398.759 48.792V40.112ZM408.484 37.973H411.181V48.079C411.181 49.567 411.418 50.621 411.894 51.241C412.39 51.861 413.185 52.171 414.281 52.171C415.479 52.171 416.564 51.737 417.536 50.869C418.052 50.4143 418.445 49.939 418.714 49.443C418.982 48.9263 419.117 48.265 419.117 47.459V37.973H421.814V54H419.148V51.52C418.362 52.5533 417.515 53.3077 416.606 53.783C415.696 54.2583 414.715 54.496 413.661 54.496C411.842 54.496 410.519 54.0103 409.693 53.039C408.887 52.047 408.484 50.5693 408.484 48.606V37.973ZM437.609 51.706C436.948 52.5947 436.183 53.287 435.315 53.783C434.447 54.2583 433.424 54.496 432.246 54.496C431.068 54.496 430.045 54.279 429.177 53.845C428.33 53.411 427.627 52.822 427.069 52.078C426.511 51.3133 426.098 50.4143 425.829 49.381C425.561 48.3477 425.426 47.242 425.426 46.064C425.426 44.7413 425.592 43.553 425.922 42.499C426.253 41.4243 426.718 40.515 427.317 39.771C427.937 39.027 428.681 38.4587 429.549 38.066C430.438 37.6733 431.44 37.477 432.556 37.477C433.404 37.477 434.261 37.6527 435.129 38.004C435.997 38.3347 436.803 38.9753 437.547 39.926V31.866H440.244V54H437.609V51.706ZM437.64 45.506C437.64 44.2247 437.496 43.2327 437.206 42.53C436.938 41.8067 436.483 41.197 435.842 40.701C435.388 40.329 434.923 40.0707 434.447 39.926C433.993 39.7813 433.486 39.709 432.928 39.709C432.267 39.709 431.647 39.8227 431.068 40.05C430.51 40.2773 430.014 40.6493 429.58 41.166C429.167 41.662 428.836 42.313 428.588 43.119C428.361 43.9043 428.247 44.8653 428.247 46.002C428.247 47.18 428.371 48.172 428.619 48.978C428.888 49.784 429.229 50.4247 429.642 50.9C430.076 51.3753 430.552 51.7163 431.068 51.923C431.606 52.1297 432.153 52.233 432.711 52.233C433.311 52.233 433.848 52.1607 434.323 52.016C434.799 51.8713 435.274 51.6233 435.749 51.272C436.369 50.776 436.834 50.156 437.144 49.412C437.475 48.668 437.64 47.7277 437.64 46.591V45.506ZM458.277 49.505C458.009 51.055 457.316 52.2743 456.2 53.163C455.105 54.0517 453.524 54.496 451.457 54.496C449.019 54.496 447.148 53.7623 445.846 52.295C444.544 50.807 443.893 48.7403 443.893 46.095C443.893 44.7103 444.079 43.4807 444.451 42.406C444.823 41.3313 445.34 40.4323 446.001 39.709C446.683 38.9857 447.489 38.438 448.419 38.066C449.349 37.6733 450.362 37.477 451.457 37.477C452.697 37.477 453.762 37.6733 454.65 38.066C455.539 38.4587 456.262 39.0063 456.82 39.709C457.399 40.391 457.823 41.2073 458.091 42.158C458.381 43.1087 458.525 44.1523 458.525 45.289V46.653H446.621C446.621 47.459 446.725 48.2133 446.931 48.916C447.159 49.598 447.469 50.1973 447.861 50.714C448.275 51.21 448.781 51.6027 449.38 51.892C449.98 52.1813 450.672 52.326 451.457 52.326C452.801 52.326 453.782 52.078 454.402 51.582C455.022 51.0653 455.446 50.373 455.673 49.505H458.277ZM455.828 44.638C455.828 43.8733 455.746 43.181 455.58 42.561C455.415 41.941 455.157 41.414 454.805 40.98C454.454 40.5253 453.999 40.174 453.441 39.926C452.883 39.678 452.212 39.554 451.426 39.554C450 39.554 448.884 39.988 448.078 40.856C447.293 41.724 446.828 42.9847 446.683 44.638H455.828ZM461.263 31.99H463.991L463.774 39.802H461.449L461.263 31.99ZM474.271 37.973H476.968V54H474.271V37.973ZM474.178 31.866H477.061V34.997H474.178V31.866ZM482.908 49.319C483.094 50.435 483.559 51.2203 484.303 51.675C485.068 52.109 486.101 52.326 487.403 52.326C488.767 52.326 489.728 52.0987 490.286 51.644C490.865 51.1687 491.154 50.5487 491.154 49.784C491.154 49.474 491.113 49.1847 491.03 48.916C490.968 48.6267 490.834 48.3787 490.627 48.172C490.421 47.9447 490.131 47.7483 489.759 47.583C489.387 47.4177 488.902 47.2833 488.302 47.18L486.256 46.87C485.347 46.7253 484.551 46.5393 483.869 46.312C483.187 46.0847 482.609 45.7953 482.133 45.444C481.658 45.072 481.296 44.6277 481.048 44.111C480.821 43.5737 480.707 42.933 480.707 42.189C480.707 41.445 480.862 40.7837 481.172 40.205C481.503 39.6263 481.947 39.1407 482.505 38.748C483.084 38.3347 483.756 38.0247 484.52 37.818C485.306 37.5907 486.153 37.477 487.062 37.477C488.22 37.477 489.181 37.5907 489.945 37.818C490.731 38.0453 491.371 38.3553 491.867 38.748C492.363 39.1407 492.746 39.6057 493.014 40.143C493.283 40.6803 493.49 41.2487 493.634 41.848L491.185 42.251C491.041 41.817 490.875 41.4347 490.689 41.104C490.503 40.7733 490.255 40.5047 489.945 40.298C489.635 40.0707 489.253 39.9053 488.798 39.802C488.364 39.678 487.817 39.616 487.155 39.616C486.411 39.616 485.791 39.6883 485.295 39.833C484.799 39.957 484.396 40.1327 484.086 40.36C483.797 40.5873 483.59 40.8457 483.466 41.135C483.342 41.4037 483.28 41.693 483.28 42.003C483.28 42.3337 483.322 42.6333 483.404 42.902C483.487 43.15 483.642 43.3773 483.869 43.584C484.097 43.77 484.407 43.9353 484.799 44.08C485.192 44.2247 485.698 44.3487 486.318 44.452L488.643 44.824C490.524 45.134 491.867 45.6713 492.673 46.436C493.5 47.2007 493.913 48.3167 493.913 49.784C493.913 50.466 493.779 51.0963 493.51 51.675C493.242 52.233 492.839 52.729 492.301 53.163C491.764 53.5763 491.092 53.8967 490.286 54.124C489.48 54.372 488.54 54.496 487.465 54.496C486.494 54.496 485.585 54.403 484.737 54.217C483.911 54.031 483.177 53.7417 482.536 53.349C481.896 52.9357 481.379 52.3983 480.986 51.737C480.594 51.0757 480.366 50.2697 480.304 49.319H482.908ZM514.253 51.799C513.674 52.5017 512.941 53.1113 512.052 53.628C511.163 54.124 510.058 54.372 508.735 54.372C507.929 54.372 507.185 54.2687 506.503 54.062C505.842 53.876 505.263 53.5867 504.767 53.194C504.292 52.7807 503.92 52.2743 503.651 51.675C503.382 51.0757 503.248 50.373 503.248 49.567C503.248 48.4717 503.475 47.583 503.93 46.901C504.405 46.219 505.025 45.6817 505.79 45.289C506.575 44.8963 507.454 44.6173 508.425 44.452C509.396 44.2867 510.399 44.1833 511.432 44.142L514.191 44.049V43.429C514.191 42.065 513.902 41.0833 513.323 40.484C512.744 39.8847 511.804 39.585 510.502 39.585C509.221 39.585 508.28 39.802 507.681 40.236C507.082 40.6493 506.689 41.228 506.503 41.972L504.054 41.693C504.343 40.2257 505.036 39.1613 506.131 38.5C507.226 37.818 508.714 37.477 510.595 37.477C511.752 37.477 512.724 37.6217 513.509 37.911C514.315 38.1797 514.966 38.5723 515.462 39.089C515.958 39.6057 516.309 40.2463 516.516 41.011C516.743 41.7757 516.857 42.6333 516.857 43.584V54H514.253V51.799ZM514.191 45.971L511.618 46.064C510.523 46.1053 509.613 46.2087 508.89 46.374C508.167 46.5393 507.588 46.7667 507.154 47.056C506.741 47.3247 506.441 47.6657 506.255 48.079C506.09 48.4923 506.007 48.9677 506.007 49.505C506.007 50.311 506.245 50.962 506.72 51.458C507.216 51.9333 508.022 52.171 509.138 52.171C510.729 52.171 511.969 51.7783 512.858 50.993C513.747 50.2077 514.191 49.133 514.191 47.769V45.971ZM520.952 37.973H523.618V40.422C524.403 39.368 525.271 38.6137 526.222 38.159C527.172 37.7043 528.175 37.477 529.229 37.477C531.047 37.477 532.391 37.973 533.259 38.965C534.147 39.957 534.592 41.414 534.592 43.336V54H531.895V43.863C531.895 42.375 531.626 41.3313 531.089 40.732C530.551 40.112 529.725 39.802 528.609 39.802C528.009 39.802 527.41 39.9053 526.811 40.112C526.232 40.3187 525.705 40.6493 525.23 41.104C524.713 41.5587 524.32 42.0443 524.052 42.561C523.783 43.057 523.649 43.708 523.649 44.514V54H520.952V37.973ZM545.596 37.973H548.293V54H545.596V37.973ZM545.503 31.866H548.386V34.997H545.503V31.866ZM552.496 37.973H555.162V40.422C555.948 39.368 556.816 38.6137 557.766 38.159C558.717 37.7043 559.719 37.477 560.773 37.477C562.592 37.477 563.935 37.973 564.803 38.965C565.692 39.957 566.136 41.414 566.136 43.336V54H563.439V43.863C563.439 42.375 563.171 41.3313 562.633 40.732C562.096 40.112 561.269 39.802 560.153 39.802C559.554 39.802 558.955 39.9053 558.355 40.112C557.777 40.3187 557.25 40.6493 556.774 41.104C556.258 41.5587 555.865 42.0443 555.596 42.561C555.328 43.057 555.193 43.708 555.193 44.514V54H552.496V37.973ZM571.106 40.112H568.626V37.973H571.106V33.602H573.803V37.973H578.05V40.112H573.803V49.505C573.803 50.2903 573.979 50.9207 574.33 51.396C574.681 51.8713 575.219 52.109 575.942 52.109C576.397 52.109 576.789 52.078 577.12 52.016C577.471 51.954 577.792 51.8713 578.081 51.768L578.546 53.845C578.133 53.9897 577.678 54.1033 577.182 54.186C576.707 54.2893 576.138 54.341 575.477 54.341C574.568 54.341 573.834 54.2067 573.276 53.938C572.718 53.6693 572.274 53.287 571.943 52.791C571.612 52.295 571.385 51.706 571.261 51.024C571.158 50.342 571.106 49.598 571.106 48.792V40.112ZM594.326 49.505C594.057 51.055 593.365 52.2743 592.249 53.163C591.154 54.0517 589.573 54.496 587.506 54.496C585.067 54.496 583.197 53.7623 581.895 52.295C580.593 50.807 579.942 48.7403 579.942 46.095C579.942 44.7103 580.128 43.4807 580.5 42.406C580.872 41.3313 581.389 40.4323 582.05 39.709C582.732 38.9857 583.538 38.438 584.468 38.066C585.398 37.6733 586.411 37.477 587.506 37.477C588.746 37.477 589.81 37.6733 590.699 38.066C591.588 38.4587 592.311 39.0063 592.869 39.709C593.448 40.391 593.871 41.2073 594.14 42.158C594.429 43.1087 594.574 44.1523 594.574 45.289V46.653H582.67C582.67 47.459 582.773 48.2133 582.98 48.916C583.207 49.598 583.517 50.1973 583.91 50.714C584.323 51.21 584.83 51.6027 585.429 51.892C586.028 52.1813 586.721 52.326 587.506 52.326C588.849 52.326 589.831 52.078 590.451 51.582C591.071 51.0653 591.495 50.373 591.722 49.505H594.326ZM591.877 44.638C591.877 43.8733 591.794 43.181 591.629 42.561C591.464 41.941 591.205 41.414 590.854 40.98C590.503 40.5253 590.048 40.174 589.49 39.926C588.932 39.678 588.26 39.554 587.475 39.554C586.049 39.554 584.933 39.988 584.127 40.856C583.342 41.724 582.877 42.9847 582.732 44.638H591.877ZM598.149 37.973H600.815V40.453C601.414 39.5643 602.117 38.8823 602.923 38.407C603.729 37.9317 604.586 37.694 605.496 37.694C606.054 37.694 606.529 37.7353 606.922 37.818L606.581 40.329C606.374 40.2877 606.167 40.2567 605.961 40.236C605.754 40.1947 605.527 40.174 605.279 40.174C604.783 40.174 604.276 40.267 603.76 40.453C603.243 40.6183 602.757 40.9077 602.303 41.321C601.848 41.7137 601.486 42.1683 601.218 42.685C600.97 43.2017 600.846 43.801 600.846 44.483V54H598.149V37.973ZM622.42 49.505C622.151 51.055 621.459 52.2743 620.343 53.163C619.248 54.0517 617.667 54.496 615.6 54.496C613.161 54.496 611.291 53.7623 609.989 52.295C608.687 50.807 608.036 48.7403 608.036 46.095C608.036 44.7103 608.222 43.4807 608.594 42.406C608.966 41.3313 609.483 40.4323 610.144 39.709C610.826 38.9857 611.632 38.438 612.562 38.066C613.492 37.6733 614.505 37.477 615.6 37.477C616.84 37.477 617.904 37.6733 618.793 38.066C619.682 38.4587 620.405 39.0063 620.963 39.709C621.542 40.391 621.965 41.2073 622.234 42.158C622.523 43.1087 622.668 44.1523 622.668 45.289V46.653H610.764C610.764 47.459 610.867 48.2133 611.074 48.916C611.301 49.598 611.611 50.1973 612.004 50.714C612.417 51.21 612.924 51.6027 613.523 51.892C614.122 52.1813 614.815 52.326 615.6 52.326C616.943 52.326 617.925 52.078 618.545 51.582C619.165 51.0653 619.589 50.373 619.816 49.505H622.42ZM619.971 44.638C619.971 43.8733 619.888 43.181 619.723 42.561C619.558 41.941 619.299 41.414 618.948 40.98C618.597 40.5253 618.142 40.174 617.584 39.926C617.026 39.678 616.354 39.554 615.569 39.554C614.143 39.554 613.027 39.988 612.221 40.856C611.436 41.724 610.971 42.9847 610.826 44.638H619.971ZM627.979 49.319C628.165 50.435 628.63 51.2203 629.374 51.675C630.138 52.109 631.172 52.326 632.474 52.326C633.838 52.326 634.799 52.0987 635.357 51.644C635.935 51.1687 636.225 50.5487 636.225 49.784C636.225 49.474 636.183 49.1847 636.101 48.916C636.039 48.6267 635.904 48.3787 635.698 48.172C635.491 47.9447 635.202 47.7483 634.83 47.583C634.458 47.4177 633.972 47.2833 633.373 47.18L631.327 46.87C630.417 46.7253 629.622 46.5393 628.94 46.312C628.258 46.0847 627.679 45.7953 627.204 45.444C626.728 45.072 626.367 44.6277 626.119 44.111C625.891 43.5737 625.778 42.933 625.778 42.189C625.778 41.445 625.933 40.7837 626.243 40.205C626.573 39.6263 627.018 39.1407 627.576 38.748C628.154 38.3347 628.826 38.0247 629.591 37.818C630.376 37.5907 631.223 37.477 632.133 37.477C633.29 37.477 634.251 37.5907 635.016 37.818C635.801 38.0453 636.442 38.3553 636.938 38.748C637.434 39.1407 637.816 39.6057 638.085 40.143C638.353 40.6803 638.56 41.2487 638.705 41.848L636.256 42.251C636.111 41.817 635.946 41.4347 635.76 41.104C635.574 40.7733 635.326 40.5047 635.016 40.298C634.706 40.0707 634.323 39.9053 633.869 39.802C633.435 39.678 632.887 39.616 632.226 39.616C631.482 39.616 630.862 39.6883 630.366 39.833C629.87 39.957 629.467 40.1327 629.157 40.36C628.867 40.5873 628.661 40.8457 628.537 41.135C628.413 41.4037 628.351 41.693 628.351 42.003C628.351 42.3337 628.392 42.6333 628.475 42.902C628.557 43.15 628.712 43.3773 628.94 43.584C629.167 43.77 629.477 43.9353 629.87 44.08C630.262 44.2247 630.769 44.3487 631.389 44.452L633.714 44.824C635.594 45.134 636.938 45.6713 637.744 46.436C638.57 47.2007 638.984 48.3167 638.984 49.784C638.984 50.466 638.849 51.0963 638.581 51.675C638.312 52.233 637.909 52.729 637.372 53.163C636.834 53.5763 636.163 53.8967 635.357 54.124C634.551 54.372 633.61 54.496 632.536 54.496C631.564 54.496 630.655 54.403 629.808 54.217C628.981 54.031 628.247 53.7417 627.607 53.349C626.966 52.9357 626.449 52.3983 626.057 51.737C625.664 51.0757 625.437 50.2697 625.375 49.319H627.979ZM643.369 40.112H640.889V37.973H643.369V33.602H646.066V37.973H650.313V40.112H646.066V49.505C646.066 50.2903 646.241 50.9207 646.593 51.396C646.944 51.8713 647.481 52.109 648.205 52.109C648.659 52.109 649.052 52.078 649.383 52.016C649.734 51.954 650.054 51.8713 650.344 51.768L650.809 53.845C650.395 53.9897 649.941 54.1033 649.445 54.186C648.969 54.2893 648.401 54.341 647.74 54.341C646.83 54.341 646.097 54.2067 645.539 53.938C644.981 53.6693 644.536 53.287 644.206 52.791C643.875 52.295 643.648 51.706 643.524 51.024C643.42 50.342 643.369 49.598 643.369 48.792V40.112ZM653.248 37.973H655.945V54H653.248V37.973ZM653.155 31.866H656.038V34.997H653.155V31.866ZM660.149 37.973H662.815V40.422C663.6 39.368 664.468 38.6137 665.419 38.159C666.369 37.7043 667.372 37.477 668.426 37.477C670.244 37.477 671.588 37.973 672.456 38.965C673.344 39.957 673.789 41.414 673.789 43.336V54H671.092V43.863C671.092 42.375 670.823 41.3313 670.286 40.732C669.748 40.112 668.922 39.802 667.806 39.802C667.206 39.802 666.607 39.9053 666.008 40.112C665.429 40.3187 664.902 40.6493 664.427 41.104C663.91 41.5587 663.517 42.0443 663.249 42.561C662.98 43.057 662.846 43.708 662.846 44.514V54H660.149V37.973ZM680.556 55.488C680.784 56.4593 681.218 57.1517 681.858 57.565C682.52 57.9783 683.543 58.185 684.927 58.185C686.622 58.185 687.79 57.7097 688.43 56.759C689.092 55.829 689.422 54.465 689.422 52.667V50.962C688.802 51.83 688.048 52.5017 687.159 52.977C686.291 53.4523 685.268 53.69 684.09 53.69C682.933 53.69 681.92 53.4833 681.052 53.07C680.205 52.636 679.502 52.0573 678.944 51.334C678.386 50.59 677.963 49.7323 677.673 48.761C677.405 47.7897 677.27 46.746 677.27 45.63C677.27 44.4107 677.436 43.305 677.766 42.313C678.097 41.3003 678.572 40.4427 679.192 39.74C679.812 39.0167 680.556 38.4587 681.424 38.066C682.313 37.6733 683.305 37.477 684.4 37.477C685.289 37.477 686.167 37.663 687.035 38.035C687.924 38.3863 688.73 39.0477 689.453 40.019V37.973H692.119V51.396C692.119 52.7807 692.016 54.0207 691.809 55.116C691.623 56.232 691.262 57.1723 690.724 57.937C690.208 58.7223 689.484 59.3217 688.554 59.735C687.624 60.1483 686.426 60.355 684.958 60.355C682.85 60.355 681.197 59.9727 679.998 59.208C678.8 58.464 678.097 57.224 677.89 55.488H680.556ZM689.484 45.382C689.484 44.328 689.36 43.4497 689.112 42.747C688.864 42.0237 688.523 41.4347 688.089 40.98C687.655 40.5253 687.149 40.205 686.57 40.019C686.012 39.8123 685.423 39.709 684.803 39.709C684.142 39.709 683.522 39.8227 682.943 40.05C682.385 40.2567 681.889 40.5977 681.455 41.073C681.042 41.5483 680.711 42.158 680.463 42.902C680.236 43.646 680.122 44.545 680.122 45.599C680.122 46.6737 680.246 47.583 680.494 48.327C680.763 49.071 681.104 49.6703 681.517 50.125C681.931 50.5797 682.406 50.9103 682.943 51.117C683.501 51.3237 684.059 51.427 684.617 51.427C685.32 51.427 685.961 51.3133 686.539 51.086C687.139 50.8587 687.655 50.5177 688.089 50.063C688.523 49.6083 688.864 49.04 689.112 48.358C689.36 47.6553 689.484 46.839 689.484 45.909V45.382ZM713.149 51.799C712.571 52.5017 711.837 53.1113 710.948 53.628C710.06 54.124 708.954 54.372 707.631 54.372C706.825 54.372 706.081 54.2687 705.399 54.062C704.738 53.876 704.159 53.5867 703.663 53.194C703.188 52.7807 702.816 52.2743 702.547 51.675C702.279 51.0757 702.144 50.373 702.144 49.567C702.144 48.4717 702.372 47.583 702.826 46.901C703.302 46.219 703.922 45.6817 704.686 45.289C705.472 44.8963 706.35 44.6173 707.321 44.452C708.293 44.2867 709.295 44.1833 710.328 44.142L713.087 44.049V43.429C713.087 42.065 712.798 41.0833 712.219 40.484C711.641 39.8847 710.7 39.585 709.398 39.585C708.117 39.585 707.177 39.802 706.577 40.236C705.978 40.6493 705.585 41.228 705.399 41.972L702.95 41.693C703.24 40.2257 703.932 39.1613 705.027 38.5C706.123 37.818 707.611 37.477 709.491 37.477C710.649 37.477 711.62 37.6217 712.405 37.911C713.211 38.1797 713.862 38.5723 714.358 39.089C714.854 39.6057 715.206 40.2463 715.412 41.011C715.64 41.7757 715.753 42.6333 715.753 43.584V54H713.149V51.799ZM713.087 45.971L710.514 46.064C709.419 46.1053 708.51 46.2087 707.786 46.374C707.063 46.5393 706.484 46.7667 706.05 47.056C705.637 47.3247 705.337 47.6657 705.151 48.079C704.986 48.4923 704.903 48.9677 704.903 49.505C704.903 50.311 705.141 50.962 705.616 51.458C706.112 51.9333 706.918 52.171 708.034 52.171C709.626 52.171 710.866 51.7783 711.754 50.993C712.643 50.2077 713.087 49.133 713.087 47.769V45.971ZM721.584 49.319C721.77 50.435 722.235 51.2203 722.979 51.675C723.744 52.109 724.777 52.326 726.079 52.326C727.443 52.326 728.404 52.0987 728.962 51.644C729.541 51.1687 729.83 50.5487 729.83 49.784C729.83 49.474 729.789 49.1847 729.706 48.916C729.644 48.6267 729.51 48.3787 729.303 48.172C729.096 47.9447 728.807 47.7483 728.435 47.583C728.063 47.4177 727.577 47.2833 726.978 47.18L724.932 46.87C724.023 46.7253 723.227 46.5393 722.545 46.312C721.863 46.0847 721.284 45.7953 720.809 45.444C720.334 45.072 719.972 44.6277 719.724 44.111C719.497 43.5737 719.383 42.933 719.383 42.189C719.383 41.445 719.538 40.7837 719.848 40.205C720.179 39.6263 720.623 39.1407 721.181 38.748C721.76 38.3347 722.431 38.0247 723.196 37.818C723.981 37.5907 724.829 37.477 725.738 37.477C726.895 37.477 727.856 37.5907 728.621 37.818C729.406 38.0453 730.047 38.3553 730.543 38.748C731.039 39.1407 731.421 39.6057 731.69 40.143C731.959 40.6803 732.165 41.2487 732.31 41.848L729.861 42.251C729.716 41.817 729.551 41.4347 729.365 41.104C729.179 40.7733 728.931 40.5047 728.621 40.298C728.311 40.0707 727.929 39.9053 727.474 39.802C727.04 39.678 726.492 39.616 725.831 39.616C725.087 39.616 724.467 39.6883 723.971 39.833C723.475 39.957 723.072 40.1327 722.762 40.36C722.473 40.5873 722.266 40.8457 722.142 41.135C722.018 41.4037 721.956 41.693 721.956 42.003C721.956 42.3337 721.997 42.6333 722.08 42.902C722.163 43.15 722.318 43.3773 722.545 43.584C722.772 43.77 723.082 43.9353 723.475 44.08C723.868 44.2247 724.374 44.3487 724.994 44.452L727.319 44.824C729.2 45.134 730.543 45.6713 731.349 46.436C732.176 47.2007 732.589 48.3167 732.589 49.784C732.589 50.466 732.455 51.0963 732.186 51.675C731.917 52.233 731.514 52.729 730.977 53.163C730.44 53.5763 729.768 53.8967 728.962 54.124C728.156 54.372 727.216 54.496 726.141 54.496C725.17 54.496 724.26 54.403 723.413 54.217C722.586 54.031 721.853 53.7417 721.212 53.349C720.571 52.9357 720.055 52.3983 719.662 51.737C719.269 51.0757 719.042 50.2697 718.98 49.319H721.584ZM737.78 49.319C737.966 50.435 738.431 51.2203 739.175 51.675C739.94 52.109 740.973 52.326 742.275 52.326C743.639 52.326 744.6 52.0987 745.158 51.644C745.737 51.1687 746.026 50.5487 746.026 49.784C746.026 49.474 745.985 49.1847 745.902 48.916C745.84 48.6267 745.706 48.3787 745.499 48.172C745.293 47.9447 745.003 47.7483 744.631 47.583C744.259 47.4177 743.774 47.2833 743.174 47.18L741.128 46.87C740.219 46.7253 739.423 46.5393 738.741 46.312C738.059 46.0847 737.481 45.7953 737.005 45.444C736.53 45.072 736.168 44.6277 735.92 44.111C735.693 43.5737 735.579 42.933 735.579 42.189C735.579 41.445 735.734 40.7837 736.044 40.205C736.375 39.6263 736.819 39.1407 737.377 38.748C737.956 38.3347 738.628 38.0247 739.392 37.818C740.178 37.5907 741.025 37.477 741.934 37.477C743.092 37.477 744.053 37.5907 744.817 37.818C745.603 38.0453 746.243 38.3553 746.739 38.748C747.235 39.1407 747.618 39.6057 747.886 40.143C748.155 40.6803 748.362 41.2487 748.506 41.848L746.057 42.251C745.913 41.817 745.747 41.4347 745.561 41.104C745.375 40.7733 745.127 40.5047 744.817 40.298C744.507 40.0707 744.125 39.9053 743.67 39.802C743.236 39.678 742.689 39.616 742.027 39.616C741.283 39.616 740.663 39.6883 740.167 39.833C739.671 39.957 739.268 40.1327 738.958 40.36C738.669 40.5873 738.462 40.8457 738.338 41.135C738.214 41.4037 738.152 41.693 738.152 42.003C738.152 42.3337 738.194 42.6333 738.276 42.902C738.359 43.15 738.514 43.3773 738.741 43.584C738.969 43.77 739.279 43.9353 739.671 44.08C740.064 44.2247 740.57 44.3487 741.19 44.452L743.515 44.824C745.396 45.134 746.739 45.6713 747.545 46.436C748.372 47.2007 748.785 48.3167 748.785 49.784C748.785 50.466 748.651 51.0963 748.382 51.675C748.114 52.233 747.711 52.729 747.173 53.163C746.636 53.5763 745.964 53.8967 745.158 54.124C744.352 54.372 743.412 54.496 742.337 54.496C741.366 54.496 740.457 54.403 739.609 54.217C738.783 54.031 738.049 53.7417 737.408 53.349C736.768 52.9357 736.251 52.3983 735.858 51.737C735.466 51.0757 735.238 50.2697 735.176 49.319H737.78ZM752.148 37.973H754.845V48.079C754.845 49.567 755.082 50.621 755.558 51.241C756.054 51.861 756.849 52.171 757.945 52.171C759.143 52.171 760.228 51.737 761.2 50.869C761.716 50.4143 762.109 49.939 762.378 49.443C762.646 48.9263 762.781 48.265 762.781 47.459V37.973H765.478V54H762.812V51.52C762.026 52.5533 761.179 53.3077 760.27 53.783C759.36 54.2583 758.379 54.496 757.325 54.496C755.506 54.496 754.183 54.0103 753.357 53.039C752.551 52.047 752.148 50.5693 752.148 48.606V37.973ZM769.618 37.973H772.284V40.422C773.007 39.43 773.803 38.6963 774.671 38.221C775.539 37.725 776.427 37.477 777.337 37.477C778.535 37.477 779.496 37.7353 780.22 38.252C780.964 38.7687 781.511 39.5127 781.863 40.484C782.586 39.492 783.413 38.748 784.343 38.252C785.273 37.7353 786.265 37.477 787.319 37.477C788.889 37.477 790.098 37.911 790.946 38.779C791.814 39.6263 792.248 41.0007 792.248 42.902V54H789.551V43.522C789.551 42.7987 789.489 42.1993 789.365 41.724C789.241 41.228 789.055 40.8457 788.807 40.577C788.579 40.2877 788.29 40.0913 787.939 39.988C787.587 39.864 787.184 39.802 786.73 39.802C786.254 39.802 785.758 39.8847 785.242 40.05C784.725 40.2153 784.219 40.5047 783.723 40.918C783.309 41.2693 782.968 41.693 782.7 42.189C782.431 42.685 782.297 43.2533 782.297 43.894V54H779.6V43.553C779.6 42.1477 779.352 41.1763 778.856 40.639C778.38 40.081 777.688 39.802 776.779 39.802C775.725 39.802 774.733 40.236 773.803 41.104C773.451 41.4347 773.11 41.8583 772.78 42.375C772.47 42.8917 772.315 43.584 772.315 44.452V54H769.618V37.973ZM796.319 37.973H798.985V40.267C799.646 39.3577 800.411 38.6653 801.279 38.19C802.167 37.7147 803.201 37.477 804.379 37.477C805.515 37.477 806.507 37.6837 807.355 38.097C808.223 38.5103 808.936 39.089 809.494 39.833C810.072 40.577 810.496 41.4657 810.765 42.499C811.054 43.5117 811.199 44.638 811.199 45.878C811.199 47.2007 811.033 48.3993 810.703 49.474C810.372 50.528 809.897 51.427 809.277 52.171C808.657 52.915 807.902 53.4937 807.014 53.907C806.146 54.2997 805.164 54.496 804.069 54.496C803.159 54.496 802.26 54.3203 801.372 53.969C800.504 53.597 799.718 52.946 799.016 52.016V60.014H796.319V37.973ZM798.985 46.436C798.985 47.4693 799.098 48.358 799.326 49.102C799.574 49.8253 799.904 50.4247 800.318 50.9C800.731 51.3753 801.227 51.7267 801.806 51.954C802.384 52.1607 803.015 52.264 803.697 52.264C804.358 52.264 804.968 52.1503 805.526 51.923C806.104 51.6957 806.6 51.334 807.014 50.838C807.427 50.3213 807.747 49.66 807.975 48.854C808.223 48.048 808.347 47.0663 808.347 45.909C808.347 44.731 808.212 43.7493 807.944 42.964C807.696 42.158 807.365 41.5173 806.952 41.042C806.538 40.5667 806.063 40.2257 805.526 40.019C805.009 39.8123 804.472 39.709 803.914 39.709C803.211 39.709 802.56 39.833 801.961 40.081C801.361 40.3083 800.834 40.6597 800.38 41.135C799.946 41.5897 799.605 42.1787 799.357 42.902C799.109 43.6047 798.985 44.421 798.985 45.351V46.436ZM815.746 40.112H813.266V37.973H815.746V33.602H818.443V37.973H822.69V40.112H818.443V49.505C818.443 50.2903 818.618 50.9207 818.97 51.396C819.321 51.8713 819.858 52.109 820.582 52.109C821.036 52.109 821.429 52.078 821.76 52.016C822.111 51.954 822.431 51.8713 822.721 51.768L823.186 53.845C822.772 53.9897 822.318 54.1033 821.822 54.186C821.346 54.2893 820.778 54.341 820.117 54.341C819.207 54.341 818.474 54.2067 817.916 53.938C817.358 53.6693 816.913 53.287 816.583 52.791C816.252 52.295 816.025 51.706 815.901 51.024C815.797 50.342 815.746 49.598 815.746 48.792V40.112ZM825.625 37.973H828.322V54H825.625V37.973ZM825.532 31.866H828.415V34.997H825.532V31.866ZM839.718 54.496C838.498 54.496 837.413 54.2997 836.463 53.907C835.512 53.5143 834.706 52.9563 834.045 52.233C833.383 51.5097 832.877 50.621 832.526 49.567C832.174 48.513 831.999 47.335 831.999 46.033C831.999 44.731 832.185 43.553 832.557 42.499C832.929 41.445 833.456 40.546 834.138 39.802C834.82 39.058 835.636 38.4897 836.587 38.097C837.558 37.6837 838.633 37.477 839.811 37.477C841.009 37.477 842.084 37.6733 843.035 38.066C843.985 38.4587 844.791 39.027 845.453 39.771C846.135 40.4943 846.651 41.3727 847.003 42.406C847.354 43.4393 847.53 44.607 847.53 45.909C847.53 47.2317 847.344 48.42 846.972 49.474C846.62 50.528 846.104 51.427 845.422 52.171C844.76 52.915 843.944 53.4937 842.973 53.907C842.001 54.2997 840.916 54.496 839.718 54.496ZM839.749 52.264C840.617 52.264 841.361 52.109 841.981 51.799C842.601 51.489 843.107 51.055 843.5 50.497C843.913 49.939 844.213 49.2777 844.399 48.513C844.585 47.7277 844.678 46.87 844.678 45.94C844.678 45.0307 844.585 44.1937 844.399 43.429C844.213 42.6643 843.913 42.0133 843.5 41.476C843.107 40.918 842.601 40.484 841.981 40.174C841.361 39.864 840.617 39.709 839.749 39.709C838.881 39.709 838.137 39.864 837.517 40.174C836.917 40.484 836.411 40.918 835.998 41.476C835.605 42.0133 835.316 42.6643 835.13 43.429C834.944 44.1937 834.851 45.041 834.851 45.971C834.851 46.901 834.944 47.7483 835.13 48.513C835.316 49.2777 835.605 49.939 835.998 50.497C836.39 51.055 836.897 51.489 837.517 51.799C838.137 52.109 838.881 52.264 839.749 52.264ZM851.144 37.973H853.81V40.422C854.595 39.368 855.463 38.6137 856.414 38.159C857.365 37.7043 858.367 37.477 859.421 37.477C861.24 37.477 862.583 37.973 863.451 38.965C864.34 39.957 864.784 41.414 864.784 43.336V54H862.087V43.863C862.087 42.375 861.818 41.3313 861.281 40.732C860.744 40.112 859.917 39.802 858.801 39.802C858.202 39.802 857.602 39.9053 857.003 40.112C856.424 40.3187 855.897 40.6493 855.422 41.104C854.905 41.5587 854.513 42.0443 854.244 42.561C853.975 43.057 853.841 43.708 853.841 44.514V54H851.144V37.973ZM150.367 80.112H147.856V77.973H150.367V76.578C150.367 75.71 150.491 74.966 150.739 74.346C151.007 73.726 151.359 73.2197 151.793 72.827C152.247 72.4137 152.764 72.114 153.343 71.928C153.942 71.7213 154.572 71.618 155.234 71.618C155.709 71.618 156.164 71.649 156.598 71.711C157.032 71.7523 157.486 71.8453 157.962 71.99L157.528 74.098C157.197 73.9947 156.877 73.9327 156.567 73.912C156.277 73.8707 155.988 73.85 155.699 73.85C154.975 73.85 154.355 74.0463 153.839 74.439C153.322 74.811 153.064 75.5033 153.064 76.516V77.973H157.125V80.112H153.064V94H150.367V80.112ZM166.346 94.496C165.126 94.496 164.041 94.2997 163.091 93.907C162.14 93.5143 161.334 92.9563 160.673 92.233C160.011 91.5097 159.505 90.621 159.154 89.567C158.802 88.513 158.627 87.335 158.627 86.033C158.627 84.731 158.813 83.553 159.185 82.499C159.557 81.445 160.084 80.546 160.766 79.802C161.448 79.058 162.264 78.4897 163.215 78.097C164.186 77.6837 165.261 77.477 166.439 77.477C167.637 77.477 168.712 77.6733 169.663 78.066C170.613 78.4587 171.419 79.027 172.081 79.771C172.763 80.4943 173.279 81.3727 173.631 82.406C173.982 83.4393 174.158 84.607 174.158 85.909C174.158 87.2317 173.972 88.42 173.6 89.474C173.248 90.528 172.732 91.427 172.05 92.171C171.388 92.915 170.572 93.4937 169.601 93.907C168.629 94.2997 167.544 94.496 166.346 94.496ZM166.377 92.264C167.245 92.264 167.989 92.109 168.609 91.799C169.229 91.489 169.735 91.055 170.128 90.497C170.541 89.939 170.841 89.2777 171.027 88.513C171.213 87.7277 171.306 86.87 171.306 85.94C171.306 85.0307 171.213 84.1937 171.027 83.429C170.841 82.6643 170.541 82.0133 170.128 81.476C169.735 80.918 169.229 80.484 168.609 80.174C167.989 79.864 167.245 79.709 166.377 79.709C165.509 79.709 164.765 79.864 164.145 80.174C163.545 80.484 163.039 80.918 162.626 81.476C162.233 82.0133 161.944 82.6643 161.758 83.429C161.572 84.1937 161.479 85.041 161.479 85.971C161.479 86.901 161.572 87.7483 161.758 88.513C161.944 89.2777 162.233 89.939 162.626 90.497C163.018 91.055 163.525 91.489 164.145 91.799C164.765 92.109 165.509 92.264 166.377 92.264ZM177.772 77.973H180.438V80.453C181.037 79.5643 181.74 78.8823 182.546 78.407C183.352 77.9317 184.209 77.694 185.119 77.694C185.677 77.694 186.152 77.7353 186.545 77.818L186.204 80.329C185.997 80.2877 185.79 80.2567 185.584 80.236C185.377 80.1947 185.15 80.174 184.902 80.174C184.406 80.174 183.899 80.267 183.383 80.453C182.866 80.6183 182.38 80.9077 181.926 81.321C181.471 81.7137 181.109 82.1683 180.841 82.685C180.593 83.2017 180.469 83.801 180.469 84.483V94H177.772V77.973ZM194.198 77.973H197.143L200.367 90.745L204.056 78.066H206.784L210.38 90.745L213.573 77.973H216.425L211.744 94H208.892L205.296 81.228L201.669 94H198.848L194.198 77.973ZM218.762 71.866H221.459V80.36C222.244 79.3473 223.102 78.6137 224.032 78.159C224.983 77.7043 225.985 77.477 227.039 77.477C228.858 77.477 230.201 77.973 231.069 78.965C231.958 79.957 232.402 81.414 232.402 83.336V94H229.674V83.863C229.674 82.375 229.405 81.3313 228.868 80.732C228.351 80.112 227.535 79.802 226.419 79.802C225.82 79.802 225.22 79.9053 224.621 80.112C224.042 80.3187 223.515 80.6493 223.04 81.104C222.523 81.5587 222.131 82.0443 221.862 82.561C221.593 83.057 221.459 83.708 221.459 84.514V94H218.762V71.866ZM246.424 91.799C245.845 92.5017 245.111 93.1113 244.223 93.628C243.334 94.124 242.228 94.372 240.906 94.372C240.1 94.372 239.356 94.2687 238.674 94.062C238.012 93.876 237.434 93.5867 236.938 93.194C236.462 92.7807 236.09 92.2743 235.822 91.675C235.553 91.0757 235.419 90.373 235.419 89.567C235.419 88.4717 235.646 87.583 236.101 86.901C236.576 86.219 237.196 85.6817 237.961 85.289C238.746 84.8963 239.624 84.6173 240.596 84.452C241.567 84.2867 242.569 84.1833 243.603 84.142L246.362 84.049V83.429C246.362 82.065 246.072 81.0833 245.494 80.484C244.915 79.8847 243.975 79.585 242.673 79.585C241.391 79.585 240.451 79.802 239.852 80.236C239.252 80.6493 238.86 81.228 238.674 81.972L236.225 81.693C236.514 80.2257 237.206 79.1613 238.302 78.5C239.397 77.818 240.885 77.477 242.766 77.477C243.923 77.477 244.894 77.6217 245.68 77.911C246.486 78.1797 247.137 78.5723 247.633 79.089C248.129 79.6057 248.48 80.2463 248.687 81.011C248.914 81.7757 249.028 82.6333 249.028 83.584V94H246.424V91.799ZM246.362 85.971L243.789 86.064C242.693 86.1053 241.784 86.2087 241.061 86.374C240.337 86.5393 239.759 86.7667 239.325 87.056C238.911 87.3247 238.612 87.6657 238.426 88.079C238.26 88.4923 238.178 88.9677 238.178 89.505C238.178 90.311 238.415 90.962 238.891 91.458C239.387 91.9333 240.193 92.171 241.309 92.171C242.9 92.171 244.14 91.7783 245.029 90.993C245.917 90.2077 246.362 89.133 246.362 87.769V85.971ZM254.052 80.112H251.572V77.973H254.052V73.602H256.749V77.973H260.996V80.112H256.749V89.505C256.749 90.2903 256.925 90.9207 257.276 91.396C257.628 91.8713 258.165 92.109 258.888 92.109C259.343 92.109 259.736 92.078 260.066 92.016C260.418 91.954 260.738 91.8713 261.027 91.768L261.492 93.845C261.079 93.9897 260.624 94.1033 260.128 94.186C259.653 94.2893 259.085 94.341 258.423 94.341C257.514 94.341 256.78 94.2067 256.222 93.938C255.664 93.6693 255.22 93.287 254.889 92.791C254.559 92.295 254.331 91.706 254.207 91.024C254.104 90.342 254.052 89.598 254.052 88.792V80.112ZM270.772 77.973H273.438V80.422C274.161 79.43 274.957 78.6963 275.825 78.221C276.693 77.725 277.581 77.477 278.491 77.477C279.689 77.477 280.65 77.7353 281.374 78.252C282.118 78.7687 282.665 79.5127 283.017 80.484C283.74 79.492 284.567 78.748 285.497 78.252C286.427 77.7353 287.419 77.477 288.473 77.477C290.043 77.477 291.252 77.911 292.1 78.779C292.968 79.6263 293.402 81.0007 293.402 82.902V94H290.705V83.522C290.705 82.7987 290.643 82.1993 290.519 81.724C290.395 81.228 290.209 80.8457 289.961 80.577C289.733 80.2877 289.444 80.0913 289.093 79.988C288.741 79.864 288.338 79.802 287.884 79.802C287.408 79.802 286.912 79.8847 286.396 80.05C285.879 80.2153 285.373 80.5047 284.877 80.918C284.463 81.2693 284.122 81.693 283.854 82.189C283.585 82.685 283.451 83.2533 283.451 83.894V94H280.754V83.553C280.754 82.1477 280.506 81.1763 280.01 80.639C279.534 80.081 278.842 79.802 277.933 79.802C276.879 79.802 275.887 80.236 274.957 81.104C274.605 81.4347 274.264 81.8583 273.934 82.375C273.624 82.8917 273.469 83.584 273.469 84.452V94H270.772V77.973ZM307.455 91.799C306.876 92.5017 306.143 93.1113 305.254 93.628C304.365 94.124 303.26 94.372 301.937 94.372C301.131 94.372 300.387 94.2687 299.705 94.062C299.044 93.876 298.465 93.5867 297.969 93.194C297.494 92.7807 297.122 92.2743 296.853 91.675C296.584 91.0757 296.45 90.373 296.45 89.567C296.45 88.4717 296.677 87.583 297.132 86.901C297.607 86.219 298.227 85.6817 298.992 85.289C299.777 84.8963 300.656 84.6173 301.627 84.452C302.598 84.2867 303.601 84.1833 304.634 84.142L307.393 84.049V83.429C307.393 82.065 307.104 81.0833 306.525 80.484C305.946 79.8847 305.006 79.585 303.704 79.585C302.423 79.585 301.482 79.802 300.883 80.236C300.284 80.6493 299.891 81.228 299.705 81.972L297.256 81.693C297.545 80.2257 298.238 79.1613 299.333 78.5C300.428 77.818 301.916 77.477 303.797 77.477C304.954 77.477 305.926 77.6217 306.711 77.911C307.517 78.1797 308.168 78.5723 308.664 79.089C309.16 79.6057 309.511 80.2463 309.718 81.011C309.945 81.7757 310.059 82.6333 310.059 83.584V94H307.455V91.799ZM307.393 85.971L304.82 86.064C303.725 86.1053 302.815 86.2087 302.092 86.374C301.369 86.5393 300.79 86.7667 300.356 87.056C299.943 87.3247 299.643 87.6657 299.457 88.079C299.292 88.4923 299.209 88.9677 299.209 89.505C299.209 90.311 299.447 90.962 299.922 91.458C300.418 91.9333 301.224 92.171 302.34 92.171C303.931 92.171 305.171 91.7783 306.06 90.993C306.949 90.2077 307.393 89.133 307.393 87.769V85.971ZM313.789 97.41C314.368 97.6167 314.946 97.72 315.525 97.72C316.186 97.72 316.693 97.5443 317.044 97.193C317.416 96.8623 317.778 96.232 318.129 95.302L318.78 93.597L311.991 77.973H315.122L320.175 90.559L324.794 77.973H327.77L320.764 95.519C320.475 96.2423 320.185 96.8727 319.896 97.41C319.607 97.968 319.286 98.4433 318.935 98.836C318.584 99.2287 318.16 99.518 317.664 99.704C317.189 99.9107 316.6 100.014 315.897 100.014C315.401 100.014 314.957 99.983 314.564 99.921C314.171 99.859 313.737 99.7453 313.262 99.58L313.789 97.41ZM348.636 91.706C347.974 92.5947 347.21 93.287 346.342 93.783C345.474 94.2583 344.451 94.496 343.273 94.496C342.095 94.496 341.072 94.279 340.204 93.845C339.356 93.411 338.654 92.822 338.096 92.078C337.538 91.3133 337.124 90.4143 336.856 89.381C336.587 88.3477 336.453 87.242 336.453 86.064C336.453 84.7413 336.618 83.553 336.949 82.499C337.279 81.4243 337.744 80.515 338.344 79.771C338.964 79.027 339.708 78.4587 340.576 78.066C341.464 77.6733 342.467 77.477 343.583 77.477C344.43 77.477 345.288 77.6527 346.156 78.004C347.024 78.3347 347.83 78.9753 348.574 79.926V71.866H351.271V94H348.636V91.706ZM348.667 85.506C348.667 84.2247 348.522 83.2327 348.233 82.53C347.964 81.8067 347.509 81.197 346.869 80.701C346.414 80.329 345.949 80.0707 345.474 79.926C345.019 79.7813 344.513 79.709 343.955 79.709C343.293 79.709 342.673 79.8227 342.095 80.05C341.537 80.2773 341.041 80.6493 340.607 81.166C340.193 81.662 339.863 82.313 339.615 83.119C339.387 83.9043 339.274 84.8653 339.274 86.002C339.274 87.18 339.398 88.172 339.646 88.978C339.914 89.784 340.255 90.4247 340.669 90.9C341.103 91.3753 341.578 91.7163 342.095 91.923C342.632 92.1297 343.18 92.233 343.738 92.233C344.337 92.233 344.874 92.1607 345.35 92.016C345.825 91.8713 346.3 91.6233 346.776 91.272C347.396 90.776 347.861 90.156 348.171 89.412C348.501 88.668 348.667 87.7277 348.667 86.591V85.506ZM355.447 77.973H358.113V80.453C358.712 79.5643 359.415 78.8823 360.221 78.407C361.027 77.9317 361.884 77.694 362.794 77.694C363.352 77.694 363.827 77.7353 364.22 77.818L363.879 80.329C363.672 80.2877 363.465 80.2567 363.259 80.236C363.052 80.1947 362.825 80.174 362.577 80.174C362.081 80.174 361.574 80.267 361.058 80.453C360.541 80.6183 360.055 80.9077 359.601 81.321C359.146 81.7137 358.784 82.1683 358.516 82.685C358.268 83.2017 358.144 83.801 358.144 84.483V94H355.447V77.973ZM366.861 77.973H369.558V94H366.861V77.973ZM366.768 71.866H369.651V74.997H366.768V71.866ZM371.902 77.973H375.033L379.807 90.993L384.674 77.973H387.65L381.202 94H378.319L371.902 77.973ZM403.18 89.505C402.911 91.055 402.219 92.2743 401.103 93.163C400.007 94.0517 398.426 94.496 396.36 94.496C393.921 94.496 392.051 93.7623 390.749 92.295C389.447 90.807 388.796 88.7403 388.796 86.095C388.796 84.7103 388.982 83.4807 389.354 82.406C389.726 81.3313 390.242 80.4323 390.904 79.709C391.586 78.9857 392.392 78.438 393.322 78.066C394.252 77.6733 395.264 77.477 396.36 77.477C397.6 77.477 398.664 77.6733 399.553 78.066C400.441 78.4587 401.165 79.0063 401.723 79.709C402.301 80.391 402.725 81.2073 402.994 82.158C403.283 83.1087 403.428 84.1523 403.428 85.289V86.653H391.524C391.524 87.459 391.627 88.2133 391.834 88.916C392.061 89.598 392.371 90.1973 392.764 90.714C393.177 91.21 393.683 91.6027 394.283 91.892C394.882 92.1813 395.574 92.326 396.36 92.326C397.703 92.326 398.685 92.078 399.305 91.582C399.925 91.0653 400.348 90.373 400.576 89.505H403.18ZM400.731 84.638C400.731 83.8733 400.648 83.181 400.483 82.561C400.317 81.941 400.059 81.414 399.708 80.98C399.356 80.5253 398.902 80.174 398.344 79.926C397.786 79.678 397.114 79.554 396.329 79.554C394.903 79.554 393.787 79.988 392.981 80.856C392.195 81.724 391.73 82.9847 391.586 84.638H400.731ZM423.887 91.799C423.308 92.5017 422.574 93.1113 421.686 93.628C420.797 94.124 419.691 94.372 418.369 94.372C417.563 94.372 416.819 94.2687 416.137 94.062C415.475 93.876 414.897 93.5867 414.401 93.194C413.925 92.7807 413.553 92.2743 413.285 91.675C413.016 91.0757 412.882 90.373 412.882 89.567C412.882 88.4717 413.109 87.583 413.564 86.901C414.039 86.219 414.659 85.6817 415.424 85.289C416.209 84.8963 417.087 84.6173 418.059 84.452C419.03 84.2867 420.032 84.1833 421.066 84.142L423.825 84.049V83.429C423.825 82.065 423.535 81.0833 422.957 80.484C422.378 79.8847 421.438 79.585 420.136 79.585C418.854 79.585 417.914 79.802 417.315 80.236C416.715 80.6493 416.323 81.228 416.137 81.972L413.688 81.693C413.977 80.2257 414.669 79.1613 415.765 78.5C416.86 77.818 418.348 77.477 420.229 77.477C421.386 77.477 422.357 77.6217 423.143 77.911C423.949 78.1797 424.6 78.5723 425.096 79.089C425.592 79.6057 425.943 80.2463 426.15 81.011C426.377 81.7757 426.491 82.6333 426.491 83.584V94H423.887V91.799ZM423.825 85.971L421.252 86.064C420.156 86.1053 419.247 86.2087 418.524 86.374C417.8 86.5393 417.222 86.7667 416.788 87.056C416.374 87.3247 416.075 87.6657 415.889 88.079C415.723 88.4923 415.641 88.9677 415.641 89.505C415.641 90.311 415.878 90.962 416.354 91.458C416.85 91.9333 417.656 92.171 418.772 92.171C420.363 92.171 421.603 91.7783 422.492 90.993C423.38 90.2077 423.825 89.133 423.825 87.769V85.971ZM449.144 91.706C448.482 92.5947 447.718 93.287 446.85 93.783C445.982 94.2583 444.959 94.496 443.781 94.496C442.603 94.496 441.58 94.279 440.712 93.845C439.864 93.411 439.162 92.822 438.604 92.078C438.046 91.3133 437.632 90.4143 437.364 89.381C437.095 88.3477 436.961 87.242 436.961 86.064C436.961 84.7413 437.126 83.553 437.457 82.499C437.787 81.4243 438.252 80.515 438.852 79.771C439.472 79.027 440.216 78.4587 441.084 78.066C441.972 77.6733 442.975 77.477 444.091 77.477C444.938 77.477 445.796 77.6527 446.664 78.004C447.532 78.3347 448.338 78.9753 449.082 79.926V71.866H451.779V94H449.144V91.706ZM449.175 85.506C449.175 84.2247 449.03 83.2327 448.741 82.53C448.472 81.8067 448.017 81.197 447.377 80.701C446.922 80.329 446.457 80.0707 445.982 79.926C445.527 79.7813 445.021 79.709 444.463 79.709C443.801 79.709 443.181 79.8227 442.603 80.05C442.045 80.2773 441.549 80.6493 441.115 81.166C440.701 81.662 440.371 82.313 440.123 83.119C439.895 83.9043 439.782 84.8653 439.782 86.002C439.782 87.18 439.906 88.172 440.154 88.978C440.422 89.784 440.763 90.4247 441.177 90.9C441.611 91.3753 442.086 91.7163 442.603 91.923C443.14 92.1297 443.688 92.233 444.246 92.233C444.845 92.233 445.382 92.1607 445.858 92.016C446.333 91.8713 446.808 91.6233 447.284 91.272C447.904 90.776 448.369 90.156 448.679 89.412C449.009 88.668 449.175 87.7277 449.175 86.591V85.506ZM469.811 89.505C469.543 91.055 468.85 92.2743 467.734 93.163C466.639 94.0517 465.058 94.496 462.991 94.496C460.553 94.496 458.682 93.7623 457.38 92.295C456.078 90.807 455.427 88.7403 455.427 86.095C455.427 84.7103 455.613 83.4807 455.985 82.406C456.357 81.3313 456.874 80.4323 457.535 79.709C458.217 78.9857 459.023 78.438 459.953 78.066C460.883 77.6733 461.896 77.477 462.991 77.477C464.231 77.477 465.296 77.6733 466.184 78.066C467.073 78.4587 467.796 79.0063 468.354 79.709C468.933 80.391 469.357 81.2073 469.625 82.158C469.915 83.1087 470.059 84.1523 470.059 85.289V86.653H458.155C458.155 87.459 458.259 88.2133 458.465 88.916C458.693 89.598 459.003 90.1973 459.395 90.714C459.809 91.21 460.315 91.6027 460.914 91.892C461.514 92.1813 462.206 92.326 462.991 92.326C464.335 92.326 465.316 92.078 465.936 91.582C466.556 91.0653 466.98 90.373 467.207 89.505H469.811ZM467.362 84.638C467.362 83.8733 467.28 83.181 467.114 82.561C466.949 81.941 466.691 81.414 466.339 80.98C465.988 80.5253 465.533 80.174 464.975 79.926C464.417 79.678 463.746 79.554 462.96 79.554C461.534 79.554 460.418 79.988 459.612 80.856C458.827 81.724 458.362 82.9847 458.217 84.638H467.362ZM475.37 89.319C475.556 90.435 476.021 91.2203 476.765 91.675C477.53 92.109 478.563 92.326 479.865 92.326C481.229 92.326 482.19 92.0987 482.748 91.644C483.327 91.1687 483.616 90.5487 483.616 89.784C483.616 89.474 483.575 89.1847 483.492 88.916C483.43 88.6267 483.296 88.3787 483.089 88.172C482.882 87.9447 482.593 87.7483 482.221 87.583C481.849 87.4177 481.363 87.2833 480.764 87.18L478.718 86.87C477.809 86.7253 477.013 86.5393 476.331 86.312C475.649 86.0847 475.07 85.7953 474.595 85.444C474.12 85.072 473.758 84.6277 473.51 84.111C473.283 83.5737 473.169 82.933 473.169 82.189C473.169 81.445 473.324 80.7837 473.634 80.205C473.965 79.6263 474.409 79.1407 474.967 78.748C475.546 78.3347 476.217 78.0247 476.982 77.818C477.767 77.5907 478.615 77.477 479.524 77.477C480.681 77.477 481.642 77.5907 482.407 77.818C483.192 78.0453 483.833 78.3553 484.329 78.748C484.825 79.1407 485.207 79.6057 485.476 80.143C485.745 80.6803 485.951 81.2487 486.096 81.848L483.647 82.251C483.502 81.817 483.337 81.4347 483.151 81.104C482.965 80.7733 482.717 80.5047 482.407 80.298C482.097 80.0707 481.715 79.9053 481.26 79.802C480.826 79.678 480.278 79.616 479.617 79.616C478.873 79.616 478.253 79.6883 477.757 79.833C477.261 79.957 476.858 80.1327 476.548 80.36C476.259 80.5873 476.052 80.8457 475.928 81.135C475.804 81.4037 475.742 81.693 475.742 82.003C475.742 82.3337 475.783 82.6333 475.866 82.902C475.949 83.15 476.104 83.3773 476.331 83.584C476.558 83.77 476.868 83.9353 477.261 84.08C477.654 84.2247 478.16 84.3487 478.78 84.452L481.105 84.824C482.986 85.134 484.329 85.6713 485.135 86.436C485.962 87.2007 486.375 88.3167 486.375 89.784C486.375 90.466 486.241 91.0963 485.972 91.675C485.703 92.233 485.3 92.729 484.763 93.163C484.226 93.5763 483.554 93.8967 482.748 94.124C481.942 94.372 481.002 94.496 479.927 94.496C478.956 94.496 478.046 94.403 477.199 94.217C476.372 94.031 475.639 93.7417 474.998 93.349C474.357 92.9357 473.841 92.3983 473.448 91.737C473.055 91.0757 472.828 90.2697 472.766 89.319H475.37ZM489.892 77.973H492.589V94H489.892V77.973ZM489.799 71.866H492.682V74.997H489.799V71.866ZM499.521 95.488C499.749 96.4593 500.183 97.1517 500.823 97.565C501.485 97.9783 502.508 98.185 503.892 98.185C505.587 98.185 506.755 97.7097 507.395 96.759C508.057 95.829 508.387 94.465 508.387 92.667V90.962C507.767 91.83 507.013 92.5017 506.124 92.977C505.256 93.4523 504.233 93.69 503.055 93.69C501.898 93.69 500.885 93.4833 500.017 93.07C499.17 92.636 498.467 92.0573 497.909 91.334C497.351 90.59 496.928 89.7323 496.638 88.761C496.37 87.7897 496.235 86.746 496.235 85.63C496.235 84.4107 496.401 83.305 496.731 82.313C497.062 81.3003 497.537 80.4427 498.157 79.74C498.777 79.0167 499.521 78.4587 500.389 78.066C501.278 77.6733 502.27 77.477 503.365 77.477C504.254 77.477 505.132 77.663 506 78.035C506.889 78.3863 507.695 79.0477 508.418 80.019V77.973H511.084V91.396C511.084 92.7807 510.981 94.0207 510.774 95.116C510.588 96.232 510.227 97.1723 509.689 97.937C509.173 98.7223 508.449 99.3217 507.519 99.735C506.589 100.148 505.391 100.355 503.923 100.355C501.815 100.355 500.162 99.9727 498.963 99.208C497.765 98.464 497.062 97.224 496.855 95.488H499.521ZM508.449 85.382C508.449 84.328 508.325 83.4497 508.077 82.747C507.829 82.0237 507.488 81.4347 507.054 80.98C506.62 80.5253 506.114 80.205 505.535 80.019C504.977 79.8123 504.388 79.709 503.768 79.709C503.107 79.709 502.487 79.8227 501.908 80.05C501.35 80.2567 500.854 80.5977 500.42 81.073C500.007 81.5483 499.676 82.158 499.428 82.902C499.201 83.646 499.087 84.545 499.087 85.599C499.087 86.6737 499.211 87.583 499.459 88.327C499.728 89.071 500.069 89.6703 500.482 90.125C500.896 90.5797 501.371 90.9103 501.908 91.117C502.466 91.3237 503.024 91.427 503.582 91.427C504.285 91.427 504.926 91.3133 505.504 91.086C506.104 90.8587 506.62 90.5177 507.054 90.063C507.488 89.6083 507.829 89.04 508.077 88.358C508.325 87.6553 508.449 86.839 508.449 85.909V85.382ZM515.23 77.973H517.896V80.422C518.681 79.368 519.549 78.6137 520.5 78.159C521.45 77.7043 522.453 77.477 523.507 77.477C525.325 77.477 526.669 77.973 527.537 78.965C528.425 79.957 528.87 81.414 528.87 83.336V94H526.173V83.863C526.173 82.375 525.904 81.3313 525.367 80.732C524.829 80.112 524.003 79.802 522.887 79.802C522.287 79.802 521.688 79.9053 521.089 80.112C520.51 80.3187 519.983 80.6493 519.508 81.104C518.991 81.5587 518.598 82.0443 518.33 82.561C518.061 83.057 517.927 83.708 517.927 84.514V94H515.23V77.973ZM546.767 89.505C546.498 91.055 545.806 92.2743 544.69 93.163C543.594 94.0517 542.013 94.496 539.947 94.496C537.508 94.496 535.638 93.7623 534.336 92.295C533.034 90.807 532.383 88.7403 532.383 86.095C532.383 84.7103 532.569 83.4807 532.941 82.406C533.313 81.3313 533.829 80.4323 534.491 79.709C535.173 78.9857 535.979 78.438 536.909 78.066C537.839 77.6733 538.851 77.477 539.947 77.477C541.187 77.477 542.251 77.6733 543.14 78.066C544.028 78.4587 544.752 79.0063 545.31 79.709C545.888 80.391 546.312 81.2073 546.581 82.158C546.87 83.1087 547.015 84.1523 547.015 85.289V86.653H535.111C535.111 87.459 535.214 88.2133 535.421 88.916C535.648 89.598 535.958 90.1973 536.351 90.714C536.764 91.21 537.27 91.6027 537.87 91.892C538.469 92.1813 539.161 92.326 539.947 92.326C541.29 92.326 542.272 92.078 542.892 91.582C543.512 91.0653 543.935 90.373 544.163 89.505H546.767ZM544.318 84.638C544.318 83.8733 544.235 83.181 544.07 82.561C543.904 81.941 543.646 81.414 543.295 80.98C542.943 80.5253 542.489 80.174 541.931 79.926C541.373 79.678 540.701 79.554 539.916 79.554C538.49 79.554 537.374 79.988 536.568 80.856C535.782 81.724 535.317 82.9847 535.173 84.638H544.318ZM550.589 77.973H553.255V80.453C553.855 79.5643 554.557 78.8823 555.363 78.407C556.169 77.9317 557.027 77.694 557.936 77.694C558.494 77.694 558.97 77.7353 559.362 77.818L559.021 80.329C558.815 80.2877 558.608 80.2567 558.401 80.236C558.195 80.1947 557.967 80.174 557.719 80.174C557.223 80.174 556.717 80.267 556.2 80.453C555.684 80.6183 555.198 80.9077 554.743 81.321C554.289 81.7137 553.927 82.1683 553.658 82.685C553.41 83.2017 553.286 83.801 553.286 84.483V94H550.589V77.973ZM562.035 71.866H564.887L563.275 78.562H561.105L562.035 71.866ZM570.126 89.319C570.312 90.435 570.777 91.2203 571.521 91.675C572.286 92.109 573.319 92.326 574.621 92.326C575.985 92.326 576.946 92.0987 577.504 91.644C578.083 91.1687 578.372 90.5487 578.372 89.784C578.372 89.474 578.331 89.1847 578.248 88.916C578.186 88.6267 578.052 88.3787 577.845 88.172C577.638 87.9447 577.349 87.7483 576.977 87.583C576.605 87.4177 576.119 87.2833 575.52 87.18L573.474 86.87C572.565 86.7253 571.769 86.5393 571.087 86.312C570.405 86.0847 569.826 85.7953 569.351 85.444C568.876 85.072 568.514 84.6277 568.266 84.111C568.039 83.5737 567.925 82.933 567.925 82.189C567.925 81.445 568.08 80.7837 568.39 80.205C568.721 79.6263 569.165 79.1407 569.723 78.748C570.302 78.3347 570.973 78.0247 571.738 77.818C572.523 77.5907 573.371 77.477 574.28 77.477C575.437 77.477 576.398 77.5907 577.163 77.818C577.948 78.0453 578.589 78.3553 579.085 78.748C579.581 79.1407 579.963 79.6057 580.232 80.143C580.501 80.6803 580.707 81.2487 580.852 81.848L578.403 82.251C578.258 81.817 578.093 81.4347 577.907 81.104C577.721 80.7733 577.473 80.5047 577.163 80.298C576.853 80.0707 576.471 79.9053 576.016 79.802C575.582 79.678 575.034 79.616 574.373 79.616C573.629 79.616 573.009 79.6883 572.513 79.833C572.017 79.957 571.614 80.1327 571.304 80.36C571.015 80.5873 570.808 80.8457 570.684 81.135C570.56 81.4037 570.498 81.693 570.498 82.003C570.498 82.3337 570.539 82.6333 570.622 82.902C570.705 83.15 570.86 83.3773 571.087 83.584C571.314 83.77 571.624 83.9353 572.017 84.08C572.41 84.2247 572.916 84.3487 573.536 84.452L575.861 84.824C577.742 85.134 579.085 85.6713 579.891 86.436C580.718 87.2007 581.131 88.3167 581.131 89.784C581.131 90.466 580.997 91.0963 580.728 91.675C580.459 92.233 580.056 92.729 579.519 93.163C578.982 93.5763 578.31 93.8967 577.504 94.124C576.698 94.372 575.758 94.496 574.683 94.496C573.712 94.496 572.802 94.403 571.955 94.217C571.128 94.031 570.395 93.7417 569.754 93.349C569.113 92.9357 568.597 92.3983 568.204 91.737C567.811 91.0757 567.584 90.2697 567.522 89.319H570.126ZM591.551 77.973H594.248V94H591.551V77.973ZM591.458 71.866H594.341V74.997H591.458V71.866ZM598.452 77.973H601.118V80.422C601.903 79.368 602.771 78.6137 603.722 78.159C604.672 77.7043 605.675 77.477 606.729 77.477C608.547 77.477 609.891 77.973 610.759 78.965C611.647 79.957 612.092 81.414 612.092 83.336V94H609.395V83.863C609.395 82.375 609.126 81.3313 608.589 80.732C608.051 80.112 607.225 79.802 606.109 79.802C605.509 79.802 604.91 79.9053 604.311 80.112C603.732 80.3187 603.205 80.6493 602.73 81.104C602.213 81.5587 601.82 82.0443 601.552 82.561C601.283 83.057 601.149 83.708 601.149 84.514V94H598.452V77.973ZM617.061 80.112H614.581V77.973H617.061V73.602H619.758V77.973H624.005V80.112H619.758V89.505C619.758 90.2903 619.934 90.9207 620.285 91.396C620.637 91.8713 621.174 92.109 621.897 92.109C622.352 92.109 622.745 92.078 623.075 92.016C623.427 91.954 623.747 91.8713 624.036 91.768L624.501 93.845C624.088 93.9897 623.633 94.1033 623.137 94.186C622.662 94.2893 622.094 94.341 621.432 94.341C620.523 94.341 619.789 94.2067 619.231 93.938C618.673 93.6693 618.229 93.287 617.898 92.791C617.568 92.295 617.34 91.706 617.216 91.024C617.113 90.342 617.061 89.598 617.061 88.792V80.112ZM640.281 89.505C640.013 91.055 639.32 92.2743 638.204 93.163C637.109 94.0517 635.528 94.496 633.461 94.496C631.023 94.496 629.152 93.7623 627.85 92.295C626.548 90.807 625.897 88.7403 625.897 86.095C625.897 84.7103 626.083 83.4807 626.455 82.406C626.827 81.3313 627.344 80.4323 628.005 79.709C628.687 78.9857 629.493 78.438 630.423 78.066C631.353 77.6733 632.366 77.477 633.461 77.477C634.701 77.477 635.766 77.6733 636.654 78.066C637.543 78.4587 638.266 79.0063 638.824 79.709C639.403 80.391 639.827 81.2073 640.095 82.158C640.385 83.1087 640.529 84.1523 640.529 85.289V86.653H628.625C628.625 87.459 628.729 88.2133 628.935 88.916C629.163 89.598 629.473 90.1973 629.865 90.714C630.279 91.21 630.785 91.6027 631.384 91.892C631.984 92.1813 632.676 92.326 633.461 92.326C634.805 92.326 635.786 92.078 636.406 91.582C637.026 91.0653 637.45 90.373 637.677 89.505H640.281ZM637.832 84.638C637.832 83.8733 637.75 83.181 637.584 82.561C637.419 81.941 637.161 81.414 636.809 80.98C636.458 80.5253 636.003 80.174 635.445 79.926C634.887 79.678 634.216 79.554 633.43 79.554C632.004 79.554 630.888 79.988 630.082 80.856C629.297 81.724 628.832 82.9847 628.687 84.638H637.832ZM644.104 77.973H646.77V80.453C647.369 79.5643 648.072 78.8823 648.878 78.407C649.684 77.9317 650.542 77.694 651.451 77.694C652.009 77.694 652.484 77.7353 652.877 77.818L652.536 80.329C652.329 80.2877 652.123 80.2567 651.916 80.236C651.709 80.1947 651.482 80.174 651.234 80.174C650.738 80.174 650.232 80.267 649.715 80.453C649.198 80.6183 648.713 80.9077 648.258 81.321C647.803 81.7137 647.442 82.1683 647.173 82.685C646.925 83.2017 646.801 83.801 646.801 84.483V94H644.104V77.973ZM668.375 89.505C668.106 91.055 667.414 92.2743 666.298 93.163C665.203 94.0517 663.622 94.496 661.555 94.496C659.116 94.496 657.246 93.7623 655.944 92.295C654.642 90.807 653.991 88.7403 653.991 86.095C653.991 84.7103 654.177 83.4807 654.549 82.406C654.921 81.3313 655.438 80.4323 656.099 79.709C656.781 78.9857 657.587 78.438 658.517 78.066C659.447 77.6733 660.46 77.477 661.555 77.477C662.795 77.477 663.859 77.6733 664.748 78.066C665.637 78.4587 666.36 79.0063 666.918 79.709C667.497 80.391 667.92 81.2073 668.189 82.158C668.478 83.1087 668.623 84.1523 668.623 85.289V86.653H656.719C656.719 87.459 656.822 88.2133 657.029 88.916C657.256 89.598 657.566 90.1973 657.959 90.714C658.372 91.21 658.879 91.6027 659.478 91.892C660.077 92.1813 660.77 92.326 661.555 92.326C662.898 92.326 663.88 92.078 664.5 91.582C665.12 91.0653 665.544 90.373 665.771 89.505H668.375ZM665.926 84.638C665.926 83.8733 665.843 83.181 665.678 82.561C665.513 81.941 665.254 81.414 664.903 80.98C664.552 80.5253 664.097 80.174 663.539 79.926C662.981 79.678 662.309 79.554 661.524 79.554C660.098 79.554 658.982 79.988 658.176 80.856C657.391 81.724 656.926 82.9847 656.781 84.638H665.926ZM673.934 89.319C674.12 90.435 674.585 91.2203 675.329 91.675C676.093 92.109 677.127 92.326 678.429 92.326C679.793 92.326 680.754 92.0987 681.312 91.644C681.89 91.1687 682.18 90.5487 682.18 89.784C682.18 89.474 682.138 89.1847 682.056 88.916C681.994 88.6267 681.859 88.3787 681.653 88.172C681.446 87.9447 681.157 87.7483 680.785 87.583C680.413 87.4177 679.927 87.2833 679.328 87.18L677.282 86.87C676.372 86.7253 675.577 86.5393 674.895 86.312C674.213 86.0847 673.634 85.7953 673.159 85.444C672.683 85.072 672.322 84.6277 672.074 84.111C671.846 83.5737 671.733 82.933 671.733 82.189C671.733 81.445 671.888 80.7837 672.198 80.205C672.528 79.6263 672.973 79.1407 673.531 78.748C674.109 78.3347 674.781 78.0247 675.546 77.818C676.331 77.5907 677.178 77.477 678.088 77.477C679.245 77.477 680.206 77.5907 680.971 77.818C681.756 78.0453 682.397 78.3553 682.893 78.748C683.389 79.1407 683.771 79.6057 684.04 80.143C684.308 80.6803 684.515 81.2487 684.66 81.848L682.211 82.251C682.066 81.817 681.901 81.4347 681.715 81.104C681.529 80.7733 681.281 80.5047 680.971 80.298C680.661 80.0707 680.278 79.9053 679.824 79.802C679.39 79.678 678.842 79.616 678.181 79.616C677.437 79.616 676.817 79.6883 676.321 79.833C675.825 79.957 675.422 80.1327 675.112 80.36C674.822 80.5873 674.616 80.8457 674.492 81.135C674.368 81.4037 674.306 81.693 674.306 82.003C674.306 82.3337 674.347 82.6333 674.43 82.902C674.512 83.15 674.667 83.3773 674.895 83.584C675.122 83.77 675.432 83.9353 675.825 84.08C676.217 84.2247 676.724 84.3487 677.344 84.452L679.669 84.824C681.549 85.134 682.893 85.6713 683.699 86.436C684.525 87.2007 684.939 88.3167 684.939 89.784C684.939 90.466 684.804 91.0963 684.536 91.675C684.267 92.233 683.864 92.729 683.327 93.163C682.789 93.5763 682.118 93.8967 681.312 94.124C680.506 94.372 679.565 94.496 678.491 94.496C677.519 94.496 676.61 94.403 675.763 94.217C674.936 94.031 674.202 93.7417 673.562 93.349C672.921 92.9357 672.404 92.3983 672.012 91.737C671.619 91.0757 671.392 90.2697 671.33 89.319H673.934ZM689.324 80.112H686.844V77.973H689.324V73.602H692.021V77.973H696.268V80.112H692.021V89.505C692.021 90.2903 692.197 90.9207 692.548 91.396C692.899 91.8713 693.437 92.109 694.16 92.109C694.615 92.109 695.007 92.078 695.338 92.016C695.689 91.954 696.01 91.8713 696.299 91.768L696.764 93.845C696.351 93.9897 695.896 94.1033 695.4 94.186C694.925 94.2893 694.356 94.341 693.695 94.341C692.786 94.341 692.052 94.2067 691.494 93.938C690.936 93.6693 690.492 93.287 690.161 92.791C689.83 92.295 689.603 91.706 689.479 91.024C689.376 90.342 689.324 89.598 689.324 88.792V80.112ZM706.105 77.973H708.802V94H706.105V77.973ZM706.012 71.866H708.895V74.997H706.012V71.866ZM713.006 77.973H715.672V80.422C716.458 79.368 717.326 78.6137 718.276 78.159C719.227 77.7043 720.229 77.477 721.283 77.477C723.102 77.477 724.445 77.973 725.313 78.965C726.202 79.957 726.646 81.414 726.646 83.336V94H723.949V83.863C723.949 82.375 723.681 81.3313 723.143 80.732C722.606 80.112 721.779 79.802 720.663 79.802C720.064 79.802 719.465 79.9053 718.865 80.112C718.287 80.3187 717.76 80.6493 717.284 81.104C716.768 81.5587 716.375 82.0443 716.106 82.561C715.838 83.057 715.703 83.708 715.703 84.514V94H713.006V77.973ZM738.518 80.112H736.038V77.973H738.518V73.602H741.215V77.973H745.462V80.112H741.215V89.505C741.215 90.2903 741.391 90.9207 741.742 91.396C742.094 91.8713 742.631 92.109 743.354 92.109C743.809 92.109 744.202 92.078 744.532 92.016C744.884 91.954 745.204 91.8713 745.493 91.768L745.958 93.845C745.545 93.9897 745.09 94.1033 744.594 94.186C744.119 94.2893 743.551 94.341 742.889 94.341C741.98 94.341 741.246 94.2067 740.688 93.938C740.13 93.6693 739.686 93.287 739.355 92.791C739.025 92.295 738.797 91.706 738.673 91.024C738.57 90.342 738.518 89.598 738.518 88.792V80.112ZM748.335 71.866H751.032V80.36C751.818 79.3473 752.675 78.6137 753.605 78.159C754.556 77.7043 755.558 77.477 756.612 77.477C758.431 77.477 759.774 77.973 760.642 78.965C761.531 79.957 761.975 81.414 761.975 83.336V94H759.247V83.863C759.247 82.375 758.979 81.3313 758.441 80.732C757.925 80.112 757.108 79.802 755.992 79.802C755.393 79.802 754.794 79.9053 754.194 80.112C753.616 80.3187 753.089 80.6493 752.613 81.104C752.097 81.5587 751.704 82.0443 751.435 82.561C751.167 83.057 751.032 83.708 751.032 84.514V94H748.335V71.866ZM779.872 89.505C779.603 91.055 778.911 92.2743 777.795 93.163C776.7 94.0517 775.119 94.496 773.052 94.496C770.613 94.496 768.743 93.7623 767.441 92.295C766.139 90.807 765.488 88.7403 765.488 86.095C765.488 84.7103 765.674 83.4807 766.046 82.406C766.418 81.3313 766.935 80.4323 767.596 79.709C768.278 78.9857 769.084 78.438 770.014 78.066C770.944 77.6733 771.957 77.477 773.052 77.477C774.292 77.477 775.356 77.6733 776.245 78.066C777.134 78.4587 777.857 79.0063 778.415 79.709C778.994 80.391 779.417 81.2073 779.686 82.158C779.975 83.1087 780.12 84.1523 780.12 85.289V86.653H768.216C768.216 87.459 768.319 88.2133 768.526 88.916C768.753 89.598 769.063 90.1973 769.456 90.714C769.869 91.21 770.376 91.6027 770.975 91.892C771.574 92.1813 772.267 92.326 773.052 92.326C774.395 92.326 775.377 92.078 775.997 91.582C776.617 91.0653 777.041 90.373 777.268 89.505H779.872ZM777.423 84.638C777.423 83.8733 777.34 83.181 777.175 82.561C777.01 81.941 776.751 81.414 776.4 80.98C776.049 80.5253 775.594 80.174 775.036 79.926C774.478 79.678 773.806 79.554 773.021 79.554C771.595 79.554 770.479 79.988 769.673 80.856C768.888 81.724 768.423 82.9847 768.278 84.638H777.423ZM793.325 95.488C793.552 96.4593 793.986 97.1517 794.627 97.565C795.288 97.9783 796.311 98.185 797.696 98.185C799.391 98.185 800.558 97.7097 801.199 96.759C801.86 95.829 802.191 94.465 802.191 92.667V90.962C801.571 91.83 800.817 92.5017 799.928 92.977C799.06 93.4523 798.037 93.69 796.859 93.69C795.702 93.69 794.689 93.4833 793.821 93.07C792.974 92.636 792.271 92.0573 791.713 91.334C791.155 90.59 790.731 89.7323 790.442 88.761C790.173 87.7897 790.039 86.746 790.039 85.63C790.039 84.4107 790.204 83.305 790.535 82.313C790.866 81.3003 791.341 80.4427 791.961 79.74C792.581 79.0167 793.325 78.4587 794.193 78.066C795.082 77.6733 796.074 77.477 797.169 77.477C798.058 77.477 798.936 77.663 799.804 78.035C800.693 78.3863 801.499 79.0477 802.222 80.019V77.973H804.888V91.396C804.888 92.7807 804.785 94.0207 804.578 95.116C804.392 96.232 804.03 97.1723 803.493 97.937C802.976 98.7223 802.253 99.3217 801.323 99.735C800.393 100.148 799.194 100.355 797.727 100.355C795.619 100.355 793.966 99.9727 792.767 99.208C791.568 98.464 790.866 97.224 790.659 95.488H793.325ZM802.253 85.382C802.253 84.328 802.129 83.4497 801.881 82.747C801.633 82.0237 801.292 81.4347 800.858 80.98C800.424 80.5253 799.918 80.205 799.339 80.019C798.781 79.8123 798.192 79.709 797.572 79.709C796.911 79.709 796.291 79.8227 795.712 80.05C795.154 80.2567 794.658 80.5977 794.224 81.073C793.811 81.5483 793.48 82.158 793.232 82.902C793.005 83.646 792.891 84.545 792.891 85.599C792.891 86.6737 793.015 87.583 793.263 88.327C793.532 89.071 793.873 89.6703 794.286 90.125C794.699 90.5797 795.175 90.9103 795.712 91.117C796.27 91.3237 796.828 91.427 797.386 91.427C798.089 91.427 798.729 91.3133 799.308 91.086C799.907 90.8587 800.424 90.5177 800.858 90.063C801.292 89.6083 801.633 89.04 801.881 88.358C802.129 87.6553 802.253 86.839 802.253 85.909V85.382ZM809.034 77.973H811.7V80.453C812.299 79.5643 813.002 78.8823 813.808 78.407C814.614 77.9317 815.471 77.694 816.381 77.694C816.939 77.694 817.414 77.7353 817.807 77.818L817.466 80.329C817.259 80.2877 817.052 80.2567 816.846 80.236C816.639 80.1947 816.412 80.174 816.164 80.174C815.668 80.174 815.161 80.267 814.645 80.453C814.128 80.6183 813.642 80.9077 813.188 81.321C812.733 81.7137 812.371 82.1683 812.103 82.685C811.855 83.2017 811.731 83.801 811.731 84.483V94H809.034V77.973ZM820.448 77.973H823.145V94H820.448V77.973ZM820.355 71.866H823.238V74.997H820.355V71.866ZM839.005 91.706C838.344 92.5947 837.579 93.287 836.711 93.783C835.843 94.2583 834.82 94.496 833.642 94.496C832.464 94.496 831.441 94.279 830.573 93.845C829.726 93.411 829.023 92.822 828.465 92.078C827.907 91.3133 827.494 90.4143 827.225 89.381C826.956 88.3477 826.822 87.242 826.822 86.064C826.822 84.7413 826.987 83.553 827.318 82.499C827.649 81.4243 828.114 80.515 828.713 79.771C829.333 79.027 830.077 78.4587 830.945 78.066C831.834 77.6733 832.836 77.477 833.952 77.477C834.799 77.477 835.657 77.6527 836.525 78.004C837.393 78.3347 838.199 78.9753 838.943 79.926V71.866H841.64V94H839.005V91.706ZM839.036 85.506C839.036 84.2247 838.891 83.2327 838.602 82.53C838.333 81.8067 837.879 81.197 837.238 80.701C836.783 80.329 836.318 80.0707 835.843 79.926C835.388 79.7813 834.882 79.709 834.324 79.709C833.663 79.709 833.043 79.8227 832.464 80.05C831.906 80.2773 831.41 80.6493 830.976 81.166C830.563 81.662 830.232 82.313 829.984 83.119C829.757 83.9043 829.643 84.8653 829.643 86.002C829.643 87.18 829.767 88.172 830.015 88.978C830.284 89.784 830.625 90.4247 831.038 90.9C831.472 91.3753 831.947 91.7163 832.464 91.923C833.001 92.1297 833.549 92.233 834.107 92.233C834.706 92.233 835.244 92.1607 835.719 92.016C836.194 91.8713 836.67 91.6233 837.145 91.272C837.765 90.776 838.23 90.156 838.54 89.412C838.871 88.668 839.036 87.7277 839.036 86.591V85.506ZM845.661 90.373H848.761V94H845.661V90.373Z" fill="white"/>
</svg>
