<svg width="711" height="514" viewBox="0 0 711 514" fill="none" xmlns="http://www.w3.org/2000/svg">
<path d="M12.4046 234.821L8.47381 195.268C3.15433 141.74 23.9453 88.9281 64.3269 53.3923C102.649 19.6685 154.292 5.32586 204.517 14.4576L224 18L320.405 40.6834C335.418 44.216 350.789 46 366.212 46H426.85C477.1 46 525.509 64.9158 562.446 98.9846L625.208 156.871C676.969 204.612 694.251 279.16 668.777 344.807C646.637 401.859 595.75 442.771 535.274 452.141L280.984 491.538C194.692 504.907 109.702 460.747 71.0378 382.452L32.0982 303.599C21.4533 282.043 14.782 258.744 12.4046 234.821Z" fill="#FF1493" stroke="#FF1493"/>
<path d="M102.248 132.926L105.64 133.446L103.881 143.12L100.99 142.676L102.248 132.926ZM129.971 155.917C129.604 157.281 129.058 158.526 128.334 159.651C127.613 160.751 126.723 161.666 125.664 162.398C124.604 163.13 123.369 163.638 121.958 163.922C120.573 164.209 119.006 164.219 117.258 163.951C115.357 163.659 113.697 163.076 112.279 162.201C110.861 161.326 109.72 160.191 108.855 158.796C107.991 157.401 107.399 155.772 107.079 153.908C106.79 152.022 106.82 149.936 107.171 147.648C107.525 145.335 108.149 143.327 109.041 141.622C109.934 139.918 111.027 138.533 112.322 137.469C113.616 136.405 115.057 135.666 116.646 135.252C118.261 134.842 119.942 134.771 121.69 135.039C123.386 135.298 124.818 135.741 125.984 136.367C127.151 136.993 128.097 137.77 128.823 138.696C129.575 139.627 130.123 140.684 130.468 141.868C130.838 143.056 131.062 144.34 131.14 145.72L127.582 145.766C127.504 144.728 127.333 143.781 127.07 142.926C126.836 142.048 126.467 141.281 125.963 140.625C125.484 139.973 124.855 139.443 124.076 139.034C123.327 138.604 122.374 138.3 121.217 138.122C119.855 137.914 118.591 138.009 117.425 138.409C116.289 138.787 115.271 139.421 114.372 140.309C113.503 141.175 112.767 142.285 112.165 143.64C111.567 144.968 111.138 146.481 110.878 148.177C110.618 149.873 110.572 151.458 110.741 152.93C110.914 154.377 111.283 155.657 111.849 156.769C112.441 157.886 113.222 158.795 114.193 159.496C115.19 160.201 116.382 160.66 117.77 160.873C119.029 161.066 120.119 161.075 121.04 160.901C121.991 160.704 122.794 160.354 123.45 159.85C124.132 159.349 124.703 158.713 125.163 157.942C125.623 157.171 126.005 156.309 126.309 155.356L129.971 155.917ZM151.026 162.695C150.396 164.572 149.303 165.956 147.746 166.848C146.214 167.745 144.164 167.996 141.594 167.602C138.561 167.137 136.375 165.868 135.036 163.795C133.7 161.697 133.285 159.003 133.789 155.713C134.053 153.991 134.518 152.498 135.186 151.232C135.853 149.967 136.667 148.947 137.627 148.174C138.613 147.404 139.72 146.877 140.947 146.592C142.179 146.28 143.475 146.229 144.838 146.438C146.38 146.674 147.666 147.122 148.696 147.779C149.726 148.437 150.521 149.256 151.081 150.236C151.671 151.194 152.042 152.29 152.195 153.524C152.374 154.761 152.355 156.086 152.138 157.5L151.878 159.196L137.075 156.927C136.921 157.929 136.906 158.887 137.029 159.8C137.182 160.692 137.453 161.496 137.843 162.213C138.262 162.909 138.817 163.494 139.507 163.968C140.197 164.442 141.031 164.754 142.007 164.903C143.678 165.16 144.946 165.038 145.811 164.54C146.681 164.015 147.34 163.235 147.788 162.199L151.026 162.695ZM148.908 156.176C149.054 155.225 149.083 154.349 148.996 153.546C148.908 152.744 148.687 152.039 148.333 151.432C147.983 150.8 147.485 150.276 146.838 149.862C146.191 149.447 145.38 149.165 144.403 149.015C142.63 148.743 141.159 149.07 139.992 149.996C138.849 150.926 138.031 152.405 137.536 154.433L148.908 156.176ZM157.978 149.083L161.293 149.592L160.82 152.676C161.735 151.685 162.739 150.971 163.832 150.533C164.924 150.096 166.036 149.964 167.167 150.137C167.861 150.243 168.444 150.385 168.917 150.563L168.014 153.62C167.765 153.53 167.514 153.452 167.261 153.387C167.012 153.296 166.733 153.227 166.425 153.18C165.808 153.085 165.16 153.104 164.482 153.237C163.808 153.344 163.149 153.611 162.505 154.039C161.865 154.44 161.328 154.937 160.896 155.528C160.489 156.123 160.221 156.845 160.091 157.693L158.277 169.528L154.923 169.014L157.978 149.083ZM173.823 154.235L170.739 153.762L171.146 151.102L174.23 151.575L175.063 146.139L178.417 146.653L177.584 152.089L182.865 152.898L182.458 155.558L177.176 154.749L175.386 166.429C175.236 167.406 175.335 168.223 175.681 168.881C176.027 169.539 176.65 169.937 177.55 170.075C178.115 170.162 178.609 170.198 179.032 170.184C179.481 170.174 179.895 170.132 180.275 170.059L180.457 172.73C179.915 172.831 179.328 172.886 178.696 172.894C178.085 172.932 177.368 172.888 176.546 172.762C175.415 172.589 174.528 172.282 173.886 171.841C173.243 171.401 172.763 170.841 172.447 170.161C172.13 169.481 171.96 168.705 171.935 167.834C171.937 166.966 172.014 166.031 172.168 165.029L173.823 154.235ZM196.216 172.542C195.362 173.305 194.334 173.923 193.13 174.397C191.931 174.844 190.508 174.942 188.864 174.69C187.861 174.536 186.956 174.266 186.147 173.879C185.36 173.521 184.696 173.051 184.154 172.468C183.641 171.864 183.275 171.163 183.056 170.367C182.836 169.57 182.803 168.671 182.956 167.668C183.165 166.306 183.617 165.245 184.312 164.483C185.034 163.726 185.907 163.176 186.933 162.833C187.984 162.495 189.13 162.315 190.369 162.295C191.608 162.274 192.874 162.337 194.167 162.482L197.616 162.892L197.734 162.121C197.994 160.425 197.821 159.149 197.216 158.294C196.611 157.438 195.499 156.886 193.879 156.638C192.286 156.394 191.075 156.484 190.247 156.91C189.423 157.31 188.825 157.954 188.452 158.844L185.459 158.03C186.099 156.261 187.163 155.069 188.651 154.456C190.143 153.816 192.058 153.676 194.397 154.034C195.836 154.255 197.016 154.62 197.938 155.13C198.889 155.617 199.624 156.23 200.142 156.967C200.66 157.704 200.975 158.567 201.086 159.558C201.223 160.552 201.201 161.64 201.02 162.822L199.035 175.775L195.796 175.279L196.216 172.542ZM197.25 165.282L194.032 164.908C192.662 164.75 191.512 164.706 190.581 164.773C189.65 164.841 188.887 165.013 188.292 165.29C187.727 165.546 187.289 165.913 186.979 166.391C186.695 166.874 186.501 167.449 186.399 168.117C186.245 169.12 186.417 169.974 186.913 170.682C187.439 171.367 188.396 171.817 189.784 172.029C191.763 172.333 193.38 172.081 194.635 171.273C195.89 170.466 196.647 169.215 196.907 167.518L197.25 165.282ZM207.258 156.637L210.612 157.151L207.557 177.081L204.204 176.567L207.258 156.637ZM208.307 149.025L211.892 149.575L211.295 153.468L207.71 152.919L208.307 149.025ZM215.84 157.952L219.155 158.461L218.688 161.506C219.866 160.345 221.089 159.572 222.358 159.188C223.627 158.804 224.917 158.712 226.227 158.913C228.489 159.26 230.065 160.133 230.955 161.532C231.871 162.935 232.146 164.831 231.78 167.221L229.747 180.483L226.393 179.968L228.325 167.363C228.609 165.512 228.474 164.163 227.92 163.316C227.37 162.442 226.401 161.899 225.013 161.686C224.268 161.572 223.503 161.586 222.718 161.729C221.959 161.876 221.241 162.187 220.563 162.661C219.834 163.128 219.253 163.657 218.82 164.249C218.392 164.814 218.101 165.598 217.947 166.601L216.139 178.397L212.785 177.883L215.84 157.952ZM246.409 162.638L249.724 163.146L249.257 166.192C250.346 165.096 251.475 164.335 252.645 163.909C253.819 163.458 254.971 163.319 256.102 163.492C257.593 163.721 258.739 164.225 259.54 165.006C260.366 165.79 260.906 166.82 261.157 168.094C262.246 166.999 263.416 166.231 264.667 165.792C265.922 165.326 267.204 165.194 268.515 165.395C270.468 165.694 271.889 166.465 272.777 167.705C273.695 168.925 273.973 170.716 273.611 173.081L271.495 186.882L268.141 186.368L270.139 173.338C270.276 172.438 270.314 171.681 270.25 171.066C270.19 170.426 270.032 169.915 269.775 169.534C269.547 169.131 269.225 168.831 268.808 168.636C268.394 168.415 267.905 168.261 267.34 168.174C266.748 168.083 266.116 168.092 265.442 168.199C264.768 168.306 264.083 168.569 263.388 168.989C262.807 169.347 262.302 169.809 261.873 170.374C261.444 170.94 261.169 171.621 261.047 172.418L259.121 184.985L255.767 184.471L257.758 171.48C258.026 169.732 257.903 168.477 257.388 167.714C256.904 166.93 256.096 166.451 254.965 166.277C253.654 166.076 252.338 166.427 251.016 167.329C250.516 167.673 250.011 168.135 249.502 168.715C249.018 169.298 248.693 170.129 248.528 171.209L246.708 183.082L243.354 182.568L246.409 162.638ZM294.646 184.709C294.017 186.585 292.924 187.97 291.366 188.862C289.835 189.758 287.784 190.01 285.214 189.616C282.182 189.151 279.996 187.882 278.656 185.809C277.321 183.711 276.905 181.016 277.409 177.727C277.673 176.005 278.139 174.511 278.806 173.246C279.474 171.98 280.288 170.961 281.248 170.187C282.234 169.418 283.341 168.891 284.568 168.605C285.799 168.294 287.096 168.243 288.458 168.452C290 168.688 291.286 169.135 292.316 169.793C293.347 170.451 294.142 171.269 294.702 172.25C295.291 173.208 295.663 174.304 295.815 175.537C295.994 176.775 295.975 178.1 295.758 179.514L295.498 181.21L280.695 178.941C280.542 179.943 280.526 180.901 280.649 181.814C280.802 182.705 281.073 183.51 281.463 184.227C281.883 184.923 282.438 185.508 283.128 185.982C283.818 186.456 284.651 186.767 285.628 186.917C287.298 187.173 288.566 187.052 289.432 186.553C290.301 186.029 290.96 185.249 291.408 184.213L294.646 184.709ZM292.529 178.19C292.674 177.239 292.704 176.362 292.616 175.56C292.529 174.757 292.308 174.053 291.954 173.446C291.604 172.814 291.105 172.29 290.458 171.875C289.812 171.461 289 171.178 288.024 171.029C286.25 170.757 284.78 171.084 283.612 172.01C282.47 172.939 281.652 174.418 281.156 176.447L292.529 178.19ZM301.598 171.097L304.913 171.605L304.447 174.651C305.624 173.49 306.847 172.717 308.116 172.333C309.385 171.949 310.675 171.857 311.985 172.058C314.247 172.405 315.823 173.278 316.713 174.677C317.629 176.08 317.904 177.976 317.538 180.366L315.505 193.627L312.151 193.113L314.084 180.507C314.367 178.657 314.232 177.308 313.678 176.46C313.128 175.587 312.159 175.044 310.771 174.831C310.026 174.717 309.261 174.731 308.476 174.874C307.717 175.021 306.999 175.331 306.321 175.806C305.592 176.273 305.011 176.802 304.579 177.393C304.15 177.959 303.859 178.743 303.705 179.745L301.897 191.541L298.543 191.027L301.598 171.097ZM324.332 177.304L321.248 176.832L321.656 174.172L324.74 174.644L325.573 169.209L328.927 169.723L328.094 175.158L333.375 175.968L332.968 178.628L327.686 177.818L325.896 189.499C325.746 190.475 325.844 191.293 326.191 191.951C326.537 192.609 327.16 193.007 328.059 193.145C328.625 193.231 329.119 193.268 329.542 193.254C329.991 193.244 330.405 193.202 330.784 193.128L330.967 195.8C330.425 195.901 329.838 195.956 329.206 195.964C328.595 196.002 327.878 195.958 327.056 195.832C325.925 195.658 325.038 195.351 324.396 194.911C323.753 194.471 323.273 193.91 322.957 193.231C322.64 192.551 322.469 191.775 322.445 190.903C322.447 190.035 322.524 189.1 322.678 188.098L324.332 177.304ZM346.726 195.611C345.872 196.375 344.844 196.993 343.64 197.466C342.44 197.914 341.018 198.011 339.373 197.759C338.371 197.606 337.466 197.335 336.657 196.948C335.87 196.591 335.206 196.121 334.664 195.538C334.151 194.933 333.785 194.233 333.565 193.436C333.345 192.64 333.312 191.74 333.466 190.738C333.675 189.376 334.127 188.314 334.822 187.553C335.543 186.795 336.417 186.245 337.442 185.903C338.494 185.564 339.639 185.385 340.879 185.364C342.118 185.344 343.384 185.406 344.677 185.552L348.126 185.962L348.244 185.191C348.504 183.495 348.331 182.219 347.726 181.363C347.121 180.508 346.008 179.956 344.389 179.708C342.796 179.464 341.585 179.554 340.757 179.98C339.933 180.379 339.334 181.024 338.961 181.914L335.969 181.1C336.609 179.331 337.672 178.139 339.161 177.525C340.653 176.886 342.568 176.746 344.907 177.104C346.346 177.325 347.526 177.69 348.448 178.199C349.399 178.687 350.133 179.299 350.652 180.036C351.17 180.773 351.485 181.637 351.596 182.627C351.733 183.622 351.711 184.71 351.53 185.892L349.544 198.845L346.306 198.348L346.726 195.611ZM347.759 188.352L344.542 187.977C343.172 187.82 342.022 187.775 341.091 187.843C340.16 187.911 339.397 188.083 338.802 188.36C338.237 188.615 337.799 188.982 337.489 189.461C337.205 189.943 337.011 190.519 336.909 191.187C336.755 192.189 336.927 193.044 337.423 193.751C337.949 194.437 338.906 194.886 340.294 195.099C342.273 195.402 343.89 195.15 345.145 194.343C346.399 193.536 347.157 192.284 347.417 190.588L347.759 188.352ZM358.932 172.112L362.286 172.626L358.067 200.151L354.713 199.637L358.932 172.112ZM384.711 201.434C383.857 202.197 382.829 202.815 381.625 203.288C380.426 203.736 379.003 203.834 377.359 203.581C376.356 203.428 375.451 203.157 374.642 202.77C373.855 202.413 373.191 201.943 372.649 201.36C372.136 200.756 371.77 200.055 371.55 199.259C371.331 198.462 371.297 197.563 371.451 196.56C371.66 195.198 372.112 194.136 372.807 193.375C373.528 192.618 374.402 192.068 375.428 191.725C376.479 191.386 377.624 191.207 378.864 191.186C380.103 191.166 381.369 191.228 382.662 191.374L386.111 191.784L386.229 191.013C386.489 189.317 386.316 188.041 385.711 187.186C385.106 186.33 383.993 185.778 382.374 185.53C380.781 185.286 379.57 185.376 378.742 185.802C377.918 186.202 377.32 186.846 376.946 187.736L373.954 186.922C374.594 185.153 375.657 183.961 377.146 183.348C378.638 182.708 380.553 182.568 382.892 182.926C384.331 183.147 385.511 183.512 386.433 184.021C387.384 184.509 388.119 185.122 388.637 185.859C389.155 186.596 389.47 187.459 389.581 188.45C389.718 189.444 389.696 190.532 389.515 191.714L387.529 204.667L384.291 204.171L384.711 201.434ZM385.745 194.174L382.527 193.8C381.157 193.642 380.007 193.597 379.076 193.665C378.145 193.733 377.382 193.905 376.787 194.182C376.222 194.438 375.784 194.805 375.474 195.283C375.19 195.766 374.996 196.341 374.894 197.009C374.74 198.011 374.912 198.866 375.408 199.574C375.934 200.259 376.891 200.708 378.279 200.921C380.258 201.225 381.875 200.973 383.13 200.165C384.384 199.358 385.142 198.106 385.402 196.41L385.745 194.174ZM396.425 188.354L393.341 187.882L393.749 185.222L396.833 185.694L397.666 180.259L401.02 180.773L400.187 186.208L405.468 187.018L405.06 189.678L399.779 188.868L397.988 200.549C397.839 201.526 397.937 202.343 398.283 203.001C398.63 203.659 399.253 204.057 400.152 204.195C400.717 204.282 401.212 204.318 401.635 204.304C402.083 204.294 402.497 204.252 402.877 204.179L403.059 206.85C402.518 206.951 401.931 207.006 401.298 207.014C400.687 207.052 399.971 207.008 399.148 206.882C398.018 206.709 397.131 206.402 396.488 205.961C395.845 205.521 395.366 204.961 395.049 204.281C394.732 203.601 394.562 202.825 394.538 201.953C394.539 201.086 394.617 200.151 394.771 199.148L396.425 188.354ZM409.789 190.403L406.705 189.93L407.113 187.27L410.197 187.743L411.03 182.307L414.384 182.821L413.551 188.257L418.832 189.066L418.425 191.726L413.143 190.917L411.353 202.597C411.203 203.574 411.302 204.391 411.648 205.049C411.994 205.707 412.617 206.105 413.516 206.243C414.082 206.33 414.576 206.366 414.999 206.352C415.448 206.342 415.862 206.3 416.241 206.227L416.424 208.898C415.882 209 415.295 209.054 414.663 209.063C414.052 209.1 413.335 209.056 412.513 208.93C411.382 208.757 410.495 208.45 409.853 208.01C409.21 207.569 408.73 207.009 408.414 206.329C408.097 205.649 407.926 204.874 407.902 204.002C407.904 203.134 407.981 202.199 408.135 201.197L409.789 190.403ZM422.482 189.626L425.836 190.14L422.781 210.07L419.427 209.556L422.482 189.626ZM423.531 182.014L427.116 182.563L426.519 186.457L422.934 185.907L423.531 182.014ZM431.812 193.778L428.729 193.306L429.136 190.646L432.22 191.118L433.053 185.683L436.407 186.197L435.574 191.633L440.855 192.442L440.448 195.102L435.166 194.292L433.376 205.973C433.226 206.95 433.325 207.767 433.671 208.425C434.017 209.083 434.64 209.481 435.54 209.619C436.105 209.706 436.599 209.742 437.022 209.728C437.471 209.718 437.885 209.676 438.264 209.603L438.447 212.274C437.905 212.375 437.318 212.43 436.686 212.438C436.075 212.476 435.358 212.432 434.536 212.306C433.405 212.133 432.518 211.826 431.876 211.385C431.233 210.945 430.753 210.385 430.437 209.705C430.12 209.025 429.95 208.249 429.925 207.377C429.927 206.51 430.004 205.575 430.158 204.572L431.812 193.778ZM444.312 192.972L447.666 193.486L445.74 206.053C445.456 207.904 445.551 209.26 446.024 210.121C446.523 210.987 447.453 211.524 448.815 211.733C450.306 211.961 451.738 211.628 453.111 210.734C453.84 210.267 454.419 209.751 454.848 209.185C455.28 208.594 455.573 207.797 455.727 206.795L457.535 194.999L460.889 195.513L457.834 215.443L454.519 214.935L454.991 211.851C453.818 212.986 452.62 213.763 451.399 214.18C450.178 214.598 448.912 214.707 447.601 214.506C445.339 214.159 443.787 213.303 442.944 211.938C442.131 210.55 441.912 208.636 442.286 206.195L444.312 192.972ZM477.914 215.601C476.922 216.58 475.84 217.295 474.666 217.747C473.496 218.172 472.178 218.273 470.713 218.048C469.248 217.824 468.018 217.359 467.021 216.654C466.05 215.953 465.288 215.086 464.736 214.055C464.188 212.997 463.846 211.801 463.708 210.465C463.571 209.128 463.615 207.728 463.84 206.263C464.092 204.618 464.524 203.172 465.136 201.924C465.752 200.651 466.503 199.609 467.391 198.798C468.303 197.991 469.337 197.426 470.491 197.103C471.671 196.784 472.955 196.731 474.343 196.944C475.396 197.105 476.429 197.487 477.442 198.089C478.458 198.666 479.338 199.616 480.082 200.94L481.619 190.917L484.973 191.431L480.754 218.956L477.477 218.454L477.914 215.601ZM479.135 207.897C479.379 206.304 479.388 205.042 479.162 204.114C478.966 203.163 478.517 202.318 477.815 201.579C477.32 201.03 476.791 200.62 476.227 200.349C475.69 200.083 475.074 199.896 474.38 199.79C473.558 199.664 472.765 199.687 472.002 199.86C471.265 200.036 470.577 200.404 469.939 200.964C469.33 201.502 468.795 202.248 468.333 203.203C467.901 204.137 467.576 205.31 467.359 206.723C467.135 208.188 467.1 209.446 467.255 210.495C467.435 211.549 467.737 212.41 468.161 213.08C468.61 213.754 469.136 214.269 469.739 214.624C470.368 214.984 471.029 215.216 471.723 215.323C472.468 215.437 473.15 215.45 473.769 215.36C474.388 215.271 475.026 215.053 475.684 214.707C476.549 214.208 477.246 213.526 477.773 212.66C478.326 211.798 478.711 210.66 478.928 209.246L479.135 207.897ZM504.035 216.803C503.405 218.68 502.312 220.064 500.755 220.956C499.223 221.853 497.173 222.104 494.603 221.71C491.57 221.245 489.384 219.976 488.045 217.904C486.709 215.805 486.294 213.111 486.798 209.821C487.062 208.099 487.527 206.606 488.195 205.34C488.862 204.075 489.676 203.055 490.636 202.282C491.622 201.512 492.729 200.985 493.957 200.7C495.188 200.389 496.485 200.337 497.847 200.546C499.389 200.783 500.675 201.23 501.705 201.887C502.735 202.545 503.53 203.364 504.09 204.344C504.68 205.302 505.051 206.398 505.204 207.632C505.383 208.869 505.364 210.194 505.147 211.608L504.887 213.304L490.084 211.035C489.93 212.037 489.915 212.995 490.038 213.908C490.191 214.8 490.462 215.604 490.852 216.322C491.271 217.017 491.826 217.602 492.516 218.076C493.206 218.55 494.04 218.862 495.016 219.012C496.687 219.268 497.955 219.146 498.82 218.648C499.69 218.123 500.349 217.343 500.797 216.307L504.035 216.803ZM501.917 210.284C502.063 209.333 502.092 208.457 502.005 207.654C501.917 206.852 501.697 206.147 501.342 205.54C500.992 204.908 500.494 204.385 499.847 203.97C499.2 203.555 498.389 203.273 497.412 203.123C495.639 202.851 494.168 203.178 493.001 204.104C491.859 205.034 491.04 206.513 490.545 208.541L501.917 210.284ZM511.086 195.592L514.479 196.112L512.72 205.785L509.829 205.342L511.086 195.592ZM526.122 205.511L529.476 206.026L526.421 225.956L523.068 225.442L526.122 205.511ZM527.171 197.899L530.756 198.449L530.159 202.343L526.574 201.793L527.171 197.899ZM534.7 221.267C534.719 222.69 535.147 223.755 535.986 224.463C536.854 225.148 538.098 225.615 539.717 225.863C541.413 226.123 542.651 226.024 543.432 225.564C544.242 225.084 544.72 224.368 544.866 223.417C544.925 223.031 544.929 222.664 544.877 222.314C544.855 221.942 544.735 221.608 544.518 221.312C544.304 220.99 543.982 220.691 543.55 220.414C543.119 220.138 542.541 219.878 541.815 219.635L539.33 218.86C538.227 218.506 537.273 218.123 536.468 217.711C535.664 217.298 534.999 216.828 534.475 216.301C533.955 215.747 533.59 215.126 533.38 214.436C533.199 213.725 533.18 212.906 533.322 211.981C533.464 211.056 533.783 210.263 534.278 209.602C534.8 208.946 535.445 208.427 536.214 208.045C537.012 207.641 537.907 207.383 538.897 207.272C539.917 207.139 540.992 207.159 542.123 207.333C543.562 207.553 544.735 207.878 545.643 208.306C546.576 208.739 547.314 209.246 547.856 209.829C548.398 210.412 548.785 211.063 549.016 211.782C549.248 212.502 549.397 213.248 549.462 214.021L546.34 214.055C546.243 213.488 546.11 212.981 545.942 212.534C545.774 212.088 545.516 211.706 545.17 211.39C544.828 211.048 544.384 210.77 543.839 210.555C543.322 210.318 542.653 210.136 541.831 210.01C540.906 209.869 540.121 209.84 539.477 209.926C538.836 209.985 538.301 210.127 537.873 210.351C537.469 210.578 537.163 210.86 536.954 211.196C536.748 211.507 536.616 211.855 536.557 212.24C536.494 212.651 536.488 213.032 536.54 213.382C536.596 213.706 536.745 214.018 536.988 214.318C537.235 214.593 537.589 214.858 538.05 215.112C538.511 215.367 539.117 215.618 539.868 215.865L542.689 216.77C544.968 217.514 546.536 218.439 547.393 219.543C548.275 220.652 548.576 222.118 548.297 223.943C548.167 224.791 547.879 225.549 547.435 226.218C546.995 226.86 546.399 227.4 545.648 227.837C544.901 228.249 544.005 228.519 542.959 228.648C541.91 228.803 540.717 228.778 539.38 228.573C538.172 228.388 537.059 228.099 536.041 227.706C535.048 227.318 534.191 226.818 533.469 226.208C532.751 225.571 532.211 224.805 531.849 223.907C531.487 223.01 531.358 221.965 531.462 220.771L534.7 221.267ZM573.206 230.325C572.352 231.089 571.324 231.707 570.12 232.18C568.92 232.628 567.498 232.725 565.853 232.473C564.851 232.32 563.946 232.049 563.137 231.662C562.35 231.305 561.686 230.835 561.144 230.252C560.631 229.647 560.265 228.947 560.045 228.15C559.825 227.354 559.792 226.455 559.946 225.452C560.155 224.09 560.607 223.028 561.302 222.267C562.023 221.509 562.897 220.959 563.922 220.617C564.974 220.278 566.119 220.099 567.359 220.078C568.598 220.058 569.864 220.12 571.157 220.266L574.606 220.676L574.724 219.905C574.984 218.209 574.811 216.933 574.206 216.077C573.601 215.222 572.488 214.67 570.869 214.422C569.276 214.178 568.065 214.268 567.237 214.694C566.413 215.093 565.814 215.738 565.441 216.628L562.449 215.814C563.089 214.045 564.152 212.853 565.641 212.239C567.133 211.6 569.048 211.46 571.387 211.818C572.826 212.039 574.006 212.404 574.928 212.913C575.879 213.401 576.613 214.013 577.132 214.75C577.65 215.487 577.965 216.351 578.076 217.341C578.213 218.336 578.191 219.424 578.01 220.606L576.024 233.559L572.786 233.062L573.206 230.325ZM574.239 223.066L571.022 222.691C569.652 222.534 568.502 222.489 567.571 222.557C566.64 222.625 565.877 222.797 565.282 223.074C564.717 223.329 564.279 223.696 563.969 224.175C563.685 224.657 563.491 225.233 563.389 225.901C563.235 226.903 563.407 227.758 563.903 228.466C564.429 229.151 565.386 229.6 566.774 229.813C568.753 230.116 570.37 229.864 571.625 229.057C572.879 228.25 573.637 226.998 573.897 225.302L574.239 223.066ZM584.171 214.409L587.486 214.917L587.02 217.963C588.197 216.802 589.42 216.029 590.689 215.645C591.958 215.261 593.248 215.169 594.558 215.37C596.82 215.717 598.396 216.589 599.286 217.988C600.202 219.391 600.477 221.288 600.111 223.678L598.078 236.939L594.724 236.425L596.657 223.819C596.94 221.969 596.805 220.62 596.251 219.772C595.701 218.899 594.732 218.356 593.344 218.143C592.599 218.029 591.834 218.043 591.049 218.186C590.29 218.332 589.572 218.643 588.894 219.118C588.165 219.585 587.584 220.114 587.152 220.705C586.723 221.271 586.432 222.055 586.278 223.057L584.47 234.853L581.116 234.339L584.171 214.409ZM116.654 193.334L120.008 193.848L116.953 213.778L113.599 213.264L116.654 193.334ZM117.703 185.721L121.288 186.271L120.691 190.165L117.106 189.615L117.703 185.721ZM125.236 194.649L128.551 195.157L128.084 198.202C129.262 197.041 130.485 196.269 131.754 195.885C133.023 195.5 134.312 195.409 135.623 195.61C137.885 195.956 139.461 196.829 140.351 198.228C141.267 199.631 141.542 201.528 141.175 203.918L139.143 217.179L135.789 216.665L137.721 204.059C138.005 202.209 137.87 200.86 137.316 200.012C136.766 199.139 135.797 198.595 134.409 198.383C133.664 198.269 132.899 198.283 132.114 198.426C131.355 198.572 130.637 198.883 129.959 199.358C129.23 199.825 128.649 200.354 128.216 200.945C127.788 201.511 127.496 202.295 127.343 203.297L125.535 215.093L122.181 214.579L125.236 194.649ZM147.97 200.856L144.886 200.383L145.294 197.723L148.378 198.196L149.211 192.76L152.565 193.275L151.731 198.71L157.013 199.52L156.605 202.179L151.324 201.37L149.533 213.051C149.384 214.027 149.482 214.844 149.828 215.503C150.175 216.161 150.797 216.559 151.697 216.696C152.262 216.783 152.757 216.819 153.18 216.805C153.628 216.795 154.042 216.753 154.422 216.68L154.604 219.352C154.063 219.453 153.476 219.507 152.843 219.516C152.232 219.554 151.516 219.509 150.693 219.383C149.563 219.21 148.676 218.903 148.033 218.463C147.39 218.022 146.911 217.462 146.594 216.782C146.277 216.102 146.107 215.327 146.083 214.455C146.084 213.587 146.162 212.652 146.315 211.65L147.97 200.856ZM175.055 216.962C174.425 218.839 173.332 220.223 171.774 221.115C170.243 222.012 168.192 222.263 165.622 221.869C162.59 221.404 160.404 220.135 159.064 218.062C157.729 215.964 157.313 213.27 157.817 209.98C158.081 208.258 158.547 206.765 159.214 205.499C159.882 204.234 160.696 203.214 161.656 202.441C162.642 201.671 163.749 201.144 164.976 200.858C166.207 200.547 167.504 200.496 168.866 200.705C170.408 200.941 171.694 201.388 172.725 202.046C173.755 202.704 174.55 203.523 175.11 204.503C175.699 205.461 176.071 206.557 176.224 207.791C176.402 209.028 176.383 210.353 176.167 211.767L175.907 213.463L161.103 211.194C160.95 212.196 160.935 213.154 161.058 214.067C161.21 214.959 161.482 215.763 161.871 216.48C162.291 217.176 162.846 217.761 163.536 218.235C164.226 218.709 165.059 219.021 166.036 219.17C167.706 219.427 168.974 219.305 169.84 218.807C170.709 218.282 171.368 217.502 171.816 216.466L175.055 216.962ZM172.937 210.443C173.083 209.492 173.112 208.616 173.024 207.813C172.937 207.011 172.716 206.306 172.362 205.699C172.012 205.067 171.513 204.543 170.867 204.129C170.22 203.714 169.408 203.432 168.432 203.282C166.658 203.01 165.188 203.337 164.02 204.263C162.878 205.193 162.06 206.672 161.565 208.7L172.937 210.443ZM182.006 203.35L185.322 203.859L184.849 206.943C185.764 205.952 186.767 205.238 187.86 204.8C188.953 204.363 190.065 204.231 191.196 204.404C191.89 204.51 192.473 204.652 192.945 204.83L192.043 207.887C191.794 207.797 191.543 207.719 191.289 207.654C191.04 207.563 190.762 207.494 190.453 207.447C189.836 207.352 189.189 207.371 188.511 207.504C187.837 207.611 187.178 207.878 186.534 208.306C185.894 208.707 185.357 209.204 184.925 209.795C184.518 210.39 184.249 211.112 184.119 211.96L182.305 223.795L178.951 223.281L182.006 203.35ZM209.99 222.317C209.361 224.193 208.267 225.578 206.71 226.47C205.179 227.366 203.128 227.618 200.558 227.224C197.525 226.759 195.339 225.49 194 223.417C192.665 221.319 192.249 218.625 192.753 215.335C193.017 213.613 193.483 212.119 194.15 210.854C194.818 209.588 195.631 208.569 196.592 207.796C197.578 207.026 198.684 206.499 199.912 206.213C201.143 205.902 202.44 205.851 203.802 206.06C205.344 206.296 206.63 206.743 207.66 207.401C208.691 208.059 209.486 208.878 210.046 209.858C210.635 210.816 211.006 211.912 211.159 213.145C211.338 214.383 211.319 215.708 211.102 217.122L210.842 218.818L196.039 216.549C195.886 217.551 195.87 218.509 195.993 219.422C196.146 220.314 196.417 221.118 196.807 221.835C197.227 222.531 197.781 223.116 198.472 223.59C199.162 224.064 199.995 224.376 200.972 224.525C202.642 224.781 203.91 224.66 204.776 224.161C205.645 223.637 206.304 222.857 206.752 221.821L209.99 222.317ZM207.873 215.798C208.018 214.847 208.047 213.97 207.96 213.168C207.873 212.365 207.652 211.661 207.298 211.054C206.947 210.422 206.449 209.898 205.802 209.484C205.156 209.069 204.344 208.787 203.368 208.637C201.594 208.365 200.124 208.692 198.956 209.618C197.814 210.548 196.995 212.027 196.5 214.055L207.873 215.798ZM216.938 223.145C216.957 224.569 217.385 225.634 218.224 226.341C219.092 227.027 220.336 227.493 221.955 227.742C223.651 228.001 224.889 227.902 225.67 227.443C226.48 226.962 226.958 226.246 227.104 225.295C227.163 224.91 227.167 224.542 227.115 224.192C227.093 223.821 226.973 223.487 226.756 223.19C226.542 222.868 226.22 222.569 225.789 222.292C225.358 222.016 224.779 221.756 224.054 221.514L221.568 220.738C220.465 220.385 219.511 220.002 218.706 219.589C217.902 219.177 217.237 218.706 216.713 218.179C216.193 217.626 215.828 217.004 215.618 216.315C215.438 215.603 215.418 214.785 215.56 213.859C215.702 212.934 216.021 212.141 216.517 211.481C217.038 210.824 217.683 210.305 218.452 209.923C219.25 209.519 220.145 209.262 221.135 209.151C222.155 209.018 223.23 209.038 224.361 209.211C225.8 209.432 226.974 209.756 227.881 210.185C228.814 210.617 229.552 211.125 230.094 211.708C230.636 212.29 231.023 212.942 231.254 213.661C231.486 214.38 231.635 215.126 231.7 215.899L228.578 215.934C228.481 215.366 228.348 214.859 228.18 214.413C228.012 213.966 227.755 213.585 227.408 213.269C227.066 212.927 226.622 212.648 226.077 212.433C225.561 212.196 224.891 212.015 224.069 211.889C223.144 211.747 222.359 211.719 221.715 211.804C221.074 211.864 220.54 212.005 220.111 212.229C219.708 212.457 219.401 212.738 219.192 213.075C218.987 213.385 218.854 213.733 218.795 214.119C218.732 214.53 218.727 214.91 218.778 215.26C218.834 215.584 218.983 215.897 219.226 216.197C219.474 216.471 219.828 216.736 220.288 216.991C220.749 217.246 221.355 217.496 222.106 217.743L224.927 218.649C227.206 219.393 228.774 220.317 229.631 221.422C230.513 222.53 230.814 223.997 230.535 225.821C230.405 226.669 230.118 227.428 229.673 228.096C229.233 228.739 228.637 229.279 227.886 229.716C227.139 230.128 226.243 230.398 225.197 230.527C224.148 230.682 222.955 230.657 221.618 230.452C220.41 230.267 219.297 229.978 218.279 229.585C217.287 229.196 216.429 228.696 215.707 228.086C214.99 227.45 214.449 226.683 214.087 225.786C213.725 224.889 213.596 223.843 213.7 222.649L216.938 223.145ZM237.832 214.63L234.748 214.157L235.155 211.497L238.239 211.97L239.072 206.534L242.426 207.048L241.593 212.484L246.874 213.293L246.467 215.953L241.185 215.144L239.395 226.824C239.245 227.801 239.344 228.618 239.69 229.276C240.036 229.934 240.659 230.332 241.559 230.47C242.124 230.557 242.618 230.593 243.041 230.579C243.49 230.569 243.904 230.527 244.284 230.454L244.466 233.125C243.924 233.226 243.337 233.281 242.705 233.289C242.094 233.327 241.377 233.283 240.555 233.157C239.424 232.984 238.537 232.677 237.895 232.236C237.252 231.796 236.772 231.236 236.456 230.556C236.139 229.876 235.969 229.1 235.944 228.229C235.946 227.361 236.023 226.426 236.177 225.424L237.832 214.63ZM250.524 213.853L253.878 214.367L250.823 234.297L247.469 233.783L250.524 213.853ZM251.573 206.241L255.158 206.79L254.561 210.684L250.976 210.134L251.573 206.241ZM259.106 215.168L262.421 215.676L261.954 218.722C263.132 217.561 264.355 216.788 265.624 216.404C266.893 216.02 268.183 215.928 269.493 216.129C271.755 216.476 273.331 217.348 274.221 218.747C275.137 220.15 275.412 222.047 275.046 224.437L273.013 237.698L269.659 237.184L271.591 224.578C271.875 222.728 271.74 221.379 271.186 220.531C270.636 219.658 269.667 219.115 268.279 218.902C267.534 218.788 266.769 218.802 265.984 218.945C265.225 219.091 264.507 219.402 263.829 219.877C263.1 220.344 262.519 220.873 262.086 221.464C261.658 222.03 261.367 222.814 261.213 223.816L259.405 235.612L256.051 235.098L259.106 215.168ZM281.145 240.838C281.243 242.09 281.651 243.033 282.368 243.669C283.112 244.31 284.345 244.762 286.067 245.025C288.174 245.348 289.717 244.98 290.695 243.92C291.694 242.889 292.365 241.256 292.708 239.02L293.033 236.9C292.097 237.861 291.031 238.553 289.835 238.975C288.665 239.4 287.347 239.501 285.883 239.276C284.443 239.056 283.224 238.606 282.223 237.926C281.252 237.225 280.488 236.371 279.932 235.366C279.38 234.334 279.017 233.187 278.842 231.924C278.693 230.665 278.725 229.341 278.938 227.953C279.17 226.437 279.587 225.094 280.187 223.923C280.791 222.727 281.546 221.751 282.451 220.995C283.36 220.214 284.391 219.662 285.545 219.339C286.725 219.02 287.996 218.965 289.358 219.174C290.463 219.343 291.52 219.742 292.529 220.37C293.567 220.976 294.443 221.952 295.157 223.298L295.547 220.754L298.863 221.262L296.304 237.954C296.04 239.676 295.675 241.198 295.21 242.521C294.766 243.873 294.137 244.974 293.323 245.822C292.531 246.7 291.517 247.308 290.282 247.644C289.046 247.981 287.516 248.01 285.692 247.73C283.07 247.328 281.087 246.537 279.742 245.358C278.393 244.204 277.756 242.529 277.83 240.33L281.145 240.838ZM294.174 229.973C294.375 228.662 294.388 227.546 294.213 226.625C294.043 225.679 293.731 224.881 293.278 224.233C292.825 223.585 292.256 223.09 291.572 222.748C290.918 222.385 290.205 222.144 289.434 222.026C288.612 221.9 287.819 221.923 287.056 222.096C286.323 222.246 285.641 222.576 285.011 223.084C284.406 223.596 283.879 224.292 283.429 225.17C283.004 226.051 282.691 227.148 282.49 228.458C282.286 229.795 282.266 230.949 282.433 231.922C282.625 232.898 282.935 233.708 283.362 234.353C283.79 234.997 284.318 235.499 284.947 235.858C285.601 236.221 286.275 236.456 286.969 236.563C287.843 236.696 288.661 236.677 289.424 236.505C290.213 236.336 290.92 236.011 291.547 235.528C292.173 235.045 292.706 234.404 293.144 233.603C293.586 232.776 293.896 231.785 294.073 230.628L294.174 229.973ZM322.379 242.463C321.525 243.227 320.497 243.845 319.293 244.318C318.094 244.766 316.671 244.863 315.027 244.611C314.024 244.458 313.119 244.187 312.31 243.8C311.523 243.443 310.859 242.973 310.317 242.39C309.804 241.786 309.438 241.085 309.219 240.288C308.999 239.492 308.966 238.593 309.119 237.59C309.328 236.228 309.78 235.166 310.475 234.405C311.197 233.647 312.07 233.097 313.096 232.755C314.147 232.416 315.293 232.237 316.532 232.216C317.771 232.196 319.038 232.258 320.33 232.404L323.779 232.814L323.897 232.043C324.157 230.347 323.985 229.071 323.379 228.216C322.774 227.36 321.662 226.808 320.042 226.56C318.449 226.316 317.238 226.406 316.41 226.832C315.586 227.231 314.988 227.876 314.615 228.766L311.622 227.952C312.262 226.183 313.326 224.991 314.814 224.377C316.306 223.738 318.221 223.598 320.56 223.956C321.999 224.177 323.179 224.542 324.101 225.051C325.052 225.539 325.787 226.151 326.305 226.888C326.823 227.626 327.138 228.489 327.249 229.479C327.386 230.474 327.364 231.562 327.183 232.744L325.198 245.697L321.959 245.2L322.379 242.463ZM323.413 235.204L320.195 234.829C318.825 234.672 317.675 234.627 316.744 234.695C315.813 234.763 315.05 234.935 314.455 235.212C313.89 235.468 313.452 235.834 313.142 236.313C312.858 236.795 312.664 237.371 312.562 238.039C312.408 239.041 312.58 239.896 313.076 240.604C313.603 241.289 314.56 241.738 315.947 241.951C317.926 242.254 319.543 242.002 320.798 241.195C322.053 240.388 322.81 239.136 323.07 237.44L323.413 235.204ZM333.341 240.987C333.359 242.41 333.788 243.476 334.626 244.183C335.494 244.868 336.738 245.335 338.357 245.583C340.053 245.843 341.292 245.744 342.072 245.285C342.882 244.804 343.36 244.088 343.506 243.137C343.565 242.752 343.569 242.384 343.517 242.034C343.495 241.663 343.376 241.328 343.158 241.032C342.944 240.71 342.622 240.411 342.191 240.134C341.76 239.858 341.181 239.598 340.456 239.355L337.971 238.58C336.867 238.227 335.913 237.844 335.109 237.431C334.304 237.018 333.639 236.548 333.115 236.021C332.595 235.468 332.23 234.846 332.02 234.156C331.84 233.445 331.821 232.626 331.962 231.701C332.104 230.776 332.423 229.983 332.919 229.323C333.44 228.666 334.086 228.147 334.854 227.765C335.653 227.361 336.547 227.104 337.537 226.992C338.557 226.859 339.633 226.88 340.763 227.053C342.203 227.274 343.376 227.598 344.283 228.026C345.217 228.459 345.954 228.966 346.496 229.549C347.038 230.132 347.425 230.783 347.657 231.503C347.888 232.222 348.037 232.968 348.103 233.741L344.98 233.775C344.883 233.208 344.751 232.701 344.582 232.255C344.414 231.808 344.157 231.427 343.811 231.11C343.469 230.769 343.025 230.49 342.479 230.275C341.963 230.038 341.294 229.857 340.471 229.731C339.546 229.589 338.761 229.561 338.117 229.646C337.476 229.706 336.942 229.847 336.513 230.071C336.11 230.298 335.804 230.58 335.594 230.916C335.389 231.227 335.257 231.575 335.198 231.96C335.135 232.372 335.129 232.752 335.18 233.102C335.236 233.426 335.385 233.738 335.629 234.039C335.876 234.313 336.23 234.578 336.691 234.833C337.151 235.087 337.757 235.338 338.509 235.585L341.329 236.491C343.609 237.235 345.177 238.159 346.033 239.263C346.915 240.372 347.217 241.838 346.937 243.663C346.807 244.511 346.52 245.269 346.075 245.938C345.635 246.58 345.039 247.12 344.288 247.558C343.541 247.969 342.645 248.24 341.599 248.369C340.55 248.523 339.357 248.498 338.021 248.294C336.813 248.108 335.7 247.819 334.681 247.427C333.689 247.038 332.832 246.538 332.11 245.928C331.392 245.292 330.852 244.525 330.49 243.628C330.127 242.73 329.998 241.685 330.102 240.491L333.341 240.987ZM353.481 244.074C353.5 245.498 353.928 246.563 354.767 247.27C355.635 247.955 356.879 248.422 358.498 248.67C360.194 248.93 361.432 248.831 362.213 248.372C363.023 247.891 363.501 247.175 363.647 246.224C363.706 245.839 363.71 245.471 363.658 245.121C363.636 244.75 363.516 244.416 363.299 244.119C363.085 243.797 362.763 243.498 362.332 243.221C361.901 242.945 361.322 242.685 360.597 242.442L358.111 241.667C357.008 241.314 356.054 240.931 355.249 240.518C354.445 240.105 353.78 239.635 353.256 239.108C352.736 238.555 352.371 237.933 352.161 237.243C351.981 236.532 351.961 235.713 352.103 234.788C352.245 233.863 352.564 233.07 353.06 232.41C353.581 231.753 354.226 231.234 354.995 230.852C355.793 230.448 356.688 230.191 357.678 230.08C358.698 229.947 359.773 229.967 360.904 230.14C362.343 230.361 363.517 230.685 364.424 231.114C365.357 231.546 366.095 232.054 366.637 232.636C367.179 233.219 367.566 233.87 367.797 234.59C368.029 235.309 368.178 236.055 368.244 236.828L365.121 236.863C365.024 236.295 364.891 235.788 364.723 235.342C364.555 234.895 364.298 234.514 363.952 234.198C363.609 233.856 363.165 233.577 362.62 233.362C362.104 233.125 361.434 232.944 360.612 232.818C359.687 232.676 358.902 232.648 358.258 232.733C357.617 232.793 357.083 232.934 356.654 233.158C356.251 233.385 355.944 233.667 355.735 234.003C355.53 234.314 355.397 234.662 355.338 235.047C355.275 235.459 355.27 235.839 355.321 236.189C355.377 236.513 355.526 236.825 355.769 237.126C356.017 237.4 356.371 237.665 356.831 237.92C357.292 238.175 357.898 238.425 358.649 238.672L361.47 239.578C363.749 240.322 365.317 241.246 366.174 242.35C367.056 243.459 367.357 244.925 367.078 246.75C366.948 247.598 366.661 248.356 366.216 249.025C365.776 249.668 365.18 250.208 364.429 250.645C363.682 251.056 362.786 251.327 361.74 251.456C360.691 251.611 359.498 251.586 358.161 251.381C356.953 251.196 355.84 250.907 354.822 250.514C353.83 250.125 352.972 249.625 352.251 249.015C351.533 248.379 350.993 247.612 350.63 246.715C350.268 245.818 350.139 244.772 350.243 243.578L353.481 244.074ZM373.51 232.704L376.864 233.218L374.938 245.785C374.654 247.635 374.749 248.991 375.222 249.853C375.72 250.718 376.651 251.256 378.013 251.464C379.503 251.693 380.935 251.36 382.309 250.466C383.038 249.999 383.617 249.482 384.045 248.917C384.478 248.326 384.771 247.529 384.925 246.526L386.733 234.73L390.087 235.244L387.032 255.175L383.716 254.666L384.189 251.582C383.016 252.718 381.818 253.494 380.597 253.912C379.375 254.33 378.109 254.438 376.799 254.237C374.537 253.891 372.985 253.035 372.142 251.669C371.329 250.282 371.109 248.368 371.483 245.926L373.51 232.704ZM395.235 236.033L398.55 236.542L398.083 239.587C399.172 238.491 400.301 237.731 401.471 237.305C402.645 236.854 403.797 236.715 404.928 236.888C406.419 237.116 407.565 237.621 408.366 238.401C409.192 239.185 409.732 240.215 409.983 241.49C411.072 240.394 412.242 239.627 413.493 239.187C414.748 238.722 416.031 238.59 417.341 238.791C419.294 239.09 420.715 239.86 421.603 241.101C422.521 242.32 422.799 244.112 422.437 246.476L420.321 260.277L416.967 259.763L418.965 246.733C419.103 245.834 419.14 245.077 419.076 244.462C419.016 243.821 418.858 243.311 418.601 242.929C418.373 242.526 418.051 242.227 417.634 242.031C417.22 241.81 416.731 241.656 416.166 241.57C415.575 241.479 414.942 241.487 414.268 241.594C413.594 241.701 412.909 241.965 412.214 242.384C411.633 242.742 411.128 243.204 410.699 243.77C410.271 244.335 409.995 245.016 409.873 245.813L407.947 258.38L404.593 257.866L406.584 244.875C406.852 243.127 406.729 241.872 406.214 241.11C405.73 240.325 404.922 239.846 403.791 239.673C402.48 239.472 401.164 239.822 399.842 240.725C399.342 241.069 398.838 241.531 398.328 242.11C397.844 242.694 397.519 243.525 397.354 244.604L395.534 256.478L392.18 255.964L395.235 236.033ZM428.439 241.123L431.754 241.631L431.317 244.484C432.313 243.479 433.395 242.764 434.565 242.338C435.761 241.916 437.091 241.818 438.556 242.042C439.97 242.259 441.164 242.705 442.139 243.381C443.14 244.06 443.916 244.915 444.468 245.947C445.046 246.983 445.403 248.168 445.54 249.505C445.707 250.819 445.672 252.247 445.436 253.789C445.184 255.434 444.75 256.893 444.134 258.166C443.522 259.414 442.759 260.441 441.846 261.248C440.934 262.056 439.885 262.631 438.701 262.976C437.547 263.299 436.289 263.356 434.927 263.147C433.796 262.974 432.712 262.584 431.674 261.978C430.665 261.35 429.813 260.39 429.116 259.1L427.592 269.046L424.238 268.532L428.439 241.123ZM430.141 252.155C429.944 253.44 429.916 254.567 430.057 255.535C430.227 256.482 430.524 257.29 430.948 257.96C431.371 258.63 431.921 259.162 432.597 259.555C433.277 259.922 434.042 260.171 434.89 260.301C435.712 260.427 436.492 260.401 437.229 260.225C437.992 260.053 438.678 259.698 439.286 259.16C439.899 258.596 440.423 257.834 440.86 256.875C441.322 255.92 441.663 254.723 441.883 253.284C442.108 251.819 442.128 250.573 441.944 249.545C441.789 248.496 441.5 247.636 441.076 246.966C440.653 246.296 440.127 245.781 439.498 245.422C438.895 245.067 438.247 244.836 437.553 244.729C436.679 244.595 435.846 244.625 435.053 244.82C434.264 244.988 433.542 245.325 432.886 245.829C432.26 246.312 431.723 246.979 431.277 247.831C430.835 248.658 430.525 249.649 430.348 250.806L430.141 252.155ZM452.189 247.486L449.106 247.013L449.513 244.353L452.597 244.826L453.43 239.39L456.784 239.904L455.951 245.34L461.232 246.149L460.825 248.809L455.543 248L453.753 259.68C453.603 260.657 453.702 261.474 454.048 262.132C454.394 262.79 455.017 263.188 455.917 263.326C456.482 263.413 456.976 263.449 457.399 263.435C457.848 263.425 458.262 263.383 458.641 263.31L458.824 265.981C458.282 266.082 457.695 266.137 457.063 266.145C456.452 266.183 455.735 266.139 454.913 266.013C453.782 265.84 452.895 265.533 452.253 265.092C451.61 264.652 451.13 264.092 450.814 263.412C450.497 262.732 450.327 261.956 450.302 261.085C450.304 260.217 450.381 259.282 450.535 258.28L452.189 247.486ZM464.882 246.709L468.236 247.223L465.181 267.153L461.827 266.639L464.882 246.709ZM465.931 239.097L469.516 239.646L468.919 243.54L465.334 242.99L465.931 239.097ZM479.258 269.942C477.742 269.71 476.43 269.259 475.322 268.589C474.215 267.92 473.319 267.072 472.635 266.047C471.95 265.021 471.49 263.819 471.254 262.442C471.018 261.064 471.024 259.566 471.272 257.947C471.52 256.327 471.976 254.898 472.64 253.658C473.303 252.418 474.13 251.401 475.12 250.606C476.11 249.811 477.233 249.259 478.49 248.952C479.777 248.623 481.153 248.571 482.618 248.796C484.108 249.024 485.407 249.473 486.514 250.143C487.622 250.812 488.516 251.673 489.196 252.724C489.907 253.753 490.382 254.944 490.622 256.296C490.862 257.648 490.857 259.134 490.609 260.753C490.357 262.397 489.899 263.84 489.236 265.08C488.598 266.323 487.784 267.343 486.794 268.138C485.83 268.937 484.705 269.501 483.418 269.83C482.135 270.133 480.749 270.17 479.258 269.942ZM479.722 267.172C480.801 267.338 481.756 267.287 482.586 267.019C483.416 266.752 484.129 266.309 484.723 265.69C485.344 265.075 485.842 264.31 486.219 263.394C486.6 262.453 486.879 261.404 487.057 260.248C487.23 259.117 487.274 258.058 487.188 257.072C487.103 256.086 486.854 255.219 486.443 254.472C486.061 253.703 485.514 253.067 484.802 252.563C484.09 252.06 483.194 251.725 482.115 251.56C481.036 251.394 480.081 251.445 479.251 251.712C478.446 251.984 477.734 252.427 477.114 253.042C476.523 253.635 476.039 254.39 475.662 255.305C475.285 256.221 475.008 257.257 474.831 258.413C474.653 259.57 474.607 260.641 474.693 261.627C474.779 262.614 475.012 263.491 475.394 264.26C475.776 265.029 476.323 265.665 477.035 266.169C477.747 266.672 478.643 267.007 479.722 267.172ZM496.616 251.573L499.932 252.081L499.465 255.126C500.642 253.965 501.865 253.193 503.134 252.809C504.403 252.424 505.693 252.333 507.004 252.534C509.265 252.88 510.841 253.753 511.731 255.152C512.647 256.555 512.922 258.452 512.556 260.842L510.523 274.103L507.169 273.589L509.102 260.983C509.385 259.133 509.25 257.784 508.696 256.936C508.146 256.063 507.177 255.519 505.789 255.307C505.044 255.192 504.279 255.207 503.494 255.35C502.735 255.496 502.017 255.807 501.339 256.282C500.61 256.749 500.029 257.278 499.597 257.869C499.168 258.435 498.877 259.219 498.723 260.221L496.915 272.017L493.561 271.503L496.616 251.573ZM527.972 259.101L524.85 258.623L525.258 255.963L528.38 256.441L528.646 254.707C528.811 253.627 529.107 252.726 529.534 252.002C529.986 251.282 530.52 250.72 531.134 250.314C531.778 249.887 532.478 249.613 533.233 249.492C534.018 249.349 534.821 249.34 535.644 249.466C536.235 249.557 536.794 249.682 537.322 249.842C537.854 249.976 538.402 250.179 538.965 250.449L538.024 252.988C537.632 252.796 537.246 252.658 536.864 252.573C536.512 252.467 536.156 252.386 535.796 252.331C534.897 252.193 534.089 252.319 533.371 252.709C532.658 253.073 532.205 253.884 532.012 255.144L531.734 256.956L536.784 257.73L536.376 260.39L531.326 259.615L528.679 276.886L525.325 276.372L527.972 259.101ZM545.101 280.034C543.585 279.802 542.273 279.351 541.166 278.681C540.058 278.012 539.163 277.164 538.478 276.139C537.793 275.113 537.333 273.912 537.097 272.534C536.861 271.156 536.867 269.658 537.115 268.039C537.364 266.42 537.819 264.99 538.483 263.751C539.146 262.511 539.973 261.493 540.963 260.698C541.953 259.903 543.076 259.352 544.334 259.045C545.62 258.716 546.996 258.664 548.461 258.888C549.951 259.117 551.25 259.566 552.358 260.235C553.465 260.905 554.359 261.765 555.04 262.816C555.75 263.846 556.225 265.036 556.465 266.388C556.705 267.74 556.701 269.226 556.453 270.845C556.2 272.49 555.743 273.932 555.079 275.172C554.441 276.416 553.628 277.435 552.638 278.23C551.673 279.029 550.548 279.593 549.261 279.922C547.979 280.225 546.592 280.263 545.101 280.034ZM545.565 277.265C546.645 277.43 547.599 277.379 548.429 277.112C549.26 276.844 549.972 276.401 550.567 275.782C551.187 275.167 551.686 274.402 552.063 273.486C552.444 272.545 552.723 271.496 552.9 270.34C553.073 269.209 553.117 268.151 553.032 267.164C552.946 266.178 552.698 265.311 552.286 264.564C551.904 263.795 551.357 263.159 550.645 262.656C549.933 262.152 549.038 261.817 547.958 261.652C546.879 261.486 545.924 261.537 545.094 261.805C544.29 262.076 543.577 262.519 542.957 263.134C542.366 263.728 541.882 264.482 541.505 265.397C541.128 266.313 540.851 267.349 540.674 268.505C540.497 269.662 540.451 270.733 540.536 271.72C540.622 272.706 540.856 273.583 541.238 274.352C541.619 275.121 542.166 275.757 542.878 276.261C543.59 276.765 544.486 277.099 545.565 277.265ZM562.46 261.665L565.775 262.173L565.302 265.257C566.217 264.266 567.221 263.552 568.314 263.115C569.406 262.677 570.518 262.545 571.649 262.719C572.343 262.825 572.926 262.967 573.399 263.145L572.496 266.202C572.247 266.111 571.996 266.033 571.743 265.968C571.494 265.877 571.215 265.808 570.907 265.761C570.29 265.667 569.642 265.686 568.964 265.819C568.29 265.926 567.631 266.193 566.987 266.62C566.347 267.022 565.81 267.518 565.378 268.11C564.971 268.705 564.703 269.426 564.573 270.275L562.759 282.109L559.405 281.595L562.46 261.665ZM95.1322 240.619L98.7944 241.18L100.369 257.677L107.373 242.613L110.766 243.133L112.821 259.586L119.226 244.312L122.772 244.855L113.897 263.893L110.35 263.35L108.313 246.782L101.368 261.973L97.8598 261.435L95.1322 240.619ZM126.843 237.706L130.197 238.22L128.578 248.783C129.747 247.674 130.954 246.925 132.197 246.537C133.466 246.152 134.756 246.061 136.066 246.262C138.328 246.608 139.904 247.481 140.794 248.88C141.71 250.283 141.985 252.18 141.619 254.57L139.586 267.831L136.194 267.311L138.126 254.705C138.409 252.855 138.274 251.506 137.72 250.658C137.196 249.788 136.24 249.247 134.852 249.035C134.107 248.92 133.342 248.935 132.557 249.077C131.798 249.224 131.08 249.535 130.402 250.01C129.673 250.477 129.092 251.006 128.659 251.597C128.231 252.163 127.94 252.947 127.786 253.949L125.978 265.745L122.624 265.231L126.843 237.706ZM157.442 267.766C156.589 268.53 155.56 269.148 154.356 269.621C153.157 270.069 151.735 270.166 150.09 269.914C149.088 269.761 148.182 269.49 147.373 269.103C146.586 268.746 145.922 268.276 145.38 267.693C144.868 267.088 144.502 266.388 144.282 265.591C144.062 264.795 144.029 263.896 144.182 262.893C144.391 261.531 144.843 260.469 145.539 259.708C146.26 258.95 147.133 258.4 148.159 258.058C149.21 257.719 150.356 257.54 151.595 257.519C152.835 257.499 154.101 257.561 155.394 257.707L158.842 258.117L158.96 257.346C159.22 255.65 159.048 254.374 158.442 253.518C157.837 252.663 156.725 252.111 155.106 251.863C153.512 251.619 152.302 251.709 151.474 252.135C150.649 252.534 150.051 253.179 149.678 254.069L146.686 253.255C147.325 251.486 148.389 250.294 149.877 249.68C151.369 249.041 153.284 248.901 155.623 249.259C157.062 249.48 158.243 249.845 159.164 250.354C160.115 250.842 160.85 251.454 161.368 252.191C161.886 252.928 162.201 253.792 162.313 254.782C162.449 255.777 162.427 256.865 162.246 258.047L160.261 271L157.023 270.503L157.442 267.766ZM158.476 260.507L155.259 260.132C153.889 259.975 152.738 259.93 151.807 259.998C150.876 260.066 150.113 260.238 149.518 260.515C148.953 260.771 148.515 261.137 148.205 261.616C147.921 262.098 147.728 262.674 147.625 263.342C147.472 264.344 147.643 265.199 148.14 265.907C148.666 266.592 149.623 267.041 151.011 267.254C152.989 267.557 154.606 267.305 155.861 266.498C157.116 265.691 157.873 264.439 158.133 262.743L158.476 260.507ZM169.156 254.687L166.072 254.215L166.48 251.555L169.564 252.027L170.397 246.592L173.751 247.106L172.918 252.541L178.199 253.351L177.791 256.011L172.51 255.201L170.72 266.882C170.57 267.858 170.668 268.676 171.015 269.334C171.361 269.992 171.984 270.39 172.883 270.528C173.449 270.614 173.943 270.651 174.366 270.637C174.815 270.627 175.229 270.585 175.608 270.511L175.791 273.183C175.249 273.284 174.662 273.339 174.029 273.347C173.419 273.385 172.702 273.341 171.88 273.215C170.749 273.041 169.862 272.734 169.219 272.294C168.577 271.854 168.097 271.293 167.78 270.614C167.464 269.934 167.293 269.158 167.269 268.286C167.271 267.418 167.348 266.483 167.502 265.481L169.156 254.687ZM190.355 255.214L193.671 255.722L193.204 258.768C194.292 257.672 195.422 256.911 196.592 256.486C197.766 256.034 198.918 255.895 200.049 256.069C201.539 256.297 202.685 256.801 203.486 257.582C204.313 258.366 204.852 259.396 205.104 260.671C206.192 259.575 207.362 258.807 208.613 258.368C209.868 257.902 211.151 257.77 212.462 257.971C214.415 258.271 215.836 259.041 216.724 260.282C217.642 261.501 217.92 263.293 217.557 265.657L215.442 279.458L212.088 278.944L214.085 265.914C214.223 265.014 214.26 264.257 214.197 263.643C214.137 263.002 213.978 262.491 213.721 262.11C213.494 261.707 213.171 261.407 212.754 261.212C212.341 260.991 211.852 260.837 211.286 260.75C210.695 260.66 210.063 260.668 209.389 260.775C208.714 260.882 208.03 261.145 207.334 261.565C206.753 261.923 206.248 262.385 205.82 262.95C205.391 263.516 205.116 264.197 204.994 264.994L203.067 277.561L199.713 277.047L201.705 264.056C201.973 262.308 201.849 261.053 201.335 260.29C200.85 259.506 200.042 259.027 198.912 258.853C197.601 258.653 196.285 259.003 194.963 259.905C194.463 260.25 193.958 260.711 193.448 261.291C192.964 261.874 192.64 262.706 192.474 263.785L190.654 275.658L187.3 275.144L190.355 255.214ZM233.337 279.399C232.484 280.163 231.455 280.781 230.251 281.254C229.052 281.702 227.63 281.799 225.985 281.547C224.982 281.394 224.077 281.123 223.268 280.736C222.481 280.379 221.817 279.909 221.275 279.326C220.763 278.721 220.397 278.021 220.177 277.224C219.957 276.428 219.924 275.528 220.077 274.526C220.286 273.164 220.738 272.102 221.434 271.341C222.155 270.583 223.028 270.033 224.054 269.691C225.105 269.352 226.251 269.173 227.49 269.152C228.729 269.132 229.996 269.194 231.288 269.34L234.737 269.75L234.855 268.979C235.115 267.283 234.943 266.007 234.337 265.151C233.732 264.296 232.62 263.744 231.001 263.496C229.407 263.252 228.196 263.342 227.368 263.768C226.544 264.167 225.946 264.812 225.573 265.702L222.58 264.888C223.22 263.119 224.284 261.927 225.772 261.313C227.264 260.674 229.179 260.534 231.518 260.892C232.957 261.113 234.138 261.478 235.059 261.987C236.01 262.475 236.745 263.087 237.263 263.824C237.781 264.561 238.096 265.425 238.207 266.415C238.344 267.41 238.322 268.498 238.141 269.68L236.156 282.633L232.918 282.136L233.337 279.399ZM234.371 272.14L231.153 271.765C229.783 271.608 228.633 271.563 227.702 271.631C226.771 271.699 226.008 271.871 225.413 272.148C224.848 272.403 224.41 272.77 224.1 273.249C223.816 273.731 223.622 274.307 223.52 274.975C223.366 275.977 223.538 276.832 224.034 277.539C224.561 278.225 225.518 278.674 226.905 278.887C228.884 279.19 230.501 278.938 231.756 278.131C233.011 277.324 233.768 276.072 234.028 274.376L234.371 272.14ZM240.144 287.584C240.824 287.951 241.524 288.19 242.244 288.301C243.066 288.427 243.729 288.305 244.233 287.935C244.759 287.594 245.329 286.88 245.943 285.79L247.077 283.794L241.613 263.071L245.506 263.667L249.391 280.282L257.534 265.511L261.235 266.078L249.178 286.562C248.681 287.406 248.201 288.135 247.738 288.748C247.272 289.387 246.783 289.917 246.272 290.338C245.76 290.76 245.178 291.039 244.526 291.175C243.895 291.342 243.143 291.358 242.269 291.224C241.652 291.13 241.106 291.006 240.629 290.854C240.153 290.702 239.635 290.478 239.075 290.182L240.144 287.584ZM284.565 287.133C283.573 288.112 282.49 288.827 281.316 289.279C280.146 289.704 278.829 289.805 277.364 289.58C275.899 289.356 274.668 288.891 273.672 288.186C272.701 287.485 271.939 286.618 271.387 285.587C270.839 284.529 270.496 283.333 270.359 281.996C270.222 280.66 270.266 279.26 270.49 277.795C270.742 276.15 271.174 274.704 271.786 273.456C272.403 272.183 273.154 271.141 274.041 270.33C274.954 269.523 275.988 268.958 277.142 268.635C278.322 268.316 279.606 268.263 280.993 268.476C282.047 268.637 283.08 269.019 284.093 269.621C285.109 270.198 285.989 271.148 286.733 272.472L288.269 262.449L291.623 262.963L287.404 290.488L284.128 289.986L284.565 287.133ZM285.785 279.429C286.029 277.836 286.039 276.574 285.813 275.645C285.616 274.695 285.167 273.85 284.465 273.111C283.971 272.562 283.442 272.152 282.878 271.881C282.34 271.615 281.724 271.428 281.031 271.322C280.208 271.196 279.415 271.219 278.653 271.392C277.915 271.568 277.228 271.936 276.589 272.496C275.981 273.034 275.446 273.78 274.984 274.735C274.551 275.669 274.227 276.842 274.01 278.255C273.785 279.72 273.751 280.978 273.905 282.027C274.086 283.081 274.388 283.942 274.811 284.612C275.26 285.286 275.786 285.801 276.389 286.156C277.018 286.516 277.68 286.748 278.374 286.855C279.119 286.969 279.801 286.981 280.419 286.892C281.038 286.803 281.677 286.585 282.335 286.239C283.2 285.74 283.897 285.058 284.424 284.192C284.977 283.33 285.362 282.192 285.578 280.778L285.785 279.429ZM295.652 271.354L298.967 271.862L298.495 274.946C299.409 273.955 300.413 273.241 301.506 272.803C302.599 272.366 303.711 272.234 304.841 272.407C305.535 272.513 306.119 272.655 306.591 272.833L305.688 275.891C305.439 275.8 305.188 275.722 304.935 275.657C304.686 275.566 304.407 275.497 304.099 275.45C303.482 275.355 302.835 275.374 302.157 275.507C301.483 275.614 300.824 275.881 300.179 276.309C299.539 276.71 299.003 277.207 298.57 277.798C298.163 278.393 297.895 279.115 297.765 279.963L295.951 291.798L292.597 291.284L295.652 271.354ZM309.846 273.529L313.2 274.043L310.145 293.974L306.792 293.46L309.846 273.529ZM310.895 265.917L314.48 266.467L313.883 270.36L310.298 269.811L310.895 265.917ZM316.115 274.49L320.008 275.087L323.463 292.188L331.997 276.925L335.698 277.492L324.625 296.193L321.04 295.643L316.115 274.49ZM352.812 294.792C352.182 296.669 351.089 298.053 349.532 298.945C348 299.842 345.95 300.093 343.38 299.699C340.347 299.234 338.161 297.965 336.822 295.892C335.486 293.794 335.07 291.1 335.575 287.81C335.839 286.088 336.304 284.595 336.972 283.329C337.639 282.064 338.453 281.044 339.413 280.271C340.399 279.501 341.506 278.974 342.733 278.688C343.965 278.377 345.261 278.326 346.623 278.535C348.165 278.771 349.452 279.218 350.482 279.876C351.512 280.534 352.307 281.353 352.867 282.333C353.457 283.291 353.828 284.387 353.981 285.621C354.159 286.858 354.14 288.183 353.924 289.597L353.664 291.293L338.861 289.024C338.707 290.026 338.692 290.984 338.815 291.897C338.968 292.789 339.239 293.593 339.629 294.31C340.048 295.006 340.603 295.591 341.293 296.065C341.983 296.539 342.817 296.851 343.793 297C345.464 297.256 346.732 297.135 347.597 296.637C348.467 296.112 349.125 295.332 349.574 294.296L352.812 294.792ZM350.694 288.273C350.84 287.322 350.869 286.446 350.782 285.643C350.694 284.841 350.473 284.136 350.119 283.529C349.769 282.897 349.27 282.373 348.624 281.959C347.977 281.544 347.166 281.262 346.189 281.112C344.416 280.84 342.945 281.167 341.777 282.093C340.635 283.023 339.817 284.502 339.322 286.53L350.694 288.273ZM378.125 301.592C377.271 302.355 376.243 302.974 375.039 303.447C373.839 303.894 372.417 303.992 370.772 303.74C369.77 303.586 368.865 303.316 368.056 302.929C367.269 302.571 366.604 302.101 366.062 301.519C365.55 300.914 365.184 300.213 364.964 299.417C364.744 298.62 364.711 297.721 364.865 296.719C365.074 295.357 365.526 294.295 366.221 293.533C366.942 292.776 367.816 292.226 368.841 291.883C369.893 291.545 371.038 291.365 372.278 291.345C373.517 291.324 374.783 291.387 376.076 291.532L379.525 291.943L379.643 291.172C379.903 289.475 379.73 288.2 379.125 287.344C378.519 286.488 377.407 285.936 375.788 285.688C374.195 285.444 372.984 285.535 372.156 285.96C371.332 286.36 370.733 287.005 370.36 287.894L367.368 287.081C368.007 285.311 369.071 284.12 370.559 283.506C372.052 282.867 373.967 282.726 376.306 283.085C377.745 283.305 378.925 283.67 379.847 284.18C380.798 284.668 381.532 285.28 382.051 286.017C382.569 286.754 382.884 287.618 382.995 288.608C383.132 289.602 383.11 290.69 382.929 291.873L380.943 304.825L377.705 304.329L378.125 301.592ZM379.158 294.333L375.941 293.958C374.571 293.801 373.421 293.756 372.49 293.823C371.559 293.891 370.796 294.064 370.201 294.341C369.636 294.596 369.198 294.963 368.888 295.441C368.603 295.924 368.41 296.499 368.308 297.167C368.154 298.17 368.325 299.025 368.822 299.732C369.348 300.418 370.305 300.867 371.693 301.08C373.672 301.383 375.289 301.131 376.544 300.324C377.798 299.516 378.556 298.265 378.816 296.569L379.158 294.333ZM409.55 306.29C408.559 307.269 407.476 307.985 406.302 308.436C405.132 308.862 403.814 308.962 402.35 308.738C400.885 308.513 399.654 308.048 398.657 307.343C397.686 306.642 396.925 305.776 396.373 304.744C395.825 303.687 395.482 302.49 395.345 301.154C395.208 299.818 395.251 298.417 395.476 296.952C395.728 295.307 396.16 293.861 396.772 292.613C397.388 291.34 398.14 290.298 399.027 289.487C399.94 288.68 400.973 288.115 402.127 287.792C403.307 287.473 404.591 287.42 405.979 287.633C407.033 287.794 408.066 288.176 409.078 288.779C410.095 289.355 410.975 290.306 411.719 291.63L413.255 281.607L416.609 282.121L412.39 309.645L409.113 309.143L409.55 306.29ZM410.771 298.586C411.015 296.993 411.024 295.732 410.798 294.803C410.602 293.852 410.153 293.007 409.451 292.268C408.956 291.719 408.427 291.309 407.864 291.039C407.326 290.772 406.71 290.586 406.016 290.479C405.194 290.353 404.401 290.377 403.638 290.549C402.901 290.725 402.213 291.093 401.575 291.653C400.967 292.191 400.431 292.938 399.969 293.893C399.537 294.826 399.212 295.999 398.996 297.413C398.771 298.878 398.736 300.135 398.891 301.184C399.071 302.238 399.373 303.1 399.797 303.77C400.246 304.443 400.772 304.958 401.375 305.313C402.004 305.673 402.665 305.906 403.359 306.012C404.104 306.126 404.786 306.139 405.405 306.05C406.024 305.96 406.662 305.742 407.32 305.396C408.186 304.898 408.882 304.215 409.409 303.349C409.962 302.487 410.347 301.349 410.564 299.936L410.771 298.586ZM435.671 307.493C435.042 309.369 433.948 310.753 432.391 311.646C430.86 312.542 428.809 312.793 426.239 312.399C423.206 311.935 421.02 310.666 419.681 308.593C418.346 306.494 417.93 303.8 418.434 300.511C418.698 298.789 419.164 297.295 419.831 296.03C420.499 294.764 421.312 293.745 422.273 292.971C423.259 292.202 424.365 291.674 425.593 291.389C426.824 291.078 428.121 291.027 429.483 291.235C431.025 291.472 432.311 291.919 433.341 292.577C434.372 293.234 435.167 294.053 435.727 295.033C436.316 295.992 436.687 297.088 436.84 298.321C437.019 299.558 437 300.884 436.783 302.297L436.523 303.993L421.72 301.724C421.567 302.727 421.551 303.685 421.674 304.598C421.827 305.489 422.098 306.293 422.488 307.011C422.908 307.706 423.462 308.291 424.153 308.765C424.843 309.239 425.676 309.551 426.653 309.701C428.323 309.957 429.591 309.836 430.457 309.337C431.326 308.813 431.985 308.032 432.433 306.996L435.671 307.493ZM433.554 300.974C433.699 300.023 433.728 299.146 433.641 298.344C433.554 297.541 433.333 296.836 432.979 296.23C432.628 295.597 432.13 295.074 431.483 294.659C430.837 294.244 430.025 293.962 429.048 293.812C427.275 293.541 425.805 293.868 424.637 294.793C423.495 295.723 422.676 297.202 422.181 299.231L433.554 300.974ZM442.619 308.321C442.638 309.744 443.066 310.809 443.905 311.517C444.773 312.202 446.017 312.669 447.636 312.917C449.332 313.177 450.57 313.078 451.351 312.618C452.161 312.138 452.639 311.422 452.785 310.471C452.844 310.085 452.848 309.718 452.796 309.368C452.774 308.996 452.654 308.662 452.437 308.366C452.223 308.044 451.901 307.745 451.47 307.468C451.038 307.192 450.46 306.932 449.735 306.689L447.249 305.914C446.146 305.56 445.192 305.178 444.387 304.765C443.583 304.352 442.918 303.882 442.394 303.355C441.874 302.801 441.509 302.18 441.299 301.49C441.119 300.779 441.099 299.96 441.241 299.035C441.383 298.11 441.702 297.317 442.198 296.656C442.719 296 443.364 295.481 444.133 295.099C444.931 294.695 445.826 294.438 446.816 294.326C447.836 294.193 448.911 294.213 450.042 294.387C451.481 294.607 452.655 294.932 453.562 295.36C454.495 295.793 455.233 296.3 455.775 296.883C456.317 297.466 456.704 298.117 456.935 298.836C457.167 299.556 457.316 300.302 457.381 301.075L454.259 301.109C454.162 300.542 454.029 300.035 453.861 299.588C453.693 299.142 453.436 298.76 453.089 298.444C452.747 298.102 452.303 297.824 451.758 297.609C451.242 297.372 450.572 297.19 449.75 297.064C448.825 296.923 448.04 296.894 447.396 296.98C446.755 297.039 446.221 297.181 445.792 297.405C445.389 297.632 445.082 297.914 444.873 298.25C444.668 298.561 444.535 298.909 444.476 299.294C444.413 299.705 444.408 300.086 444.459 300.436C444.515 300.76 444.664 301.072 444.907 301.372C445.155 301.647 445.509 301.912 445.969 302.166C446.43 302.421 447.036 302.672 447.787 302.919L450.608 303.824C452.887 304.568 454.455 305.493 455.312 306.597C456.194 307.706 456.495 309.172 456.216 310.997C456.086 311.845 455.799 312.603 455.354 313.272C454.914 313.914 454.318 314.454 453.567 314.892C452.82 315.303 451.924 315.573 450.878 315.702C449.829 315.857 448.636 315.832 447.299 315.627C446.091 315.442 444.978 315.153 443.96 314.76C442.967 314.372 442.11 313.872 441.388 313.262C440.671 312.625 440.13 311.859 439.768 310.962C439.406 310.064 439.277 309.019 439.381 307.825L442.619 308.321ZM462.841 296.98L466.195 297.494L463.14 317.424L459.786 316.91L462.841 296.98ZM463.889 289.368L467.474 289.917L466.878 293.811L463.292 293.261L463.889 289.368ZM471.476 320.596C471.574 321.847 471.982 322.791 472.7 323.427C473.443 324.067 474.676 324.519 476.398 324.783C478.505 325.106 480.048 324.737 481.026 323.677C482.025 322.647 482.697 321.014 483.039 318.778L483.364 316.657C482.428 317.619 481.362 318.31 480.166 318.732C478.996 319.157 477.679 319.258 476.214 319.033C474.775 318.813 473.555 318.363 472.554 317.683C471.583 316.982 470.82 316.129 470.264 315.123C469.711 314.091 469.348 312.944 469.173 311.681C469.024 310.422 469.056 309.098 469.269 307.711C469.501 306.194 469.918 304.851 470.518 303.68C471.122 302.484 471.877 301.508 472.782 300.752C473.691 299.971 474.722 299.419 475.876 299.096C477.056 298.777 478.327 298.722 479.69 298.931C480.795 299.1 481.851 299.499 482.86 300.127C483.898 300.733 484.774 301.709 485.489 303.055L485.879 300.511L489.194 301.019L486.635 317.711C486.371 319.433 486.007 320.955 485.541 322.278C485.097 323.63 484.468 324.731 483.654 325.579C482.862 326.457 481.848 327.065 480.613 327.402C479.377 327.738 477.847 327.767 476.023 327.487C473.401 327.085 471.418 326.295 470.073 325.115C468.725 323.962 468.087 322.286 468.161 320.088L471.476 320.596ZM484.505 309.73C484.706 308.42 484.719 307.304 484.545 306.383C484.374 305.436 484.062 304.638 483.609 303.99C483.156 303.342 482.588 302.847 481.903 302.506C481.249 302.142 480.536 301.902 479.765 301.783C478.943 301.657 478.15 301.681 477.387 301.853C476.654 302.004 475.972 302.333 475.342 302.841C474.737 303.354 474.21 304.049 473.76 304.927C473.335 305.809 473.022 306.905 472.822 308.216C472.617 309.552 472.598 310.706 472.764 311.679C472.956 312.655 473.266 313.466 473.694 314.11C474.121 314.754 474.649 315.256 475.278 315.615C475.932 315.979 476.607 316.213 477.3 316.32C478.174 316.454 478.993 316.434 479.755 316.262C480.544 316.094 481.252 315.768 481.878 315.285C482.504 314.803 483.037 314.161 483.475 313.36C483.917 312.534 484.227 311.542 484.404 310.386L484.505 309.73ZM494.349 301.809L497.664 302.317L497.197 305.363C498.375 304.202 499.598 303.429 500.867 303.045C502.136 302.661 503.426 302.569 504.736 302.77C506.998 303.117 508.574 303.99 509.464 305.389C510.38 306.792 510.655 308.688 510.289 311.078L508.256 324.339L504.902 323.825L506.834 311.22C507.118 309.369 506.983 308.02 506.429 307.172C505.879 306.299 504.91 305.756 503.522 305.543C502.777 305.429 502.012 305.443 501.227 305.586C500.468 305.733 499.75 306.043 499.072 306.518C498.343 306.985 497.762 307.514 497.329 308.105C496.901 308.671 496.61 309.455 496.456 310.457L494.648 322.254L491.294 321.739L494.349 301.809ZM531.368 322.161C530.739 324.037 529.645 325.421 528.088 326.314C526.557 327.21 524.506 327.461 521.936 327.067C518.903 326.603 516.717 325.334 515.378 323.261C514.042 321.162 513.627 318.468 514.131 315.179C514.395 313.457 514.861 311.963 515.528 310.698C516.195 309.432 517.009 308.413 517.97 307.639C518.956 306.87 520.062 306.342 521.29 306.057C522.521 305.746 523.818 305.695 525.18 305.904C526.722 306.14 528.008 306.587 529.038 307.245C530.068 307.902 530.863 308.721 531.423 309.701C532.013 310.66 532.384 311.756 532.537 312.989C532.716 314.226 532.697 315.552 532.48 316.965L532.22 318.662L517.417 316.393C517.263 317.395 517.248 318.353 517.371 319.266C517.524 320.157 517.795 320.962 518.185 321.679C518.604 322.375 519.159 322.959 519.849 323.433C520.539 323.907 521.373 324.219 522.349 324.369C524.02 324.625 525.288 324.504 526.154 324.005C527.023 323.481 527.682 322.701 528.13 321.665L531.368 322.161ZM529.25 315.642C529.396 314.691 529.425 313.814 529.338 313.012C529.25 312.209 529.03 311.505 528.675 310.898C528.325 310.266 527.827 309.742 527.18 309.327C526.534 308.912 525.722 308.63 524.745 308.481C522.972 308.209 521.502 308.536 520.334 309.461C519.192 310.391 518.373 311.87 517.878 313.899L529.25 315.642ZM538.32 308.549L541.635 309.057L541.162 312.141C542.077 311.15 543.081 310.436 544.174 309.999C545.267 309.561 546.379 309.429 547.509 309.602C548.203 309.709 548.786 309.851 549.259 310.028L548.356 313.086C548.107 312.995 547.856 312.917 547.603 312.852C547.354 312.761 547.075 312.692 546.767 312.645C546.15 312.55 545.503 312.57 544.825 312.702C544.151 312.81 543.492 313.077 542.847 313.504C542.207 313.906 541.671 314.402 541.238 314.993C540.831 315.589 540.563 316.31 540.433 317.158L538.619 328.993L535.265 328.479L538.32 308.549ZM553.717 303.136L557.263 303.68L553.983 311.699L551.284 311.286L553.717 303.136ZM560.452 326.382C560.471 327.805 560.899 328.87 561.738 329.578C562.606 330.263 563.85 330.73 565.469 330.978C567.165 331.238 568.403 331.139 569.184 330.68C569.994 330.199 570.472 329.483 570.618 328.532C570.677 328.146 570.68 327.779 570.629 327.429C570.607 327.057 570.487 326.723 570.27 326.427C570.056 326.105 569.734 325.806 569.302 325.529C568.871 325.253 568.293 324.993 567.567 324.75L565.082 323.975C563.979 323.621 563.025 323.239 562.22 322.826C561.415 322.413 560.751 321.943 560.227 321.416C559.707 320.862 559.342 320.241 559.132 319.551C558.951 318.84 558.932 318.021 559.074 317.096C559.216 316.171 559.535 315.378 560.03 314.717C560.552 314.061 561.197 313.542 561.966 313.16C562.764 312.756 563.658 312.499 564.649 312.387C565.669 312.254 566.744 312.274 567.875 312.448C569.314 312.668 570.487 312.993 571.395 313.421C572.328 313.854 573.066 314.361 573.608 314.944C574.15 315.527 574.537 316.178 574.768 316.898C575 317.617 575.149 318.363 575.214 319.136L572.092 319.17C571.995 318.603 571.862 318.096 571.694 317.649C571.526 317.203 571.268 316.821 570.922 316.505C570.58 316.164 570.136 315.885 569.59 315.67C569.074 315.433 568.405 315.251 567.583 315.125C566.658 314.984 565.873 314.955 565.228 315.041C564.588 315.1 564.053 315.242 563.625 315.466C563.221 315.693 562.915 315.975 562.706 316.311C562.5 316.622 562.368 316.97 562.309 317.355C562.246 317.766 562.24 318.147 562.292 318.497C562.347 318.821 562.497 319.133 562.74 319.433C562.987 319.708 563.341 319.973 563.802 320.228C564.263 320.482 564.869 320.733 565.62 320.98L568.441 321.885C570.72 322.629 572.288 323.554 573.145 324.658C574.027 325.767 574.328 327.233 574.049 329.058C573.919 329.906 573.631 330.664 573.187 331.333C572.747 331.975 572.151 332.515 571.4 332.953C570.653 333.364 569.757 333.634 568.711 333.764C567.661 333.918 566.468 333.893 565.132 333.688C563.924 333.503 562.811 333.214 561.793 332.821C560.8 332.433 559.943 331.933 559.221 331.323C558.503 330.686 557.963 329.92 557.601 329.023C557.239 328.125 557.11 327.08 557.214 325.886L560.452 326.382ZM169.06 302.534L172.414 303.048L169.359 322.978L166.005 322.464L169.06 302.534ZM170.108 294.922L173.693 295.471L173.096 299.365L169.511 298.815L170.108 294.922ZM177.641 303.849L180.957 304.357L180.49 307.403C181.667 306.242 182.89 305.469 184.159 305.085C185.428 304.701 186.718 304.609 188.029 304.81C190.29 305.157 191.866 306.03 192.756 307.429C193.672 308.832 193.947 310.728 193.581 313.118L191.548 326.379L188.194 325.865L190.127 313.26C190.41 311.409 190.275 310.06 189.721 309.212C189.171 308.339 188.202 307.796 186.814 307.583C186.069 307.469 185.304 307.483 184.519 307.626C183.76 307.773 183.042 308.083 182.364 308.558C181.635 309.025 181.054 309.554 180.622 310.146C180.193 310.711 179.902 311.495 179.748 312.497L177.94 324.294L174.586 323.78L177.641 303.849ZM200.375 310.056L197.291 309.584L197.699 306.924L200.783 307.396L201.616 301.961L204.97 302.475L204.137 307.91L209.418 308.72L209.011 311.38L203.729 310.57L201.939 322.251C201.789 323.228 201.888 324.045 202.234 324.703C202.58 325.361 203.203 325.759 204.103 325.897C204.668 325.984 205.162 326.02 205.585 326.006C206.034 325.996 206.448 325.954 206.827 325.881L207.01 328.552C206.468 328.653 205.881 328.708 205.249 328.716C204.638 328.754 203.921 328.71 203.099 328.584C201.968 328.41 201.081 328.104 200.439 327.663C199.796 327.223 199.316 326.663 199 325.983C198.683 325.303 198.512 324.527 198.488 323.655C198.49 322.788 198.567 321.853 198.721 320.85L200.375 310.056ZM227.46 326.163C226.831 328.039 225.737 329.423 224.18 330.316C222.649 331.212 220.598 331.463 218.028 331.069C214.995 330.605 212.809 329.336 211.47 327.263C210.134 325.164 209.719 322.47 210.223 319.181C210.487 317.459 210.953 315.965 211.62 314.7C212.287 313.434 213.101 312.415 214.062 311.641C215.047 310.872 216.154 310.344 217.382 310.059C218.613 309.748 219.91 309.697 221.272 309.906C222.814 310.142 224.1 310.589 225.13 311.247C226.16 311.904 226.955 312.723 227.515 313.703C228.105 314.662 228.476 315.758 228.629 316.991C228.808 318.228 228.789 319.554 228.572 320.967L228.312 322.663L213.509 320.394C213.355 321.397 213.34 322.355 213.463 323.268C213.616 324.159 213.887 324.964 214.277 325.681C214.696 326.376 215.251 326.961 215.941 327.435C216.631 327.909 217.465 328.221 218.441 328.371C220.112 328.627 221.38 328.506 222.245 328.007C223.115 327.483 223.774 326.702 224.222 325.666L227.46 326.163ZM225.342 319.644C225.488 318.693 225.517 317.816 225.43 317.014C225.342 316.211 225.122 315.506 224.767 314.9C224.417 314.267 223.919 313.744 223.272 313.329C222.625 312.914 221.814 312.632 220.837 312.482C219.064 312.211 217.593 312.538 216.426 313.463C215.284 314.393 214.465 315.872 213.97 317.901L225.342 319.644ZM234.412 312.551L237.727 313.059L237.254 316.143C238.169 315.152 239.173 314.438 240.266 314.001C241.359 313.563 242.47 313.431 243.601 313.604C244.295 313.711 244.878 313.853 245.351 314.03L244.448 317.088C244.199 316.997 243.948 316.919 243.695 316.854C243.446 316.763 243.167 316.694 242.859 316.647C242.242 316.552 241.595 316.572 240.917 316.704C240.243 316.811 239.584 317.079 238.939 317.506C238.299 317.908 237.763 318.404 237.33 318.995C236.923 319.591 236.655 320.312 236.525 321.16L234.711 332.995L231.357 332.481L234.412 312.551ZM262.396 331.518C261.766 333.394 260.673 334.778 259.116 335.671C257.584 336.567 255.534 336.818 252.964 336.424C249.931 335.959 247.745 334.691 246.406 332.618C245.07 330.519 244.654 327.825 245.159 324.535C245.423 322.814 245.888 321.32 246.556 320.054C247.223 318.789 248.037 317.769 248.997 316.996C249.983 316.226 251.09 315.699 252.317 315.414C253.549 315.103 254.845 315.052 256.207 315.26C257.749 315.497 259.036 315.944 260.066 316.601C261.096 317.259 261.891 318.078 262.451 319.058C263.041 320.017 263.412 321.112 263.565 322.346C263.743 323.583 263.724 324.909 263.508 326.322L263.248 328.018L248.445 325.749C248.291 326.752 248.276 327.709 248.399 328.623C248.552 329.514 248.823 330.318 249.213 331.036C249.632 331.731 250.187 332.316 250.877 332.79C251.567 333.264 252.401 333.576 253.377 333.726C255.048 333.982 256.316 333.86 257.181 333.362C258.051 332.838 258.709 332.057 259.158 331.021L262.396 331.518ZM260.278 324.998C260.424 324.048 260.453 323.171 260.366 322.368C260.278 321.566 260.057 320.861 259.703 320.255C259.353 319.622 258.854 319.099 258.208 318.684C257.561 318.269 256.75 317.987 255.773 317.837C254 317.565 252.529 317.892 251.361 318.818C250.219 319.748 249.401 321.227 248.906 323.255L260.278 324.998ZM269.344 332.346C269.362 333.769 269.791 334.834 270.629 335.541C271.498 336.227 272.741 336.694 274.36 336.942C276.056 337.202 277.295 337.102 278.075 336.643C278.886 336.163 279.364 335.447 279.509 334.496C279.568 334.11 279.572 333.743 279.521 333.393C279.499 333.021 279.379 332.687 279.161 332.391C278.948 332.069 278.625 331.769 278.194 331.493C277.763 331.216 277.185 330.957 276.459 330.714L273.974 329.939C272.871 329.585 271.917 329.202 271.112 328.79C270.307 328.377 269.643 327.907 269.119 327.379C268.598 326.826 268.233 326.205 268.023 325.515C267.843 324.803 267.824 323.985 267.966 323.06C268.108 322.135 268.426 321.342 268.922 320.681C269.444 320.025 270.089 319.505 270.857 319.124C271.656 318.72 272.55 318.462 273.54 318.351C274.56 318.218 275.636 318.238 276.767 318.412C278.206 318.632 279.379 318.957 280.287 319.385C281.22 319.818 281.958 320.325 282.5 320.908C283.041 321.491 283.428 322.142 283.66 322.861C283.892 323.581 284.04 324.327 284.106 325.1L280.984 325.134C280.887 324.567 280.754 324.06 280.586 323.613C280.417 323.167 280.16 322.785 279.814 322.469C279.472 322.127 279.028 321.849 278.482 321.634C277.966 321.397 277.297 321.215 276.475 321.089C275.549 320.947 274.765 320.919 274.12 321.005C273.48 321.064 272.945 321.206 272.516 321.429C272.113 321.657 271.807 321.939 271.598 322.275C271.392 322.585 271.26 322.933 271.201 323.319C271.138 323.73 271.132 324.111 271.184 324.461C271.239 324.785 271.389 325.097 271.632 325.397C271.879 325.672 272.233 325.937 272.694 326.191C273.155 326.446 273.761 326.697 274.512 326.943L277.332 327.849C279.612 328.593 281.18 329.517 282.036 330.622C282.919 331.73 283.22 333.197 282.94 335.022C282.81 335.87 282.523 336.628 282.079 337.296C281.638 337.939 281.043 338.479 280.292 338.916C279.545 339.328 278.648 339.598 277.603 339.727C276.553 339.882 275.36 339.857 274.024 339.652C272.816 339.467 271.703 339.178 270.685 338.785C269.692 338.396 268.835 337.897 268.113 337.286C267.395 336.65 266.855 335.884 266.493 334.986C266.131 334.089 266.001 333.043 266.106 331.849L269.344 332.346ZM290.237 323.83L287.153 323.357L287.561 320.697L290.645 321.17L291.478 315.735L294.832 316.249L293.999 321.684L299.28 322.494L298.872 325.154L293.591 324.344L291.801 336.025C291.651 337.001 291.749 337.819 292.095 338.477C292.442 339.135 293.065 339.533 293.964 339.671C294.53 339.757 295.024 339.794 295.447 339.779C295.896 339.769 296.31 339.728 296.689 339.654L296.871 342.326C296.33 342.427 295.743 342.481 295.11 342.49C294.499 342.528 293.783 342.484 292.96 342.358C291.83 342.184 290.943 341.877 290.3 341.437C289.658 340.996 289.178 340.436 288.861 339.756C288.545 339.077 288.374 338.301 288.35 337.429C288.351 336.561 288.429 335.626 288.583 334.624L290.237 323.83ZM311.513 324.369L314.867 324.883L311.812 344.813L308.458 344.299L311.513 324.369ZM312.562 316.757L316.147 317.306L315.55 321.2L311.965 320.65L312.562 316.757ZM320.095 325.684L323.41 326.192L322.943 329.238C324.121 328.077 325.344 327.304 326.613 326.92C327.882 326.536 329.171 326.444 330.482 326.645C332.744 326.992 334.32 327.864 335.21 329.263C336.126 330.666 336.401 332.563 336.034 334.953L334.002 348.214L330.648 347.7L332.58 335.094C332.864 333.244 332.729 331.895 332.175 331.047C331.625 330.174 330.656 329.631 329.268 329.418C328.523 329.304 327.758 329.318 326.973 329.461C326.214 329.607 325.496 329.918 324.818 330.393C324.089 330.86 323.508 331.389 323.075 331.98C322.647 332.546 322.355 333.33 322.202 334.332L320.394 346.128L317.04 345.614L320.095 325.684ZM351.412 333.207L348.328 332.734L348.736 330.074L351.82 330.547L352.653 325.111L356.007 325.625L355.174 331.061L360.455 331.87L360.047 334.53L354.766 333.721L352.976 345.401C352.826 346.378 352.924 347.195 353.271 347.853C353.617 348.511 354.24 348.909 355.139 349.047C355.705 349.134 356.199 349.17 356.622 349.156C357.071 349.146 357.485 349.104 357.864 349.031L358.047 351.702C357.505 351.804 356.918 351.858 356.285 351.866C355.675 351.904 354.958 351.86 354.136 351.734C353.005 351.561 352.118 351.254 351.475 350.814C350.833 350.373 350.353 349.813 350.036 349.133C349.72 348.453 349.549 347.678 349.525 346.806C349.527 345.938 349.604 345.003 349.758 344.001L351.412 333.207ZM365.192 324.824L368.546 325.338L366.927 335.9C368.096 334.791 369.303 334.042 370.546 333.654C371.815 333.27 373.105 333.178 374.415 333.379C376.677 333.725 378.253 334.598 379.143 335.997C380.059 337.4 380.334 339.297 379.968 341.687L377.935 354.948L374.543 354.428L376.475 341.822C376.758 339.972 376.623 338.623 376.069 337.775C375.545 336.906 374.589 336.365 373.201 336.152C372.456 336.038 371.691 336.052 370.906 336.195C370.147 336.341 369.429 336.652 368.751 337.127C368.022 337.594 367.441 338.123 367.008 338.714C366.58 339.28 366.289 340.064 366.135 341.066L364.327 352.862L360.973 352.348L365.192 324.824ZM401.047 352.77C400.418 354.646 399.324 356.03 397.767 356.923C396.236 357.819 394.185 358.07 391.615 357.676C388.582 357.211 386.396 355.943 385.057 353.87C383.721 351.771 383.306 349.077 383.81 345.787C384.074 344.066 384.54 342.572 385.207 341.306C385.874 340.041 386.688 339.021 387.649 338.248C388.634 337.478 389.741 336.951 390.969 336.666C392.2 336.355 393.497 336.304 394.859 336.512C396.401 336.749 397.687 337.196 398.717 337.853C399.747 338.511 400.542 339.33 401.102 340.31C401.692 341.269 402.063 342.364 402.216 343.598C402.395 344.835 402.376 346.161 402.159 347.574L401.899 349.27L387.096 347.001C386.942 348.004 386.927 348.961 387.05 349.875C387.203 350.766 387.474 351.57 387.864 352.288C388.283 352.983 388.838 353.568 389.528 354.042C390.218 354.516 391.052 354.828 392.028 354.978C393.699 355.234 394.967 355.112 395.832 354.614C396.702 354.09 397.361 353.309 397.809 352.273L401.047 352.77ZM398.929 346.25C399.075 345.3 399.104 344.423 399.017 343.62C398.929 342.818 398.709 342.113 398.354 341.507C398.004 340.874 397.506 340.351 396.859 339.936C396.212 339.521 395.401 339.239 394.424 339.089C392.651 338.817 391.18 339.144 390.013 340.07C388.871 341 388.052 342.479 387.557 344.507L398.929 346.25ZM416.636 362.774C416.734 364.025 417.141 364.969 417.859 365.605C418.603 366.245 419.836 366.697 421.558 366.961C423.665 367.284 425.208 366.915 426.185 365.855C427.185 364.825 427.856 363.192 428.199 360.956L428.524 358.836C427.588 359.797 426.521 360.488 425.326 360.91C424.156 361.336 422.838 361.436 421.373 361.212C419.934 360.991 418.714 360.541 417.714 359.862C416.743 359.16 415.979 358.307 415.423 357.301C414.871 356.269 414.508 355.122 414.333 353.859C414.184 352.6 414.216 351.277 414.429 349.889C414.661 348.372 415.078 347.029 415.678 345.858C416.282 344.662 417.037 343.686 417.942 342.931C418.85 342.149 419.882 341.597 421.036 341.274C422.216 340.955 423.487 340.9 424.849 341.109C425.954 341.279 427.011 341.677 428.02 342.305C429.058 342.912 429.934 343.888 430.648 345.233L431.038 342.689L434.354 343.197L431.795 359.889C431.531 361.611 431.166 363.134 430.701 364.456C430.257 365.809 429.628 366.909 428.814 367.757C428.021 368.636 427.008 369.243 425.772 369.58C424.537 369.916 423.007 369.945 421.182 369.665C418.561 369.264 416.578 368.473 415.233 367.294C413.884 366.14 413.247 364.464 413.321 362.266L416.636 362.774ZM429.665 351.908C429.866 350.598 429.879 349.482 429.704 348.561C429.534 347.614 429.222 346.817 428.769 346.168C428.316 345.52 427.747 345.025 427.063 344.684C426.409 344.321 425.696 344.08 424.925 343.962C424.103 343.836 423.31 343.859 422.547 344.031C421.814 344.182 421.132 344.511 420.502 345.02C419.897 345.532 419.37 346.227 418.919 347.105C418.495 347.987 418.182 349.083 417.981 350.394C417.776 351.73 417.757 352.885 417.924 353.857C418.116 354.834 418.426 355.644 418.853 356.288C419.281 356.932 419.809 357.434 420.438 357.793C421.092 358.157 421.766 358.392 422.46 358.498C423.334 358.632 424.152 358.613 424.915 358.44C425.704 358.272 426.411 357.946 427.038 357.464C427.664 356.981 428.196 356.339 428.635 355.538C429.077 354.712 429.387 353.72 429.564 352.564L429.665 351.908ZM439.509 343.987L442.824 344.496L442.351 347.58C443.266 346.589 444.27 345.875 445.363 345.437C446.456 345 447.567 344.868 448.698 345.041C449.392 345.147 449.975 345.289 450.448 345.467L449.545 348.524C449.296 348.434 449.045 348.356 448.792 348.291C448.543 348.2 448.264 348.131 447.956 348.083C447.339 347.989 446.691 348.008 446.014 348.141C445.34 348.248 444.68 348.515 444.036 348.943C443.396 349.344 442.86 349.841 442.427 350.432C442.02 351.027 441.752 351.749 441.622 352.597L439.808 364.432L436.454 363.918L439.509 343.987ZM453.703 346.163L457.057 346.677L454.002 366.607L450.648 366.093L453.703 346.163ZM454.752 338.551L458.337 339.101L457.74 342.994L454.155 342.445L454.752 338.551ZM474.162 366.778C473.17 367.757 472.087 368.472 470.913 368.923C469.743 369.349 468.426 369.45 466.961 369.225C465.496 369 464.265 368.536 463.269 367.83C462.298 367.129 461.536 366.263 460.984 365.231C460.436 364.174 460.093 362.977 459.956 361.641C459.819 360.305 459.863 358.904 460.087 357.44C460.339 355.795 460.771 354.348 461.384 353.101C462 351.827 462.751 350.785 463.638 349.974C464.551 349.167 465.585 348.602 466.739 348.28C467.919 347.961 469.203 347.908 470.59 348.12C471.644 348.282 472.677 348.664 473.69 349.266C474.706 349.843 475.586 350.793 476.33 352.117L477.866 342.094L481.22 342.608L477.001 370.133L473.725 369.63L474.162 366.778ZM475.382 359.074C475.626 357.48 475.636 356.219 475.41 355.29C475.213 354.339 474.764 353.495 474.062 352.756C473.568 352.206 473.039 351.797 472.475 351.526C471.937 351.26 471.321 351.073 470.628 350.967C469.805 350.841 469.012 350.864 468.25 351.036C467.512 351.213 466.825 351.581 466.186 352.14C465.578 352.678 465.043 353.425 464.581 354.38C464.148 355.313 463.824 356.487 463.607 357.9C463.383 359.365 463.348 360.622 463.502 361.672C463.683 362.725 463.985 363.587 464.408 364.257C464.857 364.931 465.383 365.445 465.986 365.801C466.615 366.16 467.277 366.393 467.971 366.499C468.716 366.614 469.398 366.626 470.016 366.537C470.635 366.448 471.274 366.23 471.932 365.884C472.797 365.385 473.494 364.703 474.021 363.836C474.574 362.974 474.959 361.836 475.175 360.423L475.382 359.074ZM482.693 366.389L486.548 366.98L485.856 371.49L482.001 370.899L482.693 366.389Z" fill="white"/>
</svg>
