<svg width="711" height="544" viewBox="0 0 711 544" fill="none" xmlns="http://www.w3.org/2000/svg">
<path d="M12.4046 264.821L8.47381 225.268C3.15433 171.74 23.9453 118.928 64.3269 83.3923C102.649 49.6685 154.292 35.3259 204.517 44.4576L224 48L320.405 70.6834C335.418 74.216 350.789 76 366.212 76H426.85C477.1 76 525.509 94.9158 562.446 128.985L625.208 186.871C676.969 234.612 694.251 309.16 668.777 374.807C646.637 431.859 595.75 472.771 535.274 482.141L280.984 521.538C194.692 534.907 109.702 490.747 71.0378 412.452L32.0982 333.599C21.4533 312.043 14.782 288.744 12.4046 264.821Z" fill="#FF1493" stroke="#FF1493"/>
<path d="M77.306 118.931L80.6984 119.451L78.9395 129.124L76.0483 128.681L77.306 118.931ZM105.03 141.922C104.663 143.286 104.117 144.53 103.392 145.656C102.671 146.755 101.781 147.671 100.722 148.403C99.6628 149.135 98.4276 149.643 97.0163 149.926C95.6308 150.213 94.0642 150.223 92.3167 149.955C90.4149 149.664 88.7551 149.081 87.3373 148.206C85.9194 147.331 84.7782 146.196 83.9136 144.801C83.049 143.406 82.457 141.776 82.1378 139.912C81.8481 138.027 81.8786 135.94 82.2292 133.653C82.5837 131.34 83.2072 129.331 84.0998 127.627C84.9923 125.922 86.0857 124.538 87.3798 123.474C88.674 122.409 90.1156 121.67 91.7047 121.256C93.3195 120.846 95.0007 120.775 96.7482 121.043C98.4444 121.303 99.8758 121.746 101.042 122.372C102.209 122.998 103.155 123.774 103.881 124.701C104.633 125.632 105.181 126.689 105.526 127.873C105.896 129.06 106.12 130.344 106.198 131.724L102.64 131.77C102.562 130.733 102.392 129.786 102.128 128.93C101.895 128.053 101.526 127.286 101.021 126.63C100.542 125.978 99.9135 125.447 99.1344 125.039C98.385 124.608 97.432 124.304 96.2755 124.127C94.9134 123.918 93.6494 124.014 92.4833 124.414C91.3469 124.792 90.3292 125.425 89.4303 126.313C88.561 127.179 87.8253 128.29 87.2231 129.644C86.6249 130.973 86.1958 132.485 85.9358 134.181C85.6759 135.878 85.6303 137.462 85.7991 138.935C85.9719 140.381 86.3413 141.661 86.9073 142.774C87.4989 143.89 88.2802 144.799 89.2512 145.5C90.2479 146.206 91.4401 146.664 92.8279 146.877C94.0872 147.07 95.1774 147.08 96.0984 146.905C97.0492 146.709 97.8525 146.358 98.5085 145.854C99.1902 145.354 99.7611 144.718 100.221 143.947C100.681 143.175 101.063 142.313 101.367 141.36L105.03 141.922ZM126.084 148.7C125.455 150.576 124.361 151.96 122.804 152.853C121.273 153.749 119.222 154 116.652 153.606C113.619 153.142 111.433 151.873 110.094 149.8C108.758 147.701 108.343 145.007 108.847 141.718C109.111 139.996 109.577 138.502 110.244 137.237C110.911 135.971 111.725 134.952 112.686 134.178C113.672 133.409 114.778 132.881 116.006 132.596C117.237 132.285 118.534 132.234 119.896 132.443C121.438 132.679 122.724 133.126 123.754 133.784C124.784 134.441 125.58 135.26 126.139 136.24C126.729 137.199 127.1 138.295 127.253 139.528C127.432 140.765 127.413 142.091 127.196 143.504L126.936 145.2L112.133 142.932C111.979 143.934 111.964 144.892 112.087 145.805C112.24 146.696 112.511 147.501 112.901 148.218C113.32 148.913 113.875 149.498 114.565 149.972C115.256 150.446 116.089 150.758 117.065 150.908C118.736 151.164 120.004 151.043 120.87 150.544C121.739 150.02 122.398 149.24 122.846 148.203L126.084 148.7ZM123.966 142.181C124.112 141.23 124.141 140.353 124.054 139.551C123.966 138.748 123.746 138.043 123.391 137.437C123.041 136.804 122.543 136.281 121.896 135.866C121.25 135.451 120.438 135.169 119.461 135.019C117.688 134.748 116.218 135.075 115.05 136C113.908 136.93 113.089 138.409 112.594 140.438L123.966 142.181ZM133.036 135.088L136.351 135.596L135.878 138.68C136.793 137.689 137.797 136.975 138.89 136.538C139.983 136.1 141.095 135.968 142.225 136.141C142.919 136.248 143.502 136.39 143.975 136.567L143.072 139.625C142.823 139.534 142.572 139.456 142.319 139.391C142.07 139.3 141.791 139.231 141.483 139.184C140.866 139.089 140.219 139.109 139.541 139.241C138.867 139.349 138.208 139.616 137.563 140.043C136.923 140.445 136.387 140.941 135.954 141.532C135.547 142.128 135.279 142.849 135.149 143.697L133.335 155.532L129.981 155.018L133.036 135.088ZM148.881 140.239L145.797 139.766L146.205 137.106L149.289 137.579L150.122 132.144L153.476 132.658L152.642 138.093L157.924 138.903L157.516 141.563L152.235 140.753L150.444 152.434C150.295 153.41 150.393 154.228 150.739 154.886C151.086 155.544 151.708 155.942 152.608 156.08C153.173 156.166 153.668 156.202 154.091 156.188C154.539 156.178 154.953 156.137 155.333 156.063L155.515 158.735C154.974 158.836 154.387 158.89 153.754 158.899C153.143 158.937 152.427 158.893 151.604 158.766C150.473 158.593 149.587 158.286 148.944 157.846C148.301 157.405 147.822 156.845 147.505 156.165C147.188 155.486 147.018 154.71 146.994 153.838C146.995 152.97 147.073 152.035 147.226 151.033L148.881 140.239ZM171.274 158.546C170.421 159.31 169.392 159.928 168.189 160.401C166.989 160.848 165.567 160.946 163.922 160.694C162.92 160.54 162.014 160.27 161.205 159.883C160.418 159.526 159.754 159.056 159.212 158.473C158.7 157.868 158.334 157.168 158.114 156.371C157.894 155.575 157.861 154.675 158.014 153.673C158.223 152.311 158.675 151.249 159.371 150.488C160.092 149.73 160.965 149.18 161.991 148.838C163.042 148.499 164.188 148.319 165.427 148.299C166.667 148.278 167.933 148.341 169.226 148.487L172.674 148.897L172.792 148.126C173.052 146.43 172.88 145.154 172.274 144.298C171.669 143.443 170.557 142.891 168.938 142.643C167.344 142.398 166.134 142.489 165.306 142.914C164.482 143.314 163.883 143.959 163.51 144.849L160.518 144.035C161.157 142.265 162.221 141.074 163.709 140.46C165.201 139.821 167.116 139.68 169.455 140.039C170.894 140.259 172.075 140.624 172.996 141.134C173.947 141.622 174.682 142.234 175.2 142.971C175.719 143.708 176.033 144.572 176.145 145.562C176.282 146.556 176.259 147.645 176.078 148.827L174.093 161.779L170.855 161.283L171.274 158.546ZM172.308 151.287L169.091 150.912C167.721 150.755 166.57 150.71 165.639 150.778C164.708 150.845 163.945 151.018 163.35 151.295C162.785 151.55 162.347 151.917 162.037 152.396C161.753 152.878 161.56 153.453 161.457 154.122C161.304 155.124 161.475 155.979 161.972 156.686C162.498 157.372 163.455 157.821 164.843 158.034C166.821 158.337 168.438 158.085 169.693 157.278C170.948 156.471 171.705 155.219 171.965 153.523L172.308 151.287ZM182.317 142.642L185.671 143.156L182.616 163.086L179.262 162.572L182.317 142.642ZM183.365 135.029L186.95 135.579L186.353 139.473L182.768 138.923L183.365 135.029ZM190.898 143.957L194.214 144.465L193.747 147.51C194.924 146.349 196.147 145.577 197.416 145.193C198.685 144.808 199.975 144.717 201.286 144.918C203.547 145.264 205.123 146.137 206.013 147.536C206.929 148.939 207.204 150.836 206.838 153.226L204.805 166.487L201.451 165.973L203.384 153.367C203.667 151.517 203.532 150.168 202.978 149.32C202.428 148.447 201.459 147.903 200.071 147.691C199.326 147.577 198.561 147.591 197.776 147.734C197.017 147.88 196.299 148.191 195.621 148.666C194.892 149.133 194.311 149.662 193.879 150.253C193.45 150.819 193.159 151.603 193.005 152.605L191.197 164.401L187.843 163.887L190.898 143.957ZM221.467 148.642L224.782 149.15L224.315 152.196C225.404 151.1 226.533 150.34 227.703 149.914C228.877 149.463 230.03 149.324 231.16 149.497C232.651 149.725 233.797 150.23 234.598 151.01C235.425 151.794 235.964 152.824 236.216 154.099C237.304 153.003 238.474 152.235 239.725 151.796C240.98 151.331 242.263 151.199 243.573 151.399C245.527 151.699 246.947 152.469 247.836 153.71C248.754 154.929 249.031 156.721 248.669 159.085L246.554 172.886L243.2 172.372L245.197 159.342C245.335 158.443 245.372 157.685 245.308 157.071C245.249 156.43 245.09 155.919 244.833 155.538C244.605 155.135 244.283 154.836 243.866 154.64C243.453 154.419 242.963 154.265 242.398 154.178C241.807 154.088 241.174 154.096 240.5 154.203C239.826 154.31 239.141 154.574 238.446 154.993C237.865 155.351 237.36 155.813 236.931 156.379C236.503 156.944 236.227 157.625 236.105 158.422L234.179 170.989L230.825 170.475L232.816 157.484C233.084 155.736 232.961 154.481 232.447 153.718C231.962 152.934 231.154 152.455 230.023 152.282C228.713 152.081 227.396 152.431 226.074 153.334C225.575 153.678 225.07 154.14 224.56 154.719C224.076 155.303 223.751 156.134 223.586 157.213L221.766 169.087L218.412 168.573L221.467 148.642ZM269.705 170.713C269.075 172.59 267.982 173.974 266.425 174.866C264.893 175.763 262.842 176.014 260.272 175.62C257.24 175.155 255.054 173.886 253.714 171.814C252.379 169.715 251.963 167.021 252.468 163.731C252.731 162.009 253.197 160.516 253.865 159.25C254.532 157.985 255.346 156.965 256.306 156.192C257.292 155.422 258.399 154.895 259.626 154.61C260.858 154.299 262.154 154.247 263.516 154.456C265.058 154.693 266.344 155.14 267.375 155.797C268.405 156.455 269.2 157.274 269.76 158.254C270.35 159.212 270.721 160.308 270.874 161.542C271.052 162.779 271.033 164.104 270.817 165.518L270.557 167.214L255.754 164.945C255.6 165.947 255.585 166.905 255.708 167.818C255.86 168.71 256.132 169.514 256.522 170.232C256.941 170.927 257.496 171.512 258.186 171.986C258.876 172.46 259.709 172.772 260.686 172.922C262.357 173.178 263.625 173.056 264.49 172.558C265.36 172.033 266.018 171.253 266.467 170.217L269.705 170.713ZM267.587 164.194C267.733 163.243 267.762 162.367 267.674 161.564C267.587 160.762 267.366 160.057 267.012 159.451C266.662 158.818 266.163 158.295 265.517 157.88C264.87 157.465 264.059 157.183 263.082 157.033C261.309 156.761 259.838 157.088 258.67 158.014C257.528 158.944 256.71 160.423 256.215 162.451L267.587 164.194ZM276.656 157.102L279.972 157.61L279.505 160.655C280.682 159.494 281.906 158.722 283.174 158.337C284.443 157.953 285.733 157.862 287.044 158.062C289.305 158.409 290.881 159.282 291.772 160.681C292.688 162.084 292.962 163.98 292.596 166.371L290.564 179.632L287.21 179.118L289.142 166.512C289.425 164.661 289.29 163.312 288.736 162.465C288.186 161.591 287.217 161.048 285.83 160.835C285.084 160.721 284.319 160.736 283.535 160.878C282.776 161.025 282.057 161.336 281.38 161.811C280.65 162.277 280.069 162.807 279.637 163.398C279.208 163.963 278.917 164.747 278.764 165.75L276.955 177.546L273.602 177.032L276.656 157.102ZM299.391 163.309L296.307 162.836L296.714 160.176L299.798 160.649L300.632 155.213L303.985 155.727L303.152 161.163L308.434 161.972L308.026 164.632L302.744 163.823L300.954 175.503C300.804 176.48 300.903 177.297 301.249 177.955C301.595 178.613 302.218 179.011 303.118 179.149C303.683 179.236 304.177 179.272 304.6 179.258C305.049 179.248 305.463 179.206 305.843 179.133L306.025 181.804C305.483 181.905 304.896 181.96 304.264 181.968C303.653 182.006 302.936 181.962 302.114 181.836C300.983 181.663 300.097 181.356 299.454 180.915C298.811 180.475 298.331 179.915 298.015 179.235C297.698 178.555 297.528 177.779 297.504 176.908C297.505 176.04 297.583 175.105 297.736 174.103L299.391 163.309ZM321.784 181.616C320.93 182.379 319.902 182.998 318.698 183.471C317.499 183.918 316.077 184.016 314.432 183.764C313.429 183.61 312.524 183.34 311.715 182.953C310.928 182.595 310.264 182.125 309.722 181.542C309.21 180.938 308.843 180.237 308.624 179.441C308.404 178.644 308.371 177.745 308.524 176.743C308.733 175.38 309.185 174.319 309.881 173.557C310.602 172.8 311.475 172.25 312.501 171.907C313.552 171.569 314.698 171.389 315.937 171.369C317.176 171.348 318.443 171.411 319.735 171.556L323.184 171.966L323.302 171.195C323.562 169.499 323.39 168.223 322.784 167.368C322.179 166.512 321.067 165.96 319.448 165.712C317.854 165.468 316.643 165.559 315.815 165.984C314.991 166.384 314.393 167.029 314.02 167.918L311.027 167.105C311.667 165.335 312.731 164.143 314.219 163.53C315.711 162.89 317.626 162.75 319.965 163.108C321.404 163.329 322.585 163.694 323.506 164.204C324.457 164.691 325.192 165.304 325.71 166.041C326.228 166.778 326.543 167.641 326.654 168.632C326.791 169.626 326.769 170.714 326.588 171.896L324.603 184.849L321.364 184.353L321.784 181.616ZM322.818 174.357L319.6 173.982C318.23 173.824 317.08 173.78 316.149 173.847C315.218 173.915 314.455 174.087 313.86 174.365C313.295 174.62 312.857 174.987 312.547 175.465C312.263 175.948 312.069 176.523 311.967 177.191C311.813 178.194 311.985 179.048 312.481 179.756C313.008 180.441 313.965 180.891 315.352 181.103C317.331 181.407 318.948 181.155 320.203 180.348C321.458 179.54 322.215 178.289 322.475 176.592L322.818 174.357ZM333.991 158.117L337.344 158.631L333.125 186.155L329.772 185.641L333.991 158.117ZM359.769 187.438C358.916 188.201 357.887 188.82 356.683 189.293C355.484 189.74 354.062 189.838 352.417 189.586C351.415 189.432 350.509 189.162 349.7 188.775C348.913 188.418 348.249 187.947 347.707 187.365C347.195 186.76 346.829 186.059 346.609 185.263C346.389 184.466 346.356 183.567 346.509 182.565C346.718 181.203 347.17 180.141 347.866 179.379C348.587 178.622 349.46 178.072 350.486 177.729C351.537 177.391 352.683 177.211 353.922 177.191C355.162 177.17 356.428 177.233 357.721 177.378L361.169 177.789L361.287 177.018C361.547 175.322 361.375 174.046 360.769 173.19C360.164 172.334 359.052 171.783 357.433 171.534C355.839 171.29 354.629 171.381 353.801 171.806C352.976 172.206 352.378 172.851 352.005 173.74L349.012 172.927C349.652 171.157 350.716 169.966 352.204 169.352C353.696 168.713 355.611 168.572 357.95 168.931C359.389 169.151 360.57 169.516 361.491 170.026C362.442 170.514 363.177 171.126 363.695 171.863C364.213 172.6 364.528 173.464 364.639 174.454C364.776 175.448 364.754 176.536 364.573 177.719L362.588 190.671L359.35 190.175L359.769 187.438ZM360.803 180.179L357.585 179.804C356.216 179.647 355.065 179.602 354.134 179.67C353.203 179.737 352.44 179.91 351.845 180.187C351.28 180.442 350.842 180.809 350.532 181.288C350.248 181.77 350.055 182.345 349.952 183.014C349.798 184.016 349.97 184.871 350.467 185.578C350.993 186.264 351.95 186.713 353.337 186.926C355.316 187.229 356.933 186.977 358.188 186.17C359.443 185.363 360.2 184.111 360.46 182.415L360.803 180.179ZM371.483 174.359L368.399 173.886L368.807 171.226L371.891 171.699L372.724 166.263L376.078 166.777L375.245 172.213L380.526 173.022L380.118 175.682L374.837 174.873L373.047 186.553C372.897 187.53 372.995 188.347 373.342 189.005C373.688 189.663 374.311 190.061 375.21 190.199C375.776 190.286 376.27 190.322 376.693 190.308C377.142 190.298 377.556 190.256 377.935 190.183L378.118 192.854C377.576 192.956 376.989 193.01 376.356 193.018C375.746 193.056 375.029 193.012 374.207 192.886C373.076 192.713 372.189 192.406 371.546 191.966C370.904 191.525 370.424 190.965 370.107 190.285C369.791 189.605 369.62 188.83 369.596 187.958C369.598 187.09 369.675 186.155 369.829 185.153L371.483 174.359ZM384.848 176.407L381.764 175.935L382.171 173.275L385.255 173.747L386.089 168.312L389.442 168.826L388.609 174.261L393.891 175.071L393.483 177.731L388.202 176.921L386.411 188.602C386.261 189.578 386.36 190.396 386.706 191.054C387.052 191.712 387.675 192.11 388.575 192.248C389.14 192.334 389.634 192.371 390.057 192.357C390.506 192.347 390.92 192.305 391.3 192.231L391.482 194.903C390.94 195.004 390.353 195.059 389.721 195.067C389.11 195.105 388.393 195.061 387.571 194.935C386.44 194.761 385.554 194.454 384.911 194.014C384.268 193.574 383.789 193.013 383.472 192.334C383.155 191.654 382.985 190.878 382.961 190.006C382.962 189.138 383.04 188.203 383.193 187.201L384.848 176.407ZM397.54 175.63L400.894 176.144L397.839 196.075L394.486 195.561L397.54 175.63ZM398.589 168.018L402.174 168.568L401.577 172.461L397.992 171.912L398.589 168.018ZM406.871 179.783L403.787 179.31L404.195 176.65L407.278 177.123L408.112 171.687L411.465 172.201L410.632 177.637L415.914 178.446L415.506 181.106L410.225 180.297L408.434 191.977C408.285 192.954 408.383 193.771 408.729 194.429C409.075 195.088 409.698 195.486 410.598 195.623C411.163 195.71 411.657 195.746 412.08 195.732C412.529 195.722 412.943 195.68 413.323 195.607L413.505 198.279C412.964 198.38 412.377 198.434 411.744 198.443C411.133 198.48 410.417 198.436 409.594 198.31C408.463 198.137 407.577 197.83 406.934 197.39C406.291 196.949 405.812 196.389 405.495 195.709C405.178 195.029 405.008 194.254 404.984 193.382C404.985 192.514 405.063 191.579 405.216 190.577L406.871 179.783ZM419.371 178.976L422.725 179.49L420.798 192.058C420.515 193.908 420.609 195.264 421.082 196.126C421.581 196.991 422.511 197.528 423.873 197.737C425.364 197.966 426.796 197.633 428.169 196.738C428.898 196.272 429.477 195.755 429.906 195.19C430.339 194.598 430.632 193.802 430.785 192.799L432.593 181.003L435.947 181.517L432.892 201.447L429.577 200.939L430.05 197.855C428.876 198.991 427.679 199.767 426.457 200.185C425.236 200.603 423.97 200.711 422.659 200.51C420.398 200.164 418.845 199.307 418.003 197.942C417.189 196.555 416.97 194.64 417.344 192.199L419.371 178.976ZM452.973 201.606C451.981 202.585 450.898 203.3 449.724 203.751C448.554 204.177 447.237 204.277 445.772 204.053C444.307 203.828 443.076 203.363 442.079 202.658C441.108 201.957 440.347 201.091 439.795 200.059C439.247 199.002 438.904 197.805 438.767 196.469C438.63 195.133 438.673 193.732 438.898 192.267C439.15 190.623 439.582 189.176 440.194 187.929C440.81 186.655 441.562 185.613 442.449 184.802C443.362 183.995 444.395 183.43 445.549 183.107C446.729 182.788 448.013 182.735 449.401 182.948C450.455 183.11 451.488 183.491 452.5 184.094C453.517 184.67 454.397 185.621 455.141 186.945L456.677 176.922L460.031 177.436L455.812 204.96L452.535 204.458L452.973 201.606ZM454.193 193.901C454.437 192.308 454.446 191.047 454.22 190.118C454.024 189.167 453.575 188.322 452.873 187.584C452.378 187.034 451.849 186.624 451.286 186.354C450.748 186.087 450.132 185.901 449.438 185.795C448.616 185.668 447.823 185.692 447.06 185.864C446.323 186.04 445.635 186.408 444.997 186.968C444.389 187.506 443.853 188.253 443.391 189.208C442.959 190.141 442.634 191.314 442.418 192.728C442.193 194.193 442.158 195.45 442.313 196.5C442.494 197.553 442.795 198.415 443.219 199.085C443.668 199.758 444.194 200.273 444.797 200.629C445.426 200.988 446.087 201.221 446.781 201.327C447.526 201.442 448.208 201.454 448.827 201.365C449.446 201.275 450.084 201.058 450.742 200.711C451.608 200.213 452.304 199.53 452.832 198.664C453.385 197.802 453.769 196.664 453.986 195.251L454.193 193.901ZM479.093 202.808C478.464 204.684 477.37 206.068 475.813 206.961C474.282 207.857 472.231 208.108 469.661 207.714C466.628 207.25 464.442 205.981 463.103 203.908C461.768 201.809 461.352 199.115 461.856 195.826C462.12 194.104 462.586 192.61 463.253 191.345C463.921 190.079 464.734 189.06 465.695 188.286C466.681 187.517 467.787 186.989 469.015 186.704C470.246 186.393 471.543 186.342 472.905 186.551C474.447 186.787 475.733 187.234 476.763 187.892C477.794 188.549 478.589 189.368 479.149 190.348C479.738 191.307 480.109 192.403 480.262 193.636C480.441 194.873 480.422 196.199 480.205 197.612L479.945 199.309L465.142 197.04C464.989 198.042 464.973 199 465.096 199.913C465.249 200.804 465.52 201.609 465.91 202.326C466.33 203.022 466.884 203.606 467.575 204.08C468.265 204.554 469.098 204.866 470.075 205.016C471.745 205.272 473.013 205.151 473.879 204.652C474.748 204.128 475.407 203.348 475.855 202.312L479.093 202.808ZM476.976 196.289C477.121 195.338 477.15 194.461 477.063 193.659C476.976 192.856 476.755 192.152 476.401 191.545C476.05 190.913 475.552 190.389 474.905 189.974C474.259 189.559 473.447 189.277 472.471 189.128C470.697 188.856 469.227 189.183 468.059 190.108C466.917 191.038 466.098 192.517 465.603 194.546L476.976 196.289ZM486.145 181.596L489.537 182.116L487.778 191.789L484.887 191.346L486.145 181.596ZM501.181 191.516L504.534 192.03L501.48 211.96L498.126 211.446L501.181 191.516ZM502.229 183.904L505.814 184.453L505.217 188.347L501.632 187.797L502.229 183.904ZM509.758 207.271C509.777 208.695 510.206 209.76 511.044 210.467C511.912 211.153 513.156 211.619 514.775 211.867C516.471 212.127 517.71 212.028 518.49 211.569C519.3 211.088 519.778 210.372 519.924 209.421C519.983 209.036 519.987 208.668 519.935 208.318C519.913 207.947 519.794 207.613 519.576 207.316C519.362 206.994 519.04 206.695 518.609 206.418C518.178 206.142 517.599 205.882 516.874 205.64L514.389 204.864C513.285 204.511 512.331 204.128 511.527 203.715C510.722 203.303 510.057 202.832 509.533 202.305C509.013 201.752 508.648 201.13 508.438 200.44C508.258 199.729 508.239 198.911 508.38 197.985C508.522 197.06 508.841 196.267 509.337 195.607C509.858 194.95 510.503 194.431 511.272 194.049C512.07 193.645 512.965 193.388 513.955 193.277C514.975 193.144 516.05 193.164 517.181 193.337C518.62 193.558 519.794 193.882 520.701 194.311C521.635 194.743 522.372 195.251 522.914 195.834C523.456 196.416 523.843 197.068 524.075 197.787C524.306 198.506 524.455 199.252 524.521 200.025L521.398 200.06C521.301 199.492 521.168 198.985 521 198.539C520.832 198.092 520.575 197.711 520.229 197.395C519.886 197.053 519.443 196.774 518.897 196.559C518.381 196.322 517.712 196.141 516.889 196.015C515.964 195.873 515.179 195.845 514.535 195.93C513.894 195.99 513.36 196.131 512.931 196.355C512.528 196.583 512.222 196.864 512.012 197.201C511.807 197.511 511.675 197.859 511.615 198.245C511.552 198.656 511.547 199.036 511.598 199.386C511.654 199.71 511.803 200.023 512.047 200.323C512.294 200.597 512.648 200.862 513.108 201.117C513.569 201.372 514.175 201.622 514.927 201.869L517.747 202.775C520.026 203.519 521.595 204.443 522.451 205.548C523.333 206.656 523.635 208.123 523.355 209.947C523.225 210.795 522.938 211.554 522.493 212.222C522.053 212.865 521.457 213.405 520.706 213.842C519.959 214.253 519.063 214.524 518.017 214.653C516.968 214.808 515.775 214.783 514.438 214.578C513.231 214.393 512.117 214.104 511.099 213.711C510.107 213.322 509.249 212.822 508.528 212.212C507.81 211.576 507.27 210.809 506.907 209.912C506.545 209.015 506.416 207.969 506.52 206.775L509.758 207.271ZM548.264 216.33C547.41 217.093 546.382 217.712 545.178 218.185C543.979 218.632 542.557 218.73 540.912 218.478C539.909 218.324 539.004 218.054 538.195 217.667C537.408 217.309 536.744 216.839 536.202 216.256C535.69 215.652 535.323 214.951 535.104 214.155C534.884 213.358 534.851 212.459 535.004 211.457C535.213 210.095 535.665 209.033 536.361 208.271C537.082 207.514 537.955 206.964 538.981 206.621C540.032 206.283 541.178 206.103 542.417 206.083C543.656 206.062 544.923 206.125 546.215 206.27L549.664 206.681L549.782 205.91C550.042 204.213 549.87 202.937 549.264 202.082C548.659 201.226 547.547 200.674 545.928 200.426C544.334 200.182 543.123 200.273 542.295 200.698C541.471 201.098 540.873 201.743 540.5 202.632L537.507 201.819C538.147 200.049 539.211 198.857 540.699 198.244C542.191 197.605 544.106 197.464 546.445 197.823C547.884 198.043 549.065 198.408 549.986 198.918C550.937 199.405 551.672 200.018 552.19 200.755C552.708 201.492 553.023 202.356 553.134 203.346C553.271 204.34 553.249 205.428 553.068 206.61L551.083 219.563L547.844 219.067L548.264 216.33ZM549.298 209.071L546.08 208.696C544.71 208.539 543.56 208.494 542.629 208.561C541.698 208.629 540.935 208.802 540.34 209.079C539.775 209.334 539.337 209.701 539.027 210.179C538.743 210.662 538.549 211.237 538.447 211.905C538.293 212.908 538.465 213.763 538.961 214.47C539.488 215.156 540.445 215.605 541.832 215.817C543.811 216.121 545.428 215.869 546.683 215.062C547.938 214.254 548.695 213.003 548.955 211.307L549.298 209.071ZM559.229 200.413L562.545 200.922L562.078 203.967C563.255 202.806 564.479 202.033 565.747 201.649C567.016 201.265 568.306 201.173 569.617 201.374C571.878 201.721 573.454 202.594 574.345 203.993C575.261 205.396 575.535 207.292 575.169 209.682L573.136 222.944L569.783 222.429L571.715 209.824C571.998 207.973 571.863 206.624 571.309 205.777C570.759 204.903 569.79 204.36 568.403 204.147C567.657 204.033 566.892 204.047 566.108 204.19C565.349 204.337 564.63 204.648 563.952 205.122C563.223 205.589 562.642 206.118 562.21 206.71C561.781 207.275 561.49 208.059 561.336 209.062L559.528 220.858L556.175 220.344L559.229 200.413ZM91.7124 179.338L95.0663 179.852L92.0114 199.782L88.6576 199.268L91.7124 179.338ZM92.7608 171.726L96.346 172.275L95.7492 176.169L92.164 175.619L92.7608 171.726ZM100.294 180.653L103.609 181.161L103.142 184.207C104.32 183.046 105.543 182.273 106.812 181.889C108.081 181.505 109.371 181.413 110.681 181.614C112.943 181.961 114.519 182.834 115.409 184.233C116.325 185.636 116.6 187.532 116.234 189.922L114.201 203.183L110.847 202.669L112.779 190.064C113.063 188.213 112.928 186.864 112.374 186.016C111.824 185.143 110.855 184.6 109.467 184.387C108.722 184.273 107.957 184.287 107.172 184.43C106.413 184.577 105.695 184.887 105.017 185.362C104.288 185.829 103.707 186.358 103.274 186.95C102.846 187.515 102.555 188.299 102.401 189.301L100.593 201.098L97.2391 200.584L100.294 180.653ZM123.028 186.86L119.944 186.388L120.352 183.728L123.436 184.2L124.269 178.765L127.623 179.279L126.79 184.714L132.071 185.524L131.663 188.184L126.382 187.374L124.592 199.055C124.442 200.032 124.54 200.849 124.887 201.507C125.233 202.165 125.856 202.563 126.755 202.701C127.321 202.788 127.815 202.824 128.238 202.81C128.687 202.8 129.101 202.758 129.48 202.685L129.663 205.356C129.121 205.457 128.534 205.512 127.901 205.52C127.291 205.558 126.574 205.514 125.752 205.388C124.621 205.214 123.734 204.908 123.091 204.467C122.449 204.027 121.969 203.467 121.652 202.787C121.336 202.107 121.165 201.331 121.141 200.459C121.143 199.592 121.22 198.657 121.374 197.654L123.028 186.86ZM150.113 202.967C149.483 204.843 148.39 206.227 146.833 207.12C145.301 208.016 143.251 208.267 140.681 207.873C137.648 207.409 135.462 206.14 134.123 204.067C132.787 201.968 132.371 199.274 132.876 195.985C133.14 194.263 133.605 192.769 134.273 191.504C134.94 190.238 135.754 189.219 136.714 188.445C137.7 187.676 138.807 187.148 140.034 186.863C141.266 186.552 142.562 186.501 143.924 186.71C145.466 186.946 146.753 187.393 147.783 188.051C148.813 188.708 149.608 189.527 150.168 190.507C150.758 191.466 151.129 192.562 151.282 193.795C151.461 195.032 151.441 196.358 151.225 197.771L150.965 199.467L136.162 197.198C136.008 198.201 135.993 199.159 136.116 200.072C136.269 200.963 136.54 201.768 136.93 202.485C137.349 203.18 137.904 203.765 138.594 204.239C139.284 204.713 140.118 205.025 141.094 205.175C142.765 205.431 144.033 205.31 144.898 204.811C145.768 204.287 146.427 203.507 146.875 202.47L150.113 202.967ZM147.995 196.448C148.141 195.497 148.17 194.62 148.083 193.818C147.995 193.015 147.774 192.31 147.42 191.704C147.07 191.071 146.572 190.548 145.925 190.133C145.278 189.718 144.467 189.436 143.49 189.286C141.717 189.015 140.246 189.342 139.079 190.267C137.936 191.197 137.118 192.676 136.623 194.705L147.995 196.448ZM157.065 189.355L160.38 189.863L159.907 192.947C160.822 191.956 161.826 191.242 162.919 190.805C164.011 190.367 165.123 190.235 166.254 190.408C166.948 190.515 167.531 190.657 168.004 190.834L167.101 193.892C166.852 193.801 166.601 193.723 166.348 193.658C166.099 193.567 165.82 193.498 165.512 193.451C164.895 193.356 164.247 193.376 163.569 193.508C162.895 193.615 162.236 193.883 161.592 194.31C160.952 194.712 160.415 195.208 159.983 195.799C159.576 196.395 159.308 197.116 159.178 197.964L157.364 209.799L154.01 209.285L157.065 189.355ZM185.049 208.322C184.419 210.198 183.326 211.582 181.769 212.475C180.237 213.371 178.186 213.622 175.616 213.228C172.584 212.763 170.398 211.495 169.058 209.422C167.723 207.323 167.307 204.629 167.811 201.339C168.075 199.618 168.541 198.124 169.208 196.858C169.876 195.593 170.69 194.573 171.65 193.8C172.636 193.03 173.743 192.503 174.97 192.218C176.201 191.907 177.498 191.856 178.86 192.064C180.402 192.301 181.688 192.748 182.719 193.405C183.749 194.063 184.544 194.882 185.104 195.862C185.694 196.821 186.065 197.916 186.218 199.15C186.396 200.387 186.377 201.713 186.161 203.126L185.901 204.822L171.097 202.553C170.944 203.556 170.929 204.513 171.052 205.427C171.204 206.318 171.476 207.122 171.865 207.84C172.285 208.535 172.84 209.12 173.53 209.594C174.22 210.068 175.053 210.38 176.03 210.53C177.7 210.786 178.968 210.664 179.834 210.166C180.703 209.642 181.362 208.861 181.81 207.825L185.049 208.322ZM182.931 201.803C183.077 200.852 183.106 199.975 183.018 199.172C182.931 198.37 182.71 197.665 182.356 197.059C182.006 196.426 181.507 195.903 180.861 195.488C180.214 195.073 179.402 194.791 178.426 194.641C176.653 194.369 175.182 194.696 174.014 195.622C172.872 196.552 172.054 198.031 171.559 200.059L182.931 201.803ZM191.996 209.15C192.015 210.573 192.444 211.638 193.282 212.346C194.15 213.031 195.394 213.498 197.013 213.746C198.709 214.006 199.948 213.906 200.728 213.447C201.538 212.967 202.016 212.251 202.162 211.3C202.221 210.914 202.225 210.547 202.173 210.197C202.151 209.825 202.032 209.491 201.814 209.195C201.6 208.873 201.278 208.573 200.847 208.297C200.416 208.02 199.837 207.761 199.112 207.518L196.627 206.743C195.523 206.389 194.569 206.006 193.765 205.594C192.96 205.181 192.295 204.711 191.771 204.183C191.251 203.63 190.886 203.009 190.676 202.319C190.496 201.607 190.477 200.789 190.618 199.864C190.76 198.939 191.079 198.146 191.575 197.485C192.096 196.829 192.742 196.309 193.51 195.928C194.309 195.524 195.203 195.266 196.193 195.155C197.213 195.022 198.289 195.042 199.419 195.216C200.859 195.436 202.032 195.761 202.939 196.189C203.873 196.622 204.61 197.129 205.152 197.712C205.694 198.295 206.081 198.946 206.313 199.665C206.544 200.385 206.693 201.131 206.759 201.904L203.636 201.938C203.539 201.371 203.407 200.864 203.238 200.417C203.07 199.971 202.813 199.589 202.467 199.273C202.125 198.931 201.681 198.653 201.135 198.438C200.619 198.201 199.95 198.019 199.127 197.893C198.202 197.751 197.417 197.723 196.773 197.809C196.132 197.868 195.598 198.01 195.169 198.233C194.766 198.461 194.46 198.743 194.25 199.079C194.045 199.39 193.913 199.737 193.854 200.123C193.791 200.534 193.785 200.915 193.836 201.265C193.892 201.589 194.041 201.901 194.285 202.201C194.532 202.476 194.886 202.741 195.347 202.995C195.807 203.25 196.413 203.501 197.165 203.747L199.985 204.653C202.265 205.397 203.833 206.321 204.689 207.426C205.571 208.534 205.873 210.001 205.593 211.826C205.463 212.674 205.176 213.432 204.731 214.1C204.291 214.743 203.695 215.283 202.944 215.72C202.197 216.132 201.301 216.402 200.255 216.531C199.206 216.686 198.013 216.661 196.677 216.456C195.469 216.271 194.356 215.982 193.337 215.589C192.345 215.2 191.488 214.701 190.766 214.09C190.048 213.454 189.508 212.688 189.146 211.79C188.783 210.893 188.654 209.848 188.758 208.653L191.996 209.15ZM212.89 200.634L209.806 200.161L210.214 197.501L213.298 197.974L214.131 192.539L217.485 193.053L216.651 198.488L221.933 199.298L221.525 201.958L216.244 201.148L214.453 212.829C214.304 213.805 214.402 214.623 214.748 215.281C215.095 215.939 215.717 216.337 216.617 216.475C217.182 216.561 217.677 216.598 218.1 216.583C218.548 216.573 218.962 216.532 219.342 216.458L219.524 219.13C218.983 219.231 218.396 219.285 217.763 219.294C217.152 219.332 216.436 219.288 215.613 219.162C214.482 218.988 213.596 218.681 212.953 218.241C212.31 217.8 211.831 217.24 211.514 216.56C211.197 215.881 211.027 215.105 211.003 214.233C211.004 213.365 211.082 212.43 211.235 211.428L212.89 200.634ZM225.583 199.857L228.936 200.371L225.882 220.301L222.528 219.787L225.583 199.857ZM226.631 192.245L230.216 192.795L229.619 196.688L226.034 196.139L226.631 192.245ZM234.164 201.172L237.479 201.681L237.013 204.726C238.19 203.565 239.413 202.792 240.682 202.408C241.951 202.024 243.241 201.932 244.551 202.133C246.813 202.48 248.389 203.353 249.279 204.752C250.195 206.155 250.47 208.051 250.104 210.441L248.071 223.703L244.717 223.188L246.65 210.583C246.933 208.732 246.798 207.383 246.244 206.536C245.694 205.662 244.725 205.119 243.337 204.906C242.592 204.792 241.827 204.806 241.042 204.949C240.283 205.096 239.565 205.407 238.887 205.881C238.158 206.348 237.577 206.877 237.145 207.469C236.716 208.034 236.425 208.818 236.271 209.821L234.463 221.617L231.109 221.103L234.164 201.172ZM256.204 226.843C256.301 228.094 256.709 229.038 257.427 229.674C258.17 230.314 259.403 230.766 261.125 231.03C263.232 231.353 264.775 230.984 265.753 229.924C266.753 228.894 267.424 227.261 267.766 225.025L268.091 222.905C267.155 223.866 266.089 224.557 264.893 224.979C263.723 225.405 262.406 225.505 260.941 225.281C259.502 225.06 258.282 224.61 257.281 223.931C256.31 223.229 255.547 222.376 254.991 221.37C254.439 220.338 254.075 219.191 253.901 217.928C253.752 216.669 253.784 215.346 253.996 213.958C254.229 212.441 254.645 211.098 255.245 209.927C255.849 208.731 256.604 207.755 257.509 207C258.418 206.218 259.449 205.666 260.604 205.343C261.784 205.024 263.055 204.969 264.417 205.178C265.522 205.348 266.579 205.746 267.587 206.374C268.625 206.981 269.501 207.957 270.216 209.302L270.606 206.758L273.921 207.266L271.363 223.958C271.099 225.68 270.734 227.202 270.268 228.525C269.824 229.878 269.195 230.978 268.381 231.826C267.589 232.705 266.575 233.312 265.34 233.649C264.105 233.985 262.575 234.014 260.75 233.734C258.129 233.332 256.145 232.542 254.801 231.363C253.452 230.209 252.814 228.533 252.888 226.335L256.204 226.843ZM269.232 215.977C269.433 214.667 269.446 213.551 269.272 212.63C269.101 211.683 268.789 210.886 268.336 210.237C267.883 209.589 267.315 209.094 266.631 208.753C265.976 208.39 265.263 208.149 264.492 208.031C263.67 207.905 262.877 207.928 262.114 208.1C261.381 208.251 260.699 208.58 260.069 209.089C259.464 209.601 258.937 210.296 258.487 211.174C258.062 212.056 257.75 213.152 257.549 214.463C257.344 215.799 257.325 216.954 257.491 217.926C257.684 218.902 257.993 219.713 258.421 220.357C258.848 221.001 259.376 221.503 260.005 221.862C260.659 222.226 261.334 222.461 262.028 222.567C262.901 222.701 263.72 222.682 264.483 222.509C265.271 222.341 265.979 222.015 266.605 221.533C267.231 221.05 267.764 220.408 268.202 219.607C268.645 218.781 268.954 217.789 269.132 216.633L269.232 215.977ZM297.437 228.468C296.584 229.231 295.555 229.85 294.352 230.323C293.152 230.77 291.73 230.868 290.085 230.616C289.083 230.462 288.177 230.192 287.368 229.805C286.582 229.447 285.917 228.977 285.375 228.395C284.863 227.79 284.497 227.089 284.277 226.293C284.057 225.496 284.024 224.597 284.177 223.595C284.386 222.233 284.838 221.171 285.534 220.409C286.255 219.652 287.128 219.102 288.154 218.759C289.205 218.421 290.351 218.241 291.59 218.221C292.83 218.2 294.096 218.263 295.389 218.408L298.837 218.819L298.956 218.048C299.215 216.351 299.043 215.076 298.437 214.22C297.832 213.364 296.72 212.812 295.101 212.564C293.507 212.32 292.297 212.411 291.469 212.836C290.645 213.236 290.046 213.881 289.673 214.77L286.681 213.957C287.32 212.187 288.384 210.996 289.872 210.382C291.364 209.743 293.28 209.602 295.618 209.961C297.057 210.181 298.238 210.546 299.159 211.056C300.11 211.543 300.845 212.156 301.363 212.893C301.882 213.63 302.196 214.494 302.308 215.484C302.445 216.478 302.422 217.566 302.241 218.749L300.256 231.701L297.018 231.205L297.437 228.468ZM298.471 221.209L295.254 220.834C293.884 220.677 292.733 220.632 291.802 220.699C290.871 220.767 290.108 220.94 289.513 221.217C288.948 221.472 288.511 221.839 288.2 222.317C287.916 222.8 287.723 223.375 287.62 224.043C287.467 225.046 287.638 225.901 288.135 226.608C288.661 227.294 289.618 227.743 291.006 227.956C292.985 228.259 294.601 228.007 295.856 227.2C297.111 226.392 297.868 225.141 298.128 223.445L298.471 221.209ZM308.399 226.992C308.417 228.415 308.846 229.48 309.684 230.187C310.553 230.873 311.796 231.34 313.415 231.588C315.112 231.848 316.35 231.748 317.13 231.289C317.941 230.808 318.419 230.092 318.564 229.142C318.623 228.756 318.627 228.388 318.576 228.039C318.554 227.667 318.434 227.333 318.216 227.037C318.003 226.714 317.68 226.415 317.249 226.139C316.818 225.862 316.24 225.603 315.514 225.36L313.029 224.584C311.926 224.231 310.972 223.848 310.167 223.435C309.362 223.023 308.698 222.553 308.174 222.025C307.653 221.472 307.288 220.85 307.078 220.161C306.898 219.449 306.879 218.631 307.021 217.706C307.163 216.78 307.481 215.988 307.977 215.327C308.499 214.67 309.144 214.151 309.913 213.769C310.711 213.366 311.605 213.108 312.596 212.997C313.615 212.864 314.691 212.884 315.822 213.057C317.261 213.278 318.434 213.602 319.342 214.031C320.275 214.463 321.013 214.971 321.555 215.554C322.097 216.137 322.483 216.788 322.715 217.507C322.947 218.227 323.095 218.973 323.161 219.746L320.039 219.78C319.942 219.213 319.809 218.706 319.641 218.259C319.472 217.812 319.215 217.431 318.869 217.115C318.527 216.773 318.083 216.495 317.537 216.279C317.021 216.043 316.352 215.861 315.53 215.735C314.604 215.593 313.82 215.565 313.175 215.65C312.535 215.71 312 215.852 311.571 216.075C311.168 216.303 310.862 216.585 310.653 216.921C310.447 217.231 310.315 217.579 310.256 217.965C310.193 218.376 310.187 218.756 310.239 219.106C310.294 219.43 310.444 219.743 310.687 220.043C310.934 220.318 311.288 220.582 311.749 220.837C312.21 221.092 312.816 221.343 313.567 221.589L316.387 222.495C318.667 223.239 320.235 224.163 321.091 225.268C321.974 226.376 322.275 227.843 321.995 229.667C321.865 230.516 321.578 231.274 321.134 231.942C320.693 232.585 320.098 233.125 319.347 233.562C318.6 233.974 317.703 234.244 316.658 234.373C315.608 234.528 314.415 234.503 313.079 234.298C311.871 234.113 310.758 233.824 309.74 233.431C308.747 233.042 307.89 232.543 307.168 231.932C306.45 231.296 305.91 230.529 305.548 229.632C305.186 228.735 305.057 227.689 305.161 226.495L308.399 226.992ZM328.54 230.079C328.558 231.502 328.987 232.567 329.825 233.274C330.693 233.96 331.937 234.427 333.556 234.675C335.252 234.935 336.491 234.835 337.271 234.376C338.081 233.895 338.559 233.18 338.705 232.229C338.764 231.843 338.768 231.476 338.716 231.126C338.694 230.754 338.575 230.42 338.357 230.124C338.143 229.802 337.821 229.502 337.39 229.226C336.959 228.949 336.381 228.69 335.655 228.447L333.17 227.671C332.067 227.318 331.113 226.935 330.308 226.523C329.503 226.11 328.839 225.64 328.314 225.112C327.794 224.559 327.429 223.938 327.219 223.248C327.039 222.536 327.02 221.718 327.162 220.793C327.303 219.868 327.622 219.075 328.118 218.414C328.639 217.758 329.285 217.238 330.053 216.856C330.852 216.453 331.746 216.195 332.736 216.084C333.756 215.951 334.832 215.971 335.962 216.144C337.402 216.365 338.575 216.69 339.483 217.118C340.416 217.55 341.153 218.058 341.695 218.641C342.237 219.224 342.624 219.875 342.856 220.594C343.087 221.314 343.236 222.06 343.302 222.833L340.18 222.867C340.082 222.3 339.95 221.793 339.781 221.346C339.613 220.899 339.356 220.518 339.01 220.202C338.668 219.86 338.224 219.582 337.678 219.367C337.162 219.13 336.493 218.948 335.67 218.822C334.745 218.68 333.96 218.652 333.316 218.737C332.676 218.797 332.141 218.939 331.712 219.162C331.309 219.39 331.003 219.672 330.793 220.008C330.588 220.318 330.456 220.666 330.397 221.052C330.334 221.463 330.328 221.844 330.379 222.193C330.435 222.518 330.584 222.83 330.828 223.13C331.075 223.405 331.429 223.669 331.89 223.924C332.35 224.179 332.956 224.43 333.708 224.676L336.528 225.582C338.808 226.326 340.376 227.25 341.232 228.355C342.114 229.463 342.416 230.93 342.136 232.755C342.006 233.603 341.719 234.361 341.275 235.029C340.834 235.672 340.238 236.212 339.487 236.649C338.74 237.061 337.844 237.331 336.799 237.46C335.749 237.615 334.556 237.59 333.22 237.385C332.012 237.2 330.899 236.911 329.88 236.518C328.888 236.129 328.031 235.63 327.309 235.019C326.591 234.383 326.051 233.616 325.689 232.719C325.326 231.822 325.197 230.776 325.301 229.582L328.54 230.079ZM348.568 218.708L351.922 219.222L349.996 231.789C349.712 233.64 349.807 234.996 350.28 235.857C350.779 236.723 351.709 237.26 353.071 237.469C354.562 237.697 355.994 237.364 357.367 236.47C358.096 236.003 358.675 235.487 359.104 234.921C359.536 234.33 359.829 233.533 359.983 232.531L361.791 220.735L365.145 221.249L362.09 241.179L358.775 240.671L359.247 237.587C358.074 238.722 356.876 239.499 355.655 239.916C354.434 240.334 353.168 240.443 351.857 240.242C349.595 239.895 348.043 239.039 347.2 237.674C346.387 236.286 346.168 234.372 346.542 231.931L348.568 218.708ZM370.293 222.038L373.608 222.546L373.142 225.591C374.23 224.496 375.359 223.735 376.529 223.309C377.703 222.858 378.856 222.719 379.987 222.892C381.477 223.121 382.623 223.625 383.424 224.406C384.251 225.19 384.79 226.219 385.042 227.494C386.13 226.399 387.3 225.631 388.551 225.191C389.806 224.726 391.089 224.594 392.4 224.795C394.353 225.094 395.773 225.864 396.662 227.105C397.58 228.325 397.857 230.116 397.495 232.481L395.38 246.281L392.026 245.767L394.023 232.738C394.161 231.838 394.198 231.081 394.134 230.466C394.075 229.826 393.916 229.315 393.659 228.934C393.432 228.53 393.109 228.231 392.692 228.036C392.279 227.815 391.789 227.661 391.224 227.574C390.633 227.483 390 227.492 389.326 227.599C388.652 227.706 387.967 227.969 387.272 228.389C386.691 228.747 386.186 229.209 385.758 229.774C385.329 230.34 385.053 231.021 384.931 231.818L383.005 244.385L379.651 243.871L381.643 230.879C381.91 229.132 381.787 227.877 381.273 227.114C380.788 226.329 379.98 225.851 378.849 225.677C377.539 225.476 376.222 225.827 374.901 226.729C374.401 227.073 373.896 227.535 373.386 228.115C372.902 228.698 372.577 229.529 372.412 230.609L370.592 242.482L367.238 241.968L370.293 222.038ZM403.497 227.127L406.812 227.635L406.375 230.488C407.371 229.483 408.454 228.768 409.624 228.342C410.819 227.921 412.15 227.822 413.615 228.047C415.028 228.263 416.222 228.709 417.197 229.385C418.198 230.064 418.974 230.92 419.526 231.951C420.104 232.987 420.461 234.173 420.599 235.509C420.765 236.823 420.731 238.252 420.494 239.794C420.242 241.438 419.808 242.898 419.192 244.171C418.58 245.419 417.818 246.446 416.905 247.253C415.992 248.06 414.944 248.636 413.76 248.98C412.605 249.303 411.347 249.36 409.985 249.151C408.854 248.978 407.77 248.588 406.732 247.982C405.723 247.354 404.871 246.395 404.174 245.104L402.65 255.05L399.296 254.536L403.497 227.127ZM405.199 238.159C405.002 239.444 404.974 240.571 405.115 241.54C405.286 242.487 405.583 243.295 406.006 243.965C406.429 244.635 406.979 245.166 407.656 245.559C408.336 245.926 409.1 246.175 409.948 246.305C410.77 246.431 411.55 246.406 412.287 246.23C413.05 246.057 413.736 245.702 414.345 245.164C414.957 244.6 415.482 243.839 415.918 242.88C416.38 241.925 416.721 240.728 416.942 239.289C417.166 237.824 417.186 236.577 417.002 235.55C416.847 234.5 416.558 233.64 416.135 232.97C415.711 232.301 415.185 231.786 414.556 231.426C413.953 231.071 413.305 230.84 412.611 230.734C411.737 230.6 410.904 230.63 410.111 230.824C409.323 230.992 408.6 231.329 407.944 231.833C407.318 232.316 406.782 232.983 406.335 233.836C405.893 234.662 405.583 235.654 405.406 236.81L405.199 238.159ZM427.248 233.49L424.164 233.017L424.572 230.357L427.655 230.83L428.489 225.395L431.842 225.909L431.009 231.344L436.291 232.154L435.883 234.814L430.602 234.004L428.811 245.685C428.662 246.661 428.76 247.479 429.106 248.137C429.452 248.795 430.075 249.193 430.975 249.331C431.54 249.417 432.034 249.454 432.457 249.44C432.906 249.429 433.32 249.388 433.7 249.314L433.882 251.986C433.341 252.087 432.754 252.142 432.121 252.15C431.51 252.188 430.794 252.144 429.971 252.018C428.84 251.844 427.954 251.537 427.311 251.097C426.668 250.656 426.189 250.096 425.872 249.416C425.555 248.737 425.385 247.961 425.361 247.089C425.362 246.221 425.44 245.286 425.593 244.284L427.248 233.49ZM439.941 232.713L443.294 233.227L440.24 253.157L436.886 252.643L439.941 232.713ZM440.989 225.101L444.574 225.651L443.977 229.544L440.392 228.995L440.989 225.101ZM454.316 255.946C452.8 255.714 451.488 255.263 450.381 254.594C449.273 253.924 448.377 253.076 447.693 252.051C447.008 251.025 446.548 249.824 446.312 248.446C446.076 247.068 446.082 245.57 446.33 243.951C446.579 242.332 447.034 240.902 447.698 239.663C448.361 238.423 449.188 237.405 450.178 236.61C451.168 235.815 452.291 235.264 453.548 234.957C454.835 234.628 456.211 234.576 457.676 234.8C459.166 235.029 460.465 235.478 461.573 236.147C462.68 236.817 463.574 237.677 464.255 238.728C464.965 239.758 465.44 240.949 465.68 242.301C465.92 243.652 465.916 245.138 465.668 246.757C465.415 248.402 464.958 249.844 464.294 251.084C463.656 252.328 462.842 253.347 461.853 254.142C460.888 254.942 459.763 255.506 458.476 255.834C457.193 256.138 455.807 256.175 454.316 255.946ZM454.78 253.177C455.86 253.342 456.814 253.291 457.644 253.024C458.475 252.757 459.187 252.313 459.782 251.694C460.402 251.079 460.901 250.314 461.278 249.399C461.659 248.457 461.938 247.409 462.115 246.252C462.288 245.121 462.332 244.063 462.247 243.076C462.161 242.09 461.913 241.223 461.501 240.476C461.119 239.708 460.572 239.071 459.86 238.568C459.148 238.064 458.253 237.729 457.173 237.564C456.094 237.399 455.139 237.45 454.309 237.717C453.505 237.988 452.792 238.431 452.172 239.046C451.581 239.64 451.097 240.394 450.72 241.31C450.343 242.225 450.066 243.261 449.889 244.418C449.712 245.574 449.666 246.645 449.751 247.632C449.837 248.618 450.071 249.496 450.452 250.264C450.834 251.033 451.381 251.669 452.093 252.173C452.805 252.677 453.701 253.011 454.78 253.177ZM471.675 237.577L474.99 238.085L474.523 241.131C475.701 239.97 476.924 239.197 478.193 238.813C479.461 238.429 480.751 238.337 482.062 238.538C484.323 238.885 485.899 239.758 486.79 241.157C487.706 242.56 487.981 244.456 487.614 246.846L485.582 260.107L482.228 259.593L484.16 246.988C484.444 245.137 484.308 243.788 483.754 242.94C483.204 242.067 482.235 241.524 480.848 241.311C480.102 241.197 479.337 241.211 478.553 241.354C477.794 241.501 477.075 241.811 476.398 242.286C475.668 242.753 475.088 243.282 474.655 243.873C474.226 244.439 473.935 245.223 473.782 246.225L471.974 258.022L468.62 257.507L471.675 237.577ZM503.031 245.106L499.908 244.627L500.316 241.967L503.438 242.446L503.704 240.711C503.87 239.632 504.166 238.73 504.592 238.006C505.045 237.287 505.578 236.724 506.192 236.318C506.837 235.891 507.536 235.617 508.291 235.496C509.076 235.353 509.88 235.345 510.702 235.471C511.293 235.561 511.853 235.687 512.38 235.847C512.912 235.981 513.46 236.183 514.023 236.453L513.082 238.992C512.69 238.801 512.304 238.662 511.922 238.578C511.57 238.471 511.215 238.39 510.855 238.335C509.955 238.197 509.147 238.323 508.43 238.713C507.716 239.077 507.263 239.889 507.07 241.148L506.792 242.96L511.842 243.734L511.434 246.394L506.384 245.62L503.737 262.89L500.384 262.376L503.031 245.106ZM520.16 266.039C518.643 265.806 517.331 265.355 516.224 264.686C515.117 264.016 514.221 263.169 513.536 262.143C512.852 261.118 512.392 259.916 512.156 258.538C511.92 257.161 511.926 255.662 512.174 254.043C512.422 252.424 512.878 250.995 513.541 249.755C514.205 248.515 515.031 247.498 516.021 246.702C517.011 245.907 518.135 245.356 519.392 245.049C520.678 244.72 522.054 244.668 523.519 244.893C525.01 245.121 526.309 245.57 527.416 246.239C528.523 246.909 529.417 247.769 530.098 248.821C530.808 249.85 531.283 251.041 531.523 252.393C531.763 253.745 531.759 255.23 531.511 256.849C531.259 258.494 530.801 259.936 530.137 261.176C529.5 262.42 528.686 263.439 527.696 264.235C526.732 265.034 525.606 265.598 524.32 265.927C523.037 266.23 521.65 266.267 520.16 266.039ZM520.624 263.269C521.703 263.434 522.658 263.383 523.488 263.116C524.318 262.849 525.03 262.406 525.625 261.787C526.245 261.171 526.744 260.406 527.121 259.491C527.502 258.55 527.781 257.501 527.958 256.344C528.132 255.214 528.176 254.155 528.09 253.169C528.004 252.182 527.756 251.316 527.344 250.569C526.962 249.8 526.415 249.164 525.704 248.66C524.992 248.156 524.096 247.822 523.017 247.656C521.937 247.491 520.982 247.542 520.152 247.809C519.348 248.08 518.636 248.524 518.015 249.139C517.425 249.732 516.941 250.486 516.564 251.402C516.187 252.317 515.909 253.353 515.732 254.51C515.555 255.666 515.509 256.738 515.595 257.724C515.68 258.71 515.914 259.588 516.296 260.357C516.678 261.125 517.225 261.762 517.937 262.265C518.649 262.769 519.544 263.104 520.624 263.269ZM537.518 247.669L540.833 248.178L540.36 251.262C541.275 250.271 542.279 249.557 543.372 249.119C544.465 248.682 545.577 248.55 546.707 248.723C547.401 248.829 547.984 248.971 548.457 249.149L547.554 252.206C547.305 252.116 547.054 252.038 546.801 251.973C546.552 251.882 546.273 251.813 545.965 251.766C545.348 251.671 544.701 251.69 544.023 251.823C543.349 251.93 542.69 252.197 542.045 252.625C541.405 253.026 540.869 253.523 540.436 254.114C540.029 254.709 539.761 255.431 539.631 256.279L537.817 268.114L534.463 267.6L537.518 247.669ZM70.1905 226.623L73.8527 227.184L75.4275 243.681L82.4316 228.618L85.824 229.138L87.8791 245.59L94.2841 230.316L97.8307 230.86L88.9548 249.898L85.4083 249.354L83.3709 232.786L76.4261 247.977L72.9181 247.44L70.1905 226.623ZM101.901 223.711L105.255 224.225L103.636 234.788C104.806 233.678 106.012 232.929 107.255 232.541C108.524 232.157 109.814 232.065 111.125 232.266C113.386 232.613 114.962 233.485 115.852 234.885C116.768 236.288 117.043 238.184 116.677 240.574L114.644 253.835L111.252 253.315L113.184 240.71C113.468 238.859 113.333 237.51 112.779 236.662C112.254 235.793 111.298 235.252 109.91 235.039C109.165 234.925 108.4 234.939 107.615 235.082C106.857 235.229 106.138 235.539 105.46 236.014C104.731 236.481 104.15 237.01 103.718 237.601C103.289 238.167 102.998 238.951 102.844 239.953L101.036 251.749L97.6824 251.235L101.901 223.711ZM132.5 253.771C131.647 254.534 130.618 255.153 129.415 255.626C128.215 256.073 126.793 256.171 125.148 255.919C124.146 255.765 123.24 255.495 122.432 255.108C121.645 254.75 120.98 254.28 120.438 253.697C119.926 253.093 119.56 252.392 119.34 251.596C119.12 250.799 119.087 249.9 119.241 248.898C119.449 247.536 119.902 246.474 120.597 245.712C121.318 244.955 122.191 244.405 123.217 244.062C124.269 243.724 125.414 243.544 126.653 243.524C127.893 243.503 129.159 243.566 130.452 243.711L133.901 244.122L134.019 243.351C134.279 241.654 134.106 240.379 133.501 239.523C132.895 238.667 131.783 238.115 130.164 237.867C128.571 237.623 127.36 237.714 126.532 238.139C125.708 238.539 125.109 239.184 124.736 240.073L121.744 239.26C122.383 237.49 123.447 236.299 124.935 235.685C126.427 235.046 128.343 234.905 130.681 235.264C132.121 235.484 133.301 235.849 134.222 236.359C135.173 236.846 135.908 237.459 136.426 238.196C136.945 238.933 137.26 239.797 137.371 240.787C137.508 241.781 137.486 242.869 137.304 244.051L135.319 257.004L132.081 256.508L132.5 253.771ZM133.534 246.512L130.317 246.137C128.947 245.98 127.796 245.935 126.865 246.002C125.934 246.07 125.171 246.243 124.577 246.52C124.011 246.775 123.574 247.142 123.264 247.62C122.979 248.103 122.786 248.678 122.683 249.346C122.53 250.349 122.701 251.204 123.198 251.911C123.724 252.597 124.681 253.046 126.069 253.258C128.048 253.562 129.665 253.31 130.919 252.503C132.174 251.695 132.931 250.444 133.191 248.748L133.534 246.512ZM144.215 240.692L141.131 240.219L141.538 237.559L144.622 238.032L145.455 232.596L148.809 233.11L147.976 238.546L153.257 239.355L152.85 242.015L147.568 241.206L145.778 252.886C145.628 253.863 145.727 254.68 146.073 255.338C146.419 255.996 147.042 256.394 147.942 256.532C148.507 256.619 149.001 256.655 149.424 256.641C149.873 256.631 150.287 256.589 150.667 256.516L150.849 259.187C150.307 259.288 149.72 259.343 149.088 259.351C148.477 259.389 147.76 259.345 146.938 259.219C145.807 259.046 144.92 258.739 144.278 258.298C143.635 257.858 143.155 257.298 142.839 256.618C142.522 255.938 142.352 255.162 142.327 254.291C142.329 253.423 142.407 252.488 142.56 251.486L144.215 240.692ZM165.414 241.219L168.729 241.727L168.262 244.772C169.351 243.676 170.48 242.916 171.65 242.49C172.824 242.039 173.976 241.9 175.107 242.073C176.598 242.301 177.743 242.806 178.544 243.586C179.371 244.371 179.91 245.4 180.162 246.675C181.251 245.579 182.421 244.812 183.672 244.372C184.927 243.907 186.209 243.775 187.52 243.976C189.473 244.275 190.894 245.045 191.782 246.286C192.7 247.505 192.978 249.297 192.615 251.661L190.5 265.462L187.146 264.948L189.143 251.918C189.281 251.019 189.318 250.262 189.255 249.647C189.195 249.007 189.037 248.496 188.78 248.114C188.552 247.711 188.23 247.412 187.812 247.216C187.399 246.995 186.91 246.841 186.344 246.755C185.753 246.664 185.121 246.672 184.447 246.779C183.773 246.887 183.088 247.15 182.392 247.569C181.811 247.927 181.307 248.389 180.878 248.955C180.449 249.52 180.174 250.202 180.052 250.998L178.126 263.565L174.772 263.051L176.763 250.06C177.031 248.313 176.908 247.057 176.393 246.295C175.909 245.51 175.101 245.031 173.97 244.858C172.659 244.657 171.343 245.008 170.021 245.91C169.521 246.254 169.016 246.716 168.507 247.295C168.023 247.879 167.698 248.71 167.532 249.789L165.713 261.663L162.359 261.149L165.414 241.219ZM208.395 265.404C207.542 266.167 206.513 266.786 205.31 267.259C204.11 267.706 202.688 267.804 201.043 267.552C200.041 267.398 199.135 267.128 198.327 266.741C197.54 266.383 196.875 265.913 196.333 265.33C195.821 264.726 195.455 264.025 195.235 263.229C195.015 262.432 194.982 261.533 195.136 260.531C195.344 259.168 195.796 258.107 196.492 257.345C197.213 256.588 198.086 256.038 199.112 255.695C200.164 255.357 201.309 255.177 202.548 255.157C203.788 255.136 205.054 255.199 206.347 255.344L209.795 255.754L209.914 254.984C210.174 253.287 210.001 252.011 209.396 251.156C208.79 250.3 207.678 249.748 206.059 249.5C204.465 249.256 203.255 249.347 202.427 249.772C201.603 250.172 201.004 250.817 200.631 251.706L197.639 250.893C198.278 249.123 199.342 247.931 200.83 247.318C202.322 246.678 204.238 246.538 206.576 246.897C208.015 247.117 209.196 247.482 210.117 247.992C211.068 248.479 211.803 249.092 212.321 249.829C212.84 250.566 213.154 251.429 213.266 252.42C213.403 253.414 213.381 254.502 213.199 255.684L211.214 268.637L207.976 268.141L208.395 265.404ZM209.429 258.145L206.212 257.77C204.842 257.612 203.691 257.568 202.76 257.635C201.829 257.703 201.066 257.875 200.471 258.153C199.906 258.408 199.469 258.775 199.159 259.253C198.874 259.736 198.681 260.311 198.578 260.979C198.425 261.982 198.596 262.836 199.093 263.544C199.619 264.23 200.576 264.679 201.964 264.891C203.943 265.195 205.559 264.943 206.814 264.136C208.069 263.328 208.826 262.077 209.086 260.38L209.429 258.145ZM215.202 273.589C215.883 273.956 216.582 274.195 217.302 274.305C218.124 274.431 218.788 274.309 219.291 273.939C219.817 273.599 220.387 272.884 221.001 271.794L222.136 269.798L216.671 249.075L220.565 249.672L224.449 266.286L232.592 251.515L236.293 252.083L224.236 272.566C223.739 273.411 223.259 274.14 222.797 274.753C222.33 275.391 221.842 275.921 221.33 276.343C220.818 276.764 220.236 277.043 219.584 277.18C218.953 277.346 218.201 277.362 217.327 277.229C216.711 277.134 216.164 277.011 215.687 276.859C215.211 276.707 214.693 276.483 214.133 276.187L215.202 273.589ZM259.623 273.137C258.631 274.116 257.548 274.832 256.375 275.283C255.205 275.709 253.887 275.809 252.422 275.585C250.957 275.36 249.727 274.895 248.73 274.19C247.759 273.489 246.997 272.623 246.445 271.591C245.897 270.534 245.555 269.337 245.417 268.001C245.28 266.665 245.324 265.264 245.548 263.799C245.801 262.154 246.233 260.708 246.845 259.461C247.461 258.187 248.212 257.145 249.099 256.334C250.012 255.527 251.046 254.962 252.2 254.639C253.38 254.32 254.664 254.267 256.052 254.48C257.105 254.641 258.138 255.023 259.151 255.626C260.167 256.202 261.047 257.153 261.791 258.477L263.328 248.454L266.681 248.968L262.463 276.492L259.186 275.99L259.623 273.137ZM260.843 265.433C261.088 263.84 261.097 262.579 260.871 261.65C260.675 260.699 260.226 259.854 259.523 259.115C259.029 258.566 258.5 258.156 257.936 257.886C257.399 257.619 256.783 257.433 256.089 257.326C255.266 257.2 254.474 257.224 253.711 257.396C252.974 257.572 252.286 257.94 251.648 258.5C251.039 259.038 250.504 259.785 250.042 260.74C249.609 261.673 249.285 262.846 249.068 264.26C248.844 265.725 248.809 266.982 248.964 268.031C249.144 269.085 249.446 269.947 249.869 270.617C250.319 271.29 250.845 271.805 251.448 272.161C252.077 272.52 252.738 272.753 253.432 272.859C254.177 272.973 254.859 272.986 255.478 272.897C256.096 272.807 256.735 272.589 257.393 272.243C258.258 271.745 258.955 271.062 259.482 270.196C260.035 269.334 260.42 268.196 260.637 266.783L260.843 265.433ZM270.71 257.358L274.026 257.866L273.553 260.95C274.467 259.959 275.471 259.245 276.564 258.808C277.657 258.37 278.769 258.238 279.9 258.411C280.594 258.518 281.177 258.66 281.649 258.837L280.747 261.895C280.498 261.804 280.246 261.726 279.993 261.661C279.744 261.57 279.466 261.501 279.157 261.454C278.54 261.36 277.893 261.379 277.215 261.512C276.541 261.619 275.882 261.886 275.238 262.313C274.598 262.715 274.061 263.211 273.629 263.803C273.222 264.398 272.953 265.119 272.823 265.968L271.009 277.802L267.655 277.288L270.71 257.358ZM284.905 259.534L288.259 260.048L285.204 279.978L281.85 279.464L284.905 259.534ZM285.953 251.922L289.538 252.471L288.941 256.365L285.356 255.815L285.953 251.922ZM291.173 260.495L295.067 261.091L298.522 278.192L307.056 262.929L310.757 263.496L299.683 282.197L296.098 281.648L291.173 260.495ZM327.87 280.797C327.241 282.673 326.147 284.057 324.59 284.95C323.059 285.846 321.008 286.097 318.438 285.703C315.405 285.239 313.219 283.97 311.88 281.897C310.544 279.798 310.129 277.104 310.633 273.815C310.897 272.093 311.363 270.599 312.03 269.334C312.697 268.068 313.511 267.049 314.472 266.275C315.458 265.506 316.564 264.978 317.792 264.693C319.023 264.382 320.32 264.331 321.682 264.54C323.224 264.776 324.51 265.223 325.54 265.881C326.57 266.538 327.365 267.357 327.925 268.337C328.515 269.296 328.886 270.392 329.039 271.625C329.218 272.862 329.199 274.188 328.982 275.601L328.722 277.297L313.919 275.028C313.765 276.031 313.75 276.989 313.873 277.902C314.026 278.793 314.297 279.598 314.687 280.315C315.106 281.01 315.661 281.595 316.351 282.069C317.041 282.543 317.875 282.855 318.851 283.005C320.522 283.261 321.79 283.14 322.655 282.641C323.525 282.117 324.184 281.336 324.632 280.3L327.87 280.797ZM325.752 274.278C325.898 273.327 325.927 272.45 325.84 271.648C325.752 270.845 325.532 270.14 325.177 269.534C324.827 268.901 324.329 268.378 323.682 267.963C323.036 267.548 322.224 267.266 321.247 267.116C319.474 266.845 318.004 267.172 316.836 268.097C315.694 269.027 314.875 270.506 314.38 272.535L325.752 274.278ZM353.183 287.596C352.329 288.36 351.301 288.978 350.097 289.451C348.898 289.899 347.475 289.996 345.831 289.744C344.828 289.591 343.923 289.32 343.114 288.933C342.327 288.576 341.663 288.106 341.121 287.523C340.608 286.918 340.242 286.218 340.023 285.421C339.803 284.625 339.77 283.725 339.923 282.723C340.132 281.361 340.584 280.299 341.279 279.538C342.001 278.78 342.874 278.23 343.9 277.888C344.951 277.549 346.097 277.37 347.336 277.349C348.575 277.329 349.841 277.391 351.134 277.537L354.583 277.947L354.701 277.176C354.961 275.48 354.788 274.204 354.183 273.348C353.578 272.493 352.466 271.941 350.846 271.693C349.253 271.449 348.042 271.539 347.214 271.965C346.39 272.364 345.792 273.009 345.419 273.899L342.426 273.085C343.066 271.316 344.13 270.124 345.618 269.51C347.11 268.871 349.025 268.731 351.364 269.089C352.803 269.31 353.983 269.675 354.905 270.184C355.856 270.672 356.591 271.284 357.109 272.021C357.627 272.758 357.942 273.622 358.053 274.612C358.19 275.607 358.168 276.695 357.987 277.877L356.002 290.83L352.763 290.333L353.183 287.596ZM354.217 280.337L350.999 279.962C349.629 279.805 348.479 279.76 347.548 279.828C346.617 279.896 345.854 280.068 345.259 280.345C344.694 280.6 344.256 280.967 343.946 281.446C343.662 281.928 343.468 282.504 343.366 283.172C343.212 284.174 343.384 285.029 343.88 285.736C344.407 286.422 345.363 286.871 346.751 287.084C348.73 287.387 350.347 287.135 351.602 286.328C352.857 285.521 353.614 284.269 353.874 282.573L354.217 280.337ZM384.609 292.295C383.617 293.274 382.534 293.989 381.36 294.44C380.19 294.866 378.873 294.967 377.408 294.742C375.943 294.518 374.712 294.053 373.716 293.348C372.745 292.646 371.983 291.78 371.431 290.748C370.883 289.691 370.54 288.494 370.403 287.158C370.266 285.822 370.31 284.421 370.534 282.957C370.786 281.312 371.218 279.866 371.83 278.618C372.446 277.345 373.198 276.302 374.085 275.491C374.998 274.684 376.031 274.119 377.186 273.797C378.366 273.478 379.649 273.425 381.037 273.637C382.091 273.799 383.124 274.181 384.136 274.783C385.153 275.36 386.033 276.31 386.777 277.634L388.313 267.611L391.667 268.125L387.448 295.65L384.172 295.147L384.609 292.295ZM385.829 284.591C386.073 282.997 386.082 281.736 385.857 280.807C385.66 279.857 385.211 279.012 384.509 278.273C384.015 277.724 383.486 277.314 382.922 277.043C382.384 276.777 381.768 276.59 381.074 276.484C380.252 276.358 379.459 276.381 378.696 276.553C377.959 276.73 377.272 277.098 376.633 277.658C376.025 278.196 375.49 278.942 375.028 279.897C374.595 280.83 374.271 282.004 374.054 283.417C373.829 284.882 373.795 286.139 373.949 287.189C374.13 288.242 374.432 289.104 374.855 289.774C375.304 290.448 375.83 290.962 376.433 291.318C377.062 291.677 377.724 291.91 378.417 292.017C379.163 292.131 379.845 292.143 380.463 292.054C381.082 291.965 381.72 291.747 382.379 291.401C383.244 290.902 383.94 290.22 384.468 289.353C385.021 288.491 385.406 287.353 385.622 285.94L385.829 284.591ZM410.73 293.497C410.1 295.373 409.007 296.758 407.449 297.65C405.918 298.546 403.867 298.798 401.297 298.404C398.265 297.939 396.079 296.67 394.739 294.597C393.404 292.499 392.988 289.805 393.492 286.515C393.756 284.793 394.222 283.299 394.889 282.034C395.557 280.768 396.371 279.749 397.331 278.976C398.317 278.206 399.424 277.679 400.651 277.393C401.882 277.082 403.179 277.031 404.541 277.24C406.083 277.476 407.369 277.923 408.4 278.581C409.43 279.239 410.225 280.058 410.785 281.038C411.375 281.996 411.746 283.092 411.899 284.325C412.077 285.563 412.058 286.888 411.842 288.302L411.582 289.998L396.778 287.729C396.625 288.731 396.61 289.689 396.733 290.602C396.885 291.494 397.157 292.298 397.546 293.015C397.966 293.711 398.521 294.296 399.211 294.77C399.901 295.244 400.734 295.556 401.711 295.705C403.381 295.961 404.649 295.84 405.515 295.341C406.384 294.817 407.043 294.037 407.491 293.001L410.73 293.497ZM408.612 286.978C408.758 286.027 408.787 285.15 408.699 284.348C408.612 283.545 408.391 282.841 408.037 282.234C407.687 281.602 407.188 281.078 406.542 280.664C405.895 280.249 405.083 279.967 404.107 279.817C402.333 279.545 400.863 279.872 399.695 280.798C398.553 281.727 397.735 283.207 397.24 285.235L408.612 286.978ZM417.677 294.325C417.696 295.749 418.125 296.814 418.963 297.521C419.831 298.207 421.075 298.673 422.694 298.921C424.39 299.181 425.629 299.082 426.409 298.623C427.219 298.142 427.697 297.426 427.843 296.475C427.902 296.09 427.906 295.722 427.854 295.372C427.832 295.001 427.713 294.667 427.495 294.37C427.281 294.048 426.959 293.749 426.528 293.472C426.097 293.196 425.518 292.936 424.793 292.694L422.308 291.918C421.204 291.565 420.25 291.182 419.446 290.769C418.641 290.357 417.976 289.886 417.452 289.359C416.932 288.806 416.567 288.184 416.357 287.495C416.177 286.783 416.158 285.965 416.299 285.039C416.441 284.114 416.76 283.321 417.256 282.661C417.777 282.004 418.422 281.485 419.191 281.103C419.99 280.699 420.884 280.442 421.874 280.331C422.894 280.198 423.97 280.218 425.1 280.391C426.539 280.612 427.713 280.936 428.62 281.365C429.554 281.797 430.291 282.305 430.833 282.888C431.375 283.47 431.762 284.122 431.994 284.841C432.225 285.56 432.374 286.306 432.44 287.079L429.317 287.114C429.22 286.546 429.088 286.039 428.919 285.593C428.751 285.146 428.494 284.765 428.148 284.449C427.806 284.107 427.362 283.828 426.816 283.613C426.3 283.376 425.631 283.195 424.808 283.069C423.883 282.927 423.098 282.899 422.454 282.984C421.813 283.044 421.279 283.185 420.85 283.409C420.447 283.637 420.141 283.918 419.931 284.255C419.726 284.565 419.594 284.913 419.535 285.299C419.472 285.71 419.466 286.09 419.517 286.44C419.573 286.764 419.722 287.077 419.966 287.377C420.213 287.651 420.567 287.916 421.028 288.171C421.488 288.426 422.094 288.676 422.846 288.923L425.666 289.829C427.946 290.573 429.514 291.497 430.37 292.602C431.252 293.71 431.554 295.177 431.274 297.001C431.144 297.849 430.857 298.608 430.412 299.276C429.972 299.919 429.376 300.459 428.625 300.896C427.878 301.308 426.982 301.578 425.936 301.707C424.887 301.862 423.694 301.837 422.358 301.632C421.15 301.447 420.037 301.158 419.018 300.765C418.026 300.376 417.169 299.876 416.447 299.266C415.729 298.63 415.189 297.863 414.827 296.966C414.464 296.069 414.335 295.023 414.439 293.829L417.677 294.325ZM437.899 282.984L441.253 283.498L438.198 303.429L434.844 302.914L437.899 282.984ZM438.948 275.372L442.533 275.922L441.936 279.815L438.351 279.266L438.948 275.372ZM446.535 306.6C446.632 307.851 447.04 308.795 447.758 309.431C448.501 310.071 449.734 310.523 451.456 310.787C453.563 311.11 455.106 310.742 456.084 309.682C457.084 308.651 457.755 307.018 458.098 304.782L458.423 302.662C457.486 303.623 456.42 304.314 455.224 304.736C454.054 305.162 452.737 305.262 451.272 305.038C449.833 304.817 448.613 304.367 447.612 303.688C446.641 302.987 445.878 302.133 445.322 301.127C444.77 300.096 444.406 298.948 444.232 297.685C444.083 296.426 444.115 295.103 444.327 293.715C444.56 292.199 444.976 290.855 445.576 289.685C446.181 288.488 446.935 287.512 447.84 286.757C448.749 285.976 449.781 285.423 450.935 285.101C452.115 284.782 453.386 284.727 454.748 284.935C455.853 285.105 456.91 285.504 457.918 286.132C458.956 286.738 459.833 287.714 460.547 289.06L460.937 286.515L464.252 287.024L461.694 303.716C461.43 305.437 461.065 306.96 460.599 308.282C460.155 309.635 459.526 310.735 458.712 311.584C457.92 312.462 456.906 313.069 455.671 313.406C454.436 313.743 452.906 313.771 451.081 313.492C448.46 313.09 446.477 312.299 445.132 311.12C443.783 309.966 443.145 308.29 443.219 306.092L446.535 306.6ZM459.563 295.735C459.764 294.424 459.777 293.308 459.603 292.387C459.432 291.44 459.121 290.643 458.668 289.995C458.214 289.347 457.646 288.852 456.962 288.51C456.307 288.147 455.595 287.906 454.824 287.788C454.001 287.662 453.208 287.685 452.446 287.857C451.712 288.008 451.03 288.337 450.4 288.846C449.796 289.358 449.268 290.053 448.818 290.931C448.393 291.813 448.081 292.909 447.88 294.22C447.675 295.556 447.656 296.711 447.822 297.683C448.015 298.66 448.325 299.47 448.752 300.114C449.179 300.758 449.707 301.26 450.336 301.62C450.991 301.983 451.665 302.218 452.359 302.324C453.232 302.458 454.051 302.439 454.814 302.266C455.602 302.098 456.31 301.772 456.936 301.29C457.563 300.807 458.095 300.165 458.533 299.365C458.976 298.538 459.286 297.546 459.463 296.39L459.563 295.735ZM469.407 287.814L472.723 288.322L472.256 291.367C473.433 290.206 474.656 289.434 475.925 289.049C477.194 288.665 478.484 288.574 479.795 288.775C482.056 289.121 483.632 289.994 484.522 291.393C485.438 292.796 485.713 294.693 485.347 297.083L483.314 310.344L479.961 309.83L481.893 297.224C482.176 295.374 482.041 294.024 481.487 293.177C480.937 292.303 479.968 291.76 478.58 291.548C477.835 291.433 477.07 291.448 476.285 291.59C475.527 291.737 474.808 292.048 474.13 292.523C473.401 292.99 472.82 293.519 472.388 294.11C471.959 294.675 471.668 295.459 471.514 296.462L469.706 308.258L466.352 307.744L469.407 287.814ZM506.426 308.165C505.797 310.042 504.704 311.426 503.146 312.318C501.615 313.215 499.564 313.466 496.994 313.072C493.962 312.607 491.776 311.338 490.436 309.265C489.101 307.167 488.685 304.473 489.189 301.183C489.453 299.461 489.919 297.968 490.586 296.702C491.254 295.437 492.068 294.417 493.028 293.644C494.014 292.874 495.121 292.347 496.348 292.061C497.579 291.75 498.876 291.699 500.238 291.908C501.78 292.144 503.066 292.591 504.096 293.249C505.127 293.907 505.922 294.726 506.482 295.706C507.071 296.664 507.443 297.76 507.595 298.994C507.774 300.231 507.755 301.556 507.538 302.97L507.278 304.666L492.475 302.397C492.322 303.399 492.306 304.357 492.429 305.27C492.582 306.162 492.853 306.966 493.243 307.683C493.663 308.379 494.217 308.964 494.908 309.438C495.598 309.912 496.431 310.224 497.408 310.373C499.078 310.629 500.346 310.508 501.212 310.01C502.081 309.485 502.74 308.705 503.188 307.669L506.426 308.165ZM504.309 301.646C504.454 300.695 504.484 299.819 504.396 299.016C504.309 298.214 504.088 297.509 503.734 296.902C503.384 296.27 502.885 295.746 502.238 295.332C501.592 294.917 500.78 294.635 499.804 294.485C498.03 294.213 496.56 294.54 495.392 295.466C494.25 296.396 493.431 297.875 492.936 299.903L504.309 301.646ZM513.378 294.553L516.693 295.062L516.221 298.146C517.135 297.155 518.139 296.44 519.232 296.003C520.325 295.566 521.437 295.433 522.568 295.607C523.262 295.713 523.845 295.855 524.317 296.033L523.415 299.09C523.165 299 522.914 298.922 522.661 298.857C522.412 298.766 522.133 298.697 521.825 298.649C521.208 298.555 520.561 298.574 519.883 298.707C519.209 298.814 518.55 299.081 517.906 299.509C517.265 299.91 516.729 300.407 516.296 300.998C515.89 301.593 515.621 302.315 515.491 303.163L513.677 314.998L510.323 314.484L513.378 294.553ZM528.775 289.141L532.322 289.684L529.041 297.704L526.342 297.29L528.775 289.141ZM535.51 312.386C535.529 313.81 535.957 314.875 536.796 315.582C537.664 316.268 538.908 316.734 540.527 316.983C542.223 317.243 543.461 317.143 544.242 316.684C545.052 316.203 545.53 315.487 545.676 314.536C545.735 314.151 545.739 313.783 545.687 313.433C545.665 313.062 545.545 312.728 545.328 312.431C545.114 312.109 544.792 311.81 544.361 311.533C543.93 311.257 543.351 310.997 542.626 310.755L540.14 309.979C539.037 309.626 538.083 309.243 537.279 308.83C536.474 308.418 535.809 307.947 535.285 307.42C534.765 306.867 534.4 306.245 534.19 305.556C534.01 304.844 533.991 304.026 534.132 303.1C534.274 302.175 534.593 301.382 535.089 300.722C535.61 300.065 536.255 299.546 537.024 299.164C537.822 298.76 538.717 298.503 539.707 298.392C540.727 298.259 541.802 298.279 542.933 298.452C544.372 298.673 545.546 298.997 546.453 299.426C547.387 299.858 548.124 300.366 548.666 300.949C549.208 301.531 549.595 302.183 549.827 302.902C550.058 303.621 550.207 304.367 550.273 305.14L547.15 305.175C547.053 304.607 546.92 304.1 546.752 303.654C546.584 303.207 546.327 302.826 545.981 302.51C545.638 302.168 545.194 301.889 544.649 301.674C544.133 301.437 543.463 301.256 542.641 301.13C541.716 300.988 540.931 300.96 540.287 301.045C539.646 301.105 539.112 301.246 538.683 301.47C538.28 301.698 537.973 301.979 537.764 302.316C537.559 302.626 537.426 302.974 537.367 303.36C537.304 303.771 537.299 304.151 537.35 304.501C537.406 304.825 537.555 305.138 537.798 305.438C538.046 305.713 538.4 305.977 538.86 306.232C539.321 306.487 539.927 306.737 540.678 306.984L543.499 307.89C545.778 308.634 547.346 309.558 548.203 310.663C549.085 311.771 549.387 313.238 549.107 315.062C548.977 315.91 548.69 316.669 548.245 317.337C547.805 317.98 547.209 318.52 546.458 318.957C545.711 319.369 544.815 319.639 543.769 319.768C542.72 319.923 541.527 319.898 540.19 319.693C538.982 319.508 537.869 319.219 536.851 318.826C535.859 318.437 535.001 317.937 534.28 317.327C533.562 316.691 533.022 315.924 532.659 315.027C532.297 314.13 532.168 313.084 532.272 311.89L535.51 312.386ZM144.118 288.538L147.472 289.052L144.417 308.983L141.063 308.469L144.118 288.538ZM145.166 280.926L148.751 281.476L148.155 285.369L144.57 284.82L145.166 280.926ZM152.7 289.854L156.015 290.362L155.548 293.407C156.725 292.246 157.949 291.474 159.218 291.089C160.486 290.705 161.776 290.614 163.087 290.815C165.348 291.161 166.924 292.034 167.815 293.433C168.731 294.836 169.006 296.733 168.639 299.123L166.607 312.384L163.253 311.87L165.185 299.264C165.469 297.414 165.333 296.065 164.779 295.217C164.229 294.343 163.26 293.8 161.873 293.588C161.127 293.473 160.362 293.488 159.578 293.63C158.819 293.777 158.1 294.088 157.423 294.563C156.693 295.03 156.113 295.559 155.68 296.15C155.251 296.716 154.96 297.499 154.807 298.502L152.999 310.298L149.645 309.784L152.7 289.854ZM175.434 296.061L172.35 295.588L172.757 292.928L175.841 293.401L176.675 287.965L180.028 288.479L179.195 293.915L184.477 294.724L184.069 297.384L178.788 296.575L176.997 308.255C176.848 309.232 176.946 310.049 177.292 310.707C177.638 311.365 178.261 311.763 179.161 311.901C179.726 311.988 180.22 312.024 180.643 312.01C181.092 312 181.506 311.958 181.886 311.885L182.068 314.556C181.527 314.658 180.939 314.712 180.307 314.72C179.696 314.758 178.98 314.714 178.157 314.588C177.026 314.415 176.14 314.108 175.497 313.668C174.854 313.227 174.375 312.667 174.058 311.987C173.741 311.307 173.571 310.532 173.547 309.66C173.548 308.792 173.626 307.857 173.779 306.855L175.434 296.061ZM202.518 312.167C201.889 314.043 200.795 315.428 199.238 316.32C197.707 317.216 195.656 317.468 193.086 317.074C190.054 316.609 187.868 315.34 186.528 313.267C185.193 311.169 184.777 308.475 185.281 305.185C185.545 303.463 186.011 301.969 186.678 300.704C187.346 299.438 188.16 298.419 189.12 297.646C190.106 296.876 191.212 296.349 192.44 296.063C193.671 295.752 194.968 295.701 196.33 295.91C197.872 296.146 199.158 296.593 200.188 297.251C201.219 297.909 202.014 298.728 202.574 299.708C203.163 300.666 203.535 301.762 203.687 302.995C203.866 304.233 203.847 305.558 203.63 306.972L203.37 308.668L188.567 306.399C188.414 307.401 188.398 308.359 188.521 309.272C188.674 310.164 188.945 310.968 189.335 311.685C189.755 312.381 190.309 312.966 191 313.44C191.69 313.914 192.523 314.226 193.5 314.375C195.17 314.631 196.438 314.51 197.304 314.011C198.173 313.487 198.832 312.707 199.28 311.671L202.518 312.167ZM200.401 305.648C200.546 304.697 200.576 303.82 200.488 303.018C200.401 302.215 200.18 301.511 199.826 300.904C199.475 300.272 198.977 299.748 198.33 299.334C197.684 298.919 196.872 298.637 195.896 298.487C194.122 298.215 192.652 298.542 191.484 299.468C190.342 300.398 189.523 301.877 189.028 303.905L200.401 305.648ZM209.47 298.555L212.785 299.063L212.313 302.147C213.227 301.157 214.231 300.442 215.324 300.005C216.417 299.567 217.529 299.435 218.66 299.609C219.353 299.715 219.937 299.857 220.409 300.035L219.507 303.092C219.257 303.001 219.006 302.924 218.753 302.858C218.504 302.768 218.225 302.699 217.917 302.651C217.3 302.557 216.653 302.576 215.975 302.709C215.301 302.816 214.642 303.083 213.998 303.51C213.357 303.912 212.821 304.409 212.388 305C211.982 305.595 211.713 306.317 211.583 307.165L209.769 319L206.415 318.486L209.47 298.555ZM237.454 317.522C236.825 319.398 235.731 320.783 234.174 321.675C232.643 322.571 230.592 322.823 228.022 322.429C224.989 321.964 222.803 320.695 221.464 318.622C220.128 316.524 219.713 313.829 220.217 310.54C220.481 308.818 220.947 307.324 221.614 306.059C222.281 304.793 223.095 303.774 224.056 303C225.042 302.231 226.148 301.703 227.376 301.418C228.607 301.107 229.904 301.056 231.266 301.265C232.808 301.501 234.094 301.948 235.124 302.606C236.154 303.264 236.949 304.082 237.509 305.063C238.099 306.021 238.47 307.117 238.623 308.35C238.802 309.588 238.783 310.913 238.566 312.327L238.306 314.023L223.503 311.754C223.349 312.756 223.334 313.714 223.457 314.627C223.61 315.518 223.881 316.323 224.271 317.04C224.69 317.736 225.245 318.321 225.935 318.795C226.625 319.269 227.459 319.58 228.435 319.73C230.106 319.986 231.374 319.865 232.239 319.366C233.109 318.842 233.768 318.062 234.216 317.026L237.454 317.522ZM235.336 311.003C235.482 310.052 235.511 309.175 235.424 308.373C235.336 307.57 235.116 306.866 234.761 306.259C234.411 305.627 233.913 305.103 233.266 304.688C232.62 304.274 231.808 303.991 230.831 303.842C229.058 303.57 227.588 303.897 226.42 304.823C225.278 305.752 224.459 307.231 223.964 309.26L235.336 311.003ZM244.402 318.35C244.421 319.773 244.849 320.839 245.688 321.546C246.556 322.231 247.799 322.698 249.419 322.946C251.115 323.206 252.353 323.107 253.134 322.648C253.944 322.167 254.422 321.451 254.568 320.5C254.627 320.115 254.63 319.747 254.579 319.397C254.557 319.026 254.437 318.692 254.22 318.395C254.006 318.073 253.683 317.774 253.252 317.497C252.821 317.221 252.243 316.961 251.517 316.718L249.032 315.943C247.929 315.59 246.975 315.207 246.17 314.794C245.365 314.381 244.701 313.911 244.177 313.384C243.657 312.831 243.292 312.209 243.082 311.519C242.901 310.808 242.882 309.989 243.024 309.064C243.166 308.139 243.485 307.346 243.98 306.686C244.502 306.029 245.147 305.51 245.916 305.128C246.714 304.724 247.608 304.467 248.599 304.356C249.619 304.223 250.694 304.243 251.825 304.416C253.264 304.637 254.437 304.961 255.345 305.39C256.278 305.822 257.016 306.33 257.558 306.912C258.1 307.495 258.487 308.146 258.718 308.866C258.95 309.585 259.099 310.331 259.164 311.104L256.042 311.139C255.945 310.571 255.812 310.064 255.644 309.618C255.476 309.171 255.218 308.79 254.872 308.474C254.53 308.132 254.086 307.853 253.54 307.638C253.024 307.401 252.355 307.22 251.533 307.094C250.608 306.952 249.823 306.924 249.178 307.009C248.538 307.069 248.003 307.21 247.575 307.434C247.171 307.661 246.865 307.943 246.656 308.279C246.45 308.59 246.318 308.938 246.259 309.323C246.196 309.735 246.19 310.115 246.242 310.465C246.297 310.789 246.447 311.101 246.69 311.402C246.937 311.676 247.291 311.941 247.752 312.196C248.213 312.451 248.819 312.701 249.57 312.948L252.391 313.854C254.67 314.598 256.238 315.522 257.095 316.626C257.977 317.735 258.278 319.201 257.999 321.026C257.869 321.874 257.581 322.632 257.137 323.301C256.697 323.944 256.101 324.484 255.35 324.921C254.603 325.332 253.707 325.603 252.661 325.732C251.611 325.887 250.418 325.861 249.082 325.657C247.874 325.472 246.761 325.183 245.743 324.79C244.75 324.401 243.893 323.901 243.171 323.291C242.453 322.655 241.913 321.888 241.551 320.991C241.189 320.094 241.06 319.048 241.164 317.854L244.402 318.35ZM265.295 309.834L262.211 309.362L262.619 306.702L265.703 307.174L266.536 301.739L269.89 302.253L269.057 307.689L274.338 308.498L273.931 311.158L268.649 310.348L266.859 322.029C266.709 323.006 266.807 323.823 267.154 324.481C267.5 325.139 268.123 325.537 269.022 325.675C269.588 325.762 270.082 325.798 270.505 325.784C270.954 325.774 271.368 325.732 271.747 325.659L271.93 328.33C271.388 328.431 270.801 328.486 270.169 328.494C269.558 328.532 268.841 328.488 268.019 328.362C266.888 328.189 266.001 327.882 265.359 327.441C264.716 327.001 264.236 326.441 263.92 325.761C263.603 325.081 263.432 324.305 263.408 323.434C263.41 322.566 263.487 321.631 263.641 320.628L265.295 309.834ZM286.571 310.373L289.925 310.887L286.87 330.817L283.517 330.303L286.571 310.373ZM287.62 302.761L291.205 303.311L290.608 307.204L287.023 306.655L287.62 302.761ZM295.153 311.688L298.468 312.197L298.002 315.242C299.179 314.081 300.402 313.308 301.671 312.924C302.94 312.54 304.23 312.448 305.54 312.649C307.802 312.996 309.378 313.869 310.268 315.268C311.184 316.671 311.459 318.567 311.093 320.957L309.06 334.219L305.706 333.705L307.638 321.099C307.922 319.248 307.787 317.899 307.233 317.052C306.683 316.178 305.714 315.635 304.326 315.422C303.581 315.308 302.816 315.322 302.031 315.465C301.272 315.612 300.554 315.923 299.876 316.397C299.147 316.864 298.566 317.393 298.134 317.985C297.705 318.55 297.414 319.334 297.26 320.337L295.452 332.133L292.098 331.619L295.153 311.688ZM326.471 319.211L323.387 318.738L323.794 316.079L326.878 316.551L327.711 311.116L331.065 311.63L330.232 317.065L335.513 317.875L335.106 320.535L329.824 319.725L328.034 331.406C327.884 332.382 327.983 333.2 328.329 333.858C328.675 334.516 329.298 334.914 330.198 335.052C330.763 335.138 331.257 335.175 331.68 335.161C332.129 335.15 332.543 335.109 332.923 335.035L333.105 337.707C332.563 337.808 331.976 337.863 331.344 337.871C330.733 337.909 330.016 337.865 329.194 337.739C328.063 337.565 327.176 337.258 326.534 336.818C325.891 336.378 325.411 335.817 325.095 335.138C324.778 334.458 324.608 333.682 324.583 332.81C324.585 331.942 324.663 331.007 324.816 330.005L326.471 319.211ZM340.25 310.828L343.604 311.342L341.985 321.905C343.155 320.795 344.361 320.046 345.604 319.658C346.873 319.274 348.163 319.182 349.474 319.383C351.735 319.73 353.311 320.603 354.201 322.002C355.117 323.405 355.392 325.301 355.026 327.691L352.993 340.953L349.601 340.433L351.533 327.827C351.817 325.976 351.682 324.627 351.128 323.78C350.603 322.91 349.647 322.369 348.259 322.156C347.514 322.042 346.749 322.056 345.964 322.199C345.205 322.346 344.487 322.657 343.809 323.131C343.08 323.598 342.499 324.127 342.067 324.719C341.638 325.284 341.347 326.068 341.193 327.07L339.385 338.867L336.031 338.353L340.25 310.828ZM376.105 338.774C375.476 340.65 374.382 342.035 372.825 342.927C371.294 343.823 369.243 344.075 366.673 343.681C363.64 343.216 361.455 341.947 360.115 339.874C358.78 337.776 358.364 335.081 358.868 331.792C359.132 330.07 359.598 328.576 360.265 327.311C360.933 326.045 361.747 325.026 362.707 324.252C363.693 323.483 364.799 322.955 366.027 322.67C367.258 322.359 368.555 322.308 369.917 322.517C371.459 322.753 372.745 323.2 373.775 323.858C374.806 324.516 375.601 325.334 376.161 326.315C376.75 327.273 377.122 328.369 377.274 329.602C377.453 330.84 377.434 332.165 377.217 333.579L376.957 335.275L362.154 333.006C362.001 334.008 361.985 334.966 362.108 335.879C362.261 336.77 362.532 337.575 362.922 338.292C363.342 338.988 363.896 339.573 364.587 340.047C365.277 340.521 366.11 340.832 367.087 340.982C368.757 341.238 370.025 341.117 370.891 340.618C371.76 340.094 372.419 339.314 372.867 338.278L376.105 338.774ZM373.988 332.255C374.133 331.304 374.163 330.427 374.075 329.625C373.988 328.822 373.767 328.118 373.413 327.511C373.062 326.879 372.564 326.355 371.917 325.94C371.271 325.526 370.459 325.243 369.483 325.094C367.709 324.822 366.239 325.149 365.071 326.075C363.929 327.004 363.11 328.483 362.615 330.512L373.988 332.255ZM391.694 348.778C391.792 350.03 392.2 350.973 392.918 351.609C393.661 352.249 394.894 352.701 396.616 352.965C398.723 353.288 400.266 352.92 401.244 351.86C402.243 350.829 402.915 349.196 403.257 346.96L403.582 344.84C402.646 345.801 401.58 346.493 400.384 346.914C399.214 347.34 397.897 347.441 396.432 347.216C394.993 346.995 393.773 346.545 392.772 345.866C391.801 345.165 391.038 344.311 390.482 343.305C389.929 342.274 389.566 341.127 389.391 339.864C389.242 338.604 389.274 337.281 389.487 335.893C389.719 334.377 390.136 333.033 390.736 331.863C391.34 330.667 392.095 329.691 393 328.935C393.909 328.154 394.94 327.602 396.094 327.279C397.274 326.96 398.545 326.905 399.908 327.114C401.013 327.283 402.069 327.682 403.078 328.31C404.116 328.916 404.992 329.892 405.707 331.238L406.097 328.694L409.412 329.202L406.853 345.894C406.589 347.616 406.225 349.138 405.759 350.461C405.315 351.813 404.686 352.913 403.872 353.762C403.08 354.64 402.066 355.247 400.831 355.584C399.595 355.921 398.065 355.949 396.241 355.67C393.619 355.268 391.636 354.477 390.291 353.298C388.943 352.144 388.305 350.468 388.379 348.27L391.694 348.778ZM404.723 337.913C404.924 336.602 404.937 335.486 404.763 334.565C404.592 333.618 404.28 332.821 403.827 332.173C403.374 331.525 402.806 331.03 402.122 330.688C401.467 330.325 400.754 330.084 399.983 329.966C399.161 329.84 398.368 329.863 397.605 330.036C396.872 330.186 396.19 330.516 395.56 331.024C394.955 331.536 394.428 332.231 393.978 333.109C393.553 333.991 393.24 335.088 393.04 336.398C392.835 337.735 392.816 338.889 392.982 339.862C393.174 340.838 393.484 341.648 393.912 342.292C394.339 342.937 394.867 343.438 395.496 343.798C396.15 344.161 396.825 344.396 397.518 344.502C398.392 344.636 399.211 344.617 399.974 344.445C400.762 344.276 401.47 343.951 402.096 343.468C402.722 342.985 403.255 342.344 403.693 341.543C404.135 340.716 404.445 339.725 404.623 338.568L404.723 337.913ZM414.567 329.992L417.882 330.5L417.41 333.584C418.324 332.593 419.328 331.879 420.421 331.442C421.514 331.004 422.626 330.872 423.757 331.045C424.45 331.152 425.034 331.294 425.506 331.471L424.603 334.529C424.354 334.438 424.103 334.36 423.85 334.295C423.601 334.204 423.322 334.135 423.014 334.088C422.397 333.993 421.75 334.013 421.072 334.145C420.398 334.252 419.739 334.52 419.095 334.947C418.454 335.349 417.918 335.845 417.485 336.436C417.078 337.032 416.81 337.753 416.68 338.601L414.866 350.436L411.512 349.922L414.567 329.992ZM428.761 332.168L432.115 332.682L429.06 352.612L425.707 352.098L428.761 332.168ZM429.81 324.556L433.395 325.105L432.798 328.999L429.213 328.449L429.81 324.556ZM449.22 352.782C448.228 353.761 447.146 354.476 445.972 354.928C444.802 355.353 443.484 355.454 442.019 355.229C440.554 355.005 439.324 354.54 438.327 353.835C437.356 353.134 436.594 352.267 436.042 351.236C435.494 350.179 435.152 348.982 435.014 347.646C434.877 346.309 434.921 344.909 435.145 343.444C435.398 341.799 435.83 340.353 436.442 339.105C437.058 337.832 437.809 336.79 438.697 335.979C439.609 335.172 440.643 334.607 441.797 334.284C442.977 333.965 444.261 333.912 445.649 334.125C446.702 334.286 447.735 334.668 448.748 335.27C449.764 335.847 450.644 336.797 451.388 338.121L452.925 328.098L456.279 328.613L452.06 356.137L448.783 355.635L449.22 352.782ZM450.44 345.078C450.685 343.485 450.694 342.224 450.468 341.295C450.272 340.344 449.823 339.499 449.12 338.76C448.626 338.211 448.097 337.801 447.533 337.531C446.996 337.264 446.38 337.078 445.686 336.971C444.863 336.845 444.071 336.868 443.308 337.041C442.571 337.217 441.883 337.585 441.245 338.145C440.636 338.683 440.101 339.429 439.639 340.384C439.207 341.318 438.882 342.491 438.665 343.905C438.441 345.369 438.406 346.627 438.561 347.676C438.741 348.73 439.043 349.591 439.466 350.261C439.916 350.935 440.442 351.45 441.045 351.805C441.674 352.165 442.335 352.398 443.029 352.504C443.774 352.618 444.456 352.631 445.075 352.541C445.693 352.452 446.332 352.234 446.99 351.888C447.855 351.389 448.552 350.707 449.079 349.841C449.632 348.979 450.017 347.841 450.234 346.427L450.44 345.078ZM457.751 352.393L461.606 352.984L460.915 357.494L457.06 356.903L457.751 352.393Z" fill="white"/>
</svg>
