<svg width="46" height="46" viewBox="0 0 46 46" fill="none" xmlns="http://www.w3.org/2000/svg">
<path d="M21.8841 26.756L27.3828 21.2847C27.4245 21.2342 27.45 21.1722 27.4557 21.1069V3.08794C27.4646 2.38835 27.2331 1.7069 26.7999 1.15751C26.3667 0.608115 25.7581 0.224073 25.0757 0.0695815C24.6368 -0.0265448 24.182 -0.0230312 23.7447 0.0798637C23.3073 0.182759 22.8986 0.382415 22.5487 0.664138C22.1987 0.945861 21.9164 1.30248 21.7225 1.70774C21.5285 2.113 21.428 2.5566 21.4281 3.00587V26.5782C21.4125 26.6368 21.419 26.699 21.4464 26.753C21.4738 26.8071 21.5201 26.8491 21.5766 26.8711C21.633 26.8931 21.6956 26.8936 21.7523 26.8723C21.809 26.8511 21.856 26.8097 21.8841 26.756Z" fill="black"/>
<path d="M30.3829 18.2437L35.95 12.6811V6.9727C35.9604 6.27478 35.7312 5.59439 35.3005 5.04508C34.8699 4.49577 34.2639 4.11077 33.5836 3.95435C33.1451 3.8583 32.6907 3.86173 32.2537 3.96437C31.8167 4.06701 31.4083 4.26626 31.0584 4.54747C30.7085 4.82869 30.4261 5.18473 30.2319 5.58942C30.0376 5.99412 29.9366 6.43719 29.9361 6.88607V18.0476C29.926 18.1031 29.9349 18.1604 29.9613 18.2102C29.9878 18.2601 30.0303 18.2995 30.082 18.3222C30.1337 18.3448 30.1915 18.3494 30.2461 18.3352C30.3007 18.3209 30.3489 18.2887 30.3829 18.2437Z" fill="black"/>
<path d="M35.5077 29.6011L20.5163 44.6291C20.4755 44.6645 20.4467 44.7117 20.434 44.7642C20.4212 44.8166 20.4252 44.8718 20.4452 44.9219C20.4653 44.9721 20.5005 45.0147 20.5459 45.044C20.5913 45.0732 20.6447 45.0875 20.6986 45.085H30.547C31.9797 45.079 33.3519 44.5066 34.3641 43.4927C35.3763 42.4787 35.9464 41.1056 35.95 39.6729V29.7835C35.9495 29.7325 35.9339 29.6828 35.9053 29.6406C35.8767 29.5983 35.8363 29.5654 35.7892 29.546C35.742 29.5266 35.6902 29.5214 35.6402 29.5312C35.5901 29.541 35.5441 29.5653 35.5077 29.6011Z" fill="black"/>
<path d="M15.7835 32.5283C15.8061 32.5522 15.8333 32.5712 15.8635 32.5842C15.8937 32.5972 15.9262 32.6039 15.959 32.6039C15.9919 32.6039 16.0244 32.5972 16.0546 32.5842C16.0848 32.5712 16.112 32.5522 16.1346 32.5283L18.8703 29.7926L18.9432 29.6148V6.38896C18.9462 5.99443 18.8713 5.60319 18.7226 5.23772C18.574 4.87224 18.3546 4.53972 18.0771 4.25926C17.7996 3.9788 17.4695 3.75592 17.1056 3.60341C16.7417 3.45091 16.3513 3.3718 15.9568 3.37061C15.5615 3.37059 15.1701 3.44883 14.8051 3.60079C14.4402 3.75275 14.1089 3.97545 13.8305 4.25603C13.552 4.53661 13.3318 4.86954 13.1827 5.23561C13.0335 5.60168 12.9582 5.99367 12.9612 6.38896V29.5966L13.0342 29.7744L15.7835 32.5283Z" fill="black"/>
<path d="M45.4473 15.1977L44.4579 14.2083C44.0608 13.8108 43.5892 13.4955 43.0701 13.2804C42.551 13.0653 41.9946 12.9546 41.4328 12.9546C40.8709 12.9546 40.3145 13.0653 39.7954 13.2804C39.2763 13.4955 38.8047 13.8108 38.4076 14.2083L16.1438 36.6134C16.0961 36.6597 16.0323 36.6855 15.9659 36.6855C15.8995 36.6855 15.8358 36.6597 15.7881 36.6134L7.10236 27.8866C6.30293 27.0876 5.21888 26.6387 4.08856 26.6387C2.95824 26.6387 1.87419 27.0876 1.07476 27.8866L0.0716843 28.8897C0.0257366 28.9366 0 28.9996 0 29.0653C0 29.1309 0.0257366 29.1939 0.0716843 29.2408L15.7881 44.9983C15.8111 45.0223 15.8387 45.0414 15.8693 45.0544C15.8998 45.0675 15.9327 45.0742 15.9659 45.0742C15.9992 45.0742 16.032 45.0675 16.0626 45.0544C16.0932 45.0414 16.1208 45.0223 16.1438 44.9983L45.4473 15.5533C45.4713 15.5303 45.4904 15.5027 45.5035 15.4722C45.5165 15.4416 45.5233 15.4087 45.5233 15.3755C45.5233 15.3423 45.5165 15.3094 45.5035 15.2788C45.4904 15.2483 45.4713 15.2207 45.4473 15.1977Z" fill="white"/>
</svg>
