<svg width="170" height="46" viewBox="0 0 170 46" fill="none" xmlns="http://www.w3.org/2000/svg">
<path d="M21.8841 26.756L27.3828 21.2847C27.4245 21.2342 27.45 21.1722 27.4557 21.1069V3.08794C27.4646 2.38835 27.2331 1.7069 26.7999 1.15751C26.3667 0.608115 25.7581 0.224073 25.0757 0.0695815C24.6368 -0.0265448 24.182 -0.0230312 23.7447 0.0798637C23.3073 0.182759 22.8986 0.382415 22.5487 0.664138C22.1987 0.945861 21.9164 1.30248 21.7225 1.70774C21.5285 2.113 21.428 2.5566 21.4281 3.00587V26.5782C21.4125 26.6368 21.419 26.699 21.4464 26.753C21.4738 26.8071 21.5201 26.8491 21.5766 26.8711C21.633 26.8931 21.6956 26.8936 21.7523 26.8723C21.809 26.8511 21.856 26.8097 21.8841 26.756Z" fill="black"/>
<path d="M30.3829 18.2436L35.95 12.6811V6.97264C35.9604 6.27472 35.7312 5.59433 35.3005 5.04502C34.8699 4.49571 34.2639 4.11071 33.5836 3.95429C33.1451 3.85824 32.6907 3.86167 32.2537 3.96431C31.8167 4.06695 31.4083 4.2662 31.0584 4.54741C30.7085 4.82863 30.4261 5.18467 30.2319 5.58936C30.0376 5.99406 29.9366 6.43713 29.9361 6.88601V18.0476C29.926 18.1031 29.9349 18.1604 29.9613 18.2102C29.9878 18.26 30.0303 18.2994 30.082 18.3221C30.1337 18.3448 30.1915 18.3494 30.2461 18.3351C30.3007 18.3209 30.3489 18.2886 30.3829 18.2436Z" fill="black"/>
<path d="M35.5077 29.6012L20.5163 44.6291C20.4755 44.6645 20.4467 44.7117 20.434 44.7642C20.4212 44.8167 20.4252 44.8719 20.4452 44.922C20.4653 44.9721 20.5005 45.0148 20.5459 45.044C20.5913 45.0732 20.6447 45.0876 20.6986 45.0851H30.547C31.9797 45.0791 33.3519 44.5066 34.3641 43.4927C35.3763 42.4788 35.9464 41.1057 35.95 39.673V29.7836C35.9495 29.7326 35.9339 29.6828 35.9053 29.6406C35.8767 29.5984 35.8363 29.5655 35.7892 29.5461C35.742 29.5266 35.6902 29.5215 35.6402 29.5313C35.5901 29.5411 35.5441 29.5654 35.5077 29.6012Z" fill="black"/>
<path d="M15.7835 32.5283C15.8061 32.5522 15.8333 32.5712 15.8635 32.5842C15.8937 32.5972 15.9262 32.6039 15.959 32.6039C15.9919 32.6039 16.0244 32.5972 16.0546 32.5842C16.0848 32.5712 16.112 32.5522 16.1346 32.5283L18.8703 29.7926L18.9432 29.6148V6.38896C18.9462 5.99443 18.8713 5.60319 18.7226 5.23772C18.574 4.87224 18.3546 4.53972 18.0771 4.25926C17.7996 3.9788 17.4695 3.75592 17.1056 3.60341C16.7417 3.45091 16.3513 3.3718 15.9568 3.37061C15.5615 3.37059 15.1701 3.44883 14.8051 3.60079C14.4402 3.75275 14.1089 3.97545 13.8305 4.25603C13.552 4.53661 13.3318 4.86954 13.1827 5.23561C13.0335 5.60168 12.9582 5.99367 12.9612 6.38896V29.5966L13.0342 29.7744L15.7835 32.5283Z" fill="black"/>
<path d="M45.4473 15.1978L44.4579 14.2084C44.0608 13.811 43.5892 13.4957 43.0701 13.2806C42.551 13.0654 41.9946 12.9547 41.4328 12.9547C40.8709 12.9547 40.3145 13.0654 39.7954 13.2806C39.2763 13.4957 38.8047 13.811 38.4076 14.2084L16.1438 36.6136C16.0961 36.6598 16.0323 36.6857 15.9659 36.6857C15.8995 36.6857 15.8358 36.6598 15.7881 36.6136L7.10236 27.8868C6.30293 27.0877 5.21888 26.6388 4.08856 26.6388C2.95824 26.6388 1.87419 27.0877 1.07476 27.8868L0.0716843 28.8898C0.0257366 28.9367 0 28.9997 0 29.0654C0 29.131 0.0257366 29.194 0.0716843 29.2409L15.7881 44.9984C15.8111 45.0224 15.8387 45.0415 15.8693 45.0545C15.8998 45.0676 15.9327 45.0743 15.9659 45.0743C15.9992 45.0743 16.032 45.0676 16.0626 45.0545C16.0932 45.0415 16.1208 45.0224 16.1438 44.9984L45.4473 15.5535C45.4713 15.5305 45.4904 15.5029 45.5035 15.4723C45.5165 15.4417 45.5233 15.4089 45.5233 15.3756C45.5233 15.3424 45.5165 15.3095 45.5035 15.279C45.4904 15.2484 45.4713 15.2208 45.4473 15.1978Z" fill="#1E90FF"/>
<path d="M159.648 28.8078L169.939 16.78C169.961 16.7549 169.977 16.7256 169.988 16.6938C169.998 16.6621 170.002 16.6285 169.999 16.5953C169.996 16.562 169.986 16.5297 169.97 16.5003C169.955 16.4709 169.933 16.4451 169.907 16.4243L168.037 14.8878C167.597 14.5327 167.091 14.268 166.548 14.1086C166.006 13.9492 165.437 13.8983 164.875 13.9589C164.312 14.0194 163.767 14.1902 163.271 14.4615C162.775 14.7327 162.337 15.0992 161.982 15.5398L155.143 23.5371L148.304 15.5398C147.588 14.6512 146.548 14.0834 145.414 13.9611C144.279 13.8389 143.143 14.1722 142.254 14.8878L140.366 16.4198C140.34 16.4405 140.318 16.4664 140.302 16.4957C140.286 16.5251 140.277 16.5575 140.274 16.5907C140.271 16.624 140.275 16.6575 140.285 16.6893C140.295 16.721 140.312 16.7503 140.334 16.7754L150.625 28.8032L140.334 40.8311C140.312 40.8561 140.295 40.8854 140.285 40.9172C140.275 40.9489 140.271 40.9825 140.274 41.0157C140.277 41.049 140.286 41.0813 140.302 41.1107C140.318 41.1401 140.34 41.166 140.366 41.1867L142.235 42.7232C143.124 43.4396 144.262 43.7738 145.397 43.6524C146.532 43.531 147.573 42.9639 148.29 42.0758L155.13 34.074L161.969 42.0758C162.686 42.9639 163.727 43.531 164.862 43.6524C165.997 43.7738 167.135 43.4396 168.024 42.7232L169.893 41.1867C169.919 41.166 169.941 41.1401 169.957 41.1107C169.973 41.0813 169.982 41.049 169.985 41.0157C169.988 40.9825 169.985 40.9489 169.974 40.9172C169.964 40.8854 169.947 40.8561 169.925 40.8311L159.648 28.8078Z" fill="black"/>
<path d="M104.556 14.1036C104.183 14.0252 103.802 13.9885 103.421 13.9942C100.124 13.9942 97.5755 15.7404 95.7472 18.1797V14.9106C95.7472 14.8441 95.7208 14.7803 95.6737 14.7333C95.6267 14.6863 95.5629 14.6598 95.4964 14.6598H92.3869C91.2562 14.6598 90.1719 15.109 89.3724 15.9085C88.5729 16.7079 88.1238 17.7923 88.1238 18.9229V43.1199C88.1238 43.1864 88.1502 43.2502 88.1972 43.2972C88.2443 43.3443 88.308 43.3707 88.3746 43.3707H91.4841C92.6147 43.3707 93.6991 42.9215 94.4986 42.1221C95.298 41.3226 95.7472 40.2383 95.7472 39.1076V28.1649C95.7472 23.7058 98.7929 20.7376 102.454 20.7376C102.843 20.7397 103.231 20.7671 103.617 20.8196C104.834 21.0157 105.555 20.5734 105.664 19.3789L105.915 16.1872C106.001 15.1295 105.582 14.2996 104.556 14.1036Z" fill="black"/>
<path d="M136.5 14.3453H134.079C133.519 14.3447 132.964 14.4545 132.446 14.6686C131.929 14.8826 131.459 15.1966 131.063 15.5926C130.667 15.9886 130.353 16.4587 130.139 16.9762C129.925 17.4937 129.815 18.0484 129.815 18.6084V30.121C129.815 33.8916 126.938 36.9602 123.405 36.9602C119.871 36.9602 116.994 33.8916 116.994 30.121V18.6084C116.995 18.0484 116.885 17.4937 116.671 16.9762C116.457 16.4587 116.143 15.9886 115.747 15.5926C115.351 15.1966 114.881 14.8826 114.363 14.6686C113.846 14.4545 113.291 14.3447 112.731 14.3453H110.31C110.244 14.3453 110.18 14.3717 110.133 14.4187C110.086 14.4658 110.059 14.5295 110.059 14.596V30.121C110.059 37.717 116.046 43.8951 123.405 43.8951C130.764 43.8951 136.75 37.717 136.75 30.121V14.596C136.75 14.5295 136.724 14.4658 136.677 14.4187C136.63 14.3717 136.566 14.3453 136.5 14.3453Z" fill="black"/>
<path d="M79.4016 14.7647H76.3787C76.3456 14.7641 76.3127 14.7701 76.282 14.7825C76.2513 14.7949 76.2234 14.8134 76.2 14.8368C76.1766 14.8602 76.1581 14.8881 76.1457 14.9188C76.1334 14.9495 76.1273 14.9824 76.1279 15.0155V18.2071C74.921 16.8747 73.4408 15.8183 71.7884 15.1102C70.136 14.402 68.3503 14.0586 66.5531 14.1036C58.5421 14.1036 52.6969 20.7285 52.6969 29.1224C52.6969 37.5164 58.5558 44.1412 66.5668 44.1412C68.3639 44.1859 70.1496 43.8424 71.8019 43.1342C73.4543 42.4261 74.9345 41.3699 76.1416 40.0377V43.2294C76.1416 43.2959 76.168 43.3596 76.215 43.4067C76.2621 43.4537 76.3259 43.4801 76.3924 43.4801H79.4153C80.5436 43.4765 81.6244 43.0258 82.4209 42.2267C83.2174 41.4276 83.6647 40.3453 83.6647 39.217V19.0278C83.6647 17.8971 83.2155 16.8128 82.4161 16.0133C81.6166 15.2138 80.5322 14.7647 79.4016 14.7647ZM67.8297 37.8492C63.1836 37.8492 59.5634 34.0512 59.5634 29.1133C59.5634 24.1754 63.1836 20.3819 67.8297 20.3819C72.4758 20.3819 76.1826 24.2073 76.1826 29.1133C76.1826 34.0193 72.494 37.8492 67.8297 37.8492Z" fill="black"/>
</svg>
