<svg width="138" height="36" viewBox="0 0 138 36" fill="none" xmlns="http://www.w3.org/2000/svg">
<path d="M62.7872 21.6158C62.2843 21.2243 61.4545 20.9869 61.027 21.6436C60.7907 22.0402 60.6649 22.4948 60.4613 22.9065C60.091 23.6641 59.6235 24.3698 59.0707 25.0054C55.5504 28.9987 49.5936 28.9836 45.7942 25.3894C48.5249 23.5809 51.2833 21.8532 54.0241 20.0599C56.7649 18.2666 59.5686 16.4834 62.322 14.6673C62.9154 14.2581 62.6967 13.5711 62.3748 13.0559C61.6615 11.7313 60.6809 10.5708 59.4957 9.64856C57.1693 7.78178 54.2139 6.89215 51.2489 7.16621C48.2839 7.44026 45.5396 8.85671 43.5915 11.1186C37.4058 18.3676 41.9998 29.4736 51.4518 30.2541C53.3373 30.3995 55.229 30.0671 56.9534 29.2873C58.6777 28.5075 60.1796 27.3053 61.3212 25.791C61.8568 25.0913 63.6673 22.3331 62.7872 21.6158ZM44.3986 23.5809C41.7408 19.4992 42.998 13.6898 47.0363 11.0024C51.2431 8.06741 57.0943 9.20149 59.9885 13.4398C59.8226 13.6393 45.0599 23.2374 44.3986 23.5809Z" fill="#71BF43"/>
<path d="M86.6549 20.7748C89.2297 20.7748 91.8046 20.7748 94.3794 20.7748C94.5986 20.7742 94.8106 20.6966 94.9787 20.5554C95.1468 20.4143 95.2604 20.2184 95.2997 20.0019C95.7674 16.3597 94.3065 12.6089 91.6235 10.1513C86.7655 5.53914 78.5682 6.39286 74.6255 11.7652C71.9148 15.2812 71.5854 20.4591 73.768 24.321C74.5511 25.762 75.6348 27.0161 76.9451 27.9974C78.2553 28.9788 79.7612 29.6641 81.3596 30.0066C82.958 30.3491 84.6112 30.3407 86.2061 29.9819C87.801 29.6231 89.2998 28.9225 90.6001 27.9279C90.7704 27.8258 90.9069 27.6754 90.9923 27.4956C91.0778 27.3159 91.1084 27.1147 91.0804 26.9175C90.9522 26.2684 90.3034 25.6193 89.6195 25.9274C89.4617 25.992 89.3129 26.0769 89.1769 26.18C87.9815 27.0869 86.5813 27.6828 85.1011 27.9146C83.6209 28.1464 82.1065 28.0069 80.693 27.5086C77.7762 26.4604 75.4125 23.8436 74.8166 20.7748H86.6549ZM74.6079 18.5016C74.5073 18.1858 74.7085 16.8547 74.9499 16.0061C75.4387 14.3191 76.4091 12.8131 77.741 11.6743C84.1203 6.07208 93.3032 11.3712 93.1423 18.494L74.6079 18.5016Z" fill="#71BF43"/>
<path d="M137.9 17.1755C137.518 13.5257 135.135 10.2826 131.984 8.50692C129.724 7.29412 127.13 6.86188 124.601 7.27685C118.986 8.03459 114.556 13.5358 114.961 19.2062C115.25 26.9175 122.904 32.0878 130.151 29.6656C134.788 28.0794 138.079 23.6744 137.999 18.7112C137.968 18.2009 137.958 17.6806 137.9 17.1755ZM135.074 22.2902C132.602 28.145 125.089 29.9838 120.337 25.6975C116.98 22.8585 116.17 17.7135 118.433 13.95C119.851 11.6288 122.177 9.92137 124.883 9.50208C130.495 8.49176 135.904 12.9549 135.723 18.7339C135.77 19.9528 135.548 21.1671 135.074 22.2902Z" fill="#71BF43"/>
<path d="M115.315 8.27453C115.506 7.48648 114.988 7.04952 114.274 6.91818C113.681 6.79189 113.304 7.292 113.092 7.78453C112.798 8.40335 112.514 9.02722 112.22 9.64352C111.717 10.6816 111.229 11.7147 110.731 12.7528C108.891 16.6072 107.05 20.4338 105.199 24.2881C102.557 18.8905 100.022 13.4449 97.3868 8.04216C97.2651 7.68932 97.0677 7.36768 96.8085 7.10004C96.2829 6.69086 95.2998 7.00911 95.0483 7.63803C95.001 7.79767 94.9873 7.96545 95.0081 8.1307C95.0289 8.29594 95.0837 8.45503 95.169 8.59784C98.0883 14.7962 101.045 20.9541 103.97 27.1499C103.221 28.7559 102.065 30.1356 100.617 31.1505C99.1693 32.1654 97.4811 32.7796 95.7222 32.9314C95.4933 32.9251 95.2702 33.0042 95.0961 33.1535C94.9219 33.3028 94.809 33.5116 94.7793 33.7397C94.641 34.4343 95.0307 35.2728 95.8354 35.1668C96.2628 35.1289 96.6903 35.0708 97.1152 34.995C98.7219 34.7057 100.253 34.0912 101.616 33.1891C103.153 32.182 104.434 30.8295 105.36 29.2387C105.692 28.63 105.974 27.9935 106.273 27.3671C109.275 20.9945 112.373 14.6648 115.315 8.27453Z" fill="#71BF43"/>
<path d="M68.3342 29.2564C68.3342 19.9783 68.3342 10.701 68.3342 1.42456C68.3192 0.803214 67.776 0.484963 67.1977 0.548108C67.0573 0.534232 66.9156 0.551576 66.7827 0.598909C66.6498 0.646242 66.5288 0.722401 66.4285 0.821976C66.3282 0.921552 66.2509 1.0421 66.2022 1.17506C66.1535 1.30801 66.1345 1.45011 66.1466 1.59126C66.1466 10.8896 66.1466 20.1862 66.1466 29.4812C66.1466 30.0899 66.4333 30.4258 66.994 30.4915C67.7509 30.6001 68.4549 30.3096 68.3342 29.2564Z" fill="#71BF43"/>
<path d="M14.5841 9.2066H4.85802L0 17.6579L4.85802 26.1093H14.5841L19.4321 17.6579L14.5841 9.2066ZM13.8474 24.8464H5.58472L1.45087 17.6579L5.58472 10.4695H13.8474L17.9812 17.6579L13.8474 24.8464Z" fill="#71BF43"/>
<path d="M20.7598 0L15.9043 8.45134L20.7598 16.9052H30.4784L35.3339 8.45134L30.4784 0H20.7598ZM29.7517 15.6423H21.4865L17.3501 8.45134L21.4865 1.2629H29.7517L33.883 8.45134L29.7517 15.6423Z" fill="#71BF43"/>
<path d="M20.7598 18.4561L15.9043 26.9074L20.7598 35.3612H30.4784L35.3339 26.9074L30.4784 18.4561H20.7598ZM29.7517 34.0983H21.4865L17.3501 26.9074L21.4865 19.719H29.7517L33.883 26.9074L29.7517 34.0983Z" fill="#71BF43"/>
<path d="M22.3565 21.2344L19.0952 26.9074L22.3565 32.5829H28.8817L32.143 26.9074L28.8817 21.2344H22.3565Z" fill="#71BF43"/>
</svg>
