<svg width="408" height="273" viewBox="0 0 408 273" fill="none" xmlns="http://www.w3.org/2000/svg">
<mask id="mask0_414_58" style="mask-type:alpha" maskUnits="userSpaceOnUse" x="0" y="0" width="408" height="273">
<rect width="408" height="273" rx="30" fill="#C4C4C4"/>
</mask>
<g mask="url(#mask0_414_58)">
<path d="M394.761 133.721L346.705 133.721L346.705 302.625L416.446 302.625L417.644 302.625L417.644 133.721L394.761 133.721Z" fill="#FCD757"/>
<path d="M417.644 230.16L417.644 228.416C416.772 209.674 401.19 194.745 382.229 194.745C379.178 194.745 376.236 195.18 373.402 195.834C376.236 195.072 379.178 194.745 382.229 194.745C401.19 194.745 416.663 209.674 417.644 228.416L417.535 -29.8427L346.705 -29.8427L346.705 230.051C346.705 249.666 362.614 265.466 382.12 265.466C401.735 265.575 417.644 249.666 417.644 230.16ZM366.864 198.123C365.883 198.668 364.794 199.212 363.813 199.757C364.794 199.212 365.774 198.668 366.864 198.123Z" fill="#FF6847"/>
<path d="M205.262 302.625L205.262 -29.6248L63.4915 -29.6248L63.4915 302.625L205.262 302.625Z" fill="#EBECB9"/>
<path d="M63.6005 93.4023L63.6005 -29.6249L-9.62739 -29.6249L-10.4992 -29.6249L-82.5284 -29.6249L-82.5284 32.706L-82.5284 93.4023L-82.2015 92.7485L63.6005 93.4023Z" fill="#71BF43"/>
<path d="M28.0762 202.372C9.11544 202.372 -6.35831 217.301 -7.33903 236.044L-7.33903 2.73926C31.6723 2.73926 63.4915 34.5585 63.4915 73.5698L63.4915 237.788C63.6005 218.173 47.6908 202.372 28.0762 202.372Z" fill="#FCD757"/>
<path d="M134.431 70.4096L134.431 237.788C173.442 237.788 205.262 205.968 205.262 166.957L205.262 28.0203L134.431 28.0203L134.431 70.4096Z" fill="#71BF43"/>
<path d="M134.431 90.3513L134.431 -29.8427L205.262 -29.8427L205.262 90.3513C205.262 129.363 173.442 161.182 134.431 161.182L134.431 90.3513Z" fill="#1E90FF"/>
<path d="M134.431 90.3513L134.431 161.182C95.4197 161.182 63.6004 129.363 63.6004 90.3513L63.6004 -29.8427L134.431 -29.8427L134.431 90.3513Z" fill="#9A275A"/>
<path d="M205.093 -29.742L205.093 302.508L346.863 302.508L346.863 -29.742L205.093 -29.742Z" fill="#FCD757"/>
<path d="M275.874 202.481L275.874 34.9945C314.885 34.9945 346.705 66.8137 346.705 105.825L346.705 244.762L275.874 244.762L275.874 202.481Z" fill="#55AF82"/>
<path d="M275.874 182.431L275.874 302.625L346.705 302.625L346.705 182.431C346.705 143.42 314.886 111.6 275.874 111.6L275.874 182.431Z" fill="#ED4D4D"/>
<path d="M275.874 182.431L275.874 111.6C236.863 111.6 205.044 143.42 205.044 182.431L205.044 302.625L275.874 302.625L275.874 182.431Z" fill="#1E90FF"/>
<path d="M63.6005 237.788L-7.23012 237.788L-7.23011 73.5698L-7.23011 2.73926C-46.2414 2.73926 -78.0606 34.5585 -78.0606 73.5698L-78.0606 302.734L-7.23012 302.734L63.6005 302.734L63.6005 237.788Z" fill="#9A275A"/>
<path d="M-7.33884 237.788L-7.33884 236.044C-6.46708 217.301 9.11564 202.372 28.0764 202.372C47.691 202.372 63.4917 218.282 63.4917 237.788C63.4917 257.293 47.5821 273.203 28.0764 273.203C8.57079 273.203 -7.33884 257.402 -7.33884 237.788Z" fill="#1E90FF"/>
</g>
</svg>
