<svg width="663" height="361" viewBox="0 0 663 361" fill="none" xmlns="http://www.w3.org/2000/svg">
<mask id="mask0_411_341" style="mask-type:alpha" maskUnits="userSpaceOnUse" x="0" y="0" width="663" height="361">
<rect width="663" height="361" rx="30" fill="#C4C4C4"/>
</mask>
<g mask="url(#mask0_411_341)">
<path d="M505.423 226.995L505.07 226.288L505.07 292.642L505.07 361L582.856 361L583.917 361L663 361L663 226.288L505.423 226.995Z" fill="#55AF82"/>
<path d="M485.034 178.495L433.058 178.495L433.058 361.175L508.488 361.175L509.784 361.175L509.784 178.495L485.034 178.495Z" fill="#FCD757"/>
<path d="M624.696 108.43C604.189 108.43 587.453 92.2831 586.392 72.0115L586.392 324.346C628.468 324.346 663 289.931 663 247.738L663 70.1257C663 91.2224 645.911 108.43 624.696 108.43Z" fill="#1E90FF"/>
<path d="M586.392 247.738L586.392 70.1258L663 70.1258L663 0.589355L586.392 0.589351L509.784 0.589346L509.784 247.738C509.784 289.814 544.199 324.346 586.392 324.346L586.392 247.738Z" fill="#EBECB9"/>
<path d="M509.784 281.799L509.784 279.914C508.841 259.642 491.988 243.495 471.48 243.495C468.18 243.495 464.998 243.967 461.934 244.674C464.998 243.849 468.18 243.495 471.48 243.495C491.988 243.495 508.723 259.642 509.784 279.914L509.666 0.589355L433.058 0.589351L433.058 281.681C433.058 302.896 450.266 319.985 471.362 319.985C492.577 320.103 509.784 302.896 509.784 281.799ZM454.862 247.149C453.801 247.738 452.623 248.328 451.562 248.917C452.623 248.328 453.684 247.738 454.862 247.149Z" fill="#FF6847"/>
<path d="M586.392 70.1257L586.392 72.0115C587.335 92.2831 604.189 108.43 624.696 108.43C645.911 108.43 663 91.2224 663 70.1257C663 48.9112 645.911 31.8218 624.696 31.8218C603.482 31.8218 586.392 48.9112 586.392 70.1257Z" fill="#ED4D4D"/>
<path d="M280.078 361.175L280.078 1.82501L126.745 1.825L126.745 361.175L280.078 361.175Z" fill="#EBECB9"/>
<path d="M126.862 133.887L126.862 0.824951L47.6617 0.824946L46.7187 0.824946L-31.1856 0.824942L-31.1856 68.2399L-31.1856 133.887L-30.832 133.18L126.862 133.887Z" fill="#71BF43"/>
<path d="M88.4406 251.745C67.9333 251.745 51.1974 267.892 50.1367 288.164L50.1367 35.8289C92.3299 35.8289 126.745 70.2435 126.745 112.437L126.745 290.049C126.862 268.835 109.655 251.745 88.4406 251.745Z" fill="#FCD757"/>
<path d="M203.47 109.019L203.47 290.049C245.664 290.049 280.078 255.635 280.078 213.441L280.078 63.1721L203.47 63.1721L203.47 109.019Z" fill="#71BF43"/>
<path d="M203.47 130.587L203.47 0.589351L280.078 0.589355L280.078 130.587C280.078 172.78 245.664 207.195 203.47 207.195L203.47 130.587Z" fill="#1E90FF"/>
<path d="M203.47 130.587L203.47 207.195C161.277 207.195 126.862 172.78 126.862 130.587L126.862 0.589351L203.47 0.589355L203.47 130.587Z" fill="#9A275A"/>
<path d="M279.895 0.698334L279.895 360.048L433.229 360.048L433.229 0.698343L279.895 0.698334Z" fill="#FCD757"/>
<path d="M356.45 251.863L356.45 70.715C398.644 70.715 433.058 105.13 433.058 147.323L433.058 297.592L356.45 297.592L356.45 251.863Z" fill="#55AF82"/>
<path d="M356.451 231.177L356.451 361.175L433.058 361.175L433.058 231.177C433.058 188.984 398.644 154.569 356.451 154.569L356.451 231.177Z" fill="#ED4D4D"/>
<path d="M356.45 231.177L356.45 154.569C314.257 154.569 279.843 188.984 279.843 231.177L279.843 361.175L356.45 361.175L356.45 231.177Z" fill="#1E90FF"/>
<path d="M126.862 291.049L50.2545 291.049L50.2545 113.437L50.2545 36.8289C8.06122 36.8289 -26.3534 71.2435 -26.3534 113.437L-26.3534 361.293L50.2545 361.293L126.862 361.293L126.862 291.049Z" fill="#9A275A"/>
<path d="M50.1368 290.049L50.1368 288.164C51.0797 267.892 67.9335 251.745 88.4408 251.745C109.655 251.745 126.745 268.953 126.745 290.049C126.745 311.146 109.537 328.353 88.4408 328.353C67.3442 328.353 50.1368 311.264 50.1368 290.049Z" fill="#1E90FF"/>
</g>
</svg>
